<?xml version="1.0" standalone="no"?>
  <!DOCTYPE svg PUBLIC "-//W3C//DTD SVG 1.1//EN" "http://www.w3.org/Graphics/SVG/1.1/DTD/svg11.dtd" >
  <svg>
  <metadata>
  Created by font-carrier
  </metadata>
  <defs>
  <font id="Roboto-ThinItalic" horiz-adv-x="2342" vert-adv-y="2342" >
    <font-face
      
      font-family="Roboto Th"
      
      font-weight="400"
      
      font-stretch="normal"
      
      units-per-em="2048"
      
      ascent="1900"
      
      descent="-500"
      
    />
      <missing-glyph />

      

      
      <glyph glyph-name="uni21" unicode="&#x21;" d="M213 478L159 478L305 1456L359 1456L213 478M162 0L67 0L87 134L182 134L162 0Z"  horiz-adv-x="397" vert-adv-y="2048"  />

      
      <glyph glyph-name="uni22" unicode="&#x22;" d="M361 1289L274 1018L224 1018L306 1286L330 1456L385 1456L361 1289M542 1289L455 1018L405 1018L488 1286L512 1456L566 1456L542 1289Z"  horiz-adv-x="610" vert-adv-y="2048"  />

      
      <glyph glyph-name="uni23" unicode="&#x23;" d="M737 410L374 410L238 0L182 0L317 410L47 410L54 462L334 462L508 986L209 986L217 1040L526 1040L664 1456L720 1456L582 1040L947 1040L1085 1456L1141 1456L1002 1040L1257 1040L1249 986L984 986L810 462L1095 462L1088 410L793 410L657 0L601 0L737 410M391 462L755 462L929 986L564 986L391 462Z"  horiz-adv-x="1265" vert-adv-y="2048"  />

      
      <glyph glyph-name="uni24" unicode="&#x24;" d="M920 344Q939 479 872 551.50Q805 624 599 702Q395 773 310 858Q225 943 248 1110Q271 1276 388.50 1372.50Q506 1469 685 1476L712 1663L767 1663L740 1476Q913 1466 1002 1353.50Q1091 1241 1065 1047L1011 1047Q1034 1220 954.50 1322Q875 1424 703 1424Q537 1424 428.50 1331.50Q320 1239 303 1112Q284 977 346 902.50Q408 828 624 754Q824 681 910.50 596Q997 511 974 346Q950 179 834 84.50Q718-10 542-20L516-208L461-208L487-20Q304-14 189 88.50Q74 191 108 404L110 409L157 409Q128 202 235.50 117Q343 32 515 32Q672 32 787 125Q902 218 920 344Z"  horiz-adv-x="1121" vert-adv-y="2048"  />

      
      <glyph glyph-name="uni25" unicode="&#x25;" d="M210 1176Q229 1306 317.50 1391.50Q406 1477 528 1477Q642 1477 706.50 1388.50Q771 1300 753 1176L742 1099Q722 969 634.50 884.50Q547 800 428 800Q311 800 245.50 887.50Q180 975 199 1099L210 1176M254 1099Q238 996 284 925.50Q330 855 436 855Q534 855 603 928Q672 1001 687 1099L698 1176Q714 1279 668.50 1350.50Q623 1422 519 1422Q421 1422 350.50 1348Q280 1274 265 1176L254 1099M844 357Q862 487 950.50 572Q1039 657 1160 657Q1275 657 1340 569Q1405 481 1387 357L1375 279Q1355 148 1267.50 63.50Q1180-21 1060-21Q944-21 878.50 66.50Q813 154 832 279L844 357M887 279Q871 175 916.50 104.50Q962 34 1068 34Q1166 34 1235 107Q1304 180 1320 279L1332 357Q1348 467 1302.50 534.50Q1257 602 1151 602Q1052 602 983 531.50Q914 461 899 357L887 279M402 131L361 162L1243 1300L1283 1269L402 131Z"  horiz-adv-x="1527" vert-adv-y="2048"  />

      
      <glyph glyph-name="uni26" unicode="&#x26;" d="M463 803Q396 905 369.50 990.50Q343 1076 357 1167Q380 1322 472.50 1399.50Q565 1477 709 1477Q836 1477 899 1404.50Q962 1332 945 1215Q932 1128 886 1072Q840 1016 760 958L534 797L926 260Q993 337 1038 431Q1083 525 1099 632L1154 632Q1133 501 1084.50 401Q1036 301 958 215L1116 0L1049 0L919 177L905 164Q801 75 695 27Q589-21 466-21Q272-21 167 80.50Q62 182 88 352Q105 470 185 563.50Q265 657 405 762L463 803M474 33Q579 33 688 81.50Q797 130 888 219L517 725Q507 738 500.50 746.50Q494 755 488 764L430 723Q276 605 214.50 517.50Q153 430 142 352Q121 213 204.50 123Q288 33 474 33M412 1169Q399 1088 422 1005.50Q445 923 507 834L741 1000Q809 1050 844.50 1103.50Q880 1157 889 1215Q903 1313 855.50 1368Q808 1423 700 1423Q585 1423 506.50 1349.50Q428 1276 412 1169Z"  horiz-adv-x="1247" vert-adv-y="2048"  />

      
      <glyph glyph-name="uni27" unicode="&#x27;" d="M361 1287L274 1018L224 1018L306 1285L330 1456L385 1456L361 1287Z"  horiz-adv-x="406" vert-adv-y="2048"  />

      
      <glyph glyph-name="uni28" unicode="&#x28;" d="M155 586Q204 937 363.50 1224Q523 1511 710 1616L716 1616L727 1580Q560 1479 406.50 1192.50Q253 906 210 590L206 564Q159 235 232-44.50Q305-324 446-427L425-463L419-462Q262-358 182-72.50Q102 213 152 566L155 586Z"  horiz-adv-x="607" vert-adv-y="2048"  />

      
      <glyph glyph-name="uni29" unicode="&#x29;" d="M465 566Q413 199 256-78.50Q99-356-90-463L-96-463L-107-427Q59-326 212.50-39.50Q366 247 411 564L415 590Q460 919 387 1198.50Q314 1478 174 1580L195 1616L201 1615Q355 1512 435 1218Q515 924 468 586L465 566Z"  horiz-adv-x="623" vert-adv-y="2048"  />

      
      <glyph glyph-name="uni2a" unicode="&#x2a;" d="M420 715L130 799L156 853L444 760L486 1084L541 1082L494 757L801 862L813 809L499 712L649 455L597 422L455 684L237 419L197 451L420 715Z"  horiz-adv-x="856" vert-adv-y="2048"  />

      
      <glyph glyph-name="uni2b" unicode="&#x2b;" d="M615 702L1096 702L1088 649L607 649L532 146L477 146L552 649L90 649L98 702L560 702L636 1206L691 1206L615 702Z"  horiz-adv-x="1151" vert-adv-y="2048"  />

      
      <glyph glyph-name="uni2c" unicode="&#x2c;" d="M154-8L46-258L-5-258L99-12L125 159L179 159L154-8Z"  horiz-adv-x="383" vert-adv-y="2048"  />

      
      <glyph glyph-name="uni2d" unicode="&#x2d;" d="M699 599L109 599L117 653L707 653L699 599Z"  horiz-adv-x="807" vert-adv-y="2048"  />

      
      <glyph glyph-name="uni2e" unicode="&#x2e;" d="M179 0L93 0L113 130L199 130L179 0Z"  horiz-adv-x="439" vert-adv-y="2048"  />

      
      <glyph glyph-name="uni2f" unicode="&#x2f;" d="M2-125L-57-125L788 1456L847 1456L2-125Z"  horiz-adv-x="782" vert-adv-y="2048"  />

      
      <glyph glyph-name="uni30" unicode="&#x30;" d="M1001 514Q962 253 826.50 116Q691-21 479-21Q278-21 177 123Q76 267 114 514L178 942Q217 1201 353.50 1339Q490 1477 702 1477Q903 1477 1002.50 1333Q1102 1189 1065 942L1001 514M1011 942Q1045 1170 964 1296.50Q883 1423 693 1423Q512 1423 388 1291Q264 1159 232 942L168 516Q134 291 215.50 162Q297 33 487 33Q667 33 790.50 167Q914 301 947 516L1011 942Z"  horiz-adv-x="1121" vert-adv-y="2048"  />

      
      <glyph glyph-name="uni31" unicode="&#x31;" d="M536 0L482 0L696 1425L316 1347L323 1393L758 1477L536 0Z"  horiz-adv-x="1121" vert-adv-y="2048"  />

      
      <glyph glyph-name="uni32" unicode="&#x32;" d="M952 0L81 0L89 54L666 626Q821 780 889 883.50Q957 987 971 1086Q994 1253 925 1338Q856 1423 683 1423Q511 1423 394.50 1317Q278 1211 255 1046L210 1046L207 1052Q229 1236 361.50 1356.50Q494 1477 691 1477Q864 1477 958 1374Q1052 1271 1026 1086Q1008 960 915.50 839.50Q823 719 650 546L166 60L168 54L960 54L952 0Z"  horiz-adv-x="1121" vert-adv-y="2048"  />

      
      <glyph glyph-name="uni33" unicode="&#x33;" d="M453 771L564 771Q739 771 861.50 863Q984 955 1004 1086Q1026 1237 950.50 1330Q875 1423 697 1423Q541 1423 416.50 1327Q292 1231 269 1075L224 1075L222 1081Q245 1265 383.50 1371Q522 1477 706 1477Q887 1477 985.50 1369.50Q1084 1262 1057 1082Q1039 962 954 872Q869 782 739 743Q873 707 939 615Q1005 523 985 386Q955 188 820 83.50Q685-21 490-21Q311-21 183 89Q55 199 89 399L92 405L138 405Q112 237 214.50 135Q317 33 498 33Q671 33 788.50 126.50Q906 220 930 382Q956 559 855.50 637Q755 715 555 715L444 715L451 759L452 764L453 771Z"  horiz-adv-x="1121" vert-adv-y="2048"  />

      
      <glyph glyph-name="uni34" unicode="&#x34;" d="M819 451L1072 451L1064 397L811 397L752 0L698 0L757 397L52 397L56 427L905 1456L970 1456L819 451M148 456L151 451L765 451L904 1379L899 1381L802 1253L148 456Z"  horiz-adv-x="1121" vert-adv-y="2048"  />

      
      <glyph glyph-name="uni35" unicode="&#x35;" d="M216 662L413 1456L1103 1456L1095 1403L454 1403L301 785Q372 848 452 880Q532 912 677 916Q852 921 946.50 797Q1041 673 1010 464Q975 233 852 106Q729-21 507-21Q336-21 231 80.50Q126 182 160 378L162 383L210 383Q183 204 265.50 118.50Q348 33 515 33Q702 33 812 141.50Q922 250 954 462Q983 653 909 755.50Q835 858 670 858Q516 858 412.50 804Q309 750 255 646L216 662Z"  horiz-adv-x="1121" vert-adv-y="2048"  />

      
      <glyph glyph-name="uni36" unicode="&#x36;" d="M755 1477Q830 1477 906 1460Q982 1443 1039 1407L1010 1356Q951 1393 891.50 1408Q832 1423 746 1423Q586 1423 452.50 1295.50Q319 1168 288 961L244 666Q308 776 425.50 846.50Q543 917 682 917Q873 917 963.50 789Q1054 661 1021 440Q989 228 851 103.50Q713-21 521-21Q338-21 234.50 126Q131 273 167 512L234 960Q269 1197 416.50 1337Q564 1477 755 1477M221 516L221 513Q187 289 273 160.50Q359 32 529 32Q691 32 816 150.50Q941 269 967 440Q998 653 925 758Q852 863 666 863Q518 863 380.50 759.50Q243 656 222 516L221 516Z"  horiz-adv-x="1121" vert-adv-y="2048"  />

      
      <glyph glyph-name="uni37" unicode="&#x37;" d="M1147 1402Q891 1156 697.50 841Q504 526 446 131L426 0L372 0L392 131Q448 507 627 819Q806 1131 1082 1402L217 1402L225 1456L1155 1456L1147 1402Z"  horiz-adv-x="1121" vert-adv-y="2048"  />

      
      <glyph glyph-name="uni38" unicode="&#x38;" d="M1068 1096Q1049 968 962.50 878.50Q876 789 751 754Q879 714 951 616Q1023 518 1004 389Q974 190 830 84.50Q686-21 490-21Q292-21 169.50 88.50Q47 198 76 389Q96 527 198.50 624Q301 721 450 757Q333 795 268.50 885.50Q204 976 223 1096Q251 1285 386.50 1381Q522 1477 713 1477Q884 1477 989.50 1376.50Q1095 1276 1068 1096M949 384Q972 543 870.50 635.50Q769 728 600 728Q429 728 290.50 632Q152 536 130 384Q104 217 209.50 125Q315 33 498 33Q659 33 792 129Q925 225 949 384M1015 1101Q1037 1248 946 1335.50Q855 1423 704 1423Q546 1423 423 1336Q300 1249 278 1101Q255 950 350 866Q445 782 610 782Q754 782 874 870Q994 958 1015 1101Z"  horiz-adv-x="1121" vert-adv-y="2048"  />

      
      <glyph glyph-name="uni39" unicode="&#x39;" d="M457 33Q626 33 748 147.50Q870 262 900 458L942 745Q872 641 761.50 584.50Q651 528 522 528Q341 528 237.50 662.50Q134 797 163 988Q195 1202 337.50 1339.50Q480 1477 673 1477Q862 1477 968 1343Q1074 1209 1037 963L962 460Q926 227 788 103Q650-21 449-21Q380-21 308-4.50Q236 12 165 42L189 92Q250 60 311.50 46.50Q373 33 457 33M530 581Q673 581 787 662.50Q901 744 959 858L975 962Q1010 1192 923.50 1307.50Q837 1423 668 1423Q507 1423 379 1292.50Q251 1162 225 988Q198 813 279.50 697Q361 581 530 581Z"  horiz-adv-x="1121" vert-adv-y="2048"  />

      
      <glyph glyph-name="uni3a" unicode="&#x3a;" d="M152 0L66 0L86 130L172 130L152 0M293 949L207 949L227 1079L313 1079L293 949Z"  horiz-adv-x="364" vert-adv-y="2048"  />

      
      <glyph glyph-name="uni3b" unicode="&#x3b;" d="M301 952L215 952L235 1082L321 1082L301 952M155-8L47-258L-4-258L100-12L126 159L180 159L155-8Z"  horiz-adv-x="364" vert-adv-y="2048"  />

      
      <glyph glyph-name="uni3c" unicode="&#x3c;" d="M265 577L140 540L140 534L253 498L868 195L859 136L79 515L80 523L85 552L87 565L980 943L972 885L265 577Z"  horiz-adv-x="1053" vert-adv-y="2048"  />

      
      <glyph glyph-name="uni3d" unicode="&#x3d;" d="M1027 843L193 843L202 897L1036 897L1027 843M966 436L132 436L141 490L975 490L966 436Z"  horiz-adv-x="1142" vert-adv-y="2048"  />

      
      <glyph glyph-name="uni3e" unicode="&#x3e;" d="M167 886L176 944L955 566L953 557L954 557L949 528L947 516L55 137L63 196L769 503L894 539L894 545L781 582L167 886Z"  horiz-adv-x="1053" vert-adv-y="2048"  />

      
      <glyph glyph-name="uni3f" unicode="&#x3f;" d="M375 400Q393 516 420 565Q447 614 544 692Q682 808 747 889.50Q812 971 834 1112Q856 1264 791.50 1344Q727 1424 582 1424Q446 1424 351.50 1338.50Q257 1253 234 1116L188 1116L186 1122Q210 1292 322.50 1384.50Q435 1477 590 1477Q748 1477 830 1375Q912 1273 888 1110Q866 963 790.50 865.50Q715 768 566 650Q489 597 466 548.50Q443 500 429 400L375 400M393 0L311 0L327 106L409 106L393 0Z"  horiz-adv-x="893" vert-adv-y="2048"  />

      
      <glyph glyph-name="uni40" unicode="&#x40;" d="M1765 523Q1723 304 1594.50 141.50Q1466-21 1274-21Q1194-21 1150.50 40.50Q1107 102 1113 210Q1040 95 947.50 37Q855-21 746-21Q615-21 563.50 99Q512 219 560 416Q620 666 764 817Q908 968 1080 968Q1160 968 1210 940Q1260 912 1314 858L1180 293Q1146 141 1185.50 87.50Q1225 34 1285 34Q1437 34 1550.50 170Q1664 306 1708 523Q1788 919 1646.50 1136.50Q1505 1354 1120 1354Q796 1354 525.50 1112.50Q255 871 176 478Q98 96 255.50-151Q413-398 770-398Q854-398 949.50-375.50Q1045-353 1112-318L1129-364Q1062-404 956-428.50Q850-453 758-453Q392-453 215.50-201Q39 51 121 478Q203 905 478.50 1158Q754 1411 1133 1411Q1519 1411 1681.50 1174Q1844 937 1765 523M614 416Q570 249 604.50 141Q639 33 752 33Q856 33 954.50 99.50Q1053 166 1137 343L1253 831Q1224 870 1178.50 891.50Q1133 913 1069 913Q933 913 804.50 785.50Q676 658 614 416Z"  horiz-adv-x="1902" vert-adv-y="2048"  />

      
      <glyph glyph-name="uni41" unicode="&#x41;" d="M952 435L241 435L13 0L-46 0L716 1456L782 1456L1109 0L1050 0L952 435M269 489L940 489L758 1304L743 1388L737 1389L697 1304L269 489Z"  horiz-adv-x="1223" vert-adv-y="2048"  />

      
      <glyph glyph-name="uni42" unicode="&#x42;" d="M120 0L338 1456L721 1456Q939 1456 1054 1362Q1169 1268 1141 1083Q1122 957 1050.50 872.50Q979 788 865 760L863 754Q990 737 1062.50 635.50Q1135 534 1115 401Q1085 203 948 101.50Q811 0 605 0L120 0M281 719L182 54L613 54Q790 54 913 146Q1036 238 1061 399Q1082 545 994 629.50Q906 714 731 719L713 719L281 719M289 773L657 773Q841 776 952.50 854.50Q1064 933 1087 1087Q1111 1249 1017 1325.50Q923 1402 713 1402L384 1402L289 773Z"  horiz-adv-x="1230" vert-adv-y="2048"  />

      
      <glyph glyph-name="uni43" unicode="&#x43;" d="M1158 446L1160 440Q1129 207 974.50 93Q820-21 588-21Q358-21 236 157Q114 335 157 619L190 837Q233 1134 402 1305.50Q571 1477 813 1477Q1032 1477 1157.50 1357Q1283 1237 1247 1018L1244 1012L1198 1012Q1228 1216 1122.50 1319.50Q1017 1423 804 1423Q599 1423 441 1261Q283 1099 244 839L211 619Q169 344 274.50 188.50Q380 33 596 33Q799 33 940.50 137Q1082 241 1113 446L1158 446Z"  horiz-adv-x="1327" vert-adv-y="2048"  />

      
      <glyph glyph-name="uni44" unicode="&#x44;" d="M120 0L338 1456L771 1456Q1013 1456 1165 1274.50Q1317 1093 1277 817L1250 639Q1206 348 1006.50 174Q807 0 553 0L120 0M384 1402L182 54L561 54Q779 54 968.50 221.50Q1158 389 1196 639L1223 820Q1261 1080 1127 1241Q993 1402 763 1402L384 1402Z"  horiz-adv-x="1370" vert-adv-y="2048"  />

      
      <glyph glyph-name="uni45" unicode="&#x45;" d="M984 732L283 732L182 54L984 54L976 0L120 0L338 1456L1194 1456L1186 1402L384 1402L291 786L992 786L984 732Z"  horiz-adv-x="1129" vert-adv-y="2048"  />

      
      <glyph glyph-name="uni46" unicode="&#x46;" d="M997 716L281 716L174 0L120 0L338 1456L1210 1456L1202 1402L384 1402L289 772L1006 772L997 716Z"  horiz-adv-x="1127" vert-adv-y="2048"  />

      
      <glyph glyph-name="uni47" unicode="&#x47;" d="M1175 196Q1117 118 976.50 48.50Q836-21 646-21Q406-21 272 158.50Q138 338 181 620L217 858Q259 1143 434 1310Q609 1477 854 1477Q1078 1477 1202.50 1355.50Q1327 1234 1294 1049L1292 1043L1246 1043Q1272 1216 1169 1319.50Q1066 1423 845 1423Q632 1423 469.50 1264Q307 1105 271 860L235 620Q194 350 308 191.50Q422 33 654 33Q821 33 948 90.50Q1075 148 1125 221L1187 635L742 635L751 690L1250 690L1175 196Z"  horiz-adv-x="1429" vert-adv-y="2048"  />

      
      <glyph glyph-name="uni48" unicode="&#x48;" d="M1158 0L1104 0L1208 695L278 695L174 0L120 0L338 1456L392 1456L286 749L1216 749L1322 1456L1376 1456L1158 0Z"  horiz-adv-x="1438" vert-adv-y="2048"  />

      
      <glyph glyph-name="uni49" unicode="&#x49;" d="M214 0L160 0L378 1456L432 1456L214 0Z"  horiz-adv-x="534" vert-adv-y="2048"  />

      
      <glyph glyph-name="uni4a" unicode="&#x4a;" d="M1011 1456L1065 1456L910 422Q878 211 748 95Q618-21 436-21Q243-21 140 86.50Q37 194 72 396L74 401L121 401Q91 205 173 119Q255 33 444 33Q592 33 710.50 139Q829 245 856 422L1011 1456Z"  horiz-adv-x="1122" vert-adv-y="2048"  />

      
      <glyph glyph-name="uni4b" unicode="&#x4b;" d="M473 721L263 721L155 0L101 0L319 1456L373 1456L271 774L483 774L1165 1456L1233 1456L1235 1450L527 740L1058 0L990 0L473 721Z"  horiz-adv-x="1174" vert-adv-y="2048"  />

      
      <glyph glyph-name="uni4c" unicode="&#x4c;" d="M183 54L970 54L962 0L120 0L338 1456L393 1456L183 54Z"  horiz-adv-x="1130" vert-adv-y="2048"  />

      
      <glyph glyph-name="uni4d" unicode="&#x4d;" d="M814 86L820 85L1633 1456L1694 1456L1476 0L1422 0L1620 1322L1614 1324L826 0L783 0L382 1353L376 1352L174 0L120 0L338 1456L413 1456L814 86Z"  horiz-adv-x="1756" vert-adv-y="2048"  />

      
      <glyph glyph-name="uni4e" unicode="&#x4e;" d="M1169 0L1115 0L384 1356L378 1355L175 0L120 0L338 1456L393 1456L1124 102L1130 103L1333 1456L1387 1456L1169 0Z"  horiz-adv-x="1449" vert-adv-y="2048"  />

      
      <glyph glyph-name="uni4f" unicode="&#x4f;" d="M1244 619Q1198 313 1028.50 146Q859-21 600-21Q353-21 227.50 153.50Q102 328 146 619L179 837Q224 1142 393.50 1309.50Q563 1477 823 1477Q1070 1477 1195 1302.50Q1320 1128 1277 837L1244 619M1223 839Q1264 1118 1159.50 1270.50Q1055 1423 814 1423Q586 1423 430 1263.50Q274 1104 234 839L201 619Q158 338 263 185.50Q368 33 608 33Q837 33 993 192.50Q1149 352 1190 619L1223 839Z"  horiz-adv-x="1364" vert-adv-y="2048"  />

      
      <glyph glyph-name="uni50" unicode="&#x50;" d="M267 625L174 0L120 0L338 1456L793 1456Q1011 1456 1120 1341Q1229 1226 1201 1041Q1172 844 1035 734.50Q898 625 669 625L267 625M275 679L677 679Q875 679 999.50 783Q1124 887 1147 1039Q1171 1202 1083 1302Q995 1402 785 1402L384 1402L275 679Z"  horiz-adv-x="1230" vert-adv-y="2048"  />

      
      <glyph glyph-name="uni51" unicode="&#x51;" d="M1244 619Q1220 463 1163.50 341.50Q1107 220 1021 138L1228-98L1184-133L976 100Q899 40 804 9.50Q709-21 600-21Q353-21 227.50 153.50Q102 328 146 619L179 837Q224 1142 393.50 1309.50Q563 1477 823 1477Q1070 1477 1195 1302.50Q1320 1128 1277 837L1244 619M1223 839Q1264 1118 1159.50 1270.50Q1055 1423 814 1423Q586 1423 430 1263.50Q274 1104 234 839L201 619Q158 338 263 185.50Q368 33 608 33Q837 33 993 192.50Q1149 352 1190 619L1223 839Z"  horiz-adv-x="1364" vert-adv-y="2048"  />

      
      <glyph glyph-name="uni52" unicode="&#x52;" d="M271 683L169-1L115-1L333 1455L807 1455Q1029 1455 1141.50 1354.50Q1254 1254 1227 1065Q1207 937 1114 838Q1021 739 878 711Q1026 683 1084 594Q1142 505 1123 371L1102 234Q1091 164 1100 111.50Q1109 59 1142 24L1138-1L1085-1Q1055 40 1045.50 100.50Q1036 161 1048 236L1068 369Q1091 523 1002.50 603Q914 683 724 683L271 683M279 737L690 737Q904 737 1028 832.50Q1152 928 1173 1065Q1198 1235 1105.50 1318Q1013 1401 799 1401L379 1401L279 737Z"  horiz-adv-x="1364" vert-adv-y="2048"  />

      
      <glyph glyph-name="uni53" unicode="&#x53;" d="M1055 303Q1077 451 993 533Q909 615 666 704Q429 788 324.50 879.50Q220 971 248 1151Q270 1302 402 1389.50Q534 1477 718 1477Q927 1477 1047 1363Q1167 1249 1133 1053L1130 1047L1084 1047Q1109 1216 1006 1319.50Q903 1423 709 1423Q550 1423 434 1341.50Q318 1260 302 1153Q280 1008 359.50 923.50Q439 839 683 754Q914 674 1024.50 574.50Q1135 475 1110 305Q1086 150 944.50 64.50Q803-21 601-21Q399-21 259 82.50Q119 186 156 403L158 409L204 409Q173 204 298 118.50Q423 33 609 33Q777 33 907.50 114Q1038 195 1055 303Z"  horiz-adv-x="1224" vert-adv-y="2048"  />

      
      <glyph glyph-name="uni54" unicode="&#x54;" d="M1297 1402L787 1402L577 0L523 0L733 1402L187 1402L195 1456L1305 1456L1297 1402Z"  horiz-adv-x="1224" vert-adv-y="2048"  />

      
      <glyph glyph-name="uni55" unicode="&#x55;" d="M1318 1456L1173 489Q1136 240 979 109.50Q822-21 600-21Q388-21 265 115.50Q142 252 178 489L323 1456L377 1456L232 489Q199 274 305.50 153.50Q412 33 608 33Q793 33 940.50 158.50Q1088 284 1119 489L1264 1456L1318 1456Z"  horiz-adv-x="1365" vert-adv-y="2048"  />

      
      <glyph glyph-name="uni56" unicode="&#x56;" d="M524 142L538 64L544 63L582 142L1268 1456L1327 1456L565 0L499 0L173 1456L232 1456L524 142Z"  horiz-adv-x="1223" vert-adv-y="2048"  />

      
      <glyph glyph-name="uni57" unicode="&#x57;" d="M394 340L422 105L428 104L526 340L1037 1456L1097 1456L1272 340L1299 105L1305 104L1405 340L1872 1456L1931 1456L1321 0L1260 0L1081 1214L1055 1358L1049 1359L981 1214L435 0L374 0L199 1456L259 1456L394 340Z"  horiz-adv-x="1855" vert-adv-y="2048"  />

      
      <glyph glyph-name="uni58" unicode="&#x58;" d="M648 785L1219 1456L1279 1456L1281 1451L676 743L1089 0L1022 0L635 701L39 0L-20 0L-22 5L608 743L211 1456L279 1456L648 785Z"  horiz-adv-x="1223" vert-adv-y="2048"  />

      
      <glyph glyph-name="uni59" unicode="&#x59;" d="M600 647L619 597L653 647L1257 1456L1323 1456L641 554L558 0L503 0L586 553L174 1456L240 1456L600 647Z"  horiz-adv-x="1223" vert-adv-y="2048"  />

      
      <glyph glyph-name="uni5a" unicode="&#x5a;" d="M84 54L981 54L973 0L7 0L9 44L1013 1403L195 1403L203 1456L1097 1456L1092 1418L84 54Z"  horiz-adv-x="1101" vert-adv-y="2048"  />

      
      <glyph glyph-name="uni5b" unicode="&#x5b;" d="M614 1610L385 1610L124-258L353-258L345-312L62-312L339 1664L622 1664L614 1610Z"  horiz-adv-x="439" vert-adv-y="2048"  />

      
      <glyph glyph-name="uni5c" unicode="&#x5c;" d="M195 1456L253 1456L624-125L566-125L195 1456Z"  horiz-adv-x="774" vert-adv-y="2048"  />

      
      <glyph glyph-name="uni5d" unicode="&#x5d;" d="M150 1664L433 1664L156-312L-127-312L-119-258L109-258L370 1610L142 1610L150 1664Z"  horiz-adv-x="439" vert-adv-y="2048"  />

      
      <glyph glyph-name="uni5e" unicode="&#x5e;" d="M179 729L120 729L528 1456L580 1456L770 729L709 729L569 1272L546 1385L540 1386L480 1272L179 729Z"  horiz-adv-x="849" vert-adv-y="2048"  />

      
      <glyph glyph-name="uni5f" unicode="&#x5f;" d="M757-54L-89-54L-81 0L765 0L757-54Z"  horiz-adv-x="845" vert-adv-y="2048"  />

      
      <glyph glyph-name="uni60" unicode="&#x60;" d="M519 1252L437 1252L236 1518L332 1518L519 1252Z"  horiz-adv-x="537" vert-adv-y="2048"  />

      
      <glyph glyph-name="uni61" unicode="&#x61;" d="M800 199Q730 101 610 40Q490-21 332-21Q187-21 110.50 62.50Q34 146 55 284Q75 425 216.50 514.50Q358 604 553 604L861 604L885 762Q906 902 831.50 975Q757 1048 598 1048Q457 1048 354 976.50Q251 905 234 794L189 796L188 801Q202 931 317.50 1016.50Q433 1102 606 1102Q774 1102 868.50 1013Q963 924 939 760L858 218Q849 159 847 106Q845 53 853 0L793 0Q791 84 791.50 113Q792 142 798 183L800 199M340 32Q495 32 619.50 103.50Q744 175 816 305L853 549L547 549Q385 549 254.50 471Q124 393 108 280Q91 167 154 99.50Q217 32 340 32Z"  horiz-adv-x="1081" vert-adv-y="2048"  />

      
      <glyph glyph-name="uni62" unicode="&#x62;" d="M997 521Q958 262 830 120.50Q702-21 510-21Q388-21 300 31Q212 83 170 170L137 0L92 0L136 297L136 304L202 745L204 752L326 1560L380 1560L280 893Q349 990 449.50 1046Q550 1102 676 1102Q859 1102 948.50 949Q1038 796 1000 542L997 521M944 542Q978 775 910 911.50Q842 1048 669 1048Q522 1048 421.50 970Q321 892 263 780L186 262Q212 157 295.50 95Q379 33 519 33Q683 33 795.50 166.50Q908 300 941 521L944 542Z"  horiz-adv-x="1121" vert-adv-y="2048"  />

      
      <glyph glyph-name="uni63" unicode="&#x63;" d="M464 33Q597 33 715 108Q833 183 856 333L901 333L903 327Q882 161 749.50 70Q617-21 456-21Q257-21 157.50 129.50Q58 280 95 520L101 562Q138 813 276 957.50Q414 1102 622 1102Q785 1102 889.50 1002.50Q994 903 963 725L961 720L914 720Q938 885 849.50 966.50Q761 1048 614 1048Q431 1048 309 910Q187 772 155 562L149 520Q115 296 192.50 164.50Q270 33 464 33Z"  horiz-adv-x="1039" vert-adv-y="2048"  />

      
      <glyph glyph-name="uni64" unicode="&#x64;" d="M123 542Q163 809 292 955.50Q421 1102 615 1102Q736 1102 821.50 1044Q907 986 949 887L1050 1560L1104 1560L982 750Q982 748 982.50 746.50Q983 745 983 745L917 304L914 297L870 0L818 0L842 167Q774 81 672.50 30Q571-21 445-21Q262-21 172.50 126.50Q83 274 120 521L123 542M176 521Q141 289 209.50 161Q278 33 452 33Q588 33 693.50 98Q799 163 857 269L933 776Q911 891 836 969.50Q761 1048 606 1048Q441 1048 326.50 906Q212 764 179 542L176 521Z"  horiz-adv-x="1121" vert-adv-y="2048"  />

      
      <glyph glyph-name="uni65" unicode="&#x65;" d="M468-21Q285-21 171.50 128.50Q58 278 92 500L102 564Q138 808 289.50 955Q441 1102 641 1102Q815 1102 907 982Q999 862 969 660L957 577L158 577Q158 574 157 569.50Q156 565 156 564L146 500Q115 295 206.50 164Q298 33 476 33Q569 33 666.50 69Q764 105 828 165L850 123Q785 60 688.50 19.50Q592-21 468-21M633 1048Q472 1048 344.50 930Q217 812 175 637L177 631L911 631L916 664Q941 838 867 943Q793 1048 633 1048Z"  horiz-adv-x="1039" vert-adv-y="2048"  />

      
      <glyph glyph-name="uni66" unicode="&#x66;" d="M174 0L328 1027L140 1027L148 1082L336 1082L363 1260Q387 1419 473 1500Q559 1581 694 1581Q726 1581 759 1577Q792 1573 820 1564L804 1512Q773 1520 749 1523.50Q725 1527 687 1527Q583 1527 509 1455.50Q435 1384 417 1260L390 1082L676 1082L668 1027L382 1027L228 0L174 0Z"  horiz-adv-x="645" vert-adv-y="2048"  />

      
      <glyph glyph-name="uni67" unicode="&#x67;" d="M123 542Q163 809 292 955.50Q421 1102 615 1102Q736 1102 821.50 1044Q907 986 949 886L986 1082L1032 1082L982 750Q982 749 982.50 747.50Q983 746 983 745L917 304L914 296L869-6Q836-220 713-328.50Q590-437 395-437Q319-437 234.50-420.50Q150-404 91-375L115-321Q184-353 249-368.50Q314-384 401-384Q569-384 678-285Q787-186 814-6L839 165Q771 80 670 29.50Q569-21 445-21Q262-21 172.50 126.50Q83 274 120 521L123 542M175 521Q140 289 209 161Q278 33 452 33Q586 33 691 96.50Q796 160 854 265L932 779Q910 893 835 970.50Q760 1048 606 1048Q441 1048 326 906Q211 764 178 542L175 521Z"  horiz-adv-x="1121" vert-adv-y="2048"  />

      
      <glyph glyph-name="uni68" unicode="&#x68;" d="M275 863Q343 979 448.50 1040.50Q554 1102 695 1102Q858 1102 932.50 993.50Q1007 885 973 658L874 0L819 0L918 660Q951 882 886.50 965Q822 1048 688 1048Q522 1048 410.50 944Q299 840 248 681L146 0L92 0L175 554L173 554Q175 570 178 586.50Q181 603 185 619L326 1560L380 1560L275 863Z"  horiz-adv-x="1121" vert-adv-y="2048"  />

      
      <glyph glyph-name="uni69" unicode="&#x69;" d="M159 0L105 0L267 1082L321 1082L159 0M372 1422L318 1422L339 1560L393 1560L372 1422Z"  horiz-adv-x="422" vert-adv-y="2048"  />

      
      <glyph glyph-name="uni6a" unicode="&#x6a;" d="M322 1082L147-89Q120-262 33-349.50Q-54-437-191-437Q-219-437-245-432Q-271-427-300-417L-279-365Q-261-371-234-377Q-207-383-182-383Q-75-383-1.50-305Q72-227 93-89L268 1082L322 1082M368 1426L314 1426L334 1560L388 1560L368 1426Z"  horiz-adv-x="445" vert-adv-y="2048"  />

      
      <glyph glyph-name="uni6b" unicode="&#x6b;" d="M377 553L229 553L146 0L92 0L326 1560L380 1560L237 607L364 607L927 1082L989 1082L991 1076L422 589L873 0L803 0L377 553Z"  horiz-adv-x="969" vert-adv-y="2048"  />

      
      <glyph glyph-name="uni6c" unicode="&#x6c;" d="M159 0L105 0L339 1560L393 1560L159 0Z"  horiz-adv-x="422" vert-adv-y="2048"  />

      
      <glyph glyph-name="uni6d" unicode="&#x6d;" d="M268 871Q334 983 433.50 1042.50Q533 1102 665 1102Q797 1102 875 1032.50Q953 963 967 819Q1031 956 1138.50 1029.50Q1246 1103 1393 1103Q1566 1103 1644 984.50Q1722 866 1686 618L1593 1L1538 1L1631 620Q1667 865 1598.50 957Q1530 1049 1387 1049Q1226 1049 1121.50 948Q1017 847 967 690Q965 672 963 653Q961 634 958 615L866 0L811 0L894 554L891 554Q894 575 897.50 595Q901 615 906 635Q937 872 869 960Q801 1048 659 1048Q499 1048 396 949.50Q293 851 243 697L138 0L83 0L166 554L164 554Q166 569 168.50 584.50Q171 600 175 619L245 1082L292 1082L268 871Z"  horiz-adv-x="1836" vert-adv-y="2048"  />

      
      <glyph glyph-name="uni6e" unicode="&#x6e;" d="M276 871Q342 983 444.50 1042.50Q547 1102 685 1102Q855 1102 930 989Q1005 876 970 637L874 0L820 0L916 639Q951 873 885.50 960.50Q820 1048 678 1048Q514 1048 407 946Q300 844 249 687L146 0L92 0L175 554L172 554Q175 574 178.50 594Q182 614 187 633L254 1082L300 1082L276 871Z"  horiz-adv-x="1121" vert-adv-y="2048"  />

      
      <glyph glyph-name="uni6f" unicode="&#x6f;" d="M91 562Q128 809 280 955.50Q432 1102 645 1102Q848 1102 960.50 949.50Q1073 797 1038 562L1032 520Q994 272 842.50 125.50Q691-21 479-21Q276-21 162.50 131.50Q49 284 85 520L91 562M139 520Q107 309 199.50 171Q292 33 487 33Q669 33 808 176Q947 319 978 520L984 562Q1015 768 922 908Q829 1048 637 1048Q454 1048 314 903Q174 758 145 562L139 520Z"  horiz-adv-x="1121" vert-adv-y="2048"  />

      
      <glyph glyph-name="uni70" unicode="&#x70;" d="M997 521Q958 262 830 120.50Q702-21 510-21Q388-21 301 30.50Q214 82 171 168L84-416L30-416L136 297L136 305L202 745L204 751L254 1082L296 1082L278 890Q347 989 448 1045.50Q549 1102 676 1102Q859 1102 948.50 949Q1038 796 1000 542L997 521M945 542Q979 775 910.50 911.50Q842 1048 669 1048Q521 1048 420.50 970Q320 892 263 779L186 264Q211 158 294.50 95.50Q378 33 519 33Q683 33 796 166.50Q909 300 942 521L945 542Z"  horiz-adv-x="1121" vert-adv-y="2048"  />

      
      <glyph glyph-name="uni71" unicode="&#x71;" d="M123 542Q163 809 292 955.50Q421 1102 615 1102Q736 1102 821.50 1044.50Q907 987 949 888L983 1082L1032 1082L982 751Q982 750 982.50 748Q983 746 983 745L917 304L914 297L808-416L754-416L841 166Q773 80 671.50 29.50Q570-21 445-21Q262-21 172.50 126.50Q83 274 120 521L123 542M176 521Q141 289 209.50 161Q278 33 452 33Q587 33 692 97.50Q797 162 856 268L932 778Q910 892 835 970Q760 1048 606 1048Q441 1048 326.50 906Q212 764 179 542L176 521Z"  horiz-adv-x="1121" vert-adv-y="2048"  />

      
      <glyph glyph-name="uni72" unicode="&#x72;" d="M725 1043L656 1049Q516 1049 409 952.50Q302 856 251 702L146 0L92 0L254 1082L298 1082L280 894L276 870L281 867Q339 979 436 1040.50Q533 1102 664 1102Q686 1102 706 1098.50Q726 1095 739 1091L725 1043Z"  horiz-adv-x="685" vert-adv-y="2048"  />

      
      <glyph glyph-name="uni73" unicode="&#x73;" d="M797 265Q809 353 746 422Q683 491 504 532Q317 573 239.50 637.50Q162 702 180 829Q196 950 304.50 1026Q413 1102 580 1102Q752 1102 846.50 1017Q941 932 918 799L916 793L869 793Q884 903 806 975.50Q728 1048 573 1048Q427 1048 336 981.50Q245 915 234 831Q222 743 279.50 684.50Q337 626 527 581Q703 539 786 466Q869 393 851 264Q832 132 718.50 55.50Q605-21 431-21Q249-21 150 64.50Q51 150 75 269L77 275L122 275Q112 147 206 90Q300 33 439 33Q583 33 683.50 103.50Q784 174 797 265Z"  horiz-adv-x="1019" vert-adv-y="2048"  />

      
      <glyph glyph-name="uni74" unicode="&#x74;" d="M410 1374L366 1082L632 1082L624 1027L358 1027L246 279Q225 141 261.50 87Q298 33 373 33Q399 33 422 35Q445 37 480 42L483-7Q456-15 429-18Q402-21 368-21Q263-21 215 51Q167 123 191 279L303 1027L103 1027L111 1082L311 1082L355 1374L410 1374Z"  horiz-adv-x="633" vert-adv-y="2048"  />

      
      <glyph glyph-name="uni75" unicode="&#x75;" d="M825 0L845 185Q779 85 677.50 32Q576-21 441-21Q280-21 200 99Q120 219 158 465L250 1082L304 1082L211 463Q176 234 241 133.50Q306 33 447 33Q608 33 713 116.50Q818 200 865 335L977 1082L1032 1082L936 445L939 445Q942 461 936 427Q930 393 927 381L870 0L825 0Z"  horiz-adv-x="1121" vert-adv-y="2048"  />

      
      <glyph glyph-name="uni76" unicode="&#x76;" d="M389 229L418 83L424 82L498 229L959 1082L1017 1082L434 1L435 0L383 0L125 1082L183 1082L389 229Z"  horiz-adv-x="978" vert-adv-y="2048"  />

      
      <glyph glyph-name="uni77" unicode="&#x77;" d="M333 313L356 91L362 90L466 313L824 1082L879 1082L1006 313L1042 91L1048 90L1140 313L1475 1082L1538 1082L1061 0L1007 0L858 813L838 980L832 981L760 813L371 0L317 0L165 1082L227 1082L333 313Z"  horiz-adv-x="1550" vert-adv-y="2048"  />

      
      <glyph glyph-name="uni78" unicode="&#x78;" d="M499 602L916 1082L977 1082L979 1077L525 555L842 0L775 0L484 508L42 0L-18 0L-20 5L458 555L157 1082L225 1082L499 602Z"  horiz-adv-x="978" vert-adv-y="2048"  />

      
      <glyph glyph-name="uni79" unicode="&#x79;" d="M407 196L431 88L437 88L446 104L966 1082L1026 1082L356-180Q294-294 225-365.50Q156-437 28-437Q10-437-12.50-433.50Q-35-430-46-426L-29-375Q-18-378 3-381Q24-384 36-384Q124-384 186.50-328.50Q249-273 304-170L395 6L125 1082L184 1082L407 196Z"  horiz-adv-x="978" vert-adv-y="2048"  />

      
      <glyph glyph-name="uni7a" unicode="&#x7a;" d="M93 59L95 54L858 54L850 0L7 0L14 44L867 1022L865 1027L192 1027L200 1082L953 1082L946 1034L93 59Z"  horiz-adv-x="978" vert-adv-y="2048"  />

      
      <glyph glyph-name="uni7b" unicode="&#x7b;" d="M505-441Q339-386 282.50-268Q226-150 251 20L285 265Q304 401 253.50 472Q203 543 74 543L77 566L80 586L83 609Q206 609 279.50 682Q353 755 372 885L406 1132Q430 1309 518.50 1424.50Q607 1540 786 1592L792 1590L799 1552Q649 1506 565 1396.50Q481 1287 460 1132L426 885Q408 760 345.50 679Q283 598 171 575Q271 548 313 464.50Q355 381 339 265L305 20Q282-139 337.50-242Q393-345 532-395L505-441Z"  horiz-adv-x="660" vert-adv-y="2048"  />

      
      <glyph glyph-name="uni7c" unicode="&#x7c;" d="M115-270L61-270L319 1456L373 1456L115-270Z"  horiz-adv-x="406" vert-adv-y="2048"  />

      
      <glyph glyph-name="uni7d" unicode="&#x7d;" d="M-130-395Q20-346 105-240Q190-134 212 20L246 265Q263 389 325.50 470.50Q388 552 501 577Q400 603 358 685.50Q316 768 333 885L367 1132Q390 1293 337 1399Q284 1505 147 1552L168 1597Q333 1542 389 1422.50Q445 1303 421 1132L387 885Q367 749 418 679Q469 609 598 609L595 586L592 566L589 543Q466 543 392 468.50Q318 394 300 265L266 20Q241-157 152.50-271.50Q64-386-118-441L-130-395Z"  horiz-adv-x="660" vert-adv-y="2048"  />

      
      <glyph glyph-name="uni7e" unicode="&#x7e;" d="M1280 740Q1262 614 1175 528.50Q1088 443 974 443Q890 443 821.50 482Q753 521 675 602Q616 661 560.50 690.50Q505 720 444 720Q359 720 290 651.50Q221 583 205 462L147 474Q165 606 249.50 690Q334 774 451 774Q533 774 603 733.50Q673 693 752 614Q811 552 864.50 524Q918 496 981 496Q1063 496 1133.50 567.50Q1204 639 1220 753L1280 740Z"  horiz-adv-x="1412" vert-adv-y="2048"  />

      
      <glyph glyph-name="unia0" unicode="&#xa0;" d="Z"  horiz-adv-x="490" vert-adv-y="2048"  />

      
      <glyph glyph-name="unia1" unicode="&#xa1;" d="M85-374L31-374L178 604L232 604L85-374M300 918L205 918L229 1082L324 1082L300 918Z"  horiz-adv-x="406" vert-adv-y="2048"  />

      
      <glyph glyph-name="unia2" unicode="&#xa2;" d="M501 33Q634 33 752 108Q870 183 893 333L938 333L940 327Q920 169 797.50 79Q675-11 520-20L487-245L432-245L465-20Q278-8 187 140.50Q96 289 132 520L138 562Q174 805 304.50 948.50Q435 1092 634 1101L667 1318L722 1318L689 1101Q841 1091 935 992.50Q1029 894 1000 725L998 720L951 720Q975 885 886.50 966.50Q798 1048 651 1048Q468 1048 346 910Q224 772 192 562L186 520Q152 296 229.50 164.50Q307 33 501 33Z"  horiz-adv-x="1110" vert-adv-y="2048"  />

      
      <glyph glyph-name="unia3" unicode="&#xa3;" d="M383 667L360 466Q340 337 288 228.50Q236 120 160 54L968 54L961 0L49 0L57 54L67 54Q158 70 221.50 199.50Q285 329 306 466L329 667L85 667L93 721L335 721L371 1040Q403 1252 520 1364.50Q637 1477 808 1477Q976 1477 1045.50 1373Q1115 1269 1089 1090L1035 1090Q1062 1273 1000.50 1348Q939 1423 799 1423Q658 1423 555 1322Q452 1221 425 1040L389 721L866 721L858 667L383 667Z"  horiz-adv-x="1150" vert-adv-y="2048"  />

      
      <glyph glyph-name="unia4" unicode="&#xa4;" d="M1106 152Q1012 69 897.50 24.50Q783-20 662-20Q547-20 447 26.50Q347 73 277 157L70-26L36 13L246 198Q188 281 165 386Q142 491 160 608Q179 734 234.50 843Q290 952 375 1035L218 1225L264 1264L420 1076Q511 1151 622 1192.50Q733 1234 850 1234Q960 1234 1057.50 1190Q1155 1146 1225 1067L1449 1265L1484 1225L1258 1025Q1318 940 1342.50 833.50Q1367 727 1350 608Q1331 487 1279.50 381.50Q1228 276 1150 195L1302 13L1255-27L1106 152M215 608Q178 360 311 196.50Q444 33 670 33Q883 33 1072 202.50Q1261 372 1296 608Q1332 854 1199 1017.50Q1066 1181 842 1181Q628 1181 439 1011.50Q250 842 215 608Z"  horiz-adv-x="1502" vert-adv-y="2048"  />

      
      <glyph glyph-name="unia5" unicode="&#xa5;" d="M1217 1456L1283 1456L677 676L1101 676L1093 621L641 621L605 381L1057 381L1049 326L597 326L548 0L494 0L543 326L93 326L101 381L551 381L587 621L137 621L145 676L566 676L196 1456L261 1456L606 738L622 687L627 687L659 738L1217 1456Z"  horiz-adv-x="1207" vert-adv-y="2048"  />

      
      <glyph glyph-name="unia6" unicode="&#xa6;" d="M52-270L164 482L218 482L106-270L52-270M251 698L197 698L310 1456L364 1456L251 698Z"  horiz-adv-x="398" vert-adv-y="2048"  />

      
      <glyph glyph-name="unia7" unicode="&#xa7;" d="M1079 431Q1062 322 970.50 252Q879 182 735 164Q859 114 912 42.50Q965-29 948-149Q922-317 788-406Q654-495 446-495Q248-495 121-391.50Q-6-288 30-69L32-64L80-62Q48-270 160-355.50Q272-441 454-441Q632-441 752.50-359.50Q873-278 892-151Q911-27 842 39Q773 105 552 166Q316 224 208 308Q100 392 124 551Q141 663 226.50 733Q312 803 450 823Q336 871 287 943Q238 1015 256 1130Q280 1293 415.50 1385Q551 1477 760 1477Q966 1477 1072 1364Q1178 1251 1144 1051L1142 1046L1095 1046Q1120 1214 1030 1318.50Q940 1423 751 1423Q562 1423 445 1340.50Q328 1258 310 1133Q290 1003 358.50 937.50Q427 872 657 804Q899 740 1000 663.50Q1101 587 1079 431M625 766Q596 772 570 779.50Q544 787 521 796Q374 788 283 720.50Q192 653 178 553Q158 418 234.50 355.50Q311 293 576 215L642 196Q797 197 903 264Q1009 331 1024 428Q1043 556 959.50 624.50Q876 693 625 766Z"  horiz-adv-x="1223" vert-adv-y="2048"  />

      
      <glyph glyph-name="unia8" unicode="&#xa8;" d="M873 1338L737 1338L754 1456L890 1456L873 1338M404 1338L267 1338L284 1456L421 1456L404 1338Z"  horiz-adv-x="906" vert-adv-y="2048"  />

      
      <glyph glyph-name="unia9" unicode="&#xa9;" d="M1125 596L1127 590Q1107 434 1018 358Q929 282 788 282Q650 282 575 390Q500 498 526 669L544 788Q570 966 673.50 1070.50Q777 1175 922 1175Q1056 1175 1126 1094.50Q1196 1014 1170 867L1167 862L1122 862Q1142 996 1088.50 1059Q1035 1122 914 1122Q795 1122 707.50 1026Q620 930 599 789L581 669Q558 519 615 428Q672 337 797 337Q913 337 987.50 401Q1062 465 1081 596L1125 596M208 729Q162 428 323 231Q484 34 758 34Q1017 34 1245 238Q1473 442 1516 729Q1561 1029 1400 1225Q1239 1421 966 1421Q705 1421 478 1218Q251 1015 208 729M152 729Q201 1056 438 1266Q675 1476 974 1476Q1258 1476 1438.50 1258Q1619 1040 1572 729Q1523 401 1286 190Q1049-21 750-21Q466-21 285.50 197.50Q105 416 152 729Z"  horiz-adv-x="1666" vert-adv-y="2048"  />

      
      <glyph glyph-name="uniaa" unicode="&#xaa;" d="M706 706Q700 733 699 763Q698 793 702 826Q654 768 581.50 730Q509 692 421 692Q307 692 248.50 754Q190 816 206 920Q221 1025 302.50 1079Q384 1133 527 1133L746 1133L757 1202Q773 1310 731 1366.50Q689 1423 591 1423Q481 1423 410.50 1375.50Q340 1328 327 1238L282 1243L281 1249Q291 1351 379.50 1414Q468 1477 600 1477Q711 1477 771.50 1405Q832 1333 812 1201L765 887Q757 837 757 794Q757 751 764 706L706 706M430 747Q514 747 598 795Q682 843 711 900L738 1077L520 1077Q412 1077 341 1032.50Q270 988 261 924Q247 838 288 792.50Q329 747 430 747Z"  horiz-adv-x="898" vert-adv-y="2048"  />

      
      <glyph glyph-name="uniab" unicode="&#xab;" d="M215 526L452 146L382 146L143 516L144 522L145 529L146 535L496 905L559 905L561 900L215 526M502 526L739 146L669 146L430 516L431 522L432 529L433 535L783 905L846 905L848 900L502 526Z"  horiz-adv-x="905" vert-adv-y="2048"  />

      
      <glyph glyph-name="uniac" unicode="&#xac;" d="M941 706L940 700L894 396L840 396L886 700L147 700L155 753L948 753L941 706Z"  horiz-adv-x="1101" vert-adv-y="2048"  />

      
      <glyph glyph-name="uniad" unicode="&#xad;" d="M699 599L109 599L117 653L707 653L699 599Z"  horiz-adv-x="807" vert-adv-y="2048"  />

      
      <glyph glyph-name="uniae" unicode="&#xae;" d="M144 729Q193 1056 429.50 1266Q666 1476 966 1476Q1250 1476 1430.50 1258Q1611 1040 1564 729Q1515 401 1278 190Q1041-21 742-21Q458-21 277.50 197.50Q97 416 144 729M199 729Q153 428 314.50 231Q476 34 750 34Q1009 34 1237 238Q1465 442 1508 729Q1553 1029 1392 1225Q1231 1421 958 1421Q697 1421 469.50 1218Q242 1015 199 729M671 688L615 316L560 316L688 1166L927 1166Q1065 1166 1131 1104.50Q1197 1043 1180 926Q1168 849 1121 798.50Q1074 748 994 719Q1059 696 1083.50 642.50Q1108 589 1097 515L1089 459Q1082 419 1081.50 386.50Q1081 354 1087 332L1084 316L1025 316Q1019 337 1022.50 375Q1026 413 1033 460L1041 514Q1055 611 1020 649.50Q985 688 883 688L671 688M679 744L885 744Q972 744 1042 792.50Q1112 841 1125 927Q1140 1026 1094.50 1068.50Q1049 1111 919 1111L735 1111L679 744Z"  horiz-adv-x="1674" vert-adv-y="2048"  />

      
      <glyph glyph-name="uniaf" unicode="&#xaf;" d="M840 1403L213 1403L221 1456L848 1456L840 1403Z"  horiz-adv-x="811" vert-adv-y="2048"  />

      
      <glyph glyph-name="uni02C9" unicode="&#x02C9;" d="M840 1403L213 1403L221 1456L848 1456L840 1403Z"  horiz-adv-x="811" vert-adv-y="2048"  />

      
      <glyph glyph-name="unib0" unicode="&#xb0;" d="M262 1237Q276 1339 355.50 1408Q435 1477 534 1477Q625 1477 684.50 1405.50Q744 1334 730 1237Q714 1133 636.50 1066.50Q559 1000 462 1000Q368 1000 307.50 1069Q247 1138 262 1237M317 1237Q304 1155 347.50 1105.50Q391 1056 470 1056Q543 1056 602.50 1107.50Q662 1159 674 1237Q685 1320 643.50 1371Q602 1422 525 1422Q450 1422 389 1369Q328 1316 317 1237Z"  horiz-adv-x="783" vert-adv-y="2048"  />

      
      <glyph glyph-name="unib1" unicode="&#xb1;" d="M606 805L1026 805L1018 751L599 751L534 289L480 289L544 751L102 751L110 805L552 805L617 1267L671 1267L606 805M1014 88L179 88L187 142L1022 142L1014 88Z"  horiz-adv-x="1077" vert-adv-y="2048"  />

      
      <glyph glyph-name="unib2" unicode="&#xb2;" d="M685 667L134 667L142 722L514 1022Q609 1102 648 1153Q687 1204 695 1255Q707 1336 666.50 1380Q626 1424 529 1424Q429 1424 363 1372.50Q297 1321 285 1242L237 1242L235 1248Q245 1348 328.50 1413.50Q412 1479 537 1479Q648 1479 707.50 1421Q767 1363 751 1254Q740 1181 683 1117.50Q626 1054 517 963L216 728L218 722L693 722L685 667Z"  horiz-adv-x="807" vert-adv-y="2048"  />

      
      <glyph glyph-name="unib3" unicode="&#xb3;" d="M778 1257Q768 1193 725 1145.50Q682 1098 613 1075Q683 1053 714.50 1004.50Q746 956 735 883Q719 772 633.50 713.50Q548 655 423 655Q312 655 236 714Q160 773 181 882L183 888L232 888Q220 807 274.50 758.50Q329 710 432 710Q533 710 599.50 756Q666 802 679 881Q692 970 643.50 1008.50Q595 1047 483 1047L369 1047L370 1056L377 1103L491 1103Q594 1103 653 1144.50Q712 1186 723 1260Q734 1336 688.50 1379.50Q643 1423 538 1423Q450 1423 380 1377Q310 1331 300 1258L255 1258L253 1264Q262 1362 347 1420Q432 1478 547 1478Q665 1478 729 1420Q793 1362 778 1257Z"  horiz-adv-x="831" vert-adv-y="2048"  />

      
      <glyph glyph-name="unib4" unicode="&#xb4;" d="M477 1518L554 1518L556 1512L288 1252L222 1252L219 1258L477 1518Z"  horiz-adv-x="511" vert-adv-y="2048"  />

      
      <glyph glyph-name="unib5" unicode="&#xb5;" d="M305 1082L209 440Q174 208 244.50 120.50Q315 33 454 33Q635 33 736.50 132.50Q838 232 880 408L981 1082L1035 1082L948 505L951 505Q947 480 944 463Q941 446 937 430L873 0L832 0L852 200Q788 92 689.50 35.50Q591-21 455-21Q356-21 278.50 25Q201 71 169 174L81-416L29-416L253 1082L305 1082Z"  horiz-adv-x="1121" vert-adv-y="2048"  />

      
      <glyph glyph-name="unib6" unicode="&#xb6;" d="M636 0L714 520L589 520Q365 520 250.50 651Q136 782 167 988Q199 1202 346 1329Q493 1456 729 1456L908 1456L690 0L636 0Z"  horiz-adv-x="946" vert-adv-y="2048"  />

      
      <glyph glyph-name="unib7" unicode="&#xb7;" d="M303 624L185 624L207 776L325 776L303 624Z"  horiz-adv-x="472" vert-adv-y="2048"  />

      
      <glyph glyph-name="unib8" unicode="&#xb8;" d="M127 0L105-76Q195-83 241.50-121.50Q288-160 276-245Q262-336 177-385.50Q92-435-57-435L-57-386Q44-386 127-349.50Q210-313 221-245Q231-178 190-154.50Q149-131 31-121L74 0L127 0Z"  horiz-adv-x="490" vert-adv-y="2048"  />

      
      <glyph glyph-name="unib9" unicode="&#xb9;" d="M319 665L265 665L377 1412L209 1398L217 1454L441 1477L319 665Z"  horiz-adv-x="471" vert-adv-y="2048"  />

      
      <glyph glyph-name="uniba" unicode="&#xba;" d="M239 1142Q262 1296 357.50 1386.50Q453 1477 594 1477Q729 1477 799.50 1382.50Q870 1288 848 1142L831 1025Q807 870 712.50 780.50Q618 691 478 691Q343 691 271.50 784.50Q200 878 222 1025L239 1142M276 1025Q256 896 307.50 820.50Q359 745 486 745Q602 745 681 824.50Q760 904 778 1025L795 1142Q814 1268 761 1345.50Q708 1423 585 1423Q468 1423 389 1342.50Q310 1262 293 1142L276 1025Z"  horiz-adv-x="914" vert-adv-y="2048"  />

      
      <glyph glyph-name="unibb" unicode="&#xbb;" d="M424 551L189 940L259 940L496 560L495 554L494 547L493 541L144 171L81 171L79 176L424 551M714 551L479 940L549 940L786 560L785 554L784 547L783 541L434 171L371 171L369 176L714 551Z"  horiz-adv-x="897" vert-adv-y="2048"  />

      
      <glyph glyph-name="unibc" unicode="&#xbc;" d="M381 664L327 664L439 1411L271 1397L279 1453L503 1476L381 664M302 139L261 170L1143 1308L1183 1277L302 139M1213 241L1389 241L1381 186L1205 186L1177 0L1122 0L1150 186L708 186L713 222L1235 801L1297 801L1213 241M804 246L806 241L1158 241L1230 721L1225 723L1180 664L804 246Z"  horiz-adv-x="1533" vert-adv-y="2048"  />

      
      <glyph glyph-name="unibd" unicode="&#xbd;" d="M314 139L273 170L1155 1308L1195 1277L314 139M381 664L327 664L439 1411L271 1397L279 1453L503 1476L381 664M1366 0L815 0L823 55L1195 355Q1290 435 1329 486Q1368 537 1376 588Q1388 669 1347.50 713Q1307 757 1210 757Q1110 757 1044 705.50Q978 654 966 575L918 575L916 581Q926 681 1009.50 746.50Q1093 812 1218 812Q1329 812 1388.50 754Q1448 696 1432 587Q1421 514 1364 450.50Q1307 387 1198 296L897 61L899 55L1374 55L1366 0Z"  horiz-adv-x="1447" vert-adv-y="2048"  />

      
      <glyph glyph-name="unibe" unicode="&#xbe;" d="M529 139L488 170L1370 1308L1410 1277L529 139M1438 241L1614 241L1606 186L1430 186L1402 0L1347 0L1375 186L933 186L938 222L1460 801L1522 801L1438 241M1029 246L1031 241L1383 241L1455 721L1450 723L1405 664L1029 246M410 1104L524 1104Q627 1104 685.50 1145.50Q744 1187 755 1261Q766 1337 721 1380.50Q676 1424 571 1424Q482 1424 412 1378Q342 1332 332 1259L287 1259L285 1265Q294 1363 379 1421Q464 1479 579 1479Q697 1479 761 1421Q825 1363 810 1258Q800 1194 757 1146.50Q714 1099 645 1076Q715 1054 746.50 1005.50Q778 957 768 884Q751 773 665.50 714.50Q580 656 455 656Q344 656 268 715Q192 774 213 883L215 889L264 889Q252 808 306.50 759.50Q361 711 464 711Q566 711 632.50 757Q699 803 711 882Q724 971 675.50 1009.50Q627 1048 515 1048L401 1048L408 1092L410 1104Z"  horiz-adv-x="1653" vert-adv-y="2048"  />

      
      <glyph glyph-name="unibf" unicode="&#xbf;" d="M532 683Q512 565 486 516.50Q460 468 364 391Q225 275 159.50 193Q94 111 74-29Q50-181 115-261Q180-341 326-341Q461-341 555-255.50Q649-170 673-33L719-33L721-39Q697-209 584.50-301.50Q472-394 318-394Q159-394 77.50-292Q-4-190 20-27Q41 119 116.50 216.50Q192 314 342 433Q418 485 440.50 533Q463 581 478 683L532 683M514 1083L596 1083L581 977L499 977L514 1083Z"  horiz-adv-x="912" vert-adv-y="2048"  />

      
      <glyph glyph-name="unic0" unicode="&#xc0;" d="M952 435L241 435L13 0L-46 0L716 1456L782 1456L1109 0L1050 0L952 435M269 489L940 489L758 1304L743 1388L737 1389L697 1304L269 489M824 1604L742 1604L541 1870L637 1870L824 1604Z"  horiz-adv-x="1223" vert-adv-y="2048"  />

      
      <glyph glyph-name="unic1" unicode="&#xc1;" d="M952 435L241 435L13 0L-46 0L716 1456L782 1456L1109 0L1050 0L952 435M269 489L940 489L758 1304L743 1388L737 1389L697 1304L269 489M975 1862L1052 1862L1054 1856L786 1596L720 1596L717 1602L975 1862Z"  horiz-adv-x="1223" vert-adv-y="2048"  />

      
      <glyph glyph-name="unic2" unicode="&#xc2;" d="M952 435L241 435L13 0L-46 0L716 1456L782 1456L1109 0L1050 0L952 435M269 489L940 489L758 1304L743 1388L737 1389L697 1304L269 489M1028 1614L1026 1601L956 1601L799 1787L588 1601L522 1601L524 1618L765 1824L845 1824L1028 1614Z"  horiz-adv-x="1223" vert-adv-y="2048"  />

      
      <glyph glyph-name="unic3" unicode="&#xc3;" d="M952 435L241 435L13 0L-46 0L716 1456L782 1456L1109 0L1050 0L952 435M269 489L940 489L758 1304L743 1388L737 1389L697 1304L269 489M1089 1801Q1077 1715 1019.50 1665Q962 1615 887 1615Q816 1615 745 1677.50Q674 1740 618 1740Q567 1740 526 1702.50Q485 1665 478 1605L424 1615Q435 1699 491 1746.50Q547 1794 625 1794Q693 1794 767 1732Q841 1670 895 1670Q943 1670 984.50 1709.50Q1026 1749 1035 1811L1089 1801Z"  horiz-adv-x="1223" vert-adv-y="2048"  />

      
      <glyph glyph-name="unic4" unicode="&#xc4;" d="M952 435L241 435L13 0L-46 0L716 1456L782 1456L1109 0L1050 0L952 435M269 489L940 489L758 1304L743 1388L737 1389L697 1304L269 489M1085 1673L949 1673L966 1791L1102 1791L1085 1673M616 1673L479 1673L496 1791L633 1791L616 1673Z"  horiz-adv-x="1223" vert-adv-y="2048"  />

      
      <glyph glyph-name="unic5" unicode="&#xc5;" d="M952 435L241 435L13 0L-46 0L716 1456L782 1456L1109 0L1050 0L952 435M269 489L940 489L758 1304L743 1388L737 1389L697 1304L269 489M653 1726Q661 1785 707 1825Q753 1865 810 1865Q862 1865 896 1823.50Q930 1782 922 1726Q913 1667 868 1629Q823 1591 768 1591Q714 1591 679 1630.50Q644 1670 653 1726M710 1726Q704 1690 723.50 1668.50Q743 1647 777 1647Q808 1647 833.50 1669.50Q859 1692 865 1726Q870 1762 851.50 1785Q833 1808 801 1808Q769 1808 742 1784.50Q715 1761 710 1726Z"  horiz-adv-x="1223" vert-adv-y="2048"  />

      
      <glyph glyph-name="unic6" unicode="&#xc6;" d="M1688 0L936 0L982 425L354 425L35 0L-30 0L1069 1456L1845 1456L1837 1402L1141 1402L1075 786L1663 786L1655 732L1069 732L996 54L1696 54L1688 0M394 478L987 478L1087 1400L1081 1402L1010 1298L394 478Z"  horiz-adv-x="1816" vert-adv-y="2048"  />

      
      <glyph glyph-name="unic7" unicode="&#xc7;" d="M1158 446L1160 440Q1129 207 974.50 93Q820-21 588-21Q358-21 236 157Q114 335 157 619L190 837Q233 1134 402 1305.50Q571 1477 813 1477Q1032 1477 1157.50 1357Q1283 1237 1247 1018L1244 1012L1198 1012Q1228 1216 1122.50 1319.50Q1017 1423 804 1423Q599 1423 441 1261Q283 1099 244 839L211 619Q169 344 274.50 188.50Q380 33 596 33Q799 33 940.50 137Q1082 241 1113 446L1158 446M598-9L576-85Q666-92 712.50-130.50Q759-169 747-254Q733-345 648-394.50Q563-444 414-444L414-395Q515-395 598-358.50Q681-322 692-254Q702-187 661-163.50Q620-140 502-130L545-9L598-9Z"  horiz-adv-x="1327" vert-adv-y="2048"  />

      
      <glyph glyph-name="unic8" unicode="&#xc8;" d="M984 732L283 732L182 54L984 54L976 0L120 0L338 1456L1194 1456L1186 1402L384 1402L291 786L992 786L984 732M831 1604L749 1604L548 1870L644 1870L831 1604Z"  horiz-adv-x="1129" vert-adv-y="2048"  />

      
      <glyph glyph-name="unic9" unicode="&#xc9;" d="M984 732L283 732L182 54L984 54L976 0L120 0L338 1456L1194 1456L1186 1402L384 1402L291 786L992 786L984 732M982 1862L1059 1862L1061 1856L793 1596L727 1596L724 1602L982 1862Z"  horiz-adv-x="1129" vert-adv-y="2048"  />

      
      <glyph glyph-name="unica" unicode="&#xca;" d="M984 732L283 732L182 54L984 54L976 0L120 0L338 1456L1194 1456L1186 1402L384 1402L291 786L992 786L984 732M1035 1614L1033 1601L963 1601L806 1787L595 1601L529 1601L531 1618L772 1824L852 1824L1035 1614Z"  horiz-adv-x="1129" vert-adv-y="2048"  />

      
      <glyph glyph-name="unicb" unicode="&#xcb;" d="M984 732L283 732L182 54L984 54L976 0L120 0L338 1456L1194 1456L1186 1402L384 1402L291 786L992 786L984 732M1092 1673L956 1673L973 1791L1109 1791L1092 1673M623 1673L486 1673L503 1791L640 1791L623 1673Z"  horiz-adv-x="1129" vert-adv-y="2048"  />

      
      <glyph glyph-name="unicc" unicode="&#xcc;" d="M214 0L160 0L378 1456L432 1456L214 0M481 1604L399 1604L198 1870L294 1870L481 1604Z"  horiz-adv-x="534" vert-adv-y="2048"  />

      
      <glyph glyph-name="unicd" unicode="&#xcd;" d="M214 0L160 0L378 1456L432 1456L214 0M631 1862L708 1862L710 1856L442 1596L376 1596L373 1602L631 1862Z"  horiz-adv-x="534" vert-adv-y="2048"  />

      
      <glyph glyph-name="unice" unicode="&#xce;" d="M214 0L160 0L378 1456L432 1456L214 0M685 1614L683 1601L613 1601L456 1787L245 1601L179 1601L181 1618L422 1824L502 1824L685 1614Z"  horiz-adv-x="534" vert-adv-y="2048"  />

      
      <glyph glyph-name="unicf" unicode="&#xcf;" d="M214 0L160 0L378 1456L432 1456L214 0M742 1673L606 1673L623 1791L759 1791L742 1673M273 1673L136 1673L153 1791L290 1791L273 1673Z"  horiz-adv-x="534" vert-adv-y="2048"  />

      
      <glyph glyph-name="unid0" unicode="&#xd0;" d="M120 0L227 713L87 713L95 767L235 767L338 1456L771 1456Q1013 1456 1165 1274.50Q1317 1093 1277 817L1250 639Q1206 348 1006.50 174Q807 0 553 0L120 0M674 713L281 713L182 54L561 54Q779 54 968.50 221.50Q1158 389 1196 639L1223 820Q1261 1080 1127 1241Q993 1402 763 1402L384 1402L289 767L682 767L674 713Z"  horiz-adv-x="1370" vert-adv-y="2048"  />

      
      <glyph glyph-name="unid1" unicode="&#xd1;" d="M1169 0L1115 0L384 1356L378 1355L175 0L120 0L338 1456L393 1456L1124 102L1130 103L1333 1456L1387 1456L1169 0M1203 1801Q1191 1715 1133.50 1665Q1076 1615 1001 1615Q930 1615 859 1677.50Q788 1740 732 1740Q681 1740 640 1702.50Q599 1665 592 1605L538 1615Q549 1699 605 1746.50Q661 1794 739 1794Q807 1794 881 1732Q955 1670 1009 1670Q1057 1670 1098.50 1709.50Q1140 1749 1149 1811L1203 1801Z"  horiz-adv-x="1449" vert-adv-y="2048"  />

      
      <glyph glyph-name="unid2" unicode="&#xd2;" d="M1244 619Q1198 313 1028.50 146Q859-21 600-21Q353-21 227.50 153.50Q102 328 146 619L179 837Q224 1142 393.50 1309.50Q563 1477 823 1477Q1070 1477 1195 1302.50Q1320 1128 1277 837L1244 619M1223 839Q1264 1118 1159.50 1270.50Q1055 1423 814 1423Q586 1423 430 1263.50Q274 1104 234 839L201 619Q158 338 263 185.50Q368 33 608 33Q837 33 993 192.50Q1149 352 1190 619L1223 839M891 1625L809 1625L608 1891L704 1891L891 1625Z"  horiz-adv-x="1364" vert-adv-y="2048"  />

      
      <glyph glyph-name="unid3" unicode="&#xd3;" d="M1244 619Q1198 313 1028.50 146Q859-21 600-21Q353-21 227.50 153.50Q102 328 146 619L179 837Q224 1142 393.50 1309.50Q563 1477 823 1477Q1070 1477 1195 1302.50Q1320 1128 1277 837L1244 619M1223 839Q1264 1118 1159.50 1270.50Q1055 1423 814 1423Q586 1423 430 1263.50Q274 1104 234 839L201 619Q158 338 263 185.50Q368 33 608 33Q837 33 993 192.50Q1149 352 1190 619L1223 839M1042 1883L1119 1883L1121 1877L853 1617L787 1617L784 1623L1042 1883Z"  horiz-adv-x="1364" vert-adv-y="2048"  />

      
      <glyph glyph-name="unid4" unicode="&#xd4;" d="M1244 619Q1198 313 1028.50 146Q859-21 600-21Q353-21 227.50 153.50Q102 328 146 619L179 837Q224 1142 393.50 1309.50Q563 1477 823 1477Q1070 1477 1195 1302.50Q1320 1128 1277 837L1244 619M1223 839Q1264 1118 1159.50 1270.50Q1055 1423 814 1423Q586 1423 430 1263.50Q274 1104 234 839L201 619Q158 338 263 185.50Q368 33 608 33Q837 33 993 192.50Q1149 352 1190 619L1223 839M1096 1635L1094 1622L1024 1622L867 1808L656 1622L590 1622L592 1639L833 1845L913 1845L1096 1635Z"  horiz-adv-x="1364" vert-adv-y="2048"  />

      
      <glyph glyph-name="unid5" unicode="&#xd5;" d="M1244 619Q1198 313 1028.50 146Q859-21 600-21Q353-21 227.50 153.50Q102 328 146 619L179 837Q224 1142 393.50 1309.50Q563 1477 823 1477Q1070 1477 1195 1302.50Q1320 1128 1277 837L1244 619M1223 839Q1264 1118 1159.50 1270.50Q1055 1423 814 1423Q586 1423 430 1263.50Q274 1104 234 839L201 619Q158 338 263 185.50Q368 33 608 33Q837 33 993 192.50Q1149 352 1190 619L1223 839M1157 1822Q1145 1736 1087.50 1686Q1030 1636 955 1636Q884 1636 813 1698.50Q742 1761 686 1761Q635 1761 594 1723.50Q553 1686 546 1626L492 1636Q503 1720 559 1767.50Q615 1815 693 1815Q761 1815 835 1753Q909 1691 963 1691Q1011 1691 1052.50 1730.50Q1094 1770 1103 1832L1157 1822Z"  horiz-adv-x="1364" vert-adv-y="2048"  />

      
      <glyph glyph-name="unid6" unicode="&#xd6;" d="M1244 619Q1198 313 1028.50 146Q859-21 600-21Q353-21 227.50 153.50Q102 328 146 619L179 837Q224 1142 393.50 1309.50Q563 1477 823 1477Q1070 1477 1195 1302.50Q1320 1128 1277 837L1244 619M1223 839Q1264 1118 1159.50 1270.50Q1055 1423 814 1423Q586 1423 430 1263.50Q274 1104 234 839L201 619Q158 338 263 185.50Q368 33 608 33Q837 33 993 192.50Q1149 352 1190 619L1223 839M1152 1694L1016 1694L1033 1812L1169 1812L1152 1694M683 1694L546 1694L563 1812L700 1812L683 1694Z"  horiz-adv-x="1364" vert-adv-y="2048"  />

      
      <glyph glyph-name="unid7" unicode="&#xd7;" d="M61 289L505 682L202 1046L247 1085L549 721L960 1085L993 1046L581 682L907 289L863 252L537 643L95 252L61 289Z"  horiz-adv-x="1052" vert-adv-y="2048"  />

      
      <glyph glyph-name="unid8" unicode="&#xd8;" d="M1244 619Q1198 313 1028.50 146Q859-21 600-21Q505-21 426 5.50Q347 32 289 85L163-75L97-75L252 122Q177 207 149 333.50Q121 460 146 619L179 837Q224 1142 393.50 1309.50Q563 1477 823 1477Q940 1477 1033 1434.50Q1126 1392 1187 1314L1329 1495L1395 1495L1217 1268Q1264 1185 1280 1075.50Q1296 966 1277 837L1244 619M201 619Q177 467 197.50 352Q218 237 281 168L287 167L1156 1275Q1103 1347 1017.50 1385Q932 1423 814 1423Q586 1423 430 1263.50Q274 1104 234 839L201 619M1223 839Q1240 958 1231 1055.50Q1222 1153 1186 1220L1180 1222L319 124Q370 78 443 55.50Q516 33 608 33Q837 33 993 192.50Q1149 352 1190 619L1223 839Z"  horiz-adv-x="1364" vert-adv-y="2048"  />

      
      <glyph glyph-name="unid9" unicode="&#xd9;" d="M1318 1456L1173 489Q1136 240 979 109.50Q822-21 600-21Q388-21 265 115.50Q142 252 178 489L323 1456L377 1456L232 489Q199 274 305.50 153.50Q412 33 608 33Q793 33 940.50 158.50Q1088 284 1119 489L1264 1456L1318 1456M909 1604L827 1604L626 1870L722 1870L909 1604Z"  horiz-adv-x="1365" vert-adv-y="2048"  />

      
      <glyph glyph-name="unida" unicode="&#xda;" d="M1318 1456L1173 489Q1136 240 979 109.50Q822-21 600-21Q388-21 265 115.50Q142 252 178 489L323 1456L377 1456L232 489Q199 274 305.50 153.50Q412 33 608 33Q793 33 940.50 158.50Q1088 284 1119 489L1264 1456L1318 1456M1060 1862L1137 1862L1139 1856L871 1596L805 1596L802 1602L1060 1862Z"  horiz-adv-x="1365" vert-adv-y="2048"  />

      
      <glyph glyph-name="unidb" unicode="&#xdb;" d="M1318 1456L1173 489Q1136 240 979 109.50Q822-21 600-21Q388-21 265 115.50Q142 252 178 489L323 1456L377 1456L232 489Q199 274 305.50 153.50Q412 33 608 33Q793 33 940.50 158.50Q1088 284 1119 489L1264 1456L1318 1456M1113 1614L1111 1601L1041 1601L884 1787L673 1601L607 1601L609 1618L850 1824L930 1824L1113 1614Z"  horiz-adv-x="1365" vert-adv-y="2048"  />

      
      <glyph glyph-name="unidc" unicode="&#xdc;" d="M1318 1456L1173 489Q1136 240 979 109.50Q822-21 600-21Q388-21 265 115.50Q142 252 178 489L323 1456L377 1456L232 489Q199 274 305.50 153.50Q412 33 608 33Q793 33 940.50 158.50Q1088 284 1119 489L1264 1456L1318 1456M1170 1673L1034 1673L1051 1791L1187 1791L1170 1673M701 1673L564 1673L581 1791L718 1791L701 1673Z"  horiz-adv-x="1365" vert-adv-y="2048"  />

      
      <glyph glyph-name="unidd" unicode="&#xdd;" d="M600 647L619 597L653 647L1257 1456L1323 1456L641 554L558 0L503 0L586 553L174 1456L240 1456L600 647M969 1851L1046 1851L1048 1845L780 1585L714 1585L711 1591L969 1851Z"  horiz-adv-x="1223" vert-adv-y="2048"  />

      
      <glyph glyph-name="unide" unicode="&#xde;" d="M392 1456L345 1143L716 1143Q919 1143 1025.50 1028.50Q1132 914 1106 738Q1077 551 943.50 442.50Q810 334 595 334L224 334L174 0L120 0L338 1456L392 1456M337 1089L232 388L603 388Q790 388 910.50 493.50Q1031 599 1051 736Q1074 885 989.50 987Q905 1089 708 1089L337 1089Z"  horiz-adv-x="1219" vert-adv-y="2048"  />

      
      <glyph glyph-name="unidf" unicode="&#xdf;" d="M138 0L84 0L246 1082Q275 1277 378 1375.50Q481 1474 644 1474Q762 1474 837.50 1400Q913 1326 896 1206Q879 1099 804.50 997.50Q730 896 716 800Q701 704 873.50 565Q1046 426 1024 277Q1001 130 877 54.50Q753-21 612-21Q528-21 437.50 5.50Q347 32 313 68L346 117Q382 83 458.50 57.50Q535 32 612 32Q747 32 850.50 104Q954 176 971 286Q988 406 815.50 542Q643 678 662 802Q679 913 751 1017.50Q823 1122 836 1208Q850 1302 792.50 1361Q735 1420 646 1420Q517 1420 420.50 1332Q324 1244 300 1082L138 0Z"  horiz-adv-x="1183" vert-adv-y="2048"  />

      
      <glyph glyph-name="unie0" unicode="&#xe0;" d="M800 199Q730 101 610 40Q490-21 332-21Q187-21 110.50 62.50Q34 146 55 284Q75 425 216.50 514.50Q358 604 553 604L861 604L885 762Q906 902 831.50 975Q757 1048 598 1048Q457 1048 354 976.50Q251 905 234 794L189 796L188 801Q202 931 317.50 1016.50Q433 1102 606 1102Q774 1102 868.50 1013Q963 924 939 760L858 218Q849 159 847 106Q845 53 853 0L793 0Q791 84 791.50 113Q792 142 798 183L800 199M340 32Q495 32 619.50 103.50Q744 175 816 305L853 549L547 549Q385 549 254.50 471Q124 393 108 280Q91 167 154 99.50Q217 32 340 32M698 1284L616 1284L415 1550L511 1550L698 1284Z"  horiz-adv-x="1081" vert-adv-y="2048"  />

      
      <glyph glyph-name="unie1" unicode="&#xe1;" d="M800 199Q730 101 610 40Q490-21 332-21Q187-21 110.50 62.50Q34 146 55 284Q75 425 216.50 514.50Q358 604 553 604L861 604L885 762Q906 902 831.50 975Q757 1048 598 1048Q457 1048 354 976.50Q251 905 234 794L189 796L188 801Q202 931 317.50 1016.50Q433 1102 606 1102Q774 1102 868.50 1013Q963 924 939 760L858 218Q849 159 847 106Q845 53 853 0L793 0Q791 84 791.50 113Q792 142 798 183L800 199M340 32Q495 32 619.50 103.50Q744 175 816 305L853 549L547 549Q385 549 254.50 471Q124 393 108 280Q91 167 154 99.50Q217 32 340 32M849 1542L926 1542L928 1536L660 1276L594 1276L591 1282L849 1542Z"  horiz-adv-x="1081" vert-adv-y="2048"  />

      
      <glyph glyph-name="unie2" unicode="&#xe2;" d="M800 199Q730 101 610 40Q490-21 332-21Q187-21 110.50 62.50Q34 146 55 284Q75 425 216.50 514.50Q358 604 553 604L861 604L885 762Q906 902 831.50 975Q757 1048 598 1048Q457 1048 354 976.50Q251 905 234 794L189 796L188 801Q202 931 317.50 1016.50Q433 1102 606 1102Q774 1102 868.50 1013Q963 924 939 760L858 218Q849 159 847 106Q845 53 853 0L793 0Q791 84 791.50 113Q792 142 798 183L800 199M340 32Q495 32 619.50 103.50Q744 175 816 305L853 549L547 549Q385 549 254.50 471Q124 393 108 280Q91 167 154 99.50Q217 32 340 32M902 1294L900 1281L830 1281L673 1467L462 1281L396 1281L398 1298L639 1504L719 1504L902 1294Z"  horiz-adv-x="1081" vert-adv-y="2048"  />

      
      <glyph glyph-name="unie3" unicode="&#xe3;" d="M800 199Q730 101 610 40Q490-21 332-21Q187-21 110.50 62.50Q34 146 55 284Q75 425 216.50 514.50Q358 604 553 604L861 604L885 762Q906 902 831.50 975Q757 1048 598 1048Q457 1048 354 976.50Q251 905 234 794L189 796L188 801Q202 931 317.50 1016.50Q433 1102 606 1102Q774 1102 868.50 1013Q963 924 939 760L858 218Q849 159 847 106Q845 53 853 0L793 0Q791 84 791.50 113Q792 142 798 183L800 199M340 32Q495 32 619.50 103.50Q744 175 816 305L853 549L547 549Q385 549 254.50 471Q124 393 108 280Q91 167 154 99.50Q217 32 340 32M963 1481Q951 1395 893.50 1345Q836 1295 761 1295Q690 1295 619 1357.50Q548 1420 492 1420Q441 1420 400 1382.50Q359 1345 352 1285L298 1295Q309 1379 365 1426.50Q421 1474 499 1474Q567 1474 641 1412Q715 1350 769 1350Q817 1350 858.50 1389.50Q900 1429 909 1491L963 1481Z"  horiz-adv-x="1081" vert-adv-y="2048"  />

      
      <glyph glyph-name="unie4" unicode="&#xe4;" d="M800 199Q730 101 610 40Q490-21 332-21Q187-21 110.50 62.50Q34 146 55 284Q75 425 216.50 514.50Q358 604 553 604L861 604L885 762Q906 902 831.50 975Q757 1048 598 1048Q457 1048 354 976.50Q251 905 234 794L189 796L188 801Q202 931 317.50 1016.50Q433 1102 606 1102Q774 1102 868.50 1013Q963 924 939 760L858 218Q849 159 847 106Q845 53 853 0L793 0Q791 84 791.50 113Q792 142 798 183L800 199M340 32Q495 32 619.50 103.50Q744 175 816 305L853 549L547 549Q385 549 254.50 471Q124 393 108 280Q91 167 154 99.50Q217 32 340 32M959 1353L823 1353L840 1471L976 1471L959 1353M490 1353L353 1353L370 1471L507 1471L490 1353Z"  horiz-adv-x="1081" vert-adv-y="2048"  />

      
      <glyph glyph-name="unie5" unicode="&#xe5;" d="M800 199Q730 101 610 40Q490-21 332-21Q187-21 110.50 62.50Q34 146 55 284Q75 425 216.50 514.50Q358 604 553 604L861 604L885 762Q906 902 831.50 975Q757 1048 598 1048Q457 1048 354 976.50Q251 905 234 794L189 796L188 801Q202 931 317.50 1016.50Q433 1102 606 1102Q774 1102 868.50 1013Q963 924 939 760L858 218Q849 159 847 106Q845 53 853 0L793 0Q791 84 791.50 113Q792 142 798 183L800 199M340 32Q495 32 619.50 103.50Q744 175 816 305L853 549L547 549Q385 549 254.50 471Q124 393 108 280Q91 167 154 99.50Q217 32 340 32M527 1406Q535 1465 581 1505Q627 1545 684 1545Q736 1545 770 1503.50Q804 1462 796 1406Q787 1347 742 1309Q697 1271 642 1271Q588 1271 553 1310.50Q518 1350 527 1406M584 1406Q578 1370 597.50 1348.50Q617 1327 651 1327Q682 1327 707.50 1349.50Q733 1372 739 1406Q744 1442 725.50 1465Q707 1488 675 1488Q643 1488 616 1464.50Q589 1441 584 1406Z"  horiz-adv-x="1081" vert-adv-y="2048"  />

      
      <glyph glyph-name="unie6" unicode="&#xe6;" d="M1215-21Q1077-21 983.50 47Q890 115 854 236L851 218L852 218Q794 123 674 51Q554-21 395-21Q232-21 148 62Q64 145 86 284Q107 428 229 507.50Q351 587 561 587L851 587L871 720Q895 882 836 965Q777 1048 638 1048Q491 1048 389 969.50Q287 891 270 771L226 777L224 783Q241 926 356 1014Q471 1102 646 1102Q771 1102 848.50 1029Q926 956 932 819Q1003 952 1118.50 1027Q1234 1102 1368 1102Q1549 1102 1642.50 982.50Q1736 863 1706 660L1694 577L907 577Q907 574 906 569.50Q905 565 905 564L895 500Q862 285 942 159Q1022 33 1223 33Q1321 33 1413.50 68Q1506 103 1575 164L1598 122Q1524 56 1434.50 17.50Q1345-21 1215-21M402 31Q526 31 646 97Q766 163 796 225L842 532L555 532Q377 532 266 459.50Q155 387 140 280Q122 158 189 94.50Q256 31 402 31M1360 1048Q1207 1048 1085.50 930.50Q964 813 924 638L926 632L1648 632L1653 664Q1679 839 1604 943.50Q1529 1048 1360 1048Z"  horiz-adv-x="1802" vert-adv-y="2048"  />

      
      <glyph glyph-name="unie7" unicode="&#xe7;" d="M464 33Q597 33 715 108Q833 183 856 333L901 333L903 327Q882 161 749.50 70Q617-21 456-21Q257-21 157.50 129.50Q58 280 95 520L101 562Q138 813 276 957.50Q414 1102 622 1102Q785 1102 889.50 1002.50Q994 903 963 725L961 720L914 720Q938 885 849.50 966.50Q761 1048 614 1048Q431 1048 309 910Q187 772 155 562L149 520Q115 296 192.50 164.50Q270 33 464 33M467-9L445-85Q535-92 581.50-130.50Q628-169 616-254Q602-345 517-394.50Q432-444 283-444L283-395Q384-395 467-358.50Q550-322 561-254Q571-187 530-163.50Q489-140 371-130L414-9L467-9Z"  horiz-adv-x="1039" vert-adv-y="2048"  />

      
      <glyph glyph-name="unie8" unicode="&#xe8;" d="M468-21Q285-21 171.50 128.50Q58 278 92 500L102 564Q138 808 289.50 955Q441 1102 641 1102Q815 1102 907 982Q999 862 969 660L957 577L158 577Q158 574 157 569.50Q156 565 156 564L146 500Q115 295 206.50 164Q298 33 476 33Q569 33 666.50 69Q764 105 828 165L850 123Q785 60 688.50 19.50Q592-21 468-21M633 1048Q472 1048 344.50 930Q217 812 175 637L177 631L911 631L916 664Q941 838 867 943Q793 1048 633 1048M721 1283L639 1283L438 1549L534 1549L721 1283Z"  horiz-adv-x="1039" vert-adv-y="2048"  />

      
      <glyph glyph-name="unie9" unicode="&#xe9;" d="M468-21Q285-21 171.50 128.50Q58 278 92 500L102 564Q138 808 289.50 955Q441 1102 641 1102Q815 1102 907 982Q999 862 969 660L957 577L158 577Q158 574 157 569.50Q156 565 156 564L146 500Q115 295 206.50 164Q298 33 476 33Q569 33 666.50 69Q764 105 828 165L850 123Q785 60 688.50 19.50Q592-21 468-21M633 1048Q472 1048 344.50 930Q217 812 175 637L177 631L911 631L916 664Q941 838 867 943Q793 1048 633 1048M871 1541L948 1541L950 1535L682 1275L616 1275L613 1281L871 1541Z"  horiz-adv-x="1039" vert-adv-y="2048"  />

      
      <glyph glyph-name="uniea" unicode="&#xea;" d="M468-21Q285-21 171.50 128.50Q58 278 92 500L102 564Q138 808 289.50 955Q441 1102 641 1102Q815 1102 907 982Q999 862 969 660L957 577L158 577Q158 574 157 569.50Q156 565 156 564L146 500Q115 295 206.50 164Q298 33 476 33Q569 33 666.50 69Q764 105 828 165L850 123Q785 60 688.50 19.50Q592-21 468-21M633 1048Q472 1048 344.50 930Q217 812 175 637L177 631L911 631L916 664Q941 838 867 943Q793 1048 633 1048M925 1293L923 1280L853 1280L696 1466L485 1280L419 1280L421 1297L662 1503L742 1503L925 1293Z"  horiz-adv-x="1039" vert-adv-y="2048"  />

      
      <glyph glyph-name="unieb" unicode="&#xeb;" d="M468-21Q285-21 171.50 128.50Q58 278 92 500L102 564Q138 808 289.50 955Q441 1102 641 1102Q815 1102 907 982Q999 862 969 660L957 577L158 577Q158 574 157 569.50Q156 565 156 564L146 500Q115 295 206.50 164Q298 33 476 33Q569 33 666.50 69Q764 105 828 165L850 123Q785 60 688.50 19.50Q592-21 468-21M633 1048Q472 1048 344.50 930Q217 812 175 637L177 631L911 631L916 664Q941 838 867 943Q793 1048 633 1048M982 1352L846 1352L863 1470L999 1470L982 1352M513 1352L376 1352L393 1470L530 1470L513 1352Z"  horiz-adv-x="1039" vert-adv-y="2048"  />

      
      <glyph glyph-name="uniec" unicode="&#xec;" d="M155 0L101 0L263 1082L317 1082L155 0M370 1261L288 1261L87 1527L183 1527L370 1261Z"  horiz-adv-x="406" vert-adv-y="2048"  />

      
      <glyph glyph-name="unied" unicode="&#xed;" d="M155 0L101 0L263 1082L317 1082L155 0M520 1519L597 1519L599 1513L331 1253L265 1253L262 1259L520 1519Z"  horiz-adv-x="406" vert-adv-y="2048"  />

      
      <glyph glyph-name="uniee" unicode="&#xee;" d="M155 0L101 0L263 1082L317 1082L155 0M575 1271L573 1258L503 1258L346 1444L135 1258L69 1258L71 1275L312 1481L392 1481L575 1271Z"  horiz-adv-x="406" vert-adv-y="2048"  />

      
      <glyph glyph-name="unief" unicode="&#xef;" d="M155 0L101 0L263 1082L317 1082L155 0M632 1331L496 1331L513 1449L649 1449L632 1331M163 1331L26 1331L43 1449L180 1449L163 1331Z"  horiz-adv-x="406" vert-adv-y="2048"  />

      
      <glyph glyph-name="unif0" unicode="&#xf0;" d="M945 1324Q1039 1223 1070.50 1084Q1102 945 1074 755L1041 535Q1003 281 850.50 130Q698-21 496-21Q304-21 192 114.50Q80 250 110 446Q147 696 283.50 824.50Q420 953 634 953Q766 953 870.50 900Q975 847 1020 754L1021 757Q1049 949 1015 1079.50Q981 1210 895 1297L500 1089L480 1137L854 1334Q806 1372 748 1404Q690 1436 618 1467L646 1517Q726 1483 791 1444.50Q856 1406 906 1362L1189 1511L1210 1463L945 1324M509 37Q681 37 817.50 178Q954 319 987 535L1007 666Q979 761 881 828Q783 895 625 895Q435 895 314.50 769Q194 643 165 446Q139 276 230 156.50Q321 37 509 37Z"  horiz-adv-x="1183" vert-adv-y="2048"  />

      
      <glyph glyph-name="unif1" unicode="&#xf1;" d="M276 871Q342 983 444.50 1042.50Q547 1102 685 1102Q855 1102 930 989Q1005 876 970 637L874 0L820 0L916 639Q951 873 885.50 960.50Q820 1048 678 1048Q514 1048 407 946Q300 844 249 687L146 0L92 0L175 554L172 554Q175 574 178.50 594Q182 614 187 633L254 1082L300 1082L276 871M1007 1479Q995 1393 937.50 1343Q880 1293 805 1293Q734 1293 663 1355.50Q592 1418 536 1418Q485 1418 444 1380.50Q403 1343 396 1283L342 1293Q353 1377 409 1424.50Q465 1472 543 1472Q611 1472 685 1410Q759 1348 813 1348Q861 1348 902.50 1387.50Q944 1427 953 1489L1007 1479Z"  horiz-adv-x="1121" vert-adv-y="2048"  />

      
      <glyph glyph-name="unif2" unicode="&#xf2;" d="M91 562Q128 809 280 955.50Q432 1102 645 1102Q848 1102 960.50 949.50Q1073 797 1038 562L1032 520Q994 272 842.50 125.50Q691-21 479-21Q276-21 162.50 131.50Q49 284 85 520L91 562M139 520Q107 309 199.50 171Q292 33 487 33Q669 33 808 176Q947 319 978 520L984 562Q1015 768 922 908Q829 1048 637 1048Q454 1048 314 903Q174 758 145 562L139 520M746 1282L664 1282L463 1548L559 1548L746 1282Z"  horiz-adv-x="1121" vert-adv-y="2048"  />

      
      <glyph glyph-name="unif3" unicode="&#xf3;" d="M91 562Q128 809 280 955.50Q432 1102 645 1102Q848 1102 960.50 949.50Q1073 797 1038 562L1032 520Q994 272 842.50 125.50Q691-21 479-21Q276-21 162.50 131.50Q49 284 85 520L91 562M139 520Q107 309 199.50 171Q292 33 487 33Q669 33 808 176Q947 319 978 520L984 562Q1015 768 922 908Q829 1048 637 1048Q454 1048 314 903Q174 758 145 562L139 520M896 1540L973 1540L975 1534L707 1274L641 1274L638 1280L896 1540Z"  horiz-adv-x="1121" vert-adv-y="2048"  />

      
      <glyph glyph-name="unif4" unicode="&#xf4;" d="M91 562Q128 809 280 955.50Q432 1102 645 1102Q848 1102 960.50 949.50Q1073 797 1038 562L1032 520Q994 272 842.50 125.50Q691-21 479-21Q276-21 162.50 131.50Q49 284 85 520L91 562M139 520Q107 309 199.50 171Q292 33 487 33Q669 33 808 176Q947 319 978 520L984 562Q1015 768 922 908Q829 1048 637 1048Q454 1048 314 903Q174 758 145 562L139 520M950 1292L948 1279L878 1279L721 1465L510 1279L444 1279L446 1296L687 1502L767 1502L950 1292Z"  horiz-adv-x="1121" vert-adv-y="2048"  />

      
      <glyph glyph-name="unif5" unicode="&#xf5;" d="M91 562Q128 809 280 955.50Q432 1102 645 1102Q848 1102 960.50 949.50Q1073 797 1038 562L1032 520Q994 272 842.50 125.50Q691-21 479-21Q276-21 162.50 131.50Q49 284 85 520L91 562M139 520Q107 309 199.50 171Q292 33 487 33Q669 33 808 176Q947 319 978 520L984 562Q1015 768 922 908Q829 1048 637 1048Q454 1048 314 903Q174 758 145 562L139 520M1011 1479Q999 1393 941.50 1343Q884 1293 809 1293Q738 1293 667 1355.50Q596 1418 540 1418Q489 1418 448 1380.50Q407 1343 400 1283L346 1293Q357 1377 413 1424.50Q469 1472 547 1472Q615 1472 689 1410Q763 1348 817 1348Q865 1348 906.50 1387.50Q948 1427 957 1489L1011 1479Z"  horiz-adv-x="1121" vert-adv-y="2048"  />

      
      <glyph glyph-name="unif6" unicode="&#xf6;" d="M91 562Q128 809 280 955.50Q432 1102 645 1102Q848 1102 960.50 949.50Q1073 797 1038 562L1032 520Q994 272 842.50 125.50Q691-21 479-21Q276-21 162.50 131.50Q49 284 85 520L91 562M139 520Q107 309 199.50 171Q292 33 487 33Q669 33 808 176Q947 319 978 520L984 562Q1015 768 922 908Q829 1048 637 1048Q454 1048 314 903Q174 758 145 562L139 520M1007 1351L871 1351L888 1469L1024 1469L1007 1351M538 1351L401 1351L418 1469L555 1469L538 1351Z"  horiz-adv-x="1121" vert-adv-y="2048"  />

      
      <glyph glyph-name="unif7" unicode="&#xf7;" d="M1094 686L96 686L104 738L1102 738L1094 686M704 1020L608 1020L626 1142L722 1142L704 1020M587 241L491 241L509 363L605 363L587 241Z"  horiz-adv-x="1159" vert-adv-y="2048"  />

      
      <glyph glyph-name="unif8" unicode="&#xf8;" d="M91 562Q128 809 280 955.50Q432 1102 645 1102Q704 1102 758.50 1087Q813 1072 859 1044L971 1219L1034 1219L902 1012Q986 940 1023 823Q1060 706 1038 562L1032 520Q994 272 842.50 125.50Q691-21 479-21Q422-21 371-8.50Q320 4 277 30L166-145L103-145L233 59Q142 129 102 249.50Q62 370 85 520L91 562M139 520Q118 385 149.50 277Q181 169 260 111L266 110L830 997Q790 1022 741.50 1035Q693 1048 637 1048Q454 1048 314 903Q174 758 145 562L139 520M984 562Q1002 688 973.50 793Q945 898 874 958L868 959L306 75Q344 54 389 43.50Q434 33 487 33Q669 33 808 176Q947 319 978 520L984 562Z"  horiz-adv-x="1121" vert-adv-y="2048"  />

      
      <glyph glyph-name="unif9" unicode="&#xf9;" d="M825 0L845 185Q779 85 677.50 32Q576-21 441-21Q280-21 200 99Q120 219 158 465L250 1082L304 1082L211 463Q176 234 241 133.50Q306 33 447 33Q608 33 713 116.50Q818 200 865 335L977 1082L1032 1082L936 445L939 445Q942 461 936 427Q930 393 927 381L870 0L825 0M740 1261L658 1261L457 1527L553 1527L740 1261Z"  horiz-adv-x="1121" vert-adv-y="2048"  />

      
      <glyph glyph-name="unifa" unicode="&#xfa;" d="M825 0L845 185Q779 85 677.50 32Q576-21 441-21Q280-21 200 99Q120 219 158 465L250 1082L304 1082L211 463Q176 234 241 133.50Q306 33 447 33Q608 33 713 116.50Q818 200 865 335L977 1082L1032 1082L936 445L939 445Q942 461 936 427Q930 393 927 381L870 0L825 0M891 1519L968 1519L970 1513L702 1253L636 1253L633 1259L891 1519Z"  horiz-adv-x="1121" vert-adv-y="2048"  />

      
      <glyph glyph-name="unifb" unicode="&#xfb;" d="M825 0L845 185Q779 85 677.50 32Q576-21 441-21Q280-21 200 99Q120 219 158 465L250 1082L304 1082L211 463Q176 234 241 133.50Q306 33 447 33Q608 33 713 116.50Q818 200 865 335L977 1082L1032 1082L936 445L939 445Q942 461 936 427Q930 393 927 381L870 0L825 0M945 1271L943 1258L873 1258L716 1444L505 1258L439 1258L441 1275L682 1481L762 1481L945 1271Z"  horiz-adv-x="1121" vert-adv-y="2048"  />

      
      <glyph glyph-name="unifc" unicode="&#xfc;" d="M825 0L845 185Q779 85 677.50 32Q576-21 441-21Q280-21 200 99Q120 219 158 465L250 1082L304 1082L211 463Q176 234 241 133.50Q306 33 447 33Q608 33 713 116.50Q818 200 865 335L977 1082L1032 1082L936 445L939 445Q942 461 936 427Q930 393 927 381L870 0L825 0M1002 1331L866 1331L883 1449L1019 1449L1002 1331M533 1331L396 1331L413 1449L550 1449L533 1331Z"  horiz-adv-x="1121" vert-adv-y="2048"  />

      
      <glyph glyph-name="unifd" unicode="&#xfd;" d="M407 196L431 88L437 88L446 104L966 1082L1026 1082L356-180Q294-294 225-365.50Q156-437 28-437Q10-437-12.50-433.50Q-35-430-46-426L-29-375Q-18-378 3-381Q24-384 36-384Q124-384 186.50-328.50Q249-273 304-170L395 6L125 1082L184 1082L407 196M825 1519L902 1519L904 1513L636 1253L570 1253L567 1259L825 1519Z"  horiz-adv-x="978" vert-adv-y="2048"  />

      
      <glyph glyph-name="unife" unicode="&#xfe;" d="M997 521Q958 262 830 120.50Q702-21 510-21Q389-21 302 30Q215 81 172 167L147 0L146 0L84-416L30-416L136 297L136 305L202 745L204 751L254 1082L255 1082L327 1560L381 1560L281 894Q350 991 450 1046.50Q550 1102 676 1102Q859 1102 948.50 949Q1038 796 1000 542L997 521M945 542Q979 775 910.50 911.50Q842 1048 669 1048Q523 1048 422.50 970.50Q322 893 264 782L186 263Q212 158 295.50 95.50Q379 33 519 33Q683 33 796 166.50Q909 300 942 521L945 542Z"  horiz-adv-x="1121" vert-adv-y="2048"  />

      
      <glyph glyph-name="uniff" unicode="&#xff;" d="M407 196L431 88L437 88L446 104L966 1082L1026 1082L356-180Q294-294 225-365.50Q156-437 28-437Q10-437-12.50-433.50Q-35-430-46-426L-29-375Q-18-378 3-381Q24-384 36-384Q124-384 186.50-328.50Q249-273 304-170L395 6L125 1082L184 1082L407 196M936 1331L800 1331L817 1449L953 1449L936 1331M467 1331L330 1331L347 1449L484 1449L467 1331Z"  horiz-adv-x="978" vert-adv-y="2048"  />

      
      <glyph glyph-name="uni0100" unicode="&#x0100;" d="M952 435L241 435L13 0L-46 0L716 1456L782 1456L1109 0L1050 0L952 435M269 489L940 489L758 1304L743 1388L737 1389L697 1304L269 489M1089 1733L462 1733L470 1786L1097 1786L1089 1733Z"  horiz-adv-x="1223" vert-adv-y="2048"  />

      
      <glyph glyph-name="uni0101" unicode="&#x0101;" d="M800 199Q730 101 610 40Q490-21 332-21Q187-21 110.50 62.50Q34 146 55 284Q75 425 216.50 514.50Q358 604 553 604L861 604L885 762Q906 902 831.50 975Q757 1048 598 1048Q457 1048 354 976.50Q251 905 234 794L189 796L188 801Q202 931 317.50 1016.50Q433 1102 606 1102Q774 1102 868.50 1013Q963 924 939 760L858 218Q849 159 847 106Q845 53 853 0L793 0Q791 84 791.50 113Q792 142 798 183L800 199M340 32Q495 32 619.50 103.50Q744 175 816 305L853 549L547 549Q385 549 254.50 471Q124 393 108 280Q91 167 154 99.50Q217 32 340 32M963 1413L336 1413L344 1466L971 1466L963 1413Z"  horiz-adv-x="1081" vert-adv-y="2048"  />

      
      <glyph glyph-name="uni0102" unicode="&#x0102;" d="M952 435L241 435L13 0L-46 0L716 1456L782 1456L1109 0L1050 0L952 435M269 489L940 489L758 1304L743 1388L737 1389L697 1304L269 489M1066 1839L1068 1833Q1056 1722 973.50 1656.50Q891 1591 762 1591Q638 1591 570.50 1659Q503 1727 523 1833L526 1839L572 1839Q559 1750 605.50 1698.50Q652 1647 770 1647Q877 1647 943 1701.50Q1009 1756 1021 1839L1066 1839Z"  horiz-adv-x="1223" vert-adv-y="2048"  />

      
      <glyph glyph-name="uni0103" unicode="&#x0103;" d="M800 199Q730 101 610 40Q490-21 332-21Q187-21 110.50 62.50Q34 146 55 284Q75 425 216.50 514.50Q358 604 553 604L861 604L885 762Q906 902 831.50 975Q757 1048 598 1048Q457 1048 354 976.50Q251 905 234 794L189 796L188 801Q202 931 317.50 1016.50Q433 1102 606 1102Q774 1102 868.50 1013Q963 924 939 760L858 218Q849 159 847 106Q845 53 853 0L793 0Q791 84 791.50 113Q792 142 798 183L800 199M340 32Q495 32 619.50 103.50Q744 175 816 305L853 549L547 549Q385 549 254.50 471Q124 393 108 280Q91 167 154 99.50Q217 32 340 32M940 1519L942 1513Q930 1402 847.50 1336.50Q765 1271 636 1271Q512 1271 444.50 1339Q377 1407 397 1513L400 1519L446 1519Q433 1430 479.50 1378.50Q526 1327 644 1327Q751 1327 817 1381.50Q883 1436 895 1519L940 1519Z"  horiz-adv-x="1081" vert-adv-y="2048"  />

      
      <glyph glyph-name="uni0104" unicode="&#x0104;" d="M952 435L241 435L13 0L-46 0L716 1456L782 1456L1109 0L1050 0L952 435M269 489L940 489L758 1304L743 1388L737 1389L697 1304L269 489M1099 0Q1013-69 969.50-116.50Q926-164 918-223Q913-244 925.50-273.50Q938-303 990-303Q1023-303 1051-292Q1079-281 1105-265L1114-313Q1087-331 1054.50-344Q1022-357 981-357Q922-357 888-321.50Q854-286 864-223Q872-160 923-99Q974-38 1050 20L1099 0Z"  horiz-adv-x="1223" vert-adv-y="2048"  />

      
      <glyph glyph-name="uni0105" unicode="&#x0105;" d="M800 199Q730 101 610 40Q490-21 332-21Q187-21 110.50 62.50Q34 146 55 284Q75 425 216.50 514.50Q358 604 553 604L861 604L885 762Q906 902 831.50 975Q757 1048 598 1048Q457 1048 354 976.50Q251 905 234 794L189 796L188 801Q202 931 317.50 1016.50Q433 1102 606 1102Q774 1102 868.50 1013Q963 924 939 760L858 218Q849 159 847 106Q845 53 853 0L793 0Q791 84 791.50 113Q792 142 798 183L800 199M340 32Q495 32 619.50 103.50Q744 175 816 305L853 549L547 549Q385 549 254.50 471Q124 393 108 280Q91 167 154 99.50Q217 32 340 32M843 0Q757-69 713.50-116.50Q670-164 662-223Q657-244 669.50-273.50Q682-303 734-303Q767-303 795-292Q823-281 849-265L858-313Q831-331 798.50-344Q766-357 725-357Q666-357 632-321.50Q598-286 608-223Q616-160 667-99Q718-38 794 20L843 0Z"  horiz-adv-x="1081" vert-adv-y="2048"  />

      
      <glyph glyph-name="uni0106" unicode="&#x0106;" d="M1158 446L1160 440Q1129 207 974.50 93Q820-21 588-21Q358-21 236 157Q114 335 157 619L190 837Q233 1134 402 1305.50Q571 1477 813 1477Q1032 1477 1157.50 1357Q1283 1237 1247 1018L1244 1012L1198 1012Q1228 1216 1122.50 1319.50Q1017 1423 804 1423Q599 1423 441 1261Q283 1099 244 839L211 619Q169 344 274.50 188.50Q380 33 596 33Q799 33 940.50 137Q1082 241 1113 446L1158 446M1044 1883L1121 1883L1123 1877L855 1617L789 1617L786 1623L1044 1883Z"  horiz-adv-x="1327" vert-adv-y="2048"  />

      
      <glyph glyph-name="uni0107" unicode="&#x0107;" d="M464 33Q597 33 715 108Q833 183 856 333L901 333L903 327Q882 161 749.50 70Q617-21 456-21Q257-21 157.50 129.50Q58 280 95 520L101 562Q138 813 276 957.50Q414 1102 622 1102Q785 1102 889.50 1002.50Q994 903 963 725L961 720L914 720Q938 885 849.50 966.50Q761 1048 614 1048Q431 1048 309 910Q187 772 155 562L149 520Q115 296 192.50 164.50Q270 33 464 33M861 1540L938 1540L940 1534L672 1274L606 1274L603 1280L861 1540Z"  horiz-adv-x="1039" vert-adv-y="2048"  />

      
      <glyph glyph-name="uni0108" unicode="&#x0108;" d="M1158 446L1160 440Q1129 207 974.50 93Q820-21 588-21Q358-21 236 157Q114 335 157 619L190 837Q233 1134 402 1305.50Q571 1477 813 1477Q1032 1477 1157.50 1357Q1283 1237 1247 1018L1244 1012L1198 1012Q1228 1216 1122.50 1319.50Q1017 1423 804 1423Q599 1423 441 1261Q283 1099 244 839L211 619Q169 344 274.50 188.50Q380 33 596 33Q799 33 940.50 137Q1082 241 1113 446L1158 446M1098 1635L1096 1622L1026 1622L869 1808L658 1622L592 1622L594 1639L835 1845L915 1845L1098 1635Z"  horiz-adv-x="1327" vert-adv-y="2048"  />

      
      <glyph glyph-name="uni0109" unicode="&#x0109;" d="M464 33Q597 33 715 108Q833 183 856 333L901 333L903 327Q882 161 749.50 70Q617-21 456-21Q257-21 157.50 129.50Q58 280 95 520L101 562Q138 813 276 957.50Q414 1102 622 1102Q785 1102 889.50 1002.50Q994 903 963 725L961 720L914 720Q938 885 849.50 966.50Q761 1048 614 1048Q431 1048 309 910Q187 772 155 562L149 520Q115 296 192.50 164.50Q270 33 464 33M915 1292L913 1279L843 1279L686 1465L475 1279L409 1279L411 1296L652 1502L732 1502L915 1292Z"  horiz-adv-x="1039" vert-adv-y="2048"  />

      
      <glyph glyph-name="uni010A" unicode="&#x010A;" d="M1158 446L1160 440Q1129 207 974.50 93Q820-21 588-21Q358-21 236 157Q114 335 157 619L190 837Q233 1134 402 1305.50Q571 1477 813 1477Q1032 1477 1157.50 1357Q1283 1237 1247 1018L1244 1012L1198 1012Q1228 1216 1122.50 1319.50Q1017 1423 804 1423Q599 1423 441 1261Q283 1099 244 839L211 619Q169 344 274.50 188.50Q380 33 596 33Q799 33 940.50 137Q1082 241 1113 446L1158 446M898 1688L803 1688L823 1826L918 1826L898 1688Z"  horiz-adv-x="1327" vert-adv-y="2048"  />

      
      <glyph glyph-name="uni010B" unicode="&#x010B;" d="M464 33Q597 33 715 108Q833 183 856 333L901 333L903 327Q882 161 749.50 70Q617-21 456-21Q257-21 157.50 129.50Q58 280 95 520L101 562Q138 813 276 957.50Q414 1102 622 1102Q785 1102 889.50 1002.50Q994 903 963 725L961 720L914 720Q938 885 849.50 966.50Q761 1048 614 1048Q431 1048 309 910Q187 772 155 562L149 520Q115 296 192.50 164.50Q270 33 464 33M715 1345L620 1345L640 1483L735 1483L715 1345Z"  horiz-adv-x="1039" vert-adv-y="2048"  />

      
      <glyph glyph-name="uni010C" unicode="&#x010C;" d="M1158 446L1160 440Q1129 207 974.50 93Q820-21 588-21Q358-21 236 157Q114 335 157 619L190 837Q233 1134 402 1305.50Q571 1477 813 1477Q1032 1477 1157.50 1357Q1283 1237 1247 1018L1244 1012L1198 1012Q1228 1216 1122.50 1319.50Q1017 1423 804 1423Q599 1423 441 1261Q283 1099 244 839L211 619Q169 344 274.50 188.50Q380 33 596 33Q799 33 940.50 137Q1082 241 1113 446L1158 446M846 1661L1058 1848L1125 1848L1123 1832L880 1625L801 1625L618 1834L620 1848L691 1848L846 1661Z"  horiz-adv-x="1327" vert-adv-y="2048"  />

      
      <glyph glyph-name="uni010D" unicode="&#x010D;" d="M464 33Q597 33 715 108Q833 183 856 333L901 333L903 327Q882 161 749.50 70Q617-21 456-21Q257-21 157.50 129.50Q58 280 95 520L101 562Q138 813 276 957.50Q414 1102 622 1102Q785 1102 889.50 1002.50Q994 903 963 725L961 720L914 720Q938 885 849.50 966.50Q761 1048 614 1048Q431 1048 309 910Q187 772 155 562L149 520Q115 296 192.50 164.50Q270 33 464 33M664 1318L876 1505L943 1505L941 1489L698 1282L619 1282L436 1491L438 1505L509 1505L664 1318Z"  horiz-adv-x="1039" vert-adv-y="2048"  />

      
      <glyph glyph-name="uni010E" unicode="&#x010E;" d="M120 0L338 1456L771 1456Q1013 1456 1165 1274.50Q1317 1093 1277 817L1250 639Q1206 348 1006.50 174Q807 0 553 0L120 0M384 1402L182 54L561 54Q779 54 968.50 221.50Q1158 389 1196 639L1223 820Q1261 1080 1127 1241Q993 1402 763 1402L384 1402M780 1640L992 1827L1059 1827L1057 1811L814 1604L735 1604L552 1813L554 1827L625 1827L780 1640Z"  horiz-adv-x="1370" vert-adv-y="2048"  />

      
      <glyph glyph-name="uni010F" unicode="&#x010F;" d="M123 542Q163 809 292 955.50Q421 1102 615 1102Q736 1102 821.50 1044Q907 986 949 887L1050 1560L1104 1560L982 750Q982 748 982.50 746.50Q983 745 983 745L917 304L914 297L870 0L818 0L842 167Q774 81 672.50 30Q571-21 445-21Q262-21 172.50 126.50Q83 274 120 521L123 542M176 521Q141 289 209.50 161Q278 33 452 33Q588 33 693.50 98Q799 163 857 269L933 776Q911 891 836 969.50Q761 1048 606 1048Q441 1048 326.50 906Q212 764 179 542L176 521M1357 1453L1280 1267L1230 1267L1302 1449L1318 1558L1372 1558L1357 1453Z"  horiz-adv-x="1121" vert-adv-y="2048"  />

      
      <glyph glyph-name="uni0110" unicode="&#x0110;" d="M120 0L227 713L87 713L95 767L235 767L338 1456L771 1456Q1013 1456 1165 1274.50Q1317 1093 1277 817L1250 639Q1206 348 1006.50 174Q807 0 553 0L120 0M674 713L281 713L182 54L561 54Q779 54 968.50 221.50Q1158 389 1196 639L1223 820Q1261 1080 1127 1241Q993 1402 763 1402L384 1402L289 767L682 767L674 713Z"  horiz-adv-x="1370" vert-adv-y="2048"  />

      
      <glyph glyph-name="uni0111" unicode="&#x0111;" d="M1223 1281L1062 1281L982 750Q982 748 982.50 746.50Q983 745 983 745L917 304L914 297L870 0L818 0L842 167Q774 81 672.50 30Q571-21 445-21Q262-21 172.50 126.50Q83 274 120 521L123 542Q163 809 292 955.50Q421 1102 615 1102Q736 1102 821.50 1044Q907 986 949 887L1008 1281L636 1281L644 1335L1016 1335L1050 1560L1104 1560L1070 1335L1231 1335L1223 1281M176 521Q141 289 209.50 161Q278 33 452 33Q588 33 693.50 98Q799 163 857 269L933 776Q911 891 836 969.50Q761 1048 606 1048Q441 1048 326.50 906Q212 764 179 542L176 521Z"  horiz-adv-x="1121" vert-adv-y="2048"  />

      
      <glyph glyph-name="uni0112" unicode="&#x0112;" d="M984 732L283 732L182 54L984 54L976 0L120 0L338 1456L1194 1456L1186 1402L384 1402L291 786L992 786L984 732M1096 1733L469 1733L477 1786L1104 1786L1096 1733Z"  horiz-adv-x="1129" vert-adv-y="2048"  />

      
      <glyph glyph-name="uni0113" unicode="&#x0113;" d="M468-21Q285-21 171.50 128.50Q58 278 92 500L102 564Q138 808 289.50 955Q441 1102 641 1102Q815 1102 907 982Q999 862 969 660L957 577L158 577Q158 574 157 569.50Q156 565 156 564L146 500Q115 295 206.50 164Q298 33 476 33Q569 33 666.50 69Q764 105 828 165L850 123Q785 60 688.50 19.50Q592-21 468-21M633 1048Q472 1048 344.50 930Q217 812 175 637L177 631L911 631L916 664Q941 838 867 943Q793 1048 633 1048M985 1412L358 1412L366 1465L993 1465L985 1412Z"  horiz-adv-x="1039" vert-adv-y="2048"  />

      
      <glyph glyph-name="uni0114" unicode="&#x0114;" d="M984 732L283 732L182 54L984 54L976 0L120 0L338 1456L1194 1456L1186 1402L384 1402L291 786L992 786L984 732M1073 1839L1075 1833Q1063 1722 980.50 1656.50Q898 1591 769 1591Q645 1591 577.50 1659Q510 1727 530 1833L533 1839L579 1839Q566 1750 612.50 1698.50Q659 1647 777 1647Q884 1647 950 1701.50Q1016 1756 1028 1839L1073 1839Z"  horiz-adv-x="1129" vert-adv-y="2048"  />

      
      <glyph glyph-name="uni0115" unicode="&#x0115;" d="M468-21Q285-21 171.50 128.50Q58 278 92 500L102 564Q138 808 289.50 955Q441 1102 641 1102Q815 1102 907 982Q999 862 969 660L957 577L158 577Q158 574 157 569.50Q156 565 156 564L146 500Q115 295 206.50 164Q298 33 476 33Q569 33 666.50 69Q764 105 828 165L850 123Q785 60 688.50 19.50Q592-21 468-21M633 1048Q472 1048 344.50 930Q217 812 175 637L177 631L911 631L916 664Q941 838 867 943Q793 1048 633 1048M963 1518L965 1512Q953 1401 870.50 1335.50Q788 1270 659 1270Q535 1270 467.50 1338Q400 1406 420 1512L423 1518L469 1518Q456 1429 502.50 1377.50Q549 1326 667 1326Q774 1326 840 1380.50Q906 1435 918 1518L963 1518Z"  horiz-adv-x="1039" vert-adv-y="2048"  />

      
      <glyph glyph-name="uni0116" unicode="&#x0116;" d="M984 732L283 732L182 54L984 54L976 0L120 0L338 1456L1194 1456L1186 1402L384 1402L291 786L992 786L984 732M835 1667L740 1667L760 1805L855 1805L835 1667Z"  horiz-adv-x="1129" vert-adv-y="2048"  />

      
      <glyph glyph-name="uni0117" unicode="&#x0117;" d="M468-21Q285-21 171.50 128.50Q58 278 92 500L102 564Q138 808 289.50 955Q441 1102 641 1102Q815 1102 907 982Q999 862 969 660L957 577L158 577Q158 574 157 569.50Q156 565 156 564L146 500Q115 295 206.50 164Q298 33 476 33Q569 33 666.50 69Q764 105 828 165L850 123Q785 60 688.50 19.50Q592-21 468-21M633 1048Q472 1048 344.50 930Q217 812 175 637L177 631L911 631L916 664Q941 838 867 943Q793 1048 633 1048M725 1346L630 1346L650 1484L745 1484L725 1346Z"  horiz-adv-x="1039" vert-adv-y="2048"  />

      
      <glyph glyph-name="uni0118" unicode="&#x0118;" d="M984 732L283 732L182 54L984 54L976 0L120 0L338 1456L1194 1456L1186 1402L384 1402L291 786L992 786L984 732M554 0Q468-69 424.50-116.50Q381-164 373-223Q368-244 380.50-273.50Q393-303 445-303Q478-303 506-292Q534-281 560-265L569-313Q542-331 509.50-344Q477-357 436-357Q377-357 343-321.50Q309-286 319-223Q327-160 378-99Q429-38 505 20L554 0Z"  horiz-adv-x="1129" vert-adv-y="2048"  />

      
      <glyph glyph-name="uni0119" unicode="&#x0119;" d="M468-21Q285-21 171.50 128.50Q58 278 92 500L102 564Q138 808 289.50 955Q441 1102 641 1102Q815 1102 907 982Q999 862 969 660L957 577L158 577Q158 574 157 569.50Q156 565 156 564L146 500Q115 295 206.50 164Q298 33 476 33Q569 33 666.50 69Q764 105 828 165L850 123Q785 60 688.50 19.50Q592-21 468-21M633 1048Q472 1048 344.50 930Q217 812 175 637L177 631L911 631L916 664Q941 838 867 943Q793 1048 633 1048M741 58Q655-11 611.50-58.50Q568-106 560-165Q555-186 567.50-215.50Q580-245 632-245Q665-245 693-234Q721-223 747-207L756-255Q729-273 696.50-286Q664-299 623-299Q564-299 530-263.50Q496-228 506-165Q514-102 565-41Q616 20 692 78L741 58Z"  horiz-adv-x="1039" vert-adv-y="2048"  />

      
      <glyph glyph-name="uni011A" unicode="&#x011A;" d="M984 732L283 732L182 54L984 54L976 0L120 0L338 1456L1194 1456L1186 1402L384 1402L291 786L992 786L984 732M784 1640L996 1827L1063 1827L1061 1811L818 1604L739 1604L556 1813L558 1827L629 1827L784 1640Z"  horiz-adv-x="1129" vert-adv-y="2048"  />

      
      <glyph glyph-name="uni011B" unicode="&#x011B;" d="M468-21Q285-21 171.50 128.50Q58 278 92 500L102 564Q138 808 289.50 955Q441 1102 641 1102Q815 1102 907 982Q999 862 969 660L957 577L158 577Q158 574 157 569.50Q156 565 156 564L146 500Q115 295 206.50 164Q298 33 476 33Q569 33 666.50 69Q764 105 828 165L850 123Q785 60 688.50 19.50Q592-21 468-21M633 1048Q472 1048 344.50 930Q217 812 175 637L177 631L911 631L916 664Q941 838 867 943Q793 1048 633 1048M674 1319L886 1506L953 1506L951 1490L708 1283L629 1283L446 1492L448 1506L519 1506L674 1319Z"  horiz-adv-x="1039" vert-adv-y="2048"  />

      
      <glyph glyph-name="uni011C" unicode="&#x011C;" d="M1175 196Q1117 118 976.50 48.50Q836-21 646-21Q406-21 272 158.50Q138 338 181 620L217 858Q259 1143 434 1310Q609 1477 854 1477Q1078 1477 1202.50 1355.50Q1327 1234 1294 1049L1292 1043L1246 1043Q1272 1216 1169 1319.50Q1066 1423 845 1423Q632 1423 469.50 1264Q307 1105 271 860L235 620Q194 350 308 191.50Q422 33 654 33Q821 33 948 90.50Q1075 148 1125 221L1187 635L742 635L751 690L1250 690L1175 196M1089 1635L1087 1622L1017 1622L860 1808L649 1622L583 1622L585 1639L826 1845L906 1845L1089 1635Z"  horiz-adv-x="1429" vert-adv-y="2048"  />

      
      <glyph glyph-name="uni011D" unicode="&#x011D;" d="M123 542Q163 809 292 955.50Q421 1102 615 1102Q736 1102 821.50 1044Q907 986 949 886L986 1082L1032 1082L982 750Q982 749 982.50 747.50Q983 746 983 745L917 304L914 296L869-6Q836-220 713-328.50Q590-437 395-437Q319-437 234.50-420.50Q150-404 91-375L115-321Q184-353 249-368.50Q314-384 401-384Q569-384 678-285Q787-186 814-6L839 165Q771 80 670 29.50Q569-21 445-21Q262-21 172.50 126.50Q83 274 120 521L123 542M175 521Q140 289 209 161Q278 33 452 33Q586 33 691 96.50Q796 160 854 265L932 779Q910 893 835 970.50Q760 1048 606 1048Q441 1048 326 906Q211 764 178 542L175 521M935 1292L933 1279L863 1279L706 1465L495 1279L429 1279L431 1296L672 1502L752 1502L935 1292Z"  horiz-adv-x="1121" vert-adv-y="2048"  />

      
      <glyph glyph-name="uni011E" unicode="&#x011E;" d="M1175 196Q1117 118 976.50 48.50Q836-21 646-21Q406-21 272 158.50Q138 338 181 620L217 858Q259 1143 434 1310Q609 1477 854 1477Q1078 1477 1202.50 1355.50Q1327 1234 1294 1049L1292 1043L1246 1043Q1272 1216 1169 1319.50Q1066 1423 845 1423Q632 1423 469.50 1264Q307 1105 271 860L235 620Q194 350 308 191.50Q422 33 654 33Q821 33 948 90.50Q1075 148 1125 221L1187 635L742 635L751 690L1250 690L1175 196M1127 1860L1129 1854Q1117 1743 1034.50 1677.50Q952 1612 823 1612Q699 1612 631.50 1680Q564 1748 584 1854L587 1860L633 1860Q620 1771 666.50 1719.50Q713 1668 831 1668Q938 1668 1004 1722.50Q1070 1777 1082 1860L1127 1860Z"  horiz-adv-x="1429" vert-adv-y="2048"  />

      
      <glyph glyph-name="uni011F" unicode="&#x011F;" d="M123 542Q163 809 292 955.50Q421 1102 615 1102Q736 1102 821.50 1044Q907 986 949 886L986 1082L1032 1082L982 750Q982 749 982.50 747.50Q983 746 983 745L917 304L914 296L869-6Q836-220 713-328.50Q590-437 395-437Q319-437 234.50-420.50Q150-404 91-375L115-321Q184-353 249-368.50Q314-384 401-384Q569-384 678-285Q787-186 814-6L839 165Q771 80 670 29.50Q569-21 445-21Q262-21 172.50 126.50Q83 274 120 521L123 542M175 521Q140 289 209 161Q278 33 452 33Q586 33 691 96.50Q796 160 854 265L932 779Q910 893 835 970.50Q760 1048 606 1048Q441 1048 326 906Q211 764 178 542L175 521M973 1517L975 1511Q963 1400 880.50 1334.50Q798 1269 669 1269Q545 1269 477.50 1337Q410 1405 430 1511L433 1517L479 1517Q466 1428 512.50 1376.50Q559 1325 677 1325Q784 1325 850 1379.50Q916 1434 928 1517L973 1517Z"  horiz-adv-x="1121" vert-adv-y="2048"  />

      
      <glyph glyph-name="uni0120" unicode="&#x0120;" d="M1175 196Q1117 118 976.50 48.50Q836-21 646-21Q406-21 272 158.50Q138 338 181 620L217 858Q259 1143 434 1310Q609 1477 854 1477Q1078 1477 1202.50 1355.50Q1327 1234 1294 1049L1292 1043L1246 1043Q1272 1216 1169 1319.50Q1066 1423 845 1423Q632 1423 469.50 1264Q307 1105 271 860L235 620Q194 350 308 191.50Q422 33 654 33Q821 33 948 90.50Q1075 148 1125 221L1187 635L742 635L751 690L1250 690L1175 196M889 1688L794 1688L814 1826L909 1826L889 1688Z"  horiz-adv-x="1429" vert-adv-y="2048"  />

      
      <glyph glyph-name="uni0121" unicode="&#x0121;" d="M123 542Q163 809 292 955.50Q421 1102 615 1102Q736 1102 821.50 1044Q907 986 949 886L986 1082L1032 1082L982 750Q982 749 982.50 747.50Q983 746 983 745L917 304L914 296L869-6Q836-220 713-328.50Q590-437 395-437Q319-437 234.50-420.50Q150-404 91-375L115-321Q184-353 249-368.50Q314-384 401-384Q569-384 678-285Q787-186 814-6L839 165Q771 80 670 29.50Q569-21 445-21Q262-21 172.50 126.50Q83 274 120 521L123 542M175 521Q140 289 209 161Q278 33 452 33Q586 33 691 96.50Q796 160 854 265L932 779Q910 893 835 970.50Q760 1048 606 1048Q441 1048 326 906Q211 764 178 542L175 521M735 1345L640 1345L660 1483L755 1483L735 1345Z"  horiz-adv-x="1121" vert-adv-y="2048"  />

      
      <glyph glyph-name="uni0122" unicode="&#x0122;" d="M1175 196Q1117 118 976.50 48.50Q836-21 646-21Q406-21 272 158.50Q138 338 181 620L217 858Q259 1143 434 1310Q609 1477 854 1477Q1078 1477 1202.50 1355.50Q1327 1234 1294 1049L1292 1043L1246 1043Q1272 1216 1169 1319.50Q1066 1423 845 1423Q632 1423 469.50 1264Q307 1105 271 860L235 620Q194 350 308 191.50Q422 33 654 33Q821 33 948 90.50Q1075 148 1125 221L1187 635L742 635L751 690L1250 690L1175 196M638-260L561-446L511-446L583-264L599-155L653-155L638-260Z"  horiz-adv-x="1429" vert-adv-y="2048"  />

      
      <glyph glyph-name="uni0123" unicode="&#x0123;" d="M123 542Q163 809 292 955.50Q421 1102 615 1102Q736 1102 821.50 1044Q907 986 949 886L986 1082L1032 1082L982 750Q982 749 982.50 747.50Q983 746 983 745L917 304L914 296L869-6Q836-220 713-328.50Q590-437 395-437Q319-437 234.50-420.50Q150-404 91-375L115-321Q184-353 249-368.50Q314-384 401-384Q569-384 678-285Q787-186 814-6L839 165Q771 80 670 29.50Q569-21 445-21Q262-21 172.50 126.50Q83 274 120 521L123 542M175 521Q140 289 209 161Q278 33 452 33Q586 33 691 96.50Q796 160 854 265L932 779Q910 893 835 970.50Q760 1048 606 1048Q441 1048 326 906Q211 764 178 542L175 521M670 1402L757 1590L807 1590L724 1406L705 1274L651 1274L670 1402Z"  horiz-adv-x="1121" vert-adv-y="2048"  />

      
      <glyph glyph-name="uni0124" unicode="&#x0124;" d="M1158 0L1104 0L1208 695L278 695L174 0L120 0L338 1456L392 1456L286 749L1216 749L1322 1456L1376 1456L1158 0M1132 1614L1130 1601L1060 1601L903 1787L692 1601L626 1601L628 1618L869 1824L949 1824L1132 1614Z"  horiz-adv-x="1438" vert-adv-y="2048"  />

      
      <glyph glyph-name="uni0125" unicode="&#x0125;" d="M275 863Q343 979 448.50 1040.50Q554 1102 695 1102Q858 1102 932.50 993.50Q1007 885 973 658L874 0L819 0L918 660Q951 882 886.50 965Q822 1048 688 1048Q522 1048 410.50 944Q299 840 248 681L146 0L92 0L175 554L173 554Q175 570 178 586.50Q181 603 185 619L326 1560L380 1560L275 863M889 1613L887 1600L817 1600L660 1786L449 1600L383 1600L385 1617L626 1823L706 1823L889 1613Z"  horiz-adv-x="1121" vert-adv-y="2048"  />

      
      <glyph glyph-name="uni0126" unicode="&#x0126;" d="M1279 1081L1434 1081L1426 1028L1271 1028L1117 0L1063 0L1167 695L237 695L133 0L79 0L233 1028L94 1028L102 1081L241 1081L297 1456L351 1456L295 1081L1225 1081L1281 1456L1335 1456L1279 1081M245 749L1175 749L1217 1028L287 1028L245 749Z"  horiz-adv-x="1389" vert-adv-y="2048"  />

      
      <glyph glyph-name="uni0127" unicode="&#x0127;" d="M764 1281L338 1281L275 863Q343 979 448.50 1040.50Q554 1102 695 1102Q858 1102 932.50 993.50Q1007 885 973 658L874 0L819 0L918 660Q951 882 886.50 965Q822 1048 688 1048Q522 1048 410.50 944Q299 840 248 681L146 0L92 0L175 554L173 554Q175 570 178 586.50Q181 603 185 619L284 1281L177 1281L185 1335L292 1335L326 1560L380 1560L346 1335L772 1335L764 1281Z"  horiz-adv-x="1121" vert-adv-y="2048"  />

      
      <glyph glyph-name="uni0128" unicode="&#x0128;" d="M214 0L160 0L378 1456L432 1456L214 0M746 1801Q734 1715 676.50 1665Q619 1615 544 1615Q473 1615 402 1677.50Q331 1740 275 1740Q224 1740 183 1702.50Q142 1665 135 1605L81 1615Q92 1699 148 1746.50Q204 1794 282 1794Q350 1794 424 1732Q498 1670 552 1670Q600 1670 641.50 1709.50Q683 1749 692 1811L746 1801Z"  horiz-adv-x="534" vert-adv-y="2048"  />

      
      <glyph glyph-name="uni0129" unicode="&#x0129;" d="M155 0L101 0L263 1082L317 1082L155 0M636 1459Q624 1373 566.50 1323Q509 1273 434 1273Q363 1273 292 1335.50Q221 1398 165 1398Q114 1398 73 1360.50Q32 1323 25 1263L-29 1273Q-18 1357 38 1404.50Q94 1452 172 1452Q240 1452 314 1390Q388 1328 442 1328Q490 1328 531.50 1367.50Q573 1407 582 1469L636 1459Z"  horiz-adv-x="406" vert-adv-y="2048"  />

      
      <glyph glyph-name="uni012A" unicode="&#x012A;" d="M214 0L160 0L378 1456L432 1456L214 0M745 1733L118 1733L126 1786L753 1786L745 1733Z"  horiz-adv-x="534" vert-adv-y="2048"  />

      
      <glyph glyph-name="uni012B" unicode="&#x012B;" d="M155 0L101 0L263 1082L317 1082L155 0M635 1391L8 1391L16 1444L643 1444L635 1391Z"  horiz-adv-x="406" vert-adv-y="2048"  />

      
      <glyph glyph-name="uni012C" unicode="&#x012C;" d="M214 0L160 0L378 1456L432 1456L214 0M723 1839L725 1833Q713 1722 630.50 1656.50Q548 1591 419 1591Q295 1591 227.50 1659Q160 1727 180 1833L183 1839L229 1839Q216 1750 262.50 1698.50Q309 1647 427 1647Q534 1647 600 1701.50Q666 1756 678 1839L723 1839Z"  horiz-adv-x="534" vert-adv-y="2048"  />

      
      <glyph glyph-name="uni012D" unicode="&#x012D;" d="M155 0L101 0L263 1082L317 1082L155 0M613 1496L615 1490Q603 1379 520.50 1313.50Q438 1248 309 1248Q185 1248 117.50 1316Q50 1384 70 1490L73 1496L119 1496Q106 1407 152.50 1355.50Q199 1304 317 1304Q424 1304 490 1358.50Q556 1413 568 1496L613 1496Z"  horiz-adv-x="406" vert-adv-y="2048"  />

      
      <glyph glyph-name="uni012E" unicode="&#x012E;" d="M214 0L160 0L378 1456L432 1456L214 0M205 0Q119-69 75.50-116.50Q32-164 24-223Q19-244 31.50-273.50Q44-303 96-303Q129-303 157-292Q185-281 211-265L220-313Q193-331 160.50-344Q128-357 87-357Q28-357-6-321.50Q-40-286-30-223Q-22-160 29-99Q80-38 156 20L205 0Z"  horiz-adv-x="534" vert-adv-y="2048"  />

      
      <glyph glyph-name="uni012F" unicode="&#x012F;" d="M159 0L105 0L267 1082L321 1082L159 0M372 1422L318 1422L339 1560L393 1560L372 1422M149 0Q63-69 19.50-116.50Q-24-164-32-223Q-37-244-24.50-273.50Q-12-303 40-303Q73-303 101-292Q129-281 155-265L164-313Q137-331 104.50-344Q72-357 31-357Q-28-357-62-321.50Q-96-286-86-223Q-78-160-27-99Q24-38 100 20L149 0Z"  horiz-adv-x="422" vert-adv-y="2048"  />

      
      <glyph glyph-name="uni0130" unicode="&#x0130;" d="M214 0L160 0L378 1456L432 1456L214 0M484 1667L389 1667L409 1805L504 1805L484 1667Z"  horiz-adv-x="534" vert-adv-y="2048"  />

      
      <glyph glyph-name="uni0131" unicode="&#x0131;" d="M155 0L101 0L263 1082L317 1082L155 0Z"  horiz-adv-x="406" vert-adv-y="2048"  />

      
      </font>
</defs>
</svg>
