<?xml version="1.0" standalone="no"?>
  <!DOCTYPE svg PUBLIC "-//W3C//DTD SVG 1.1//EN" "http://www.w3.org/Graphics/SVG/1.1/DTD/svg11.dtd" >
  <svg>
  <metadata>
  Created by font-carrier
  </metadata>
  <defs>
  <font id="Roboto-BlackItalic" horiz-adv-x="2469" vert-adv-y="2469" >
    <font-face
      
      font-family="Roboto Bk"
      
      font-weight="400"
      
      font-stretch="normal"
      
      units-per-em="2048"
      
      ascent="1900"
      
      descent="-500"
      
    />
      <missing-glyph />

      

      
      <glyph glyph-name="uni21" unicode="&#x21;" d="M451 516L112 516L253 1456L592 1456L451 516M374 0L35 0L77 283L416 283L374 0Z"  horiz-adv-x="565" vert-adv-y="2048"  />

      
      <glyph glyph-name="uni22" unicode="&#x22;" d="M485 1181L348 932L204 932L237 1167L278 1456L524 1456L485 1181M841 1181L704 932L561 932L596 1176L635 1456L880 1456L841 1181Z"  horiz-adv-x="881" vert-adv-y="2048"  />

      
      <glyph glyph-name="uni23" unicode="&#x23;" d="M601 410L439 410L311 0L112 0L241 410L19 410L46 593L298 593L381 857L161 857L188 1040L439 1040L570 1456L768 1456L637 1040L799 1040L930 1456L1129 1456L998 1040L1229 1040L1202 857L940 857L857 593L1086 593L1059 410L800 410L671 0L472 0L601 410M497 593L658 593L741 857L580 857L497 593Z"  horiz-adv-x="1190" vert-adv-y="2048"  />

      
      <glyph glyph-name="uni24" unicode="&#x24;" d="M771 386Q782 468 750 508Q718 548 615 594Q387 678 289.50 778Q192 878 220 1068Q244 1246 374 1352Q504 1458 706 1474L736 1685L894 1685L864 1470Q1042 1444 1135.50 1327Q1229 1210 1205 1026L868 1026Q882 1130 845.50 1176Q809 1222 729 1222Q651 1222 608.50 1178.50Q566 1135 557 1066Q547 996 577.50 958.50Q608 921 713 867Q934 793 1034 685Q1134 577 1108 388Q1082 205 957.50 102.50Q833 0 636-17L608-218L449-218L477-17Q283 1 166.50 113.50Q50 226 85 442L87 447L417 447Q400 327 448 280.50Q496 234 592 234Q671 234 716 276Q761 318 771 386Z"  horiz-adv-x="1227" vert-adv-y="2048"  />

      
      <glyph glyph-name="uni25" unicode="&#x25;" d="M187 1176Q207 1310 303.50 1393.50Q400 1477 556 1477Q706 1477 780 1390.50Q854 1304 835 1176L824 1099Q803 965 708 882.50Q613 800 456 800Q306 800 231 886Q156 972 176 1099L187 1176M392 1099Q384 1048 407 1015Q430 982 483 982Q532 982 565.50 1016Q599 1050 607 1099L618 1176Q625 1228 603 1261.50Q581 1295 528 1295Q479 1295 444.50 1260Q410 1225 403 1176L392 1099M756 357Q775 490 872.50 573.50Q970 657 1126 657Q1276 657 1349.50 571Q1423 485 1405 357L1393 280Q1372 145 1277.50 62.50Q1183-20 1026-20Q876-20 800 66Q724 152 744 280L756 357M961 280Q953 231 980 196.50Q1007 162 1053 162Q1113 162 1141 194Q1169 226 1177 280L1189 357Q1196 408 1172.50 441.50Q1149 475 1098 475Q1048 475 1014 440Q980 405 973 357L961 280M398 109L253 188L1135 1326L1280 1247L398 109Z"  horiz-adv-x="1521" vert-adv-y="2048"  />

      
      <glyph glyph-name="uni26" unicode="&#x26;" d="M344 776Q296 863 277 936Q258 1009 271 1084Q300 1280 424 1378.50Q548 1477 742 1477Q894 1477 981 1374Q1068 1271 1047 1127Q1030 1015 983 940Q936 865 852 805L741 735L934 466Q978 523 1007.50 589Q1037 655 1048 728L1308 728Q1285 575 1233.50 455.50Q1182 336 1094 244L1270 0L894 0L832 84Q738 30 647.50 4.50Q557-21 453-21Q243-21 127 94.50Q11 210 39 391Q56 511 123 589.50Q190 668 325 765L344 776M515 239Q557 239 601.50 248.50Q646 258 691 277L479 568Q433 531 410.50 494.50Q388 458 381 414Q369 334 408.50 286.50Q448 239 515 239M563 1088Q557 1050 568.50 1012Q580 974 608 929L657 958Q719 994 743 1028.50Q767 1063 773 1103Q780 1151 760 1184Q740 1217 691 1217Q644 1217 607.50 1179Q571 1141 563 1088Z"  horiz-adv-x="1380" vert-adv-y="2048"  />

      
      <glyph glyph-name="uni27" unicode="&#x27;" d="M453 1164L311 881L122 881L160 1151L203 1456L494 1456L453 1164Z"  horiz-adv-x="440" vert-adv-y="2048"  />

      
      <glyph glyph-name="uni28" unicode="&#x28;" d="M128 592Q184 997 367 1259Q550 1521 765 1600L771 1599L810 1440Q669 1346 556 1136Q443 926 397 594L393 562Q344 215 397.50 13.50Q451-188 568-284L484-443L479-443Q290-366 179.50-96Q69 174 124 564L128 592Z"  horiz-adv-x="727" vert-adv-y="2048"  />

      
      <glyph glyph-name="uni29" unicode="&#x29;" d="M634 564Q579 175 386.50-95.50Q194-366-26-444L-32-443L-71-284Q68-189 181.50 20.50Q295 230 342 562L346 594Q394 940 340.50 1142Q287 1344 171 1440L255 1599L261 1599Q455 1523 572.50 1244Q690 965 638 592L634 564Z"  horiz-adv-x="726" vert-adv-y="2048"  />

      
      <glyph glyph-name="uni2a" unicode="&#x2a;" d="M273 649L60 731L142 906L374 834L419 1082L601 1082L578 824L818 897L847 720L604 635L705 430L539 321L417 525L237 330L102 435L273 649Z"  horiz-adv-x="843" vert-adv-y="2048"  />

      
      <glyph glyph-name="uni2b" unicode="&#x2b;" d="M746 826L1087 826L1044 537L702 537L644 146L329 146L387 537L46 537L89 826L431 826L488 1206L803 1206L746 826Z"  horiz-adv-x="1094" vert-adv-y="2048"  />

      
      <glyph glyph-name="uni2c" unicode="&#x2c;" d="M386-8L175-326L-58-326L61 1L101 264L427 264L386-8Z"  horiz-adv-x="590" vert-adv-y="2048"  />

      
      <glyph glyph-name="uni2d" unicode="&#x2d;" d="M719 497L130 497L169 758L758 758L719 497Z"  horiz-adv-x="875" vert-adv-y="2048"  />

      
      <glyph glyph-name="uni2e" unicode="&#x2e;" d="M393 0L56 0L99 284L436 284L393 0Z"  horiz-adv-x="619" vert-adv-y="2048"  />

      
      <glyph glyph-name="uni2f" unicode="&#x2f;" d="M213-125L-128-125L606 1456L947 1456L213-125Z"  horiz-adv-x="811" vert-adv-y="2048"  />

      
      <glyph glyph-name="uni30" unicode="&#x30;" d="M1100 535Q1059 263 900.50 121Q742-21 511-21Q290-21 168.50 127.50Q47 276 86 535L144 921Q184 1192 342.50 1334.50Q501 1477 734 1477Q954 1477 1075 1328Q1196 1179 1158 921L1100 535M825 944Q845 1082 810.50 1149.50Q776 1217 695 1217Q617 1217 560.50 1146Q504 1075 485 944L420 514Q398 373 432.50 306Q467 239 550 239Q627 239 683.50 309Q740 379 760 514L825 944Z"  horiz-adv-x="1186" vert-adv-y="2048"  />

      
      <glyph glyph-name="uni31" unicode="&#x31;" d="M759 0L421 0L596 1167L303 1167L342 1425L981 1477L759 0Z"  horiz-adv-x="1186" vert-adv-y="2048"  />

      
      <glyph glyph-name="uni32" unicode="&#x32;" d="M1038 0L26 0L57 220L574 712Q678 814 731 893.50Q784 973 793 1033Q804 1121 773 1169Q742 1217 658 1217Q583 1217 528.50 1152Q474 1087 460 988L130 988L128 994Q153 1204 308.50 1340.50Q464 1477 695 1477Q925 1477 1042.50 1358Q1160 1239 1132 1036Q1111 892 1029 792.50Q947 693 718 477L510 266L513 260L1074 260L1038 0Z"  horiz-adv-x="1186" vert-adv-y="2048"  />

      
      <glyph glyph-name="uni33" unicode="&#x33;" d="M1183 1061Q1167 957 1095.50 874.50Q1024 792 913 746Q1022 702 1074 615.50Q1126 529 1108 408Q1076 200 908.50 89.50Q741-21 499-21Q300-21 160.50 87Q21 195 57 398L59 404L389 404Q377 330 419 284.50Q461 239 538 239Q626 239 693.50 290Q761 341 772 415Q788 525 741 571.50Q694 618 591 618L431 618L453 767L468 869L628 869Q716 869 774 918.50Q832 968 845 1054Q855 1124 812.50 1170.50Q770 1217 685 1217Q623 1217 571.50 1179Q520 1141 511 1081L184 1081L182 1087Q204 1268 360.50 1372.50Q517 1477 724 1477Q953 1477 1082.50 1367.50Q1212 1258 1183 1061Z"  horiz-adv-x="1186" vert-adv-y="2048"  />

      
      <glyph glyph-name="uni34" unicode="&#x34;" d="M990 569L1137 569L1098 307L951 307L905 0L567 0L613 307L34 307L45 515L784 1453L785 1456L1123 1456L990 569M348 574L350 569L652 569L720 1021L714 1023L666 948L348 574Z"  horiz-adv-x="1186" vert-adv-y="2048"  />

      
      <glyph glyph-name="uni35" unicode="&#x35;" d="M137 640L343 1456L1196 1456L1157 1194L578 1194L496 891Q541 920 607 938Q673 956 749 958Q953 962 1042.50 833.50Q1132 705 1097 469Q1064 251 923 115Q782-21 518-21Q317-21 176.50 89.50Q36 200 68 378L70 383L405 404Q392 324 433.50 281.50Q475 239 557 239Q647 239 694.50 297Q742 355 759 467Q777 591 744.50 658Q712 725 619 725Q554 725 506.50 695.50Q459 666 437 623L137 640Z"  horiz-adv-x="1186" vert-adv-y="2048"  />

      
      <glyph glyph-name="uni36" unicode="&#x36;" d="M825 1477Q906 1477 971.50 1462Q1037 1447 1112 1416L1019 1170Q952 1192 902.50 1202Q853 1212 787 1212Q667 1212 576 1122.50Q485 1033 460 861L458 851Q522 905 605.50 933.50Q689 962 791 962Q970 962 1056 824.50Q1142 687 1110 472Q1076 249 914.50 114Q753-21 526-21Q295-21 166.50 137.50Q38 296 79 566L123 859Q167 1158 360 1317.50Q553 1477 825 1477M640 704Q570 704 515.50 684Q461 664 425 628L416 566Q391 401 430.50 320Q470 239 565 239Q638 239 697.50 307Q757 375 772 472Q789 586 752.50 645Q716 704 640 704Z"  horiz-adv-x="1186" vert-adv-y="2048"  />

      
      <glyph glyph-name="uni37" unicode="&#x37;" d="M1210 1196Q939 932 820 709.50Q701 487 657 191L628 0L290 0L319 191Q364 494 503.50 730Q643 966 886 1196L157 1196L196 1456L1249 1456L1210 1196Z"  horiz-adv-x="1186" vert-adv-y="2048"  />

      
      <glyph glyph-name="uni38" unicode="&#x38;" d="M1160 1075Q1143 965 1078.50 883Q1014 801 913 754Q1020 702 1075 613Q1130 524 1114 410Q1082 198 921.50 88.50Q761-21 530-21Q303-21 163 94Q23 209 54 410Q71 531 154.50 621Q238 711 368 760Q278 810 233.50 891Q189 972 205 1075Q235 1275 384 1376Q533 1477 753 1477Q955 1477 1071.50 1372Q1188 1267 1160 1075M778 428Q791 519 747.50 572Q704 625 625 625Q542 625 475 569.50Q408 514 395 428Q381 338 430.50 288.50Q480 239 569 239Q645 239 705 290.50Q765 342 778 428M821 1057Q832 1136 804 1176.50Q776 1217 714 1217Q647 1217 599.50 1175Q552 1133 542 1057Q529 975 562.50 930Q596 885 666 885Q723 885 766 932Q809 979 821 1057Z"  horiz-adv-x="1186" vert-adv-y="2048"  />

      
      <glyph glyph-name="uni39" unicode="&#x39;" d="M504 239Q592 239 664 312Q736 385 755 512L766 591Q709 533 639.50 504Q570 475 496 475Q305 475 208.50 610Q112 745 145 967Q178 1191 341 1334Q504 1477 731 1477Q944 1477 1067 1322Q1190 1167 1150 901L1095 535Q1055 273 879.50 126Q704-21 465-21Q394-21 314-4Q234 13 166 42L260 283Q320 260 376 249.50Q432 239 504 239M607 718Q663 718 712 740.50Q761 763 798 802L822 963Q841 1092 804 1154.50Q767 1217 691 1217Q615 1217 555.50 1141.50Q496 1066 482 967Q464 851 495.50 784.50Q527 718 607 718Z"  horiz-adv-x="1186" vert-adv-y="2048"  />

      
      <glyph glyph-name="uni3a" unicode="&#x3a;" d="M393 0L56 0L99 284L436 284L393 0M524 876L187 876L230 1160L567 1160L524 876Z"  horiz-adv-x="613" vert-adv-y="2048"  />

      
      <glyph glyph-name="uni3b" unicode="&#x3b;" d="M525 876L188 876L231 1160L568 1160L525 876M437-8L226-326L-7-326L112 1L152 264L478 264L437-8Z"  horiz-adv-x="579" vert-adv-y="2048"  />

      
      <glyph glyph-name="uni3c" unicode="&#x3c;" d="M379 544L379 538L904 357L858 50L28 410L42 508L67 676L1005 1036L960 730L379 544Z"  horiz-adv-x="1044" vert-adv-y="2048"  />

      
      <glyph glyph-name="uni3d" unicode="&#x3d;" d="M1084 732L158 732L197 992L1123 992L1084 732M1018 293L92 293L131 553L1057 553L1018 293Z"  horiz-adv-x="1195" vert-adv-y="2048"  />

      
      <glyph glyph-name="uni3e" unicode="&#x3e;" d="M659 540L659 546L140 728L186 1034L1011 674L986 505L985 505L971 408L38 48L84 354L659 540Z"  horiz-adv-x="1050" vert-adv-y="2048"  />

      
      <glyph glyph-name="uni3f" unicode="&#x3f;" d="M290 416Q312 555 372 625Q432 695 575 786Q648 828 695.50 890Q743 952 756 1033Q768 1119 731.50 1168Q695 1217 611 1217Q546 1217 493.50 1175.50Q441 1134 427 1054L98 1054L97 1060Q126 1268 277 1372.50Q428 1477 650 1477Q879 1477 1001.50 1356Q1124 1235 1094 1033Q1074 903 985.50 801Q897 699 771 638Q700 596 670 547.50Q640 499 628 416L290 416M565 0L229 0L270 270L606 270L565 0Z"  horiz-adv-x="1043" vert-adv-y="2048"  />

      
      <glyph glyph-name="uni40" unicode="&#x40;" d="M1727 520Q1685 300 1538 139.50Q1391-21 1147-21Q1068-21 1016 25Q964 71 951 154Q897 68 827.50 25.50Q758-17 674-17Q531-17 467.50 102.50Q404 222 453 416Q517 667 660 818Q803 969 975 969Q1091 969 1164.50 942Q1238 915 1315 863L1311 859L1317 859L1181 293Q1163 206 1174.50 173.50Q1186 141 1214 141Q1321 141 1407.50 249.50Q1494 358 1526 520Q1592 859 1472 1048.50Q1352 1238 1041 1238Q750 1238 535.50 1032Q321 826 254 478Q186 135 317.50-64Q449-263 751-263Q831-263 926.50-244Q1022-225 1091-198L1104-364Q1031-406 924-429.50Q817-453 718-453Q330-453 142.50-201.50Q-45 50 35 478Q116 907 394.50 1158.50Q673 1410 1071 1410Q1447 1410 1625.50 1169.50Q1804 929 1727 520M701 416Q675 296 692 234.50Q709 173 769 173Q821 173 868.50 203Q916 233 961 313L1070 766Q1049 771 1028.50 774.50Q1008 778 986 778Q886 778 816 686.50Q746 595 701 416Z"  horiz-adv-x="1809" vert-adv-y="2048"  />

      
      <glyph glyph-name="uni41" unicode="&#x41;" d="M840 283L408 283L281 0L-75 0L618 1456L799 1456L799 1455L800 1456L981 1456L1239 0L883 0L840 283M524 543L801 543L734 994L728 995L524 543Z"  horiz-adv-x="1307" vert-adv-y="2048"  />

      
      <glyph glyph-name="uni42" unicode="&#x42;" d="M36 0L254 1456L731 1456Q992 1456 1133 1354.50Q1274 1253 1245 1056Q1229 949 1170 869Q1111 789 1004 749Q1128 721 1176.50 633.50Q1225 546 1209 431Q1175 211 1018.50 105.50Q862 0 591 0L36 0M467 625L413 260L630 260Q734 260 796.50 303.50Q859 347 872 433Q885 530 845.50 576Q806 622 697 625L686 625L467 625M501 849L634 849Q751 849 820 892Q889 935 902 1018Q916 1114 865 1155Q814 1196 692 1196L553 1196L501 849Z"  horiz-adv-x="1306" vert-adv-y="2048"  />

      
      <glyph glyph-name="uni43" unicode="&#x43;" d="M1227 491L1229 485Q1194 226 1033 102.50Q872-21 603-21Q343-21 199 146Q55 313 95 576L141 880Q182 1156 362.50 1316.50Q543 1477 805 1477Q1072 1477 1208.50 1347Q1345 1217 1305 973L1302 967L972 967Q992 1106 945 1161.50Q898 1217 766 1217Q657 1217 579 1124.50Q501 1032 479 882L433 576Q409 418 462.50 328.50Q516 239 642 239Q753 239 816 298Q879 357 899 491L1227 491Z"  horiz-adv-x="1307" vert-adv-y="2048"  />

      
      <glyph glyph-name="uni44" unicode="&#x44;" d="M787 1456Q1034 1456 1186.50 1287Q1339 1118 1301 859L1262 597Q1220 324 1024.50 162Q829 0 569 0L36 0L254 1456L787 1456M553 1196L413 260L608 260Q718 260 809 355Q900 450 923 597L962 861Q984 1014 924 1105Q864 1196 748 1196L553 1196Z"  horiz-adv-x="1338" vert-adv-y="2048"  />

      
      <glyph glyph-name="uni45" unicode="&#x45;" d="M980 623L467 623L413 260L1028 260L989 0L36 0L254 1456L1208 1456L1169 1196L553 1196L506 883L1019 883L980 623Z"  horiz-adv-x="1143" vert-adv-y="2048"  />

      
      <glyph glyph-name="uni46" unicode="&#x46;" d="M995 586L461 586L374 0L36 0L254 1456L1227 1456L1188 1196L553 1196L500 846L1034 846L995 586Z"  horiz-adv-x="1143" vert-adv-y="2048"  />

      
      <glyph glyph-name="uni47" unicode="&#x47;" d="M1216 201Q1127 109 979.50 44Q832-21 614-21Q354-21 204 146.50Q54 314 94 576L140 880Q181 1154 368.50 1315.50Q556 1477 818 1477Q1086 1477 1215 1351Q1344 1225 1307 1012L1305 1006L987 1006Q1003 1117 954.50 1167Q906 1217 790 1217Q676 1217 587.50 1123Q499 1029 477 882L431 576Q407 419 465 329Q523 239 653 239Q742 239 800.50 254Q859 269 892 294L931 554L673 554L707 778L1303 778L1216 201Z"  horiz-adv-x="1353" vert-adv-y="2048"  />

      
      <glyph glyph-name="uni48" unicode="&#x48;" d="M1250 0L913 0L1000 586L461 586L374 0L36 0L254 1456L592 1456L500 846L1039 846L1131 1456L1468 1456L1250 0Z"  horiz-adv-x="1446" vert-adv-y="2048"  />

      
      <glyph glyph-name="uni49" unicode="&#x49;" d="M394 0L57 0L275 1456L612 1456L394 0Z"  horiz-adv-x="611" vert-adv-y="2048"  />

      
      <glyph glyph-name="uni4a" unicode="&#x4a;" d="M830 1456L1168 1456L1020 467Q985 236 830.50 107.50Q676-21 459-21Q222-21 92.50 98.50Q-37 218 1 440L3 446L334 446Q317 334 363.50 286.50Q410 239 498 239Q561 239 613.50 300Q666 361 682 467L830 1456Z"  horiz-adv-x="1144" vert-adv-y="2048"  />

      
      <glyph glyph-name="uni4b" unicode="&#x4b;" d="M558 578L462 578L376 0L38 0L256 1456L594 1456L507 880L598 880L944 1456L1390 1456L863 735L1191 0L801 0L558 578Z"  horiz-adv-x="1269" vert-adv-y="2048"  />

      
      <glyph glyph-name="uni4c" unicode="&#x4c;" d="M413 260L1038 260L999 0L36 0L254 1456L592 1456L413 260Z"  horiz-adv-x="1144" vert-adv-y="2048"  />

      
      <glyph glyph-name="uni4d" unicode="&#x4d;" d="M870 438L876 437L1358 1456L1805 1456L1587 0L1249 0L1389 937L1383 938L922 0L695 0L518 924L512 924L374 0L36 0L254 1456L697 1456L870 438Z"  horiz-adv-x="1783" vert-adv-y="2048"  />

      
      <glyph glyph-name="uni4e" unicode="&#x4e;" d="M1250 0L913 0L516 916L510 915L374 0L36 0L254 1456L592 1456L988 541L994 542L1131 1456L1468 1456L1250 0Z"  horiz-adv-x="1446" vert-adv-y="2048"  />

      
      <glyph glyph-name="uni4f" unicode="&#x4f;" d="M1336 597Q1293 317 1099 148Q905-21 627-21Q361-21 209.50 155.50Q58 332 99 597L138 859Q179 1137 374.50 1307Q570 1477 850 1477Q1114 1477 1264 1300.50Q1414 1124 1375 859L1336 597M1038 861Q1062 1023 1004 1120Q946 1217 811 1217Q679 1217 588.50 1116.50Q498 1016 475 861L436 597Q411 433 469.50 336Q528 239 666 239Q794 239 884.50 340Q975 441 999 597L1038 861Z"  horiz-adv-x="1416" vert-adv-y="2048"  />

      
      <glyph glyph-name="uni50" unicode="&#x50;" d="M448 499L374 0L36 0L254 1456L810 1456Q1059 1456 1196 1322.50Q1333 1189 1302 977Q1268 754 1098.50 626.50Q929 499 667 499L448 499M487 759L706 759Q812 759 881 820.50Q950 882 964 975Q978 1075 930 1135.50Q882 1196 771 1196L553 1196L487 759Z"  horiz-adv-x="1306" vert-adv-y="2048"  />

      
      <glyph glyph-name="uni51" unicode="&#x51;" d="M1336 597Q1318 487 1276 391.50Q1234 296 1170 220L1352 2L1110-165L934 42Q864 11 786.50-5Q709-21 627-21Q361-21 209.50 155.50Q58 332 99 597L138 859Q179 1137 374.50 1307Q570 1477 850 1477Q1114 1477 1264 1300.50Q1414 1124 1375 859L1336 597M1038 861Q1062 1023 1004 1120Q946 1217 811 1217Q679 1217 588.50 1116.50Q498 1016 475 861L436 597Q411 433 469.50 336Q528 239 666 239Q794 239 884.50 340Q975 441 999 597L1038 861Z"  horiz-adv-x="1447" vert-adv-y="2048"  />

      
      <glyph glyph-name="uni52" unicode="&#x52;" d="M457 558L374 0L36 0L254 1456L761 1456Q1005 1456 1140 1338Q1275 1220 1245 1019Q1226 901 1155 821Q1084 741 959 692Q1083 653 1130.50 563.50Q1178 474 1160 346L1146 254Q1137 195 1143.50 123Q1150 51 1187 20L1184 0L835 0Q800 31 799 108Q798 185 809 256L823 344Q839 452 793 505Q747 558 639 558L457 558M496 818L668 818Q766 818 828.50 865Q891 912 905 998Q918 1090 871 1143Q824 1196 722 1196L553 1196L496 818Z"  horiz-adv-x="1306" vert-adv-y="2048"  />

      
      <glyph glyph-name="uni53" unicode="&#x53;" d="M867 363Q880 452 829 495.50Q778 539 631 594Q372 679 243 796Q114 913 141 1091Q168 1270 329.50 1373.50Q491 1477 719 1477Q967 1477 1108 1358Q1249 1239 1213 1031L1211 1025L882 1025Q894 1111 837.50 1164Q781 1217 680 1217Q606 1217 547 1181Q488 1145 480 1093Q468 1012 525 972Q582 932 767 867Q1003 790 1118 672Q1233 554 1205 365Q1176 178 1017.50 78.50Q859-21 625-21Q385-21 218.50 88Q52 197 92 425L94 431L422 431Q405 324 480.50 281.50Q556 239 664 239Q738 239 798.50 274.50Q859 310 867 363Z"  horiz-adv-x="1267" vert-adv-y="2048"  />

      
      <glyph glyph-name="uni54" unicode="&#x54;" d="M1228 1196L843 1196L664 0L326 0L505 1196L127 1196L166 1456L1267 1456L1228 1196Z"  horiz-adv-x="1150" vert-adv-y="2048"  />

      
      <glyph glyph-name="uni55" unicode="&#x55;" d="M1447 1456L1306 512Q1266 252 1081.50 115.50Q897-21 627-21Q368-21 217 122Q66 265 104 512L245 1456L584 1456L443 512Q421 372 480.50 305.50Q540 239 666 239Q785 239 865.50 308Q946 377 967 512L1108 1456L1447 1456Z"  horiz-adv-x="1417" vert-adv-y="2048"  />

      
      <glyph glyph-name="uni56" unicode="&#x56;" d="M617 395L619 342L625 341L643 391L1091 1456L1445 1456L755 0L390 0L138 1456L491 1456L617 395Z"  horiz-adv-x="1307" vert-adv-y="2048"  />

      
      <glyph glyph-name="uni57" unicode="&#x57;" d="M1283 513L1289 512L1607 1456L1949 1456L1397 0L1079 0L969 899L963 900L585 0L267 0L150 1456L493 1456L527 511L533 510L922 1456L1177 1456L1283 513Z"  horiz-adv-x="1825" vert-adv-y="2048"  />

      
      <glyph glyph-name="uni58" unicode="&#x58;" d="M711 972L717 971L1026 1456L1416 1456L891 734L1230 0L820 0L647 501L324 0L-66 0L472 734L163 1456L550 1456L711 972Z"  horiz-adv-x="1307" vert-adv-y="2048"  />

      
      <glyph glyph-name="uni59" unicode="&#x59;" d="M692 819L698 818L1084 1456L1450 1456L814 512L738 0L401 0L480 528L133 1456L499 1456L692 819Z"  horiz-adv-x="1307" vert-adv-y="2048"  />

      
      <glyph glyph-name="uni5a" unicode="&#x5a;" d="M445 260L1076 260L1037 0L15 0L-6 152L707 1196L173 1196L212 1456L1184 1456L1163 1310L445 260Z"  horiz-adv-x="1160" vert-adv-y="2048"  />

      
      <glyph glyph-name="uni5b" unicode="&#x5b;" d="M693 1460L575 1460L356-104L474-104L440-349L-16-349L272 1706L728 1706L693 1460Z"  horiz-adv-x="577" vert-adv-y="2048"  />

      
      <glyph glyph-name="uni5c" unicode="&#x5c;" d="M122 1456L460 1456L831-125L492-125L122 1456Z"  horiz-adv-x="871" vert-adv-y="2048"  />

      
      <glyph glyph-name="uni5d" unicode="&#x5d;" d="M178 1706L634 1706L346-349L-110-349L-76-104L43-104L262 1460L143 1460L178 1706Z"  horiz-adv-x="577" vert-adv-y="2048"  />

      
      <glyph glyph-name="uni5e" unicode="&#x5e;" d="M318 729L65 729L473 1456L722 1456L913 729L659 729L556 1142L555 1159L549 1160L542 1142L318 729Z"  horiz-adv-x="916" vert-adv-y="2048"  />

      
      <glyph glyph-name="uni5f" unicode="&#x5f;" d="M785-251L-118-251L-80 0L823 0L785-251Z"  horiz-adv-x="904" vert-adv-y="2048"  />

      
      <glyph glyph-name="uni60" unicode="&#x60;" d="M720 1252L423 1252L177 1512L180 1518L550 1518L720 1252Z"  horiz-adv-x="695" vert-adv-y="2048"  />

      
      <glyph glyph-name="uni61" unicode="&#x61;" d="M641 1Q628 35 620.50 78Q613 121 613 168Q556 82 484 30.50Q412-21 308-21Q144-21 60 67.50Q-24 156-2 305Q23 472 155 556.50Q287 641 536 641L675 641L687 718Q697 790 670 825.50Q643 861 574 861Q517 861 483 833Q449 805 441 748L113 749L112 755Q129 909 272.50 1005.50Q416 1102 632 1102Q826 1102 939 1001Q1052 900 1024 716L963 308Q949 219 953 147.50Q957 76 975 0L641 1M436 220Q495 220 548.50 249.50Q602 279 627 319L648 461L512 461Q435 461 391 421.50Q347 382 338 323Q331 275 358.50 247.50Q386 220 436 220Z"  horiz-adv-x="1086" vert-adv-y="2048"  />

      
      <glyph glyph-name="uni62" unicode="&#x62;" d="M1096 518Q1057 262 931 120.50Q805-21 595-21Q509-21 449 18.50Q389 58 352 133L311 0L16 0L250 1560L588 1560L500 977Q554 1037 618.50 1069.50Q683 1102 761 1102Q962 1102 1049 947.50Q1136 793 1099 539L1096 518M762 539Q784 688 760 765Q736 842 637 842Q583 842 540.50 820.50Q498 799 467 759L400 307Q418 273 455.50 256Q493 239 549 239Q645 239 691 310Q737 381 759 518L762 539Z"  horiz-adv-x="1151" vert-adv-y="2048"  />

      
      <glyph glyph-name="uni63" unicode="&#x63;" d="M515 239Q581 239 622 277Q663 315 674 385L981 385L983 379Q959 195 817.50 87Q676-21 476-21Q239-21 123 133.50Q7 288 44 529L48 552Q85 805 239.50 953.50Q394 1102 642 1102Q841 1102 950.50 986Q1060 870 1027 673L1025 668L716 668Q728 748 700.50 795Q673 842 603 842Q509 842 456.50 762Q404 682 385 552L381 529Q360 388 387 313.50Q414 239 515 239Z"  horiz-adv-x="1048" vert-adv-y="2048"  />

      
      <glyph glyph-name="uni64" unicode="&#x64;" d="M52 539Q91 801 223 951.50Q355 1102 558 1102Q631 1102 687 1065.50Q743 1029 781 961L871 1560L1209 1560L975 0L679 0L676 131Q617 58 544.50 18.50Q472-21 388-21Q196-21 104 129Q12 279 49 518L52 539M387 518Q366 382 393.50 310.50Q421 239 513 239Q564 239 608 259.50Q652 280 684 319L750 753Q731 796 694 819Q657 842 605 842Q519 842 464.50 757.50Q410 673 390 539L387 518Z"  horiz-adv-x="1151" vert-adv-y="2048"  />

      
      <glyph glyph-name="uni65" unicode="&#x65;" d="M493-21Q257-21 135 129.50Q13 280 47 505L52 543Q90 800 243.50 951.50Q397 1103 648 1102Q858 1102 963 969.50Q1068 837 1035 612L1008 435L387 435L385 429Q380 342 427 290.50Q474 239 578 239Q671 239 741 255.50Q811 272 897 306L947 100Q870 49 746.50 14Q623-21 493-21M609 842Q531 842 484.50 790.50Q438 739 417 652L419 646L710 646L714 672Q727 759 703.50 800.50Q680 842 609 842Z"  horiz-adv-x="1070" vert-adv-y="2048"  />

      
      <glyph glyph-name="uni66" unicode="&#x66;" d="M89 0L216 848L60 848L95 1082L251 1082L268 1194Q297 1388 422.50 1484.50Q548 1581 755 1581Q792 1581 832.50 1575Q873 1569 919 1560L857 1311Q830 1316 809 1318.50Q788 1321 758 1321Q696 1321 655.50 1287.50Q615 1254 607 1194L590 1082L804 1082L769 848L555 848L428 0L89 0Z"  horiz-adv-x="734" vert-adv-y="2048"  />

      
      <glyph glyph-name="uni67" unicode="&#x67;" d="M51 539Q90 801 222 951.50Q354 1102 557 1102Q640 1102 698.50 1060Q757 1018 794 941L838 1082L1136 1082L976 12Q942-210 780-323.50Q618-437 358-437Q277-437 186-414Q95-391 19-352L115-102Q183-134 247-149.50Q311-165 397-165Q501-165 562-121.50Q623-78 637 14L649 97Q594 39 529 9Q464-21 387-21Q195-21 103 129Q11 279 48 518L51 539M385 518Q364 382 391.50 310.50Q419 239 512 239Q566 239 608.50 257Q651 275 681 311L749 762Q730 801 694 821.50Q658 842 604 842Q518 842 463 757.50Q408 673 388 539L385 518Z"  horiz-adv-x="1151" vert-adv-y="2048"  />

      
      <glyph glyph-name="uni68" unicode="&#x68;" d="M487 955Q547 1026 622.50 1064Q698 1102 784 1102Q946 1102 1027.50 983.50Q1109 865 1072 622L979 0L641 0L735 624Q753 753 728.50 797.50Q704 842 638 842Q582 842 538 824.50Q494 807 460 775L344 0L6 0L240 1560L578 1560L487 955Z"  horiz-adv-x="1151" vert-adv-y="2048"  />

      
      <glyph glyph-name="uni69" unicode="&#x69;" d="M370 0L31 0L193 1082L532 1082L370 0M570 1333L231 1333L265 1560L604 1560L570 1333Z"  horiz-adv-x="561" vert-adv-y="2048"  />

      
      <glyph glyph-name="uni6a" unicode="&#x6a;" d="M536 1082L372-15Q340-225 216.50-331Q93-437-102-437Q-144-437-181-433Q-218-429-258-420L-206-165Q-178-171-158-174Q-138-177-107-177Q-52-177-15.50-135.50Q21-94 33-15L197 1082L536 1082M568 1334L229 1334L263 1560L602 1560L568 1334Z"  horiz-adv-x="548" vert-adv-y="2048"  />

      
      <glyph glyph-name="uni6b" unicode="&#x6b;" d="M479 430L418 430L354 0L16 0L250 1560L588 1560L456 685L505 685L792 1082L1172 1082L1174 1077L774 594L1072 0L687 0L479 430Z"  horiz-adv-x="1119" vert-adv-y="2048"  />

      
      <glyph glyph-name="uni6c" unicode="&#x6c;" d="M370 0L31 0L265 1560L604 1560L370 0Z"  horiz-adv-x="561" vert-adv-y="2048"  />

      
      <glyph glyph-name="uni6d" unicode="&#x6d;" d="M487 944Q549 1020 632.50 1061Q716 1102 817 1102Q913 1102 980 1058.50Q1047 1015 1072 926Q1134 1011 1220 1056.50Q1306 1102 1413 1102Q1565 1102 1641.50 987.50Q1718 873 1683 639L1587 0L1248 0L1344 639Q1362 760 1336.50 801Q1311 842 1244 842Q1196 842 1155.50 823.50Q1115 805 1084 773L1078 722L970 0L632 0L728 639Q746 760 720.50 801Q695 842 627 842Q583 842 543 824Q503 806 470 774L354 0L16 0L178 1082L496 1082L487 944Z"  horiz-adv-x="1764" vert-adv-y="2048"  />

      
      <glyph glyph-name="uni6e" unicode="&#x6e;" d="M480 935Q545 1015 629.50 1058.50Q714 1102 810 1102Q963 1102 1039 993Q1115 884 1081 651L983 0L645 0L743 652Q759 759 732.50 800.50Q706 842 642 842Q589 842 543 822Q497 802 462 767L347 0L10 0L172 1082L489 1082L480 935Z"  horiz-adv-x="1151" vert-adv-y="2048"  />

      
      <glyph glyph-name="uni6f" unicode="&#x6f;" d="M54 551Q91 804 250 953Q409 1102 659 1102Q897 1102 1016.50 947Q1136 792 1101 551L1098 530Q1059 276 900.50 127.50Q742-21 493-21Q254-21 134 133.50Q14 288 51 530L54 551M389 530Q367 390 398 314.50Q429 239 532 239Q627 239 683.50 318Q740 397 761 530L764 551Q784 687 753 764.50Q722 842 620 842Q524 842 467 761Q410 680 392 551L389 530Z"  horiz-adv-x="1151" vert-adv-y="2048"  />

      
      <glyph glyph-name="uni70" unicode="&#x70;" d="M1096 518Q1057 265 927 122Q797-21 595-21Q518-21 462 10.50Q406 42 369 103L292-416L-46-416L178 1082L497 1082L490 964Q545 1030 612.50 1066Q680 1102 761 1102Q954 1102 1045 945.50Q1136 789 1099 539L1096 518M762 539Q782 680 754.50 761Q727 842 639 842Q584 842 541 820Q498 798 467 756L400 308Q419 273 456.50 256Q494 239 551 239Q637 239 687.50 313.50Q738 388 759 518L762 539Z"  horiz-adv-x="1151" vert-adv-y="2048"  />

      
      <glyph glyph-name="uni71" unicode="&#x71;" d="M52 539Q91 801 223 951.50Q355 1102 558 1102Q640 1102 699 1060.50Q758 1019 795 942L843 1082L1138 1082L914-416L576-416L653 100Q597 41 531.50 10Q466-21 388-21Q196-21 104 129Q12 279 49 518L52 539M387 518Q366 382 393.50 310.50Q421 239 513 239Q568 239 611 257.50Q654 276 685 313L752 760Q733 800 696.50 821Q660 842 605 842Q519 842 464.50 757.50Q410 673 390 539L387 518Z"  horiz-adv-x="1151" vert-adv-y="2048"  />

      
      <glyph glyph-name="uni72" unicode="&#x72;" d="M733 794L623 795Q567 795 526 772.50Q485 750 460 710L354 0L16 0L178 1082L496 1082L485 934L490 931Q532 1013 594 1057.50Q656 1102 732 1102Q754 1102 772.50 1099Q791 1096 810 1090L733 794Z"  horiz-adv-x="722" vert-adv-y="2048"  />

      
      <glyph glyph-name="uni73" unicode="&#x73;" d="M628 304Q633 345 592.50 376Q552 407 434 432Q250 469 165 546.50Q80 624 99 760Q119 908 252 1005Q385 1102 592 1102Q800 1102 918 1004.50Q1036 907 1010 756L1008 750L679 750Q688 816 660.50 848Q633 880 560 880Q508 880 467 851Q426 822 421 777Q414 733 451.50 703.50Q489 674 612 650Q805 611 889 533.50Q973 456 954 314Q932 162 791.50 70.50Q651-21 435-21Q224-21 107 92Q-10 205 15 341L17 347L323 347Q314 270 353.50 236Q393 202 475 202Q541 202 581 229Q621 256 628 304Z"  horiz-adv-x="1048" vert-adv-y="2048"  />

      
      <glyph glyph-name="uni74" unicode="&#x74;" d="M607 1351L566 1082L737 1082L702 848L531 848L457 352Q447 291 466.50 267Q486 243 527 243Q552 243 569 245Q586 247 610 253L595 3Q543-10 501-15.50Q459-21 403-21Q242-21 166 69Q90 159 119 350L193 848L42 848L77 1082L228 1082L269 1351L607 1351Z"  horiz-adv-x="723" vert-adv-y="2048"  />

      
      <glyph glyph-name="uni75" unicode="&#x75;" d="M693 157Q631 70 548 24.50Q465-21 364-21Q202-21 121 98Q40 217 77 462L170 1082L507 1082L414 460Q394 328 419.50 283.50Q445 239 514 239Q567 239 611 255Q655 271 688 302L805 1082L1143 1082L981 0L709 0L693 157Z"  horiz-adv-x="1151" vert-adv-y="2048"  />

      
      <glyph glyph-name="uni76" unicode="&#x76;" d="M488 446L491 331L497 330L536 446L774 1082L1129 1082L615 0L272 0L82 1082L438 1082L488 446Z"  horiz-adv-x="1053" vert-adv-y="2048"  />

      
      <glyph glyph-name="uni77" unicode="&#x77;" d="M1016 477L1022 477L1220 1082L1542 1082L1126 0L840 0L748 554L742 555L481 0L196 0L103 1082L425 1082L442 474L448 473L716 1082L929 1082L1016 477Z"  horiz-adv-x="1485" vert-adv-y="2048"  />

      
      <glyph glyph-name="uni78" unicode="&#x78;" d="M558 764L564 763L749 1082L1128 1082L734 547L977 0L598 0L503 329L497 329L304 0L-75 0L332 547L97 1082L474 1082L558 764Z"  horiz-adv-x="1053" vert-adv-y="2048"  />

      
      <glyph glyph-name="uni79" unicode="&#x79;" d="M507 477L507 472L513 470L783 1082L1143 1082L526-161Q459-281 367.50-359Q276-437 104-437Q62-437 33-431Q4-425-52-411L26-170Q38-173 45.50-174.50Q53-176 64-176Q140-176 182.50-152Q225-128 250-82L287-12L77 1082L436 1082L507 477Z"  horiz-adv-x="1053" vert-adv-y="2048"  />

      
      <glyph glyph-name="uni7a" unicode="&#x7a;" d="M456 265L458 260L943 260L904 0L-15 0L13 188L584 817L582 822L129 822L168 1082L1056 1082L1029 900L456 265Z"  horiz-adv-x="1053" vert-adv-y="2048"  />

      
      <glyph glyph-name="uni7b" unicode="&#x7b;" d="M437-360Q249-305 183-185Q117-65 142 106L170 309Q183 405 151 455Q119 505 36 505L44 566L67 732Q146 732 194.50 784Q243 836 257 929L285 1132Q309 1309 407.50 1425.50Q506 1542 711 1597L749 1421Q672 1392 632.50 1318Q593 1244 577 1132L549 929Q533 820 476 740Q419 660 318 616Q403 569 439 488.50Q475 408 462 309L434 106Q417-10 436-81.50Q455-153 524-183L437-360Z"  horiz-adv-x="665" vert-adv-y="2048"  />

      
      <glyph glyph-name="uni7c" unicode="&#x7c;" d="M268-270L22-270L280 1456L526 1456L268-270Z"  horiz-adv-x="523" vert-adv-y="2048"  />

      
      <glyph glyph-name="uni7d" unicode="&#x7d;" d="M-60-183Q16-154 56-80Q96-6 112 106L140 309Q154 417 211.50 497Q269 577 371 622Q285 668 249 748Q213 828 227 929L255 1132Q271 1247 252 1319Q233 1391 165 1421L253 1597Q439 1542 505 1422.50Q571 1303 547 1132L519 929Q505 832 537 782Q569 732 653 732L644 671L645 671L622 505Q542 505 493.50 452.50Q445 400 432 309L404 106Q379-71 280.50-188Q182-305-21-360L-60-183Z"  horiz-adv-x="665" vert-adv-y="2048"  />

      
      <glyph glyph-name="uni7e" unicode="&#x7e;" d="M1230 769Q1204 588 1100.50 477.50Q997 367 858 367Q778 367 709.50 398Q641 429 577 497Q536 540 506 558Q476 576 435 576Q393 576 354.50 525.50Q316 475 307 405L80 435Q105 617 207 726.50Q309 836 449 836Q527 836 599.50 803Q672 770 734 707Q772 664 802.50 646Q833 628 872 628Q914 628 953 678.50Q992 729 1002 800L1230 769Z"  horiz-adv-x="1295" vert-adv-y="2048"  />

      
      <glyph glyph-name="unia0" unicode="&#xa0;" d="Z"  horiz-adv-x="510" vert-adv-y="2048"  />

      
      <glyph glyph-name="unia1" unicode="&#xa1;" d="M344-374L5-374L146 566L485 566L344-374M520 799L181 799L223 1082L562 1082L520 799Z"  horiz-adv-x="615" vert-adv-y="2048"  />

      
      <glyph glyph-name="unia2" unicode="&#xa2;" d="M515 239Q581 239 622 277Q663 315 674 385L982 385L985 379Q965 233 869.50 133.50Q774 34 630-2L594-245L394-245L428-19Q214-2 112 149.50Q10 301 44 529L48 552Q83 792 225 939Q367 1086 596 1100L629 1318L829 1318L793 1081Q924 1040 989.50 933Q1055 826 1032 668L716 668Q728 748 700.50 795Q673 842 603 842Q509 842 456.50 762Q404 682 385 552L381 529Q360 388 387 313.50Q414 239 515 239Z"  horiz-adv-x="1210" vert-adv-y="2048"  />

      
      <glyph glyph-name="unia3" unicode="&#xa3;" d="M617 575L612 524Q600 448 556.50 380.50Q513 313 442 260L1131 260L1092 0L86 0L125 260L135 260Q184 272 218 346.50Q252 421 265 503L273 575L109 575L148 836L302 836L323 1021Q355 1242 496.50 1359.50Q638 1477 850 1477Q1064 1477 1173 1361Q1282 1245 1250 1058L1247 1052L917 1052Q930 1141 899 1179Q868 1217 810 1217Q755 1217 714.50 1165.50Q674 1114 661 1021L642 836L967 836L928 575L617 575Z"  horiz-adv-x="1227" vert-adv-y="2048"  />

      
      <glyph glyph-name="unia4" unicode="&#xa4;" d="M1000 105Q915 44 817 12Q719-20 617-20Q519-20 432.50 13Q346 46 278 109L126-26L7 118L165 258Q127 334 113.50 423Q100 512 115 608Q130 713 171.50 806Q213 899 276 976L157 1120L320 1264L438 1122Q520 1176 614 1205Q708 1234 805 1234Q898 1234 982 1202.50Q1066 1171 1133 1114L1303 1265L1423 1120L1250 967Q1290 889 1304.50 798Q1319 707 1305 608Q1289 508 1251 419.50Q1213 331 1157 256L1273 118L1109-27L1000 105M301 608Q272 417 372 295Q472 173 646 173Q810 173 951 299.50Q1092 426 1120 608Q1148 798 1048 920Q948 1042 776 1042Q610 1042 469 915.50Q328 789 301 608Z"  horiz-adv-x="1397" vert-adv-y="2048"  />

      
      <glyph glyph-name="unia5" unicode="&#xa5;" d="M680 878L686 877L1016 1456L1382 1456L909 742L1122 742L1095 558L799 558L784 452L1079 452L1051 269L756 269L716 0L379 0L419 269L96 269L124 452L447 452L462 558L140 558L167 742L416 742L156 1456L523 1456L680 878Z"  horiz-adv-x="1258" vert-adv-y="2048"  />

      
      <glyph glyph-name="unia6" unicode="&#xa6;" d="M-2-270L118 525L410 525L291-270L-2-270M436 698L144 698L257 1456L549 1456L436 698Z"  horiz-adv-x="524" vert-adv-y="2048"  />

      
      <glyph glyph-name="unia7" unicode="&#xa7;" d="M1191 500Q1177 407 1128 339.50Q1079 272 999 229Q1058 177 1081 106.50Q1104 36 1090-61Q1061-248 905-345.50Q749-443 502-443Q272-443 126-344.50Q-20-246 17-31L19-25L348-25Q334-116 388.50-149Q443-182 541-182Q631-182 687-149.50Q743-117 752-62Q760-3 711.50 31Q663 65 515 109Q278 173 173 266Q68 359 93 528Q107 619 156.50 687.50Q206 756 288 800Q227 851 203 921.50Q179 992 194 1090Q220 1272 380 1374.50Q540 1477 786 1477Q1026 1477 1154 1365.50Q1282 1254 1248 1057L1246 1051L917 1051Q927 1127 884 1172Q841 1217 747 1217Q652 1217 596 1181.50Q540 1146 533 1092Q523 1026 567 994.50Q611 963 766 920Q1005 858 1110.50 763.50Q1216 669 1191 500M615 652Q588 659 562 667.50Q536 676 505 687Q476 666 458.50 635Q441 604 436 568Q424 495 466.50 460.50Q509 426 666 376Q698 366 725 358Q752 350 777 342Q808 363 827.50 393.50Q847 424 853 462Q862 526 812.50 565Q763 604 615 652Z"  horiz-adv-x="1301" vert-adv-y="2048"  />

      
      <glyph glyph-name="unia8" unicode="&#xa8;" d="M1053 1252L763 1252L792 1456L1082 1456L1053 1252M538 1252L248 1252L277 1456L567 1456L538 1252Z"  horiz-adv-x="1123" vert-adv-y="2048"  />

      
      <glyph glyph-name="unia9" unicode="&#xa9;" d="M1116 596L1118 590Q1099 434 1000.50 358Q902 282 743 282Q589 282 507.50 389.50Q426 497 452 669L470 788Q496 967 605.50 1071Q715 1175 877 1175Q1029 1175 1108 1094.50Q1187 1014 1161 866L1159 861L1010 861Q1024 958 986 999Q948 1040 857 1040Q766 1040 703.50 970.50Q641 901 625 789L607 669Q589 550 629 483.50Q669 417 764 417Q851 417 903 459Q955 501 969 596L1116 596M236 729Q195 455 339 279.50Q483 104 731 104Q966 104 1168.50 286Q1371 468 1411 729Q1452 1002 1308.50 1176.50Q1165 1351 918 1351Q681 1351 478 1170Q275 989 236 729M114 729Q163 1056 399.50 1266Q636 1476 936 1476Q1219 1476 1400 1258Q1581 1040 1534 729Q1485 401 1247.50 190Q1010-21 712-21Q428-21 247.50 197.50Q67 416 114 729Z"  horiz-adv-x="1608" vert-adv-y="2048"  />

      
      <glyph glyph-name="uniaa" unicode="&#xaa;" d="M626 706Q621 727 619.50 750.50Q618 774 619 800Q579 753 518.50 722.50Q458 692 381 692Q267 692 208.50 754Q150 816 166 920Q183 1034 275.50 1092.50Q368 1151 532 1151L668 1151L676 1202Q685 1266 661 1297.50Q637 1329 579 1329Q516 1329 474.50 1303Q433 1277 427 1230L265 1243L264 1249Q273 1351 366.50 1414Q460 1477 602 1477Q731 1477 801 1405Q871 1333 851 1201L804 887Q796 835 795.50 791.50Q795 748 803 706L626 706M445 836Q493 836 552.50 865.50Q612 895 635 930L651 1034L515 1034Q444 1034 396 1001.50Q348 969 342 924Q335 880 360 858Q385 836 445 836Z"  horiz-adv-x="904" vert-adv-y="2048"  />

      
      <glyph glyph-name="uniab" unicode="&#xab;" d="M341 515L513 116L307 116L93 506L94 512L95 519L96 525L427 915L633 915L341 515M676 515L848 116L642 116L428 506L429 512L430 519L431 525L762 915L968 915L676 515Z"  horiz-adv-x="1054" vert-adv-y="2048"  />

      
      <glyph glyph-name="uniac" unicode="&#xac;" d="M975 634L936 374L736 374L775 634L140 634L166 805L1001 805L975 634Z"  horiz-adv-x="1124" vert-adv-y="2048"  />

      
      <glyph glyph-name="uniad" unicode="&#xad;" d="M719 497L130 497L169 758L758 758L719 497Z"  horiz-adv-x="875" vert-adv-y="2048"  />

      
      <glyph glyph-name="uniae" unicode="&#xae;" d="M114 729Q163 1056 399.50 1266Q636 1476 936 1476Q1219 1476 1400 1258Q1581 1040 1534 729Q1485 401 1247.50 190Q1010-21 712-21Q428-21 247.50 197.50Q67 416 114 729M236 729Q195 455 339 279.50Q483 104 731 104Q966 104 1168.50 286Q1371 468 1411 729Q1452 1002 1308.50 1176.50Q1165 1351 918 1351Q681 1351 478 1170Q275 989 236 729M669 653L618 316L467 316L595 1166L876 1166Q1021 1166 1100 1096.50Q1179 1027 1161 902Q1152 843 1118 800.50Q1084 758 1027 730Q1076 698 1093 643Q1110 588 1100 515L1092 459Q1085 416 1084 384.50Q1083 353 1090 332L1087 316L932 316Q927 337 930.50 375Q934 413 941 460L949 514Q960 588 932 620.50Q904 653 827 653L669 653M689 787L817 787Q889 787 946 817.50Q1003 848 1011 903Q1022 978 988.50 1005.50Q955 1033 856 1033L726 1033L689 787Z"  horiz-adv-x="1608" vert-adv-y="2048"  />

      
      <glyph glyph-name="uniaf" unicode="&#xaf;" d="M1000 1285L266 1285L290 1458L1024 1458L1000 1285Z"  horiz-adv-x="1065" vert-adv-y="2048"  />

      
      <glyph glyph-name="uni02C9" unicode="&#x02C9;" d="M1000 1285L266 1285L290 1458L1024 1458L1000 1285Z"  horiz-adv-x="1065" vert-adv-y="2048"  />

      
      <glyph glyph-name="unib0" unicode="&#xb0;" d="M225 1197Q242 1317 336.50 1397.50Q431 1478 548 1478Q656 1478 727 1394.50Q798 1311 781 1197Q762 1077 670 998.50Q578 920 464 920Q352 920 279.50 1001.50Q207 1083 225 1197M380 1197Q371 1142 402.50 1107.50Q434 1073 487 1073Q536 1073 577 1108Q618 1143 627 1197Q635 1253 605.50 1289Q576 1325 525 1325Q475 1325 431.50 1287.50Q388 1250 380 1197Z"  horiz-adv-x="813" vert-adv-y="2048"  />

      
      <glyph glyph-name="unib1" unicode="&#xb1;" d="M752 994L1064 994L1026 723L714 723L663 355L370 355L421 723L110 723L148 994L459 994L507 1333L800 1333L752 994M854-66L20-66L59 198L893 198L854-66Z"  horiz-adv-x="1103" vert-adv-y="2048"  />

      
      <glyph glyph-name="unib2" unicode="&#xb2;" d="M766 667L129 667L154 834L504 1081Q568 1127 588 1158.50Q608 1190 615 1231Q619 1267 601.50 1290Q584 1313 538 1313Q491 1313 461 1284Q431 1255 425 1209L207 1209L205 1215Q217 1328 318 1403.50Q419 1479 571 1479Q713 1479 786.50 1412.50Q860 1346 843 1230Q829 1143 763.50 1080Q698 1017 550 913L453 840L454 834L791 834L766 667Z"  horiz-adv-x="856" vert-adv-y="2048"  />

      
      <glyph glyph-name="unib3" unicode="&#xb3;" d="M390 1139L491 1139Q549 1139 581.50 1162.50Q614 1186 621 1229Q626 1265 606 1288.50Q586 1312 536 1312Q489 1312 459.50 1291Q430 1270 426 1243L208 1243L207 1249Q217 1358 315 1418Q413 1478 553 1478Q702 1478 786 1418Q870 1358 854 1249Q845 1192 803.50 1146.50Q762 1101 697 1076Q762 1052 793 1004.50Q824 957 815 891Q797 774 700 714.50Q603 655 445 655Q296 655 207 720.50Q118 786 142 900L144 906L364 906Q357 863 382.50 842.50Q408 822 467 822Q514 822 548 843.50Q582 865 589 907Q595 953 565 979Q535 1005 471 1005L370 1005L384 1099L390 1139Z"  horiz-adv-x="846" vert-adv-y="2048"  />

      
      <glyph glyph-name="unib4" unicode="&#xb4;" d="M451 1518L821 1518L823 1512L505 1252L214 1252L212 1257L451 1518Z"  horiz-adv-x="762" vert-adv-y="2048"  />

      
      <glyph glyph-name="unib5" unicode="&#xb5;" d="M552 1082L459 462Q439 330 471 286.50Q503 243 589 243Q654 243 702.50 267.50Q751 292 785 339L896 1082L1233 1082L1071 0L754 0L757 49Q709 14 653.50-3.50Q598-21 536-21Q495-21 458.50-11.50Q422-2 392 15L328-416L-10-416L214 1082L552 1082Z"  horiz-adv-x="1313" vert-adv-y="2048"  />

      
      <glyph glyph-name="unib6" unicode="&#xb6;" d="M555 0L633 520L550 520Q326 520 211.50 651Q97 782 128 988Q160 1202 307.50 1329Q455 1456 690 1456L1112 1456L894 0L555 0Z"  horiz-adv-x="1113" vert-adv-y="2048"  />

      
      <glyph glyph-name="unib7" unicode="&#xb7;" d="M497 539L159 539L201 823L539 823L497 539Z"  horiz-adv-x="657" vert-adv-y="2048"  />

      
      <glyph glyph-name="unib8" unicode="&#xb8;" d="M295 10L275-51Q337-62 374-103.50Q411-145 399-224Q381-342 275.50-407Q170-472-12-472L9-286Q48-286 75-267Q102-248 109-209Q114-170 87-155Q60-140-14-136L39 10L295 10Z"  horiz-adv-x="569" vert-adv-y="2048"  />

      
      <glyph glyph-name="unib9" unicode="&#xb9;" d="M445 665L217 665L310 1284L183 1284L208 1454L567 1477L445 665Z"  horiz-adv-x="579" vert-adv-y="2048"  />

      
      <glyph glyph-name="uniba" unicode="&#xba;" d="M208 1142Q231 1295 338.50 1386Q446 1477 605 1477Q757 1477 840 1382.50Q923 1288 901 1142L884 1025Q860 870 754 780.50Q648 691 489 691Q336 691 252.50 784.50Q169 878 191 1025L208 1142M366 1025Q352 937 388.50 887Q425 837 511 837Q590 837 643 889Q696 941 709 1025L726 1142Q739 1228 702.50 1278.50Q666 1329 582 1329Q502 1329 448.50 1276Q395 1223 383 1142L366 1025Z"  horiz-adv-x="938" vert-adv-y="2048"  />

      
      <glyph glyph-name="unibb" unicode="&#xbb;" d="M333 551L161 950L368 950L581 560L579 547L578 541L248 151L41 151L333 551M679 551L507 950L714 950L927 560L925 547L924 541L594 151L387 151L679 551Z"  horiz-adv-x="1054" vert-adv-y="2048"  />

      
      <glyph glyph-name="unibc" unicode="&#xbc;" d="M534 664L306 664L399 1283L272 1283L297 1453L656 1476L534 664M389 117L244 196L1126 1334L1271 1255L389 117M1369 302L1458 302L1433 134L1344 134L1324 0L1094 0L1114 134L707 134L712 271L1213 798L1214 801L1444 801L1369 302M952 308L955 302L1139 302L1173 535L1168 537L1152 518L952 308Z"  horiz-adv-x="1441" vert-adv-y="2048"  />

      
      <glyph glyph-name="unibd" unicode="&#xbd;" d="M402 117L257 196L1139 1334L1284 1255L402 117M534 664L306 664L399 1283L272 1283L297 1453L656 1476L534 664M1477 0L840 0L865 167L1215 414Q1278 460 1298.50 492Q1319 524 1326 564Q1330 600 1312.50 623Q1295 646 1249 646Q1202 646 1172 617Q1142 588 1136 542L918 542L916 548Q928 661 1029 736.50Q1130 812 1282 812Q1424 812 1497 745.50Q1570 679 1553 563Q1540 476 1474.50 413Q1409 350 1261 246L1164 173L1165 167L1502 167L1477 0Z"  horiz-adv-x="1473" vert-adv-y="2048"  />

      
      <glyph glyph-name="unibe" unicode="&#xbe;" d="M572 117L427 196L1309 1334L1454 1255L572 117M1558 302L1647 302L1622 134L1533 134L1513 0L1283 0L1303 134L896 134L901 271L1402 798L1403 801L1633 801L1558 302M1141 308L1144 302L1328 302L1362 535L1357 537L1341 518L1141 308M406 1140L507 1140Q565 1140 597.50 1163.50Q630 1187 637 1230Q642 1266 622 1289.50Q602 1313 552 1313Q505 1313 476 1292Q447 1271 443 1244L225 1244L224 1250Q234 1359 331.50 1419Q429 1479 569 1479Q718 1479 802 1419Q886 1359 870 1250Q861 1193 819.50 1147.50Q778 1102 713 1077Q778 1053 809 1005.50Q840 958 831 892Q813 775 716 715.50Q619 656 461 656Q312 656 223.50 721.50Q135 787 158 901L160 907L380 907Q373 864 398.50 843.50Q424 823 483 823Q530 823 564 844.50Q598 866 605 908Q611 954 581 980Q551 1006 487 1006L386 1006L400 1100L406 1140Z"  horiz-adv-x="1683" vert-adv-y="2048"  />

      
      <glyph glyph-name="unibf" unicode="&#xbf;" d="M786 666Q763 526 703.50 456Q644 386 501 296Q427 253 379.50 191Q332 129 320 49Q307-37 344.50-86Q382-135 467-135Q530-135 582-93.50Q634-52 649 28L978 28L979 22Q950-186 799-290.50Q648-395 428-395Q197-395 75-274Q-47-153-18 49Q1 178 90 280Q179 382 306 444Q375 485 405 533.50Q435 582 448 666L786 666M511 1082L847 1082L807 812L471 812L511 1082Z"  horiz-adv-x="1047" vert-adv-y="2048"  />

      
      <glyph glyph-name="unic0" unicode="&#xc0;" d="M840 283L408 283L281 0L-75 0L618 1456L799 1456L799 1455L800 1456L981 1456L1239 0L883 0L840 283M524 543L801 543L734 994L728 995L524 543M976 1599L679 1599L433 1859L436 1865L806 1865L976 1599Z"  horiz-adv-x="1307" vert-adv-y="2048"  />

      
      <glyph glyph-name="unic1" unicode="&#xc1;" d="M840 283L408 283L281 0L-75 0L618 1456L799 1456L799 1455L800 1456L981 1456L1239 0L883 0L840 283M524 543L801 543L734 994L728 995L524 543M885 1867L1255 1867L1257 1861L939 1601L648 1601L646 1606L885 1867Z"  horiz-adv-x="1307" vert-adv-y="2048"  />

      
      <glyph glyph-name="unic2" unicode="&#xc2;" d="M840 283L408 283L281 0L-75 0L618 1456L799 1456L799 1455L800 1456L981 1456L1239 0L883 0L840 283M524 543L801 543L734 994L728 995L524 543M1218 1609L1215 1587L950 1587L832 1713L677 1587L417 1587L421 1613L757 1853L950 1853L1218 1609Z"  horiz-adv-x="1307" vert-adv-y="2048"  />

      
      <glyph glyph-name="unic3" unicode="&#xc3;" d="M840 283L408 283L281 0L-75 0L618 1456L799 1456L799 1455L800 1456L981 1456L1239 0L883 0L840 283M524 543L801 543L734 994L728 995L524 543M1232 1861Q1218 1762 1149.50 1695Q1081 1628 990 1628Q924 1628 833 1670Q742 1712 690 1712Q658 1712 630.50 1679.50Q603 1647 598 1602L427 1652Q440 1749 509 1817Q578 1885 669 1885Q722 1885 818.50 1843.50Q915 1802 968 1802Q998 1802 1026.50 1834.50Q1055 1867 1061 1912L1232 1861Z"  horiz-adv-x="1307" vert-adv-y="2048"  />

      
      <glyph glyph-name="unic4" unicode="&#xc4;" d="M840 283L408 283L281 0L-75 0L618 1456L799 1456L799 1455L800 1456L981 1456L1239 0L883 0L840 283M524 543L801 543L734 994L728 995L524 543M1210 1601L920 1601L949 1805L1239 1805L1210 1601M695 1601L405 1601L434 1805L724 1805L695 1601Z"  horiz-adv-x="1307" vert-adv-y="2048"  />

      
      <glyph glyph-name="unic5" unicode="&#xc5;" d="M840 283L408 283L281 0L-75 0L618 1456L799 1456L799 1455L800 1456L981 1456L1239 0L883 0L840 283M524 543L801 543L734 994L728 995L524 543M647 1751Q658 1827 720.50 1875.50Q783 1924 867 1924Q945 1924 993.50 1873.50Q1042 1823 1032 1751Q1020 1674 958.50 1627.50Q897 1581 815 1581Q735 1581 685 1629.50Q635 1678 647 1751M770 1751Q764 1719 781 1700Q798 1681 830 1681Q858 1681 879.50 1700.50Q901 1720 907 1751Q911 1784 896 1803.50Q881 1823 851 1823Q821 1823 797.50 1802.50Q774 1782 770 1751Z"  horiz-adv-x="1307" vert-adv-y="2048"  />

      
      <glyph glyph-name="unic6" unicode="&#xc6;" d="M1767 0L870 0L905 329L523 329L321 0L-69 0L884 1456L1924 1456L1885 1192L1335 1192L1301 876L1756 876L1717 612L1273 612L1235 264L1807 264L1767 0M934 599L986 1072L980 1074L688 599L934 599Z"  horiz-adv-x="1916" vert-adv-y="2048"  />

      
      <glyph glyph-name="unic7" unicode="&#xc7;" d="M1227 491L1229 485Q1194 226 1033 102.50Q872-21 603-21Q343-21 199 146Q55 313 95 576L141 880Q182 1156 362.50 1316.50Q543 1477 805 1477Q1072 1477 1208.50 1347Q1345 1217 1305 973L1302 967L972 967Q992 1106 945 1161.50Q898 1217 766 1217Q657 1217 579 1124.50Q501 1032 479 882L433 576Q409 418 462.50 328.50Q516 239 642 239Q753 239 816 298Q879 357 899 491L1227 491M715 10L695-51Q757-62 794-103.50Q831-145 819-224Q801-342 695.50-407Q590-472 408-472L429-286Q468-286 495-267Q522-248 529-209Q534-170 507-155Q480-140 406-136L459 10L715 10Z"  horiz-adv-x="1307" vert-adv-y="2048"  />

      
      <glyph glyph-name="unic8" unicode="&#xc8;" d="M980 623L467 623L413 260L1028 260L989 0L36 0L254 1456L1208 1456L1169 1196L553 1196L506 883L1019 883L980 623M914 1599L617 1599L371 1859L374 1865L744 1865L914 1599Z"  horiz-adv-x="1143" vert-adv-y="2048"  />

      
      <glyph glyph-name="unic9" unicode="&#xc9;" d="M980 623L467 623L413 260L1028 260L989 0L36 0L254 1456L1208 1456L1169 1196L553 1196L506 883L1019 883L980 623M823 1867L1193 1867L1195 1861L877 1601L586 1601L584 1606L823 1867Z"  horiz-adv-x="1143" vert-adv-y="2048"  />

      
      <glyph glyph-name="unica" unicode="&#xca;" d="M980 623L467 623L413 260L1028 260L989 0L36 0L254 1456L1208 1456L1169 1196L553 1196L506 883L1019 883L980 623M1156 1609L1153 1587L888 1587L770 1713L615 1587L355 1587L359 1613L695 1853L888 1853L1156 1609Z"  horiz-adv-x="1143" vert-adv-y="2048"  />

      
      <glyph glyph-name="unicb" unicode="&#xcb;" d="M980 623L467 623L413 260L1028 260L989 0L36 0L254 1456L1208 1456L1169 1196L553 1196L506 883L1019 883L980 623M1148 1601L858 1601L887 1805L1177 1805L1148 1601M633 1601L343 1601L372 1805L662 1805L633 1601Z"  horiz-adv-x="1143" vert-adv-y="2048"  />

      
      <glyph glyph-name="unicc" unicode="&#xcc;" d="M394 0L57 0L275 1456L612 1456L394 0M627 1599L330 1599L84 1859L87 1865L457 1865L627 1599Z"  horiz-adv-x="611" vert-adv-y="2048"  />

      
      <glyph glyph-name="unicd" unicode="&#xcd;" d="M394 0L57 0L275 1456L612 1456L394 0M535 1867L905 1867L907 1861L589 1601L298 1601L296 1606L535 1867Z"  horiz-adv-x="611" vert-adv-y="2048"  />

      
      <glyph glyph-name="unice" unicode="&#xce;" d="M394 0L57 0L275 1456L612 1456L394 0M869 1609L866 1587L601 1587L483 1713L328 1587L68 1587L72 1613L408 1853L601 1853L869 1609Z"  horiz-adv-x="611" vert-adv-y="2048"  />

      
      <glyph glyph-name="unicf" unicode="&#xcf;" d="M394 0L57 0L275 1456L612 1456L394 0M861 1601L571 1601L600 1805L890 1805L861 1601M346 1601L56 1601L85 1805L375 1805L346 1601Z"  horiz-adv-x="611" vert-adv-y="2048"  />

      
      <glyph glyph-name="unid0" unicode="&#xd0;" d="M787 1456Q1034 1456 1186.50 1287Q1339 1118 1301 859L1262 597Q1220 324 1024.50 162Q829 0 569 0L36 0L133 647L13 647L42 838L161 838L254 1456L787 1456M699 647L471 647L413 260L608 260Q718 260 809 355Q900 450 923 597L962 861Q984 1014 924 1105Q864 1196 748 1196L553 1196L499 838L728 838L699 647Z"  horiz-adv-x="1338" vert-adv-y="2048"  />

      
      <glyph glyph-name="unid1" unicode="&#xd1;" d="M1250 0L913 0L516 916L510 915L374 0L36 0L254 1456L592 1456L988 541L994 542L1131 1456L1468 1456L1250 0M1300 1861Q1286 1762 1217.50 1695Q1149 1628 1058 1628Q992 1628 901 1670Q810 1712 758 1712Q726 1712 698.50 1679.50Q671 1647 666 1602L495 1652Q508 1749 577 1817Q646 1885 737 1885Q790 1885 886.50 1843.50Q983 1802 1036 1802Q1066 1802 1094.50 1834.50Q1123 1867 1129 1912L1300 1861Z"  horiz-adv-x="1446" vert-adv-y="2048"  />

      
      <glyph glyph-name="unid2" unicode="&#xd2;" d="M1336 597Q1293 317 1099 148Q905-21 627-21Q361-21 209.50 155.50Q58 332 99 597L138 859Q179 1137 374.50 1307Q570 1477 850 1477Q1114 1477 1264 1300.50Q1414 1124 1375 859L1336 597M1038 861Q1062 1023 1004 1120Q946 1217 811 1217Q679 1217 588.50 1116.50Q498 1016 475 861L436 597Q411 433 469.50 336Q528 239 666 239Q794 239 884.50 340Q975 441 999 597L1038 861M1032 1620L735 1620L489 1880L492 1886L862 1886L1032 1620Z"  horiz-adv-x="1416" vert-adv-y="2048"  />

      
      <glyph glyph-name="unid3" unicode="&#xd3;" d="M1336 597Q1293 317 1099 148Q905-21 627-21Q361-21 209.50 155.50Q58 332 99 597L138 859Q179 1137 374.50 1307Q570 1477 850 1477Q1114 1477 1264 1300.50Q1414 1124 1375 859L1336 597M1038 861Q1062 1023 1004 1120Q946 1217 811 1217Q679 1217 588.50 1116.50Q498 1016 475 861L436 597Q411 433 469.50 336Q528 239 666 239Q794 239 884.50 340Q975 441 999 597L1038 861M942 1888L1312 1888L1314 1882L996 1622L705 1622L703 1627L942 1888Z"  horiz-adv-x="1416" vert-adv-y="2048"  />

      
      <glyph glyph-name="unid4" unicode="&#xd4;" d="M1336 597Q1293 317 1099 148Q905-21 627-21Q361-21 209.50 155.50Q58 332 99 597L138 859Q179 1137 374.50 1307Q570 1477 850 1477Q1114 1477 1264 1300.50Q1414 1124 1375 859L1336 597M1038 861Q1062 1023 1004 1120Q946 1217 811 1217Q679 1217 588.50 1116.50Q498 1016 475 861L436 597Q411 433 469.50 336Q528 239 666 239Q794 239 884.50 340Q975 441 999 597L1038 861M1274 1630L1271 1608L1006 1608L888 1734L733 1608L473 1608L477 1634L813 1874L1006 1874L1274 1630Z"  horiz-adv-x="1416" vert-adv-y="2048"  />

      
      <glyph glyph-name="unid5" unicode="&#xd5;" d="M1336 597Q1293 317 1099 148Q905-21 627-21Q361-21 209.50 155.50Q58 332 99 597L138 859Q179 1137 374.50 1307Q570 1477 850 1477Q1114 1477 1264 1300.50Q1414 1124 1375 859L1336 597M1038 861Q1062 1023 1004 1120Q946 1217 811 1217Q679 1217 588.50 1116.50Q498 1016 475 861L436 597Q411 433 469.50 336Q528 239 666 239Q794 239 884.50 340Q975 441 999 597L1038 861M1288 1882Q1274 1783 1205.50 1716Q1137 1649 1046 1649Q980 1649 889 1691Q798 1733 746 1733Q714 1733 686.50 1700.50Q659 1668 654 1623L483 1673Q496 1770 565 1838Q634 1906 725 1906Q778 1906 874.50 1864.50Q971 1823 1024 1823Q1054 1823 1082.50 1855.50Q1111 1888 1117 1933L1288 1882Z"  horiz-adv-x="1416" vert-adv-y="2048"  />

      
      <glyph glyph-name="unid6" unicode="&#xd6;" d="M1336 597Q1293 317 1099 148Q905-21 627-21Q361-21 209.50 155.50Q58 332 99 597L138 859Q179 1137 374.50 1307Q570 1477 850 1477Q1114 1477 1264 1300.50Q1414 1124 1375 859L1336 597M1038 861Q1062 1023 1004 1120Q946 1217 811 1217Q679 1217 588.50 1116.50Q498 1016 475 861L436 597Q411 433 469.50 336Q528 239 666 239Q794 239 884.50 340Q975 441 999 597L1038 861M1267 1622L977 1622L1006 1826L1296 1826L1267 1622M752 1622L462 1622L491 1826L781 1826L752 1622Z"  horiz-adv-x="1416" vert-adv-y="2048"  />

      
      <glyph glyph-name="unid7" unicode="&#xd7;" d="M30 381L376 686L122 992L342 1175L590 876L928 1175L1094 992L748 686L1002 381L782 198L533 497L196 198L30 381Z"  horiz-adv-x="1083" vert-adv-y="2048"  />

      
      <glyph glyph-name="unid8" unicode="&#xd8;" d="M1336 597Q1293 317 1099 148Q905-21 627-21Q551-21 482.50-5.50Q414 10 356 41L257-95L117-95L262 104Q162 187 118.50 315.50Q75 444 99 597L138 859Q179 1137 374.50 1307Q570 1477 850 1477Q948 1477 1033.50 1450Q1119 1423 1187 1373L1292 1518L1432 1518L1269 1295Q1338 1211 1366 1099Q1394 987 1375 859L1336 597M436 597Q425 528 429.50 471Q434 414 453 376L459 374L1003 1122Q973 1167 925 1192Q877 1217 811 1217Q679 1217 588.50 1116.50Q498 1016 475 861L436 597M1038 861Q1043 894 1044 924Q1045 954 1043 975L1038 977L527 276Q554 257 588.50 248Q623 239 666 239Q794 239 884.50 340Q975 441 999 597L1038 861Z"  horiz-adv-x="1416" vert-adv-y="2048"  />

      
      <glyph glyph-name="unid9" unicode="&#xd9;" d="M1447 1456L1306 512Q1266 252 1081.50 115.50Q897-21 627-21Q368-21 217 122Q66 265 104 512L245 1456L584 1456L443 512Q421 372 480.50 305.50Q540 239 666 239Q785 239 865.50 308Q946 377 967 512L1108 1456L1447 1456M1029 1599L732 1599L486 1859L489 1865L859 1865L1029 1599Z"  horiz-adv-x="1417" vert-adv-y="2048"  />

      
      <glyph glyph-name="unida" unicode="&#xda;" d="M1447 1456L1306 512Q1266 252 1081.50 115.50Q897-21 627-21Q368-21 217 122Q66 265 104 512L245 1456L584 1456L443 512Q421 372 480.50 305.50Q540 239 666 239Q785 239 865.50 308Q946 377 967 512L1108 1456L1447 1456M938 1867L1308 1867L1310 1861L992 1601L701 1601L699 1606L938 1867Z"  horiz-adv-x="1417" vert-adv-y="2048"  />

      
      <glyph glyph-name="unidb" unicode="&#xdb;" d="M1447 1456L1306 512Q1266 252 1081.50 115.50Q897-21 627-21Q368-21 217 122Q66 265 104 512L245 1456L584 1456L443 512Q421 372 480.50 305.50Q540 239 666 239Q785 239 865.50 308Q946 377 967 512L1108 1456L1447 1456M1271 1609L1268 1587L1003 1587L885 1713L730 1587L470 1587L474 1613L810 1853L1003 1853L1271 1609Z"  horiz-adv-x="1417" vert-adv-y="2048"  />

      
      <glyph glyph-name="unidc" unicode="&#xdc;" d="M1447 1456L1306 512Q1266 252 1081.50 115.50Q897-21 627-21Q368-21 217 122Q66 265 104 512L245 1456L584 1456L443 512Q421 372 480.50 305.50Q540 239 666 239Q785 239 865.50 308Q946 377 967 512L1108 1456L1447 1456M1263 1601L973 1601L1002 1805L1292 1805L1263 1601M748 1601L458 1601L487 1805L777 1805L748 1601Z"  horiz-adv-x="1417" vert-adv-y="2048"  />

      
      <glyph glyph-name="unidd" unicode="&#xdd;" d="M692 819L698 818L1084 1456L1450 1456L814 512L738 0L401 0L480 528L133 1456L499 1456L692 819M892 1867L1262 1867L1264 1861L946 1601L655 1601L653 1606L892 1867Z"  horiz-adv-x="1307" vert-adv-y="2048"  />

      
      <glyph glyph-name="unide" unicode="&#xde;" d="M593 1456L554 1198L753 1198Q1008 1198 1141.50 1070Q1275 942 1245 738Q1213 524 1048 401Q883 278 615 278L416 278L375 0L36 0L254 1456L593 1456M515 938L455 538L654 538Q762 538 827 595Q892 652 905 736Q918 826 872.50 882Q827 938 714 938L516 938L515 938Z"  horiz-adv-x="1266" vert-adv-y="2048"  />

      
      <glyph glyph-name="unidf" unicode="&#xdf;" d="M392 0L54 0L221 1112Q256 1347 406 1464Q556 1581 802 1581Q986 1581 1101.50 1479.50Q1217 1378 1190 1201Q1173 1093 1112.50 1005Q1052 917 1041 842Q1034 795 1151 656Q1268 517 1248 377Q1216 170 1083.50 74.50Q951-21 711-21Q634-21 559.50-8.50Q485 4 450 27L547 283Q580 264 632 251.50Q684 239 752 239Q811 239 856 272.50Q901 306 910 364Q920 434 800.50 561.50Q681 689 702 827Q717 929 778 1021Q839 1113 850 1187Q858 1242 821.50 1282Q785 1322 730 1322Q671 1322 621.50 1262.50Q572 1203 558 1106L392 0Z"  horiz-adv-x="1330" vert-adv-y="2048"  />

      
      <glyph glyph-name="unie0" unicode="&#xe0;" d="M641 1Q628 35 620.50 78Q613 121 613 168Q556 82 484 30.50Q412-21 308-21Q144-21 60 67.50Q-24 156-2 305Q23 472 155 556.50Q287 641 536 641L675 641L687 718Q697 790 670 825.50Q643 861 574 861Q517 861 483 833Q449 805 441 748L113 749L112 755Q129 909 272.50 1005.50Q416 1102 632 1102Q826 1102 939 1001Q1052 900 1024 716L963 308Q949 219 953 147.50Q957 76 975 0L641 1M436 220Q495 220 548.50 249.50Q602 279 627 319L648 461L512 461Q435 461 391 421.50Q347 382 338 323Q331 275 358.50 247.50Q386 220 436 220M814 1277L517 1277L271 1537L274 1543L644 1543L814 1277Z"  horiz-adv-x="1086" vert-adv-y="2048"  />

      
      <glyph glyph-name="unie1" unicode="&#xe1;" d="M641 1Q628 35 620.50 78Q613 121 613 168Q556 82 484 30.50Q412-21 308-21Q144-21 60 67.50Q-24 156-2 305Q23 472 155 556.50Q287 641 536 641L675 641L687 718Q697 790 670 825.50Q643 861 574 861Q517 861 483 833Q449 805 441 748L113 749L112 755Q129 909 272.50 1005.50Q416 1102 632 1102Q826 1102 939 1001Q1052 900 1024 716L963 308Q949 219 953 147.50Q957 76 975 0L641 1M436 220Q495 220 548.50 249.50Q602 279 627 319L648 461L512 461Q435 461 391 421.50Q347 382 338 323Q331 275 358.50 247.50Q386 220 436 220M723 1545L1093 1545L1095 1539L777 1279L486 1279L484 1284L723 1545Z"  horiz-adv-x="1086" vert-adv-y="2048"  />

      
      <glyph glyph-name="unie2" unicode="&#xe2;" d="M641 1Q628 35 620.50 78Q613 121 613 168Q556 82 484 30.50Q412-21 308-21Q144-21 60 67.50Q-24 156-2 305Q23 472 155 556.50Q287 641 536 641L675 641L687 718Q697 790 670 825.50Q643 861 574 861Q517 861 483 833Q449 805 441 748L113 749L112 755Q129 909 272.50 1005.50Q416 1102 632 1102Q826 1102 939 1001Q1052 900 1024 716L963 308Q949 219 953 147.50Q957 76 975 0L641 1M436 220Q495 220 548.50 249.50Q602 279 627 319L648 461L512 461Q435 461 391 421.50Q347 382 338 323Q331 275 358.50 247.50Q386 220 436 220M1056 1287L1053 1265L788 1265L670 1391L515 1265L255 1265L259 1291L595 1531L788 1531L1056 1287Z"  horiz-adv-x="1086" vert-adv-y="2048"  />

      
      <glyph glyph-name="unie3" unicode="&#xe3;" d="M641 1Q628 35 620.50 78Q613 121 613 168Q556 82 484 30.50Q412-21 308-21Q144-21 60 67.50Q-24 156-2 305Q23 472 155 556.50Q287 641 536 641L675 641L687 718Q697 790 670 825.50Q643 861 574 861Q517 861 483 833Q449 805 441 748L113 749L112 755Q129 909 272.50 1005.50Q416 1102 632 1102Q826 1102 939 1001Q1052 900 1024 716L963 308Q949 219 953 147.50Q957 76 975 0L641 1M436 220Q495 220 548.50 249.50Q602 279 627 319L648 461L512 461Q435 461 391 421.50Q347 382 338 323Q331 275 358.50 247.50Q386 220 436 220M1070 1539Q1056 1440 987.50 1373Q919 1306 828 1306Q762 1306 671 1348Q580 1390 528 1390Q496 1390 468.50 1357.50Q441 1325 436 1280L265 1330Q278 1427 347 1495Q416 1563 507 1563Q560 1563 656.50 1521.50Q753 1480 806 1480Q836 1480 864.50 1512.50Q893 1545 899 1590L1070 1539Z"  horiz-adv-x="1086" vert-adv-y="2048"  />

      
      <glyph glyph-name="unie4" unicode="&#xe4;" d="M641 1Q628 35 620.50 78Q613 121 613 168Q556 82 484 30.50Q412-21 308-21Q144-21 60 67.50Q-24 156-2 305Q23 472 155 556.50Q287 641 536 641L675 641L687 718Q697 790 670 825.50Q643 861 574 861Q517 861 483 833Q449 805 441 748L113 749L112 755Q129 909 272.50 1005.50Q416 1102 632 1102Q826 1102 939 1001Q1052 900 1024 716L963 308Q949 219 953 147.50Q957 76 975 0L641 1M436 220Q495 220 548.50 249.50Q602 279 627 319L648 461L512 461Q435 461 391 421.50Q347 382 338 323Q331 275 358.50 247.50Q386 220 436 220M1049 1279L759 1279L788 1483L1078 1483L1049 1279M534 1279L244 1279L273 1483L563 1483L534 1279Z"  horiz-adv-x="1086" vert-adv-y="2048"  />

      
      <glyph glyph-name="unie5" unicode="&#xe5;" d="M641 1Q628 35 620.50 78Q613 121 613 168Q556 82 484 30.50Q412-21 308-21Q144-21 60 67.50Q-24 156-2 305Q23 472 155 556.50Q287 641 536 641L675 641L687 718Q697 790 670 825.50Q643 861 574 861Q517 861 483 833Q449 805 441 748L113 749L112 755Q129 909 272.50 1005.50Q416 1102 632 1102Q826 1102 939 1001Q1052 900 1024 716L963 308Q949 219 953 147.50Q957 76 975 0L641 1M436 220Q495 220 548.50 249.50Q602 279 627 319L648 461L512 461Q435 461 391 421.50Q347 382 338 323Q331 275 358.50 247.50Q386 220 436 220M485 1429Q496 1505 558.50 1553.50Q621 1602 705 1602Q783 1602 831.50 1551.50Q880 1501 870 1429Q858 1352 796.50 1305.50Q735 1259 653 1259Q573 1259 523 1307.50Q473 1356 485 1429M608 1429Q602 1397 619 1378Q636 1359 668 1359Q696 1359 717.50 1378.50Q739 1398 745 1429Q749 1462 734 1481.50Q719 1501 689 1501Q659 1501 635.50 1480.50Q612 1460 608 1429Z"  horiz-adv-x="1086" vert-adv-y="2048"  />

      
      <glyph glyph-name="unie6" unicode="&#xe6;" d="M1192-21Q1071-21 978.50 17.50Q886 56 827 128Q757 62 653.50 20.50Q550-21 418-21Q223-21 122 72.50Q21 166 46 324Q70 489 213.50 572Q357 655 615 655L772 655L779 701Q789 769 760 805.50Q731 842 667 842Q600 842 554.50 812.50Q509 783 503 740L178 758L176 764Q193 916 339 1009Q485 1102 710 1102Q803 1102 880.50 1079Q958 1056 1013 1013Q1081 1057 1165.50 1079.50Q1250 1102 1349 1102Q1552 1102 1659.50 968.50Q1767 835 1734 612L1707 435L1086 435L1084 429Q1075 338 1120.50 288.50Q1166 239 1277 239Q1361 239 1427 255.50Q1493 272 1572 306L1622 100Q1548 49 1430 14Q1312-21 1192-21M517 211Q564 211 621.50 235Q679 259 717 293L741 451L587 451Q503 451 446.50 412Q390 373 383 320Q375 266 408 238.50Q441 211 517 211M1310 842Q1228 842 1181.50 791.50Q1135 741 1117 652L1119 646L1410 646L1414 672Q1426 755 1399 798.50Q1372 842 1310 842Z"  horiz-adv-x="1763" vert-adv-y="2048"  />

      
      <glyph glyph-name="unie7" unicode="&#xe7;" d="M515 239Q581 239 622 277Q663 315 674 385L981 385L983 379Q959 195 817.50 87Q676-21 476-21Q239-21 123 133.50Q7 288 44 529L48 552Q85 805 239.50 953.50Q394 1102 642 1102Q841 1102 950.50 986Q1060 870 1027 673L1025 668L716 668Q728 748 700.50 795Q673 842 603 842Q509 842 456.50 762Q404 682 385 552L381 529Q360 388 387 313.50Q414 239 515 239M611 10L591-51Q653-62 690-103.50Q727-145 715-224Q697-342 591.50-407Q486-472 304-472L325-286Q364-286 391-267Q418-248 425-209Q430-170 403-155Q376-140 302-136L355 10L611 10Z"  horiz-adv-x="1048" vert-adv-y="2048"  />

      
      <glyph glyph-name="unie8" unicode="&#xe8;" d="M493-21Q257-21 135 129.50Q13 280 47 505L52 543Q90 800 243.50 951.50Q397 1103 648 1102Q858 1102 963 969.50Q1068 837 1035 612L1008 435L387 435L385 429Q380 342 427 290.50Q474 239 578 239Q671 239 741 255.50Q811 272 897 306L947 100Q870 49 746.50 14Q623-21 493-21M609 842Q531 842 484.50 790.50Q438 739 417 652L419 646L710 646L714 672Q727 759 703.50 800.50Q680 842 609 842M812 1278L515 1278L269 1538L272 1544L642 1544L812 1278Z"  horiz-adv-x="1070" vert-adv-y="2048"  />

      
      <glyph glyph-name="unie9" unicode="&#xe9;" d="M493-21Q257-21 135 129.50Q13 280 47 505L52 543Q90 800 243.50 951.50Q397 1103 648 1102Q858 1102 963 969.50Q1068 837 1035 612L1008 435L387 435L385 429Q380 342 427 290.50Q474 239 578 239Q671 239 741 255.50Q811 272 897 306L947 100Q870 49 746.50 14Q623-21 493-21M609 842Q531 842 484.50 790.50Q438 739 417 652L419 646L710 646L714 672Q727 759 703.50 800.50Q680 842 609 842M721 1546L1091 1546L1093 1540L775 1280L484 1280L482 1285L721 1546Z"  horiz-adv-x="1070" vert-adv-y="2048"  />

      
      <glyph glyph-name="uniea" unicode="&#xea;" d="M493-21Q257-21 135 129.50Q13 280 47 505L52 543Q90 800 243.50 951.50Q397 1103 648 1102Q858 1102 963 969.50Q1068 837 1035 612L1008 435L387 435L385 429Q380 342 427 290.50Q474 239 578 239Q671 239 741 255.50Q811 272 897 306L947 100Q870 49 746.50 14Q623-21 493-21M609 842Q531 842 484.50 790.50Q438 739 417 652L419 646L710 646L714 672Q727 759 703.50 800.50Q680 842 609 842M1054 1288L1051 1266L786 1266L668 1392L513 1266L253 1266L257 1292L593 1532L786 1532L1054 1288Z"  horiz-adv-x="1070" vert-adv-y="2048"  />

      
      <glyph glyph-name="unieb" unicode="&#xeb;" d="M493-21Q257-21 135 129.50Q13 280 47 505L52 543Q90 800 243.50 951.50Q397 1103 648 1102Q858 1102 963 969.50Q1068 837 1035 612L1008 435L387 435L385 429Q380 342 427 290.50Q474 239 578 239Q671 239 741 255.50Q811 272 897 306L947 100Q870 49 746.50 14Q623-21 493-21M609 842Q531 842 484.50 790.50Q438 739 417 652L419 646L710 646L714 672Q727 759 703.50 800.50Q680 842 609 842M1047 1280L757 1280L786 1484L1076 1484L1047 1280M532 1280L242 1280L271 1484L561 1484L532 1280Z"  horiz-adv-x="1070" vert-adv-y="2048"  />

      
      <glyph glyph-name="uniec" unicode="&#xec;" d="M382 0L43 0L205 1082L544 1082L382 0M564 1256L267 1256L21 1516L24 1522L394 1522L564 1256Z"  horiz-adv-x="584" vert-adv-y="2048"  />

      
      <glyph glyph-name="unied" unicode="&#xed;" d="M382 0L43 0L205 1082L544 1082L382 0M472 1524L842 1524L844 1518L526 1258L235 1258L233 1263L472 1524Z"  horiz-adv-x="584" vert-adv-y="2048"  />

      
      <glyph glyph-name="uniee" unicode="&#xee;" d="M382 0L43 0L205 1082L544 1082L382 0M806 1267L803 1245L538 1245L420 1371L265 1245L5 1245L9 1271L345 1511L538 1511L806 1267Z"  horiz-adv-x="584" vert-adv-y="2048"  />

      
      <glyph glyph-name="unief" unicode="&#xef;" d="M382 0L43 0L205 1082L544 1082L382 0M798 1258L508 1258L537 1462L827 1462L798 1258M283 1258L-7 1258L22 1462L312 1462L283 1258Z"  horiz-adv-x="584" vert-adv-y="2048"  />

      
      <glyph glyph-name="unif0" unicode="&#xf0;" d="M1058 1286Q1148 1180 1185 1040.50Q1222 901 1198 736L1171 553Q1131 290 946 134.50Q761-21 513-21Q275-21 136 120.50Q-3 262 27 468Q62 702 212 831.50Q362 961 605 961Q681 961 747 938Q813 915 860 874L864 879Q861 956 832.50 1019.50Q804 1083 755 1133L510 1010L449 1128L625 1217L625 1223Q599 1236 565.50 1248.50Q532 1261 495 1273L639 1517Q729 1498 808.50 1464Q888 1430 954 1382L1157 1484L1216 1366L1058 1286M556 239Q660 239 736 327.50Q812 416 833 553L847 649Q819 680 766 700Q713 720 638 720Q525 720 453.50 653Q382 586 364 468Q348 363 400 301Q452 239 556 239Z"  horiz-adv-x="1226" vert-adv-y="2048"  />

      
      <glyph glyph-name="unif1" unicode="&#xf1;" d="M480 935Q545 1015 629.50 1058.50Q714 1102 810 1102Q963 1102 1039 993Q1115 884 1081 651L983 0L645 0L743 652Q759 759 732.50 800.50Q706 842 642 842Q589 842 543 822Q497 802 462 767L347 0L10 0L172 1082L489 1082L480 935M1105 1539Q1091 1440 1022.50 1373Q954 1306 863 1306Q797 1306 706 1348Q615 1390 563 1390Q531 1390 503.50 1357.50Q476 1325 471 1280L300 1330Q313 1427 382 1495Q451 1563 542 1563Q595 1563 691.50 1521.50Q788 1480 841 1480Q871 1480 899.50 1512.50Q928 1545 934 1590L1105 1539Z"  horiz-adv-x="1151" vert-adv-y="2048"  />

      
      <glyph glyph-name="unif2" unicode="&#xf2;" d="M54 551Q91 804 250 953Q409 1102 659 1102Q897 1102 1016.50 947Q1136 792 1101 551L1098 530Q1059 276 900.50 127.50Q742-21 493-21Q254-21 134 133.50Q14 288 51 530L54 551M389 530Q367 390 398 314.50Q429 239 532 239Q627 239 683.50 318Q740 397 761 530L764 551Q784 687 753 764.50Q722 842 620 842Q524 842 467 761Q410 680 392 551L389 530M848 1277L551 1277L305 1537L308 1543L678 1543L848 1277Z"  horiz-adv-x="1151" vert-adv-y="2048"  />

      
      <glyph glyph-name="unif3" unicode="&#xf3;" d="M54 551Q91 804 250 953Q409 1102 659 1102Q897 1102 1016.50 947Q1136 792 1101 551L1098 530Q1059 276 900.50 127.50Q742-21 493-21Q254-21 134 133.50Q14 288 51 530L54 551M389 530Q367 390 398 314.50Q429 239 532 239Q627 239 683.50 318Q740 397 761 530L764 551Q784 687 753 764.50Q722 842 620 842Q524 842 467 761Q410 680 392 551L389 530M757 1545L1127 1545L1129 1539L811 1279L520 1279L518 1284L757 1545Z"  horiz-adv-x="1151" vert-adv-y="2048"  />

      
      <glyph glyph-name="unif4" unicode="&#xf4;" d="M54 551Q91 804 250 953Q409 1102 659 1102Q897 1102 1016.50 947Q1136 792 1101 551L1098 530Q1059 276 900.50 127.50Q742-21 493-21Q254-21 134 133.50Q14 288 51 530L54 551M389 530Q367 390 398 314.50Q429 239 532 239Q627 239 683.50 318Q740 397 761 530L764 551Q784 687 753 764.50Q722 842 620 842Q524 842 467 761Q410 680 392 551L389 530M1090 1287L1087 1265L822 1265L704 1391L549 1265L289 1265L293 1291L629 1531L822 1531L1090 1287Z"  horiz-adv-x="1151" vert-adv-y="2048"  />

      
      <glyph glyph-name="unif5" unicode="&#xf5;" d="M54 551Q91 804 250 953Q409 1102 659 1102Q897 1102 1016.50 947Q1136 792 1101 551L1098 530Q1059 276 900.50 127.50Q742-21 493-21Q254-21 134 133.50Q14 288 51 530L54 551M389 530Q367 390 398 314.50Q429 239 532 239Q627 239 683.50 318Q740 397 761 530L764 551Q784 687 753 764.50Q722 842 620 842Q524 842 467 761Q410 680 392 551L389 530M1104 1539Q1090 1440 1021.50 1373Q953 1306 862 1306Q796 1306 705 1348Q614 1390 562 1390Q530 1390 502.50 1357.50Q475 1325 470 1280L299 1330Q312 1427 381 1495Q450 1563 541 1563Q594 1563 690.50 1521.50Q787 1480 840 1480Q870 1480 898.50 1512.50Q927 1545 933 1590L1104 1539Z"  horiz-adv-x="1151" vert-adv-y="2048"  />

      
      <glyph glyph-name="unif6" unicode="&#xf6;" d="M54 551Q91 804 250 953Q409 1102 659 1102Q897 1102 1016.50 947Q1136 792 1101 551L1098 530Q1059 276 900.50 127.50Q742-21 493-21Q254-21 134 133.50Q14 288 51 530L54 551M389 530Q367 390 398 314.50Q429 239 532 239Q627 239 683.50 318Q740 397 761 530L764 551Q784 687 753 764.50Q722 842 620 842Q524 842 467 761Q410 680 392 551L389 530M1082 1279L792 1279L821 1483L1111 1483L1082 1279M567 1279L277 1279L306 1483L596 1483L567 1279Z"  horiz-adv-x="1151" vert-adv-y="2048"  />

      
      <glyph glyph-name="unif7" unicode="&#xf7;" d="M1107 563L63 563L100 807L1144 807L1107 563M816 961L477 961L514 1206L853 1206L816 961M696 158L357 158L394 404L733 404L696 158Z"  horiz-adv-x="1166" vert-adv-y="2048"  />

      
      <glyph glyph-name="unif8" unicode="&#xf8;" d="M54 551Q91 804 250 953Q409 1102 659 1102Q705 1102 748 1095Q791 1088 831 1075L923 1219L1100 1219L962 1003Q1049 929 1085 811.50Q1121 694 1101 551L1098 530Q1059 276 900.50 127.50Q742-21 493-21Q447-21 405.50-14.50Q364-8 326 3L232-145L55-145L194 73Q103 145 65.50 264Q28 383 51 530L54 551M389 530Q381 480 379.50 442.50Q378 405 383 382L389 381L678 834Q664 837 650 839.50Q636 842 620 842Q524 842 467 761Q410 680 392 551L389 530M764 551Q770 593 771.50 629Q773 665 770 688L764 690L480 245Q491 242 504 240.50Q517 239 532 239Q627 239 683.50 318Q740 397 761 530L764 551Z"  horiz-adv-x="1152" vert-adv-y="2048"  />

      
      <glyph glyph-name="unif9" unicode="&#xf9;" d="M693 157Q631 70 548 24.50Q465-21 364-21Q202-21 121 98Q40 217 77 462L170 1082L507 1082L414 460Q394 328 419.50 283.50Q445 239 514 239Q567 239 611 255Q655 271 688 302L805 1082L1143 1082L981 0L709 0L693 157M844 1256L547 1256L301 1516L304 1522L674 1522L844 1256Z"  horiz-adv-x="1151" vert-adv-y="2048"  />

      
      <glyph glyph-name="unifa" unicode="&#xfa;" d="M693 157Q631 70 548 24.50Q465-21 364-21Q202-21 121 98Q40 217 77 462L170 1082L507 1082L414 460Q394 328 419.50 283.50Q445 239 514 239Q567 239 611 255Q655 271 688 302L805 1082L1143 1082L981 0L709 0L693 157M753 1524L1123 1524L1125 1518L807 1258L516 1258L514 1263L753 1524Z"  horiz-adv-x="1151" vert-adv-y="2048"  />

      
      <glyph glyph-name="unifb" unicode="&#xfb;" d="M693 157Q631 70 548 24.50Q465-21 364-21Q202-21 121 98Q40 217 77 462L170 1082L507 1082L414 460Q394 328 419.50 283.50Q445 239 514 239Q567 239 611 255Q655 271 688 302L805 1082L1143 1082L981 0L709 0L693 157M1086 1267L1083 1245L818 1245L700 1371L545 1245L285 1245L289 1271L625 1511L818 1511L1086 1267Z"  horiz-adv-x="1151" vert-adv-y="2048"  />

      
      <glyph glyph-name="unifc" unicode="&#xfc;" d="M693 157Q631 70 548 24.50Q465-21 364-21Q202-21 121 98Q40 217 77 462L170 1082L507 1082L414 460Q394 328 419.50 283.50Q445 239 514 239Q567 239 611 255Q655 271 688 302L805 1082L1143 1082L981 0L709 0L693 157M1078 1258L788 1258L817 1462L1107 1462L1078 1258M563 1258L273 1258L302 1462L592 1462L563 1258Z"  horiz-adv-x="1151" vert-adv-y="2048"  />

      
      <glyph glyph-name="unifd" unicode="&#xfd;" d="M507 477L507 472L513 470L783 1082L1143 1082L526-161Q459-281 367.50-359Q276-437 104-437Q62-437 33-431Q4-425-52-411L26-170Q38-173 45.50-174.50Q53-176 64-176Q140-176 182.50-152Q225-128 250-82L287-12L77 1082L436 1082L507 477M706 1524L1076 1524L1078 1518L760 1258L469 1258L467 1263L706 1524Z"  horiz-adv-x="1053" vert-adv-y="2048"  />

      
      <glyph glyph-name="unife" unicode="&#xfe;" d="M1106 518Q1067 265 937 122Q807-21 605-21Q528-21 472 11Q416 43 379 103L364 0L302-416L-36-416L26 0L25 0L259 1560L598 1560L510 976Q564 1037 628.50 1069.50Q693 1102 771 1102Q964 1102 1055 945.50Q1146 789 1109 539L1106 518M772 539Q792 680 764.50 761Q737 842 649 842Q594 842 551 820Q508 798 477 756L410 308Q428 273 466 256Q504 239 561 239Q647 239 697.50 313.50Q748 388 769 518L772 539Z"  horiz-adv-x="1149" vert-adv-y="2048"  />

      
      <glyph glyph-name="uniff" unicode="&#xff;" d="M507 477L507 472L513 470L783 1082L1143 1082L526-161Q459-281 367.50-359Q276-437 104-437Q62-437 33-431Q4-425-52-411L26-170Q38-173 45.50-174.50Q53-176 64-176Q140-176 182.50-152Q225-128 250-82L287-12L77 1082L436 1082L507 477M1032 1258L742 1258L771 1462L1061 1462L1032 1258M517 1258L227 1258L256 1462L546 1462L517 1258Z"  horiz-adv-x="1053" vert-adv-y="2048"  />

      
      <glyph glyph-name="uni0100" unicode="&#x0100;" d="M840 283L408 283L281 0L-75 0L618 1456L799 1456L799 1455L800 1456L981 1456L1239 0L883 0L840 283M524 543L801 543L734 994L728 995L524 543M1174 1601L440 1601L464 1774L1198 1774L1174 1601Z"  horiz-adv-x="1307" vert-adv-y="2048"  />

      
      <glyph glyph-name="uni0101" unicode="&#x0101;" d="M641 1Q628 35 620.50 78Q613 121 613 168Q556 82 484 30.50Q412-21 308-21Q144-21 60 67.50Q-24 156-2 305Q23 472 155 556.50Q287 641 536 641L675 641L687 718Q697 790 670 825.50Q643 861 574 861Q517 861 483 833Q449 805 441 748L113 749L112 755Q129 909 272.50 1005.50Q416 1102 632 1102Q826 1102 939 1001Q1052 900 1024 716L963 308Q949 219 953 147.50Q957 76 975 0L641 1M436 220Q495 220 548.50 249.50Q602 279 627 319L648 461L512 461Q435 461 391 421.50Q347 382 338 323Q331 275 358.50 247.50Q386 220 436 220M1012 1280L278 1280L302 1453L1036 1453L1012 1280Z"  horiz-adv-x="1086" vert-adv-y="2048"  />

      
      <glyph glyph-name="uni0102" unicode="&#x0102;" d="M840 283L408 283L281 0L-75 0L618 1456L799 1456L799 1455L800 1456L981 1456L1239 0L883 0L840 283M524 543L801 543L734 994L728 995L524 543M1213 1908L1215 1902Q1200 1764 1090 1682.50Q980 1601 810 1601Q647 1601 556 1685.50Q465 1770 489 1902L491 1908L735 1908Q728 1859 752.50 1830Q777 1801 838 1801Q895 1801 929 1831.50Q963 1862 970 1908L1213 1908Z"  horiz-adv-x="1307" vert-adv-y="2048"  />

      
      <glyph glyph-name="uni0103" unicode="&#x0103;" d="M641 1Q628 35 620.50 78Q613 121 613 168Q556 82 484 30.50Q412-21 308-21Q144-21 60 67.50Q-24 156-2 305Q23 472 155 556.50Q287 641 536 641L675 641L687 718Q697 790 670 825.50Q643 861 574 861Q517 861 483 833Q449 805 441 748L113 749L112 755Q129 909 272.50 1005.50Q416 1102 632 1102Q826 1102 939 1001Q1052 900 1024 716L963 308Q949 219 953 147.50Q957 76 975 0L641 1M436 220Q495 220 548.50 249.50Q602 279 627 319L648 461L512 461Q435 461 391 421.50Q347 382 338 323Q331 275 358.50 247.50Q386 220 436 220M1051 1586L1053 1580Q1038 1442 928 1360.50Q818 1279 648 1279Q485 1279 394 1363.50Q303 1448 327 1580L329 1586L573 1586Q566 1537 590.50 1508Q615 1479 676 1479Q733 1479 767 1509.50Q801 1540 808 1586L1051 1586Z"  horiz-adv-x="1086" vert-adv-y="2048"  />

      
      <glyph glyph-name="uni0104" unicode="&#x0104;" d="M840 283L408 283L281 0L-75 0L618 1456L799 1456L799 1455L800 1456L981 1456L1239 0L883 0L840 283M524 543L801 543L734 994L728 995L524 543M1124 0Q1073-52 1049.50-84.50Q1026-117 1019-164Q1016-183 1027.50-203Q1039-223 1091-223Q1118-223 1140.50-217.50Q1163-212 1184-205L1195-373Q1157-392 1110-404.50Q1063-417 1002-417Q891-417 824-360Q757-303 772-203Q783-125 831.50-59.50Q880 6 971 60L1124 0Z"  horiz-adv-x="1307" vert-adv-y="2048"  />

      
      <glyph glyph-name="uni0105" unicode="&#x0105;" d="M641 1Q628 35 620.50 78Q613 121 613 168Q556 82 484 30.50Q412-21 308-21Q144-21 60 67.50Q-24 156-2 305Q23 472 155 556.50Q287 641 536 641L675 641L687 718Q697 790 670 825.50Q643 861 574 861Q517 861 483 833Q449 805 441 748L113 749L112 755Q129 909 272.50 1005.50Q416 1102 632 1102Q826 1102 939 1001Q1052 900 1024 716L963 308Q949 219 953 147.50Q957 76 975 0L641 1M436 220Q495 220 548.50 249.50Q602 279 627 319L648 461L512 461Q435 461 391 421.50Q347 382 338 323Q331 275 358.50 247.50Q386 220 436 220M859 0Q808-52 784.50-84.50Q761-117 754-164Q751-183 762.50-203Q774-223 826-223Q853-223 875.50-217.50Q898-212 919-205L930-373Q892-392 845-404.50Q798-417 737-417Q626-417 559-360Q492-303 507-203Q518-125 566.50-59.50Q615 6 706 60L859 0Z"  horiz-adv-x="1086" vert-adv-y="2048"  />

      
      <glyph glyph-name="uni0106" unicode="&#x0106;" d="M1227 491L1229 485Q1194 226 1033 102.50Q872-21 603-21Q343-21 199 146Q55 313 95 576L141 880Q182 1156 362.50 1316.50Q543 1477 805 1477Q1072 1477 1208.50 1347Q1345 1217 1305 973L1302 967L972 967Q992 1106 945 1161.50Q898 1217 766 1217Q657 1217 579 1124.50Q501 1032 479 882L433 576Q409 418 462.50 328.50Q516 239 642 239Q753 239 816 298Q879 357 899 491L1227 491M914 1888L1284 1888L1286 1882L968 1622L677 1622L675 1627L914 1888Z"  horiz-adv-x="1307" vert-adv-y="2048"  />

      
      <glyph glyph-name="uni0107" unicode="&#x0107;" d="M515 239Q581 239 622 277Q663 315 674 385L981 385L983 379Q959 195 817.50 87Q676-21 476-21Q239-21 123 133.50Q7 288 44 529L48 552Q85 805 239.50 953.50Q394 1102 642 1102Q841 1102 950.50 986Q1060 870 1027 673L1025 668L716 668Q728 748 700.50 795Q673 842 603 842Q509 842 456.50 762Q404 682 385 552L381 529Q360 388 387 313.50Q414 239 515 239M709 1545L1079 1545L1081 1539L763 1279L472 1279L470 1284L709 1545Z"  horiz-adv-x="1048" vert-adv-y="2048"  />

      
      <glyph glyph-name="uni0108" unicode="&#x0108;" d="M1227 491L1229 485Q1194 226 1033 102.50Q872-21 603-21Q343-21 199 146Q55 313 95 576L141 880Q182 1156 362.50 1316.50Q543 1477 805 1477Q1072 1477 1208.50 1347Q1345 1217 1305 973L1302 967L972 967Q992 1106 945 1161.50Q898 1217 766 1217Q657 1217 579 1124.50Q501 1032 479 882L433 576Q409 418 462.50 328.50Q516 239 642 239Q753 239 816 298Q879 357 899 491L1227 491M1246 1630L1243 1608L978 1608L860 1734L705 1608L445 1608L449 1634L785 1874L978 1874L1246 1630Z"  horiz-adv-x="1307" vert-adv-y="2048"  />

      
      <glyph glyph-name="uni0109" unicode="&#x0109;" d="M515 239Q581 239 622 277Q663 315 674 385L981 385L983 379Q959 195 817.50 87Q676-21 476-21Q239-21 123 133.50Q7 288 44 529L48 552Q85 805 239.50 953.50Q394 1102 642 1102Q841 1102 950.50 986Q1060 870 1027 673L1025 668L716 668Q728 748 700.50 795Q673 842 603 842Q509 842 456.50 762Q404 682 385 552L381 529Q360 388 387 313.50Q414 239 515 239M1042 1287L1039 1265L774 1265L656 1391L501 1265L241 1265L245 1291L581 1531L774 1531L1042 1287Z"  horiz-adv-x="1048" vert-adv-y="2048"  />

      
      <glyph glyph-name="uni010A" unicode="&#x010A;" d="M1227 491L1229 485Q1194 226 1033 102.50Q872-21 603-21Q343-21 199 146Q55 313 95 576L141 880Q182 1156 362.50 1316.50Q543 1477 805 1477Q1072 1477 1208.50 1347Q1345 1217 1305 973L1302 967L972 967Q992 1106 945 1161.50Q898 1217 766 1217Q657 1217 579 1124.50Q501 1032 479 882L433 576Q409 418 462.50 328.50Q516 239 642 239Q753 239 816 298Q879 357 899 491L1227 491M1034 1623L653 1623L692 1883L1073 1883L1034 1623Z"  horiz-adv-x="1307" vert-adv-y="2048"  />

      
      <glyph glyph-name="uni010B" unicode="&#x010B;" d="M515 239Q581 239 622 277Q663 315 674 385L981 385L983 379Q959 195 817.50 87Q676-21 476-21Q239-21 123 133.50Q7 288 44 529L48 552Q85 805 239.50 953.50Q394 1102 642 1102Q841 1102 950.50 986Q1060 870 1027 673L1025 668L716 668Q728 748 700.50 795Q673 842 603 842Q509 842 456.50 762Q404 682 385 552L381 529Q360 388 387 313.50Q414 239 515 239M830 1280L449 1280L488 1540L869 1540L830 1280Z"  horiz-adv-x="1048" vert-adv-y="2048"  />

      
      <glyph glyph-name="uni010C" unicode="&#x010C;" d="M1227 491L1229 485Q1194 226 1033 102.50Q872-21 603-21Q343-21 199 146Q55 313 95 576L141 880Q182 1156 362.50 1316.50Q543 1477 805 1477Q1072 1477 1208.50 1347Q1345 1217 1305 973L1302 967L972 967Q992 1106 945 1161.50Q898 1217 766 1217Q657 1217 579 1124.50Q501 1032 479 882L433 576Q409 418 462.50 328.50Q516 239 642 239Q753 239 816 298Q879 357 899 491L1227 491M868 1782L987 1898L1296 1898L1294 1882L963 1622L724 1622L469 1884L471 1898L783 1898L868 1782Z"  horiz-adv-x="1307" vert-adv-y="2048"  />

      
      <glyph glyph-name="uni010D" unicode="&#x010D;" d="M515 239Q581 239 622 277Q663 315 674 385L981 385L983 379Q959 195 817.50 87Q676-21 476-21Q239-21 123 133.50Q7 288 44 529L48 552Q85 805 239.50 953.50Q394 1102 642 1102Q841 1102 950.50 986Q1060 870 1027 673L1025 668L716 668Q728 748 700.50 795Q673 842 603 842Q509 842 456.50 762Q404 682 385 552L381 529Q360 388 387 313.50Q414 239 515 239M663 1439L782 1555L1091 1555L1089 1539L758 1279L519 1279L264 1541L266 1555L578 1555L663 1439Z"  horiz-adv-x="1048" vert-adv-y="2048"  />

      
      <glyph glyph-name="uni010E" unicode="&#x010E;" d="M787 1456Q1034 1456 1186.50 1287Q1339 1118 1301 859L1262 597Q1220 324 1024.50 162Q829 0 569 0L36 0L254 1456L787 1456M553 1196L413 260L608 260Q718 260 809 355Q900 450 923 597L962 861Q984 1014 924 1105Q864 1196 748 1196L553 1196M764 1761L883 1877L1192 1877L1190 1861L859 1601L620 1601L365 1863L367 1877L679 1877L764 1761Z"  horiz-adv-x="1338" vert-adv-y="2048"  />

      
      <glyph glyph-name="uni010F" unicode="&#x010F;" d="M52 539Q91 801 223 951.50Q355 1102 558 1102Q631 1102 687 1065.50Q743 1029 781 961L871 1560L1209 1560L975 0L679 0L676 131Q617 58 544.50 18.50Q472-21 388-21Q196-21 104 129Q12 279 49 518L52 539M387 518Q366 382 393.50 310.50Q421 239 513 239Q564 239 608 259.50Q652 280 684 319L750 753Q731 796 694 819Q657 842 605 842Q519 842 464.50 757.50Q410 673 390 539L387 518M1526 1388L1358 1153L1224 1153L1322 1398L1346 1559L1552 1559L1526 1388Z"  horiz-adv-x="1151" vert-adv-y="2048"  />

      
      <glyph glyph-name="uni0110" unicode="&#x0110;" d="M787 1456Q1034 1456 1186.50 1287Q1339 1118 1301 859L1262 597Q1220 324 1024.50 162Q829 0 569 0L36 0L133 647L13 647L42 838L161 838L254 1456L787 1456M699 647L471 647L413 260L608 260Q718 260 809 355Q900 450 923 597L962 861Q984 1014 924 1105Q864 1196 748 1196L553 1196L499 838L728 838L699 647Z"  horiz-adv-x="1338" vert-adv-y="2048"  />

      
      <glyph glyph-name="uni0111" unicode="&#x0111;" d="M1274 1215L1157 1215L975 0L679 0L676 131Q617 58 544.50 18.50Q472-21 388-21Q196-21 104 129Q12 279 49 518L52 539Q91 801 223 951.50Q355 1102 558 1102Q631 1102 687 1065.50Q743 1029 781 961L819 1215L588 1215L617 1406L848 1406L871 1560L1209 1560L1186 1406L1303 1406L1274 1215M387 518Q366 382 393.50 310.50Q421 239 513 239Q564 239 608 259.50Q652 280 684 319L750 753Q731 796 694 819Q657 842 605 842Q519 842 464.50 757.50Q410 673 390 539L387 518Z"  horiz-adv-x="1151" vert-adv-y="2048"  />

      
      <glyph glyph-name="uni0112" unicode="&#x0112;" d="M980 623L467 623L413 260L1028 260L989 0L36 0L254 1456L1208 1456L1169 1196L553 1196L506 883L1019 883L980 623M1112 1601L378 1601L402 1774L1136 1774L1112 1601Z"  horiz-adv-x="1143" vert-adv-y="2048"  />

      
      <glyph glyph-name="uni0113" unicode="&#x0113;" d="M493-21Q257-21 135 129.50Q13 280 47 505L52 543Q90 800 243.50 951.50Q397 1103 648 1102Q858 1102 963 969.50Q1068 837 1035 612L1008 435L387 435L385 429Q380 342 427 290.50Q474 239 578 239Q671 239 741 255.50Q811 272 897 306L947 100Q870 49 746.50 14Q623-21 493-21M609 842Q531 842 484.50 790.50Q438 739 417 652L419 646L710 646L714 672Q727 759 703.50 800.50Q680 842 609 842M1010 1281L276 1281L300 1454L1034 1454L1010 1281Z"  horiz-adv-x="1070" vert-adv-y="2048"  />

      
      <glyph glyph-name="uni0114" unicode="&#x0114;" d="M980 623L467 623L413 260L1028 260L989 0L36 0L254 1456L1208 1456L1169 1196L553 1196L506 883L1019 883L980 623M1151 1908L1153 1902Q1138 1764 1028 1682.50Q918 1601 748 1601Q585 1601 494 1685.50Q403 1770 427 1902L429 1908L673 1908Q666 1859 690.50 1830Q715 1801 776 1801Q833 1801 867 1831.50Q901 1862 908 1908L1151 1908Z"  horiz-adv-x="1143" vert-adv-y="2048"  />

      
      <glyph glyph-name="uni0115" unicode="&#x0115;" d="M493-21Q257-21 135 129.50Q13 280 47 505L52 543Q90 800 243.50 951.50Q397 1103 648 1102Q858 1102 963 969.50Q1068 837 1035 612L1008 435L387 435L385 429Q380 342 427 290.50Q474 239 578 239Q671 239 741 255.50Q811 272 897 306L947 100Q870 49 746.50 14Q623-21 493-21M609 842Q531 842 484.50 790.50Q438 739 417 652L419 646L710 646L714 672Q727 759 703.50 800.50Q680 842 609 842M1049 1587L1051 1581Q1036 1443 926 1361.50Q816 1280 646 1280Q483 1280 392 1364.50Q301 1449 325 1581L327 1587L571 1587Q564 1538 588.50 1509Q613 1480 674 1480Q731 1480 765 1510.50Q799 1541 806 1587L1049 1587Z"  horiz-adv-x="1070" vert-adv-y="2048"  />

      
      <glyph glyph-name="uni0116" unicode="&#x0116;" d="M980 623L467 623L413 260L1028 260L989 0L36 0L254 1456L1208 1456L1169 1196L553 1196L506 883L1019 883L980 623M944 1602L563 1602L602 1862L983 1862L944 1602Z"  horiz-adv-x="1143" vert-adv-y="2048"  />

      
      <glyph glyph-name="uni0117" unicode="&#x0117;" d="M493-21Q257-21 135 129.50Q13 280 47 505L52 543Q90 800 243.50 951.50Q397 1103 648 1102Q858 1102 963 969.50Q1068 837 1035 612L1008 435L387 435L385 429Q380 342 427 290.50Q474 239 578 239Q671 239 741 255.50Q811 272 897 306L947 100Q870 49 746.50 14Q623-21 493-21M609 842Q531 842 484.50 790.50Q438 739 417 652L419 646L710 646L714 672Q727 759 703.50 800.50Q680 842 609 842M842 1281L461 1281L500 1541L881 1541L842 1281Z"  horiz-adv-x="1070" vert-adv-y="2048"  />

      
      <glyph glyph-name="uni0118" unicode="&#x0118;" d="M980 623L467 623L413 260L1028 260L989 0L36 0L254 1456L1208 1456L1169 1196L553 1196L506 883L1019 883L980 623M589 0Q538-52 514.50-84.50Q491-117 484-164Q481-183 492.50-203Q504-223 556-223Q583-223 605.50-217.50Q628-212 649-205L660-373Q622-392 575-404.50Q528-417 467-417Q356-417 289-360Q222-303 237-203Q248-125 296.50-59.50Q345 6 436 60L589 0Z"  horiz-adv-x="1143" vert-adv-y="2048"  />

      
      <glyph glyph-name="uni0119" unicode="&#x0119;" d="M493-21Q257-21 135 129.50Q13 280 47 505L52 543Q90 800 243.50 951.50Q397 1103 648 1102Q858 1102 963 969.50Q1068 837 1035 612L1008 435L387 435L385 429Q380 342 427 290.50Q474 239 578 239Q671 239 741 255.50Q811 272 897 306L947 100Q870 49 746.50 14Q623-21 493-21M609 842Q531 842 484.50 790.50Q438 739 417 652L419 646L710 646L714 672Q727 759 703.50 800.50Q680 842 609 842M795 33Q744-19 720.50-51.50Q697-84 690-131Q687-150 698.50-170Q710-190 762-190Q789-190 811.50-184.50Q834-179 855-172L866-340Q828-359 781-371.50Q734-384 673-384Q562-384 495-327Q428-270 443-170Q454-92 502.50-26.50Q551 39 642 93L795 33Z"  horiz-adv-x="1070" vert-adv-y="2048"  />

      
      <glyph glyph-name="uni011A" unicode="&#x011A;" d="M980 623L467 623L413 260L1028 260L989 0L36 0L254 1456L1208 1456L1169 1196L553 1196L506 883L1019 883L980 623M777 1761L896 1877L1205 1877L1203 1861L872 1601L633 1601L378 1863L380 1877L692 1877L777 1761Z"  horiz-adv-x="1143" vert-adv-y="2048"  />

      
      <glyph glyph-name="uni011B" unicode="&#x011B;" d="M493-21Q257-21 135 129.50Q13 280 47 505L52 543Q90 800 243.50 951.50Q397 1103 648 1102Q858 1102 963 969.50Q1068 837 1035 612L1008 435L387 435L385 429Q380 342 427 290.50Q474 239 578 239Q671 239 741 255.50Q811 272 897 306L947 100Q870 49 746.50 14Q623-21 493-21M609 842Q531 842 484.50 790.50Q438 739 417 652L419 646L710 646L714 672Q727 759 703.50 800.50Q680 842 609 842M675 1440L794 1556L1103 1556L1101 1540L770 1280L531 1280L276 1542L278 1556L590 1556L675 1440Z"  horiz-adv-x="1070" vert-adv-y="2048"  />

      
      <glyph glyph-name="uni011C" unicode="&#x011C;" d="M1216 201Q1127 109 979.50 44Q832-21 614-21Q354-21 204 146.50Q54 314 94 576L140 880Q181 1154 368.50 1315.50Q556 1477 818 1477Q1086 1477 1215 1351Q1344 1225 1307 1012L1305 1006L987 1006Q1003 1117 954.50 1167Q906 1217 790 1217Q676 1217 587.50 1123Q499 1029 477 882L431 576Q407 419 465 329Q523 239 653 239Q742 239 800.50 254Q859 269 892 294L931 554L673 554L707 778L1303 778L1216 201M1242 1630L1239 1608L974 1608L856 1734L701 1608L441 1608L445 1634L781 1874L974 1874L1242 1630Z"  horiz-adv-x="1353" vert-adv-y="2048"  />

      
      <glyph glyph-name="uni011D" unicode="&#x011D;" d="M51 539Q90 801 222 951.50Q354 1102 557 1102Q640 1102 698.50 1060Q757 1018 794 941L838 1082L1136 1082L976 12Q942-210 780-323.50Q618-437 358-437Q277-437 186-414Q95-391 19-352L115-102Q183-134 247-149.50Q311-165 397-165Q501-165 562-121.50Q623-78 637 14L649 97Q594 39 529 9Q464-21 387-21Q195-21 103 129Q11 279 48 518L51 539M385 518Q364 382 391.50 310.50Q419 239 512 239Q566 239 608.50 257Q651 275 681 311L749 762Q730 801 694 821.50Q658 842 604 842Q518 842 463 757.50Q408 673 388 539L385 518M1067 1287L1064 1265L799 1265L681 1391L526 1265L266 1265L270 1291L606 1531L799 1531L1067 1287Z"  horiz-adv-x="1151" vert-adv-y="2048"  />

      
      <glyph glyph-name="uni011E" unicode="&#x011E;" d="M1216 201Q1127 109 979.50 44Q832-21 614-21Q354-21 204 146.50Q54 314 94 576L140 880Q181 1154 368.50 1315.50Q556 1477 818 1477Q1086 1477 1215 1351Q1344 1225 1307 1012L1305 1006L987 1006Q1003 1117 954.50 1167Q906 1217 790 1217Q676 1217 587.50 1123Q499 1029 477 882L431 576Q407 419 465 329Q523 239 653 239Q742 239 800.50 254Q859 269 892 294L931 554L673 554L707 778L1303 778L1216 201M1237 1929L1239 1923Q1224 1785 1114 1703.50Q1004 1622 834 1622Q671 1622 580 1706.50Q489 1791 513 1923L515 1929L759 1929Q752 1880 776.50 1851Q801 1822 862 1822Q919 1822 953 1852.50Q987 1883 994 1929L1237 1929Z"  horiz-adv-x="1353" vert-adv-y="2048"  />

      
      <glyph glyph-name="uni011F" unicode="&#x011F;" d="M51 539Q90 801 222 951.50Q354 1102 557 1102Q640 1102 698.50 1060Q757 1018 794 941L838 1082L1136 1082L976 12Q942-210 780-323.50Q618-437 358-437Q277-437 186-414Q95-391 19-352L115-102Q183-134 247-149.50Q311-165 397-165Q501-165 562-121.50Q623-78 637 14L649 97Q594 39 529 9Q464-21 387-21Q195-21 103 129Q11 279 48 518L51 539M385 518Q364 382 391.50 310.50Q419 239 512 239Q566 239 608.50 257Q651 275 681 311L749 762Q730 801 694 821.50Q658 842 604 842Q518 842 463 757.50Q408 673 388 539L385 518M1062 1586L1064 1580Q1049 1442 939 1360.50Q829 1279 659 1279Q496 1279 405 1363.50Q314 1448 338 1580L340 1586L584 1586Q577 1537 601.50 1508Q626 1479 687 1479Q744 1479 778 1509.50Q812 1540 819 1586L1062 1586Z"  horiz-adv-x="1151" vert-adv-y="2048"  />

      
      <glyph glyph-name="uni0120" unicode="&#x0120;" d="M1216 201Q1127 109 979.50 44Q832-21 614-21Q354-21 204 146.50Q54 314 94 576L140 880Q181 1154 368.50 1315.50Q556 1477 818 1477Q1086 1477 1215 1351Q1344 1225 1307 1012L1305 1006L987 1006Q1003 1117 954.50 1167Q906 1217 790 1217Q676 1217 587.50 1123Q499 1029 477 882L431 576Q407 419 465 329Q523 239 653 239Q742 239 800.50 254Q859 269 892 294L931 554L673 554L707 778L1303 778L1216 201M1030 1623L649 1623L688 1883L1069 1883L1030 1623Z"  horiz-adv-x="1353" vert-adv-y="2048"  />

      
      <glyph glyph-name="uni0121" unicode="&#x0121;" d="M51 539Q90 801 222 951.50Q354 1102 557 1102Q640 1102 698.50 1060Q757 1018 794 941L838 1082L1136 1082L976 12Q942-210 780-323.50Q618-437 358-437Q277-437 186-414Q95-391 19-352L115-102Q183-134 247-149.50Q311-165 397-165Q501-165 562-121.50Q623-78 637 14L649 97Q594 39 529 9Q464-21 387-21Q195-21 103 129Q11 279 48 518L51 539M385 518Q364 382 391.50 310.50Q419 239 512 239Q566 239 608.50 257Q651 275 681 311L749 762Q730 801 694 821.50Q658 842 604 842Q518 842 463 757.50Q408 673 388 539L385 518M855 1280L474 1280L513 1540L894 1540L855 1280Z"  horiz-adv-x="1151" vert-adv-y="2048"  />

      
      <glyph glyph-name="uni0122" unicode="&#x0122;" d="M1216 201Q1127 109 979.50 44Q832-21 614-21Q354-21 204 146.50Q54 314 94 576L140 880Q181 1154 368.50 1315.50Q556 1477 818 1477Q1086 1477 1215 1351Q1344 1225 1307 1012L1305 1006L987 1006Q1003 1117 954.50 1167Q906 1217 790 1217Q676 1217 587.50 1123Q499 1029 477 882L431 576Q407 419 465 329Q523 239 653 239Q742 239 800.50 254Q859 269 892 294L931 554L673 554L707 778L1303 778L1216 201M677-272L509-507L375-507L473-262L497-101L703-101L677-272Z"  horiz-adv-x="1353" vert-adv-y="2048"  />

      
      <glyph glyph-name="uni0123" unicode="&#x0123;" d="M51 539Q90 801 222 951.50Q354 1102 557 1102Q640 1102 698.50 1060Q757 1018 794 941L838 1082L1136 1082L976 12Q942-210 780-323.50Q618-437 358-437Q277-437 186-414Q95-391 19-352L115-102Q183-134 247-149.50Q311-165 397-165Q501-165 562-121.50Q623-78 637 14L649 97Q594 39 529 9Q464-21 387-21Q195-21 103 129Q11 279 48 518L51 539M385 518Q364 382 391.50 310.50Q419 239 512 239Q566 239 608.50 257Q651 275 681 311L749 762Q730 801 694 821.50Q658 842 604 842Q518 842 463 757.50Q408 673 388 539L385 518M556 1451L705 1716L896 1716L811 1441L784 1261L527 1261L556 1451Z"  horiz-adv-x="1151" vert-adv-y="2048"  />

      
      <glyph glyph-name="uni0124" unicode="&#x0124;" d="M1250 0L913 0L1000 586L461 586L374 0L36 0L254 1456L592 1456L500 846L1039 846L1131 1456L1468 1456L1250 0M1287 1609L1284 1587L1019 1587L901 1713L746 1587L486 1587L490 1613L826 1853L1019 1853L1287 1609Z"  horiz-adv-x="1446" vert-adv-y="2048"  />

      
      <glyph glyph-name="uni0125" unicode="&#x0125;" d="M487 955Q547 1026 622.50 1064Q698 1102 784 1102Q946 1102 1027.50 983.50Q1109 865 1072 622L979 0L641 0L735 624Q753 753 728.50 797.50Q704 842 638 842Q582 842 538 824.50Q494 807 460 775L344 0L6 0L240 1560L578 1560L487 955M1086 1612L1083 1590L818 1590L700 1716L545 1590L285 1590L289 1616L625 1856L818 1856L1086 1612Z"  horiz-adv-x="1151" vert-adv-y="2048"  />

      
      <glyph glyph-name="uni0126" unicode="&#x0126;" d="M1439 1213L1546 1213L1519 1030L1412 1030L1258 0L921 0L1008 586L469 586L382 0L44 0L198 1030L84 1030L111 1213L225 1213L262 1456L600 1456L563 1213L1102 1213L1139 1456L1476 1456L1439 1213M508 846L1047 846L1075 1030L536 1030L508 846Z"  horiz-adv-x="1447" vert-adv-y="2048"  />

      
      <glyph glyph-name="uni0127" unicode="&#x0127;" d="M782 1211L526 1211L487 955Q547 1026 622.50 1064Q698 1102 784 1102Q946 1102 1027.50 983.50Q1109 865 1072 622L979 0L641 0L735 624Q753 753 728.50 797.50Q704 842 638 842Q582 842 538 824.50Q494 807 460 775L344 0L6 0L187 1211L96 1211L124 1402L216 1402L240 1560L578 1560L554 1402L810 1402L782 1211Z"  horiz-adv-x="1151" vert-adv-y="2048"  />

      
      <glyph glyph-name="uni0128" unicode="&#x0128;" d="M394 0L57 0L275 1456L612 1456L394 0M883 1861Q869 1762 800.50 1695Q732 1628 641 1628Q575 1628 484 1670Q393 1712 341 1712Q309 1712 281.50 1679.50Q254 1647 249 1602L78 1652Q91 1749 160 1817Q229 1885 320 1885Q373 1885 469.50 1843.50Q566 1802 619 1802Q649 1802 677.50 1834.50Q706 1867 712 1912L883 1861Z"  horiz-adv-x="611" vert-adv-y="2048"  />

      
      <glyph glyph-name="uni0129" unicode="&#x0129;" d="M382 0L43 0L205 1082L544 1082L382 0M820 1518Q806 1419 737.50 1352Q669 1285 578 1285Q512 1285 421 1327Q330 1369 278 1369Q246 1369 218.50 1336.50Q191 1304 186 1259L15 1309Q28 1406 97 1474Q166 1542 257 1542Q310 1542 406.50 1500.50Q503 1459 556 1459Q586 1459 614.50 1491.50Q643 1524 649 1569L820 1518Z"  horiz-adv-x="584" vert-adv-y="2048"  />

      
      <glyph glyph-name="uni012A" unicode="&#x012A;" d="M394 0L57 0L275 1456L612 1456L394 0M825 1601L91 1601L115 1774L849 1774L825 1601Z"  horiz-adv-x="611" vert-adv-y="2048"  />

      
      <glyph glyph-name="uni012B" unicode="&#x012B;" d="M382 0L43 0L205 1082L544 1082L382 0M762 1259L28 1259L52 1432L786 1432L762 1259Z"  horiz-adv-x="584" vert-adv-y="2048"  />

      
      <glyph glyph-name="uni012C" unicode="&#x012C;" d="M394 0L57 0L275 1456L612 1456L394 0M864 1908L866 1902Q851 1764 741 1682.50Q631 1601 461 1601Q298 1601 207 1685.50Q116 1770 140 1902L142 1908L386 1908Q379 1859 403.50 1830Q428 1801 489 1801Q546 1801 580 1831.50Q614 1862 621 1908L864 1908Z"  horiz-adv-x="611" vert-adv-y="2048"  />

      
      <glyph glyph-name="uni012D" unicode="&#x012D;" d="M382 0L43 0L205 1082L544 1082L382 0M800 1565L802 1559Q787 1421 677 1339.50Q567 1258 397 1258Q234 1258 143 1342.50Q52 1427 76 1559L78 1565L322 1565Q315 1516 339.50 1487Q364 1458 425 1458Q482 1458 516 1488.50Q550 1519 557 1565L800 1565Z"  horiz-adv-x="584" vert-adv-y="2048"  />

      
      <glyph glyph-name="uni012E" unicode="&#x012E;" d="M394 0L57 0L275 1456L612 1456L394 0M279 0Q228-52 204.50-84.50Q181-117 174-164Q171-183 182.50-203Q194-223 246-223Q273-223 295.50-217.50Q318-212 339-205L350-373Q312-392 265-404.50Q218-417 157-417Q46-417-21-360Q-88-303-73-203Q-62-125-13.50-59.50Q35 6 126 60L279 0Z"  horiz-adv-x="611" vert-adv-y="2048"  />

      
      <glyph glyph-name="uni012F" unicode="&#x012F;" d="M370 0L31 0L193 1082L532 1082L370 0M570 1333L231 1333L265 1560L604 1560L570 1333M255 0Q204-52 180.50-84.50Q157-117 150-164Q147-183 158.50-203Q170-223 222-223Q249-223 271.50-217.50Q294-212 315-205L326-373Q288-392 241-404.50Q194-417 133-417Q22-417-45-360Q-112-303-97-203Q-86-125-37.50-59.50Q11 6 102 60L255 0Z"  horiz-adv-x="561" vert-adv-y="2048"  />

      
      <glyph glyph-name="uni0130" unicode="&#x0130;" d="M394 0L57 0L275 1456L612 1456L394 0M656 1602L275 1602L314 1862L695 1862L656 1602Z"  horiz-adv-x="611" vert-adv-y="2048"  />

      
      <glyph glyph-name="uni0131" unicode="&#x0131;" d="M382 0L43 0L205 1082L544 1082L382 0Z"  horiz-adv-x="584" vert-adv-y="2048"  />

      
      <glyph glyph-name="uni0132" unicode="&#x0132;" d="M394 0L57 0L275 1456L612 1456L394 0M1441 1456L1779 1456L1631 467Q1596 236 1441.50 107.50Q1287-21 1070-21Q833-21 703.50 98.50Q574 218 612 440L614 446L945 446Q928 334 974.50 286.50Q1021 239 1109 239Q1172 239 1224.50 300Q1277 361 1293 467L1441 1456Z"  horiz-adv-x="1755" vert-adv-y="2048"  />

      
      <glyph glyph-name="uni0133" unicode="&#x0133;" d="M370 0L31 0L193 1082L532 1082L370 0M570 1333L231 1333L265 1560L604 1560L570 1333M1097 1082L933-15Q901-225 777.50-331Q654-437 459-437Q417-437 380-433Q343-429 303-420L355-165Q383-171 403-174Q423-177 454-177Q509-177 545.50-135.50Q582-94 594-15L758 1082L1097 1082M1129 1334L790 1334L824 1560L1163 1560L1129 1334Z"  horiz-adv-x="1109" vert-adv-y="2048"  />

      
      <glyph glyph-name="uni0134" unicode="&#x0134;" d="M830 1456L1168 1456L1020 467Q985 236 830.50 107.50Q676-21 459-21Q222-21 92.50 98.50Q-37 218 1 440L3 446L334 446Q317 334 363.50 286.50Q410 239 498 239Q561 239 613.50 300Q666 361 682 467L830 1456M1401 1609L1398 1587L1133 1587L1015 1713L860 1587L600 1587L604 1613L940 1853L1133 1853L1401 1609Z"  horiz-adv-x="1144" vert-adv-y="2048"  />

      
      <glyph glyph-name="uni0135" unicode="&#x0135;" d="M558 1082L394-15Q362-225 239-331Q116-437-79-437Q-121-437-158-433Q-195-429-235-420L-182-165Q-155-171-135.50-174Q-116-177-86-177Q-30-177 7.50-135Q45-93 57-15L221 1082L558 1082M788 1267L785 1245L520 1245L402 1371L247 1245L-13 1245L-9 1271L327 1511L520 1511L788 1267Z"  horiz-adv-x="604" vert-adv-y="2048"  />

      
      <glyph glyph-name="uni0136" unicode="&#x0136;" d="M558 578L462 578L376 0L38 0L256 1456L594 1456L507 880L598 880L944 1456L1390 1456L863 735L1191 0L801 0L558 578M630-262L462-497L328-497L426-252L450-91L656-91L630-262Z"  horiz-adv-x="1306" vert-adv-y="2048"  />

      
      </font>
</defs>
</svg>
