<?xml version="1.0" standalone="no"?>
  <!DOCTYPE svg PUBLIC "-//W3C//DTD SVG 1.1//EN" "http://www.w3.org/Graphics/SVG/1.1/DTD/svg11.dtd" >
  <svg>
  <metadata>
  Created by font-carrier
  </metadata>
  <defs>
  <font id="Roboto-BoldItalic" horiz-adv-x="2455" vert-adv-y="2455" >
    <font-face
      
      font-family="Roboto"
      
      font-weight="400"
      
      font-stretch="normal"
      
      units-per-em="2048"
      
      ascent="1900"
      
      descent="-500"
      
    />
      <missing-glyph />

      

      
      <glyph glyph-name="uni21" unicode="&#x21;" d="M421 502L129 502L272 1456L564 1456L421 502M346 0L54 0L92 256L384 256L346 0Z"  horiz-adv-x="557" vert-adv-y="2048"  />

      
      <glyph glyph-name="uni22" unicode="&#x22;" d="M462 1181L325 932L196 932L230 1168L270 1456L501 1456L462 1181M803 1181L666 932L538 932L573 1177L612 1456L842 1456L803 1181Z"  horiz-adv-x="832" vert-adv-y="2048"  />

      
      <glyph glyph-name="uni23" unicode="&#x23;" d="M631 410L440 410L307 0L123 0L256 410L30 410L55 579L311 579L405 869L173 869L199 1040L460 1040L596 1456L779 1456L644 1040L836 1040L972 1456L1155 1456L1019 1040L1240 1040L1214 869L964 869L870 579L1095 579L1070 410L815 410L682 0L498 0L631 410M495 579L686 579L781 869L589 869L495 579Z"  horiz-adv-x="1219" vert-adv-y="2048"  />

      
      <glyph glyph-name="uni24" unicode="&#x24;" d="M795 383Q806 468 767 515.50Q728 563 612 610Q397 686 302 787Q207 888 233 1071Q257 1246 380 1351.50Q503 1457 694 1474L724 1688L883 1688L853 1470Q1024 1445 1113 1328Q1202 1211 1177 1025L885 1025Q900 1138 859 1194.50Q818 1251 728 1251Q638 1251 587 1201.50Q536 1152 525 1070Q513 990 551 946Q589 902 709 848Q920 776 1015.50 671.50Q1111 567 1086 385Q1060 203 938.50 101.50Q817 0 625-17L597-214L438-214L466-17Q281 1 170.50 112Q60 223 94 436L97 441L382 441Q363 308 417.50 256Q472 204 574 204Q668 204 725.50 252.50Q783 301 795 383Z"  horiz-adv-x="1216" vert-adv-y="2048"  />

      
      <glyph glyph-name="uni25" unicode="&#x25;" d="M191 1176Q211 1309 307 1393Q403 1477 553 1477Q698 1477 770.50 1390.50Q843 1304 824 1176L813 1099Q792 965 698 882.50Q604 800 453 800Q309 800 234.50 886Q160 972 180 1099L191 1176M374 1099Q365 1039 390.50 1000.50Q416 962 477 962Q533 962 571.50 1002Q610 1042 619 1099L630 1176Q639 1237 613.50 1276Q588 1315 528 1315Q471 1315 432 1274Q393 1233 385 1176L374 1099M765 357Q784 489 880.50 573Q977 657 1127 657Q1271 657 1344 570.50Q1417 484 1399 357L1387 280Q1366 146 1271.50 63Q1177-20 1027-20Q883-20 808 66.50Q733 153 753 280L765 357M947 280Q938 221 966.50 181.50Q995 142 1051 142Q1114 142 1148.50 180.50Q1183 219 1193 280L1205 357Q1213 417 1187 456Q1161 495 1102 495Q1045 495 1005.50 454Q966 413 959 357L947 280M397 109L267 184L1148 1322L1279 1247L397 109Z"  horiz-adv-x="1513" vert-adv-y="2048"  />

      
      <glyph glyph-name="uni26" unicode="&#x26;" d="M356 781Q304 871 282.50 945.50Q261 1020 274 1097Q302 1286 421.50 1381.50Q541 1477 728 1477Q880 1477 967.50 1377.50Q1055 1278 1035 1140Q1018 1032 965.50 958.50Q913 885 819 819L706 746L927 433Q973 492 1003.50 561.50Q1034 631 1046 709L1279 709Q1256 562 1204 445Q1152 328 1064 239L1233 0L902 0L838 89Q746 34 652 6.50Q558-21 454-21Q245-21 128.50 95Q12 211 40 392Q58 518 132 600Q206 682 356 781M502 203Q553 203 608 217Q663 231 717 259L475 598L465 592Q399 544 370 498.50Q341 453 334 407Q320 314 366 258.50Q412 203 502 203M535 1100Q528 1057 542 1014Q556 971 588 918L672 967Q734 1003 758.50 1040.50Q783 1078 791 1124Q799 1177 772 1214.50Q745 1252 686 1252Q628 1252 586 1207.50Q544 1163 535 1100Z"  horiz-adv-x="1346" vert-adv-y="2048"  />

      
      <glyph glyph-name="uni27" unicode="&#x27;" d="M443 1187L302 904L143 904L180 1172L220 1456L481 1456L443 1187Z"  horiz-adv-x="442" vert-adv-y="2048"  />

      
      <glyph glyph-name="uni28" unicode="&#x28;" d="M132 592Q189 1000 376.50 1264.50Q564 1529 771 1612L777 1611L809 1466Q664 1368 544.50 1150Q425 932 378 594L375 568Q325 214 383 5Q441-204 561-307L487-450L482-450Q301-369 187-96Q73 177 129 570L132 592Z"  horiz-adv-x="711" vert-adv-y="2048"  />

      
      <glyph glyph-name="uni29" unicode="&#x29;" d="M607 570Q551 171 357-99Q163-369-47-451L-53-450L-87-307Q56-209 176.50 10Q297 229 345 568L348 594Q397 944 337.50 1156.50Q278 1369 162 1470L237 1612L243 1612Q426 1532 544.50 1253Q663 974 610 592L607 570Z"  horiz-adv-x="713" vert-adv-y="2048"  />

      
      <glyph glyph-name="uni2a" unicode="&#x2a;" d="M298 665L80 741L160 911L388 832L427 1081L603 1081L572 824L813 902L841 731L596 652L704 450L544 344L426 552L251 353L121 455L298 665Z"  horiz-adv-x="857" vert-adv-y="2048"  />

      
      <glyph glyph-name="uni2b" unicode="&#x2b;" d="M736 812L1096 812L1058 560L698 560L636 146L360 146L422 560L60 560L98 812L460 812L519 1206L795 1206L736 812Z"  horiz-adv-x="1117" vert-adv-y="2048"  />

      
      <glyph glyph-name="uni2c" unicode="&#x2c;" d="M339 13L133-302L-62-302L56 22L91 250L375 250L339 13Z"  horiz-adv-x="528" vert-adv-y="2048"  />

      
      <glyph glyph-name="uni2d" unicode="&#x2d;" d="M732 510L143 510L176 735L765 735L732 510Z"  horiz-adv-x="892" vert-adv-y="2048"  />

      
      <glyph glyph-name="uni2e" unicode="&#x2e;" d="M356 0L64 0L102 256L394 256L356 0Z"  horiz-adv-x="596" vert-adv-y="2048"  />

      
      <glyph glyph-name="uni2f" unicode="&#x2f;" d="M171-125L-113-125L658 1456L942 1456L171-125Z"  horiz-adv-x="825" vert-adv-y="2048"  />

      
      <glyph glyph-name="uni30" unicode="&#x30;" d="M1079 527Q1039 261 885 120Q731-21 506-21Q291-21 173 126.50Q55 274 94 527L154 928Q194 1193 348.50 1335Q503 1477 729 1477Q943 1477 1060 1328.50Q1177 1180 1139 928L1079 527M853 958Q874 1103 832.50 1177.50Q791 1252 695 1252Q602 1252 536 1174Q470 1096 450 958L381 499Q358 350 399.50 276.50Q441 203 539 203Q631 203 696.50 280Q762 357 784 499L853 958Z"  horiz-adv-x="1175" vert-adv-y="2048"  />

      
      <glyph glyph-name="uni31" unicode="&#x31;" d="M716 0L425 0L605 1202L304 1202L338 1425L938 1477L716 0Z"  horiz-adv-x="1175" vert-adv-y="2048"  />

      
      <glyph glyph-name="uni32" unicode="&#x32;" d="M1019 0L42 0L69 191L591 701Q709 820 762.50 902.50Q816 985 827 1054Q839 1147 802 1199.50Q765 1252 674 1252Q583 1252 519 1182Q455 1112 441 1008L158 1008L156 1014Q179 1215 329.50 1346Q480 1477 706 1477Q921 1477 1033 1361.50Q1145 1246 1119 1055Q1099 919 1018.50 817Q938 715 734 517L453 230L456 224L1050 224L1019 0Z"  horiz-adv-x="1175" vert-adv-y="2048"  />

      
      <glyph glyph-name="uni33" unicode="&#x33;" d="M1155 1065Q1138 960 1068.50 877Q999 794 892 748Q998 704 1047.50 617Q1097 530 1079 408Q1047 200 888 89.50Q729-21 500-21Q308-21 171.50 87.50Q35 196 69 390L71 396L356 396Q343 311 392.50 257Q442 203 533 203Q629 203 702 262.50Q775 322 789 411Q806 531 757 584Q708 637 595 637L434 637L443 700L449 744L456 789L466 856L627 856Q728 856 788.50 911Q849 966 863 1062Q876 1146 831.50 1199Q787 1252 691 1252Q614 1252 550 1202.50Q486 1153 476 1078L195 1078L193 1084Q214 1261 366.50 1369Q519 1477 725 1477Q942 1477 1063 1369.50Q1184 1262 1155 1065Z"  horiz-adv-x="1175" vert-adv-y="2048"  />

      
      <glyph glyph-name="uni34" unicode="&#x34;" d="M956 542L1120 542L1086 316L922 316L875 0L583 0L630 316L37 316L50 491L798 1456L1093 1456L956 542M326 547L329 542L664 542L743 1070L737 1072L698 1007L326 547Z"  horiz-adv-x="1175" vert-adv-y="2048"  />

      
      <glyph glyph-name="uni35" unicode="&#x35;" d="M155 642L361 1456L1173 1456L1138 1222L565 1222L474 882Q520 912 585 931.50Q650 951 723 953Q927 956 1018.50 827.50Q1110 699 1076 467Q1042 246 902.50 112.50Q763-21 512-21Q318-21 188 86.50Q58 194 90 378L92 383L375 396Q361 302 407.50 252.50Q454 203 545 203Q645 203 705 272Q765 341 784 465Q803 595 762.50 667.50Q722 740 619 740Q539 740 487.50 709Q436 678 410 625L155 642Z"  horiz-adv-x="1175" vert-adv-y="2048"  />

      
      <glyph glyph-name="uni36" unicode="&#x36;" d="M811 1477Q893 1477 965 1461Q1037 1445 1102 1416L1018 1202Q954 1225 901.50 1236.50Q849 1248 778 1248Q654 1248 558.50 1149Q463 1050 438 877L431 834Q497 890 582 920Q667 950 767 950Q946 950 1034.50 816Q1123 682 1092 472Q1057 245 902.50 112Q748-21 527-21Q308-21 183.50 136Q59 293 99 562L145 867Q188 1155 373 1316Q558 1477 811 1477M636 729Q560 729 499.50 702.50Q439 676 400 630L389 555Q362 381 409.50 292Q457 203 560 203Q648 203 715 280Q782 357 800 472Q818 596 774 662.50Q730 729 636 729Z"  horiz-adv-x="1175" vert-adv-y="2048"  />

      
      <glyph glyph-name="uni37" unicode="&#x37;" d="M1200 1231Q909 942 785 710.50Q661 479 617 180L590 0L298 0L325 180Q372 497 518 738.50Q664 980 919 1231L176 1231L209 1456L1233 1456L1200 1231Z"  horiz-adv-x="1175" vert-adv-y="2048"  />

      
      <glyph glyph-name="uni38" unicode="&#x38;" d="M1138 1078Q1120 965 1052 882Q984 799 880 753Q989 703 1045.50 612Q1102 521 1086 406Q1054 196 899 87.50Q744-21 522-21Q301-21 166.50 92.50Q32 206 63 406Q81 530 167 621Q253 712 386 759Q291 807 243.50 890Q196 973 213 1078Q243 1278 387.50 1377.50Q532 1477 745 1477Q939 1477 1052.50 1372.50Q1166 1268 1138 1078M796 420Q811 521 760.50 581.50Q710 642 619 642Q524 642 448 579Q372 516 358 420Q342 317 397.50 260Q453 203 555 203Q641 203 711 263Q781 323 796 420M845 1065Q858 1154 821 1203Q784 1252 711 1252Q632 1252 574 1202Q516 1152 503 1065Q488 972 530 919.50Q572 867 655 867Q724 867 777.50 921.50Q831 976 845 1065Z"  horiz-adv-x="1175" vert-adv-y="2048"  />

      
      <glyph glyph-name="uni39" unicode="&#x39;" d="M482 203Q586 203 669.50 285Q753 367 775 512L788 601Q731 540 659.50 509.50Q588 479 510 479Q315 479 215.50 612.50Q116 746 150 970Q183 1197 340.50 1337Q498 1477 713 1477Q925 1477 1045.50 1327.50Q1166 1178 1127 919L1068 527Q1028 265 857 122Q686-21 449-21Q376-21 295.50-4.50Q215 12 150 42L231 253Q290 227 348 215Q406 203 482 203M591 693Q661 693 720 723.50Q779 754 819 804L844 970Q864 1112 819.50 1182Q775 1252 680 1252Q596 1252 527.50 1169.50Q459 1087 442 970Q422 841 459.50 767Q497 693 591 693Z"  horiz-adv-x="1175" vert-adv-y="2048"  />

      
      <glyph glyph-name="uni3a" unicode="&#x3a;" d="M356 0L64 0L102 256L394 256L356 0M487 876L195 876L233 1132L525 1132L487 876Z"  horiz-adv-x="582" vert-adv-y="2048"  />

      
      <glyph glyph-name="uni3b" unicode="&#x3b;" d="M488 876L196 876L234 1132L526 1132L488 876M390 13L184-302L-11-302L107 22L142 250L426 250L390 13Z"  horiz-adv-x="562" vert-adv-y="2048"  />

      
      <glyph glyph-name="uni3c" unicode="&#x3c;" d="M341 550L341 544L887 341L846 69L39 436L51 514L73 663L990 1029L950 757L341 550Z"  horiz-adv-x="1043" vert-adv-y="2048"  />

      
      <glyph glyph-name="uni3d" unicode="&#x3d;" d="M1066 763L170 763L205 992L1101 992L1066 763M1002 332L106 332L140 561L1036 561L1002 332Z"  horiz-adv-x="1181" vert-adv-y="2048"  />

      
      <glyph glyph-name="uni3e" unicode="&#x3e;" d="M706 539L706 545L152 751L192 1020L1009 654L987 505L986 505L975 427L48 60L89 330L706 539Z"  horiz-adv-x="1058" vert-adv-y="2048"  />

      
      <glyph glyph-name="uni3f" unicode="&#x3f;" d="M306 414Q328 554 378.50 619Q429 684 564 777Q643 835 695.50 902Q748 969 761 1052Q775 1147 734.50 1197.50Q694 1248 603 1248Q531 1248 472 1204Q413 1160 399 1075L115 1075L114 1081Q140 1273 285 1375Q430 1477 638 1477Q854 1477 968 1362.50Q1082 1248 1053 1055Q1033 923 944.50 818.50Q856 714 730 639Q662 592 635.50 545Q609 498 597 414L306 414M537 0L243 0L281 250L575 250L537 0Z"  horiz-adv-x="1021" vert-adv-y="2048"  />

      
      <glyph glyph-name="uni40" unicode="&#x40;" d="M1727 513Q1685 295 1542.50 137Q1400-21 1163-21Q1088-21 1037 23.50Q986 68 973 148Q916 65 844 23.50Q772-18 684-18Q548-18 488.50 102Q429 222 477 416Q541 670 682 823Q823 976 992 976Q1102 976 1173 949Q1244 922 1318 870L1314 866L1319 866L1182 293Q1161 198 1176.50 163Q1192 128 1228 128Q1338 128 1426.50 238Q1515 348 1548 513Q1618 866 1494.50 1064Q1371 1262 1052 1262Q761 1262 542.50 1047Q324 832 255 478Q184 123 316.50-82Q449-287 755-287Q837-287 932-267Q1027-247 1096-217L1112-364Q1039-406 932-429.50Q825-453 726-453Q345-453 161.50-201.50Q-22 50 58 478Q140 904 416 1161Q692 1418 1080 1418Q1452 1418 1628.50 1172.50Q1805 927 1727 513M702 416Q674 289 692.50 223.50Q711 158 775 158Q829 158 879 184.50Q929 211 976 280L979 293L1097 789Q1076 796 1053.50 800Q1031 804 1006 804Q900 804 824.50 706Q749 608 702 416Z"  horiz-adv-x="1817" vert-adv-y="2048"  />

      
      <glyph glyph-name="uni41" unicode="&#x41;" d="M861 314L388 314L243 0L-62 0L647 1456L946 1456L1217 0L912 0L861 314M495 543L823 543L740 1057L734 1058L495 543Z"  horiz-adv-x="1303" vert-adv-y="2048"  />

      
      <glyph glyph-name="uni42" unicode="&#x42;" d="M54 0L272 1456L749 1456Q996 1456 1129.50 1354.50Q1263 1253 1235 1057Q1218 953 1156 875.50Q1094 798 989 759Q1120 733 1173.50 640Q1227 547 1210 424Q1177 207 1025 103.50Q873 0 617 0L54 0M442 644L379 224L651 224Q763 224 833.50 275Q904 326 919 424Q934 534 884 589Q834 644 711 644L442 644M473 846L679 846Q787 848 856 897Q925 946 939 1034Q955 1139 899.50 1185Q844 1231 716 1231L531 1231L473 846Z"  horiz-adv-x="1305" vert-adv-y="2048"  />

      
      <glyph glyph-name="uni43" unicode="&#x43;" d="M1217 482L1219 476Q1187 234 1024 106.50Q861-21 600-21Q348-21 207.50 149Q67 319 106 583L150 872Q191 1148 371.50 1312.50Q552 1477 810 1477Q1066 1477 1201 1345.50Q1336 1214 1297 981L1294 975L1010 975Q1032 1120 975 1186Q918 1252 776 1252Q650 1252 558 1145Q466 1038 441 874L397 583Q371 409 432.50 306Q494 203 633 203Q759 203 836.50 272.50Q914 342 935 482L1217 482Z"  horiz-adv-x="1303" vert-adv-y="2048"  />

      
      <glyph glyph-name="uni44" unicode="&#x44;" d="M54 0L272 1456L780 1456Q1037 1456 1189 1284Q1341 1112 1302 848L1266 607Q1224 329 1028 164.50Q832 0 562 0L54 0M530 1231L379 224L596 224Q734 224 841 332.50Q948 441 973 607L1010 850Q1035 1023 963.50 1127Q892 1231 747 1231L530 1231Z"  horiz-adv-x="1355" vert-adv-y="2048"  />

      
      <glyph glyph-name="uni45" unicode="&#x45;" d="M982 640L442 640L379 224L1022 224L988 0L54 0L272 1456L1204 1456L1171 1231L530 1231L475 865L1016 865L982 640Z"  horiz-adv-x="1139" vert-adv-y="2048"  />

      
      <glyph glyph-name="uni46" unicode="&#x46;" d="M996 605L436 605L346 0L54 0L272 1456L1225 1456L1192 1231L530 1231L470 830L1030 830L996 605Z"  horiz-adv-x="1139" vert-adv-y="2048"  />

      
      <glyph glyph-name="uni47" unicode="&#x47;" d="M1200 199Q1118 110 973.50 44.50Q829-21 616-21Q362-21 213.50 147Q65 315 105 576L151 880Q192 1154 378 1315.50Q564 1477 823 1477Q1079 1477 1207 1349Q1335 1221 1299 1013L1297 1007L1021 1007Q1039 1127 982 1189.50Q925 1252 796 1252Q667 1252 566.50 1147.50Q466 1043 442 882L396 576Q370 404 438 303.50Q506 203 649 203Q748 203 815.50 224.50Q883 246 919 277L961 559L681 559L711 761L1284 761L1200 199Z"  horiz-adv-x="1364" vert-adv-y="2048"  />

      
      <glyph glyph-name="uni48" unicode="&#x48;" d="M1231 0L939 0L1029 605L436 605L346 0L54 0L272 1456L564 1456L470 830L1063 830L1157 1456L1449 1456L1231 0Z"  horiz-adv-x="1445" vert-adv-y="2048"  />

      
      <glyph glyph-name="uni49" unicode="&#x49;" d="M366 0L74 0L292 1456L584 1456L366 0Z"  horiz-adv-x="601" vert-adv-y="2048"  />

      
      <glyph glyph-name="uni4a" unicode="&#x4a;" d="M852 1456L1143 1456L993 451Q959 226 809.50 102.50Q660-21 449-21Q226-21 105 94Q-16 209 20 424L23 430L307 430Q288 309 336 256Q384 203 482 203Q559 203 621.50 270Q684 337 702 451L852 1456Z"  horiz-adv-x="1137" vert-adv-y="2048"  />

      
      <glyph glyph-name="uni4b" unicode="&#x4b;" d="M536 604L432 604L342 0L49 0L267 1456L560 1456L471 861L573 861L984 1456L1365 1456L795 729L1167 0L831 0L536 604Z"  horiz-adv-x="1255" vert-adv-y="2048"  />

      
      <glyph glyph-name="uni4c" unicode="&#x4c;" d="M379 224L1032 224L998 0L54 0L272 1456L564 1456L379 224Z"  horiz-adv-x="1138" vert-adv-y="2048"  />

      
      <glyph glyph-name="uni4d" unicode="&#x4d;" d="M864 383L870 382L1405 1456L1786 1456L1568 0L1276 0L1424 993L1419 994L910 0L712 0L501 996L495 996L346 0L54 0L272 1456L655 1456L864 383Z"  horiz-adv-x="1782" vert-adv-y="2048"  />

      
      <glyph glyph-name="uni4e" unicode="&#x4e;" d="M1231 0L939 0L498 982L492 981L346 0L54 0L272 1456L564 1456L1004 475L1010 476L1157 1456L1449 1456L1231 0Z"  horiz-adv-x="1445" vert-adv-y="2048"  />

      
      <glyph glyph-name="uni4f" unicode="&#x4f;" d="M1322 597Q1279 318 1086.50 148.50Q894-21 620-21Q361-21 214 155.50Q67 332 107 597L146 859Q187 1136 378.50 1306.50Q570 1477 843 1477Q1104 1477 1252 1299.50Q1400 1122 1361 859L1322 597M1070 861Q1096 1037 1027.50 1143Q959 1249 808 1249Q665 1249 563.50 1139Q462 1029 437 861L398 597Q371 418 437 312Q503 206 654 206Q798 206 901 316Q1004 426 1031 597L1070 861Z"  horiz-adv-x="1409" vert-adv-y="2048"  />

      
      <glyph glyph-name="uni50" unicode="&#x50;" d="M425 528L346 0L54 0L272 1456L829 1456Q1070 1456 1199.50 1326.50Q1329 1197 1299 991Q1266 774 1105 651Q944 528 690 528L425 528M459 753L724 753Q841 753 916 820.50Q991 888 1007 989Q1023 1098 971.50 1164.50Q920 1231 796 1231L531 1231L459 753Z"  horiz-adv-x="1305" vert-adv-y="2048"  />

      
      <glyph glyph-name="uni51" unicode="&#x51;" d="M1322 597Q1304 483 1260.50 386Q1217 289 1150 212L1332-2L1117-158L938 50Q866 15 786-3Q706-21 620-21Q361-21 214 155.50Q67 332 107 597L146 859Q187 1136 378.50 1306.50Q570 1477 843 1477Q1104 1477 1252 1299.50Q1400 1122 1361 859L1322 597M1070 861Q1096 1037 1027.50 1143Q959 1249 808 1249Q665 1249 563.50 1139Q462 1029 437 861L398 597Q371 418 437 312Q503 206 654 206Q798 206 901 316Q1004 426 1031 597L1070 861Z"  horiz-adv-x="1441" vert-adv-y="2048"  />

      
      <glyph glyph-name="uni52" unicode="&#x52;" d="M433 582L346 0L54 0L272 1456L776 1456Q1015 1456 1143.50 1341.50Q1272 1227 1242 1026Q1224 908 1153 828Q1082 748 958 699Q1078 659 1123.50 570Q1169 481 1150 354L1134 247Q1125 184 1131.50 118.50Q1138 53 1173 21L1170 0L869 0Q835 32 834 104.50Q833 177 843 249L859 352Q876 465 826 523.50Q776 582 665 582L433 582M467 807L674 807Q792 807 862 859.50Q932 912 948 1013Q963 1116 912 1173.50Q861 1231 743 1231L531 1231L467 807Z"  horiz-adv-x="1305" vert-adv-y="2048"  />

      
      <glyph glyph-name="uni53" unicode="&#x53;" d="M892 353Q906 449 849 501.50Q792 554 633 611Q383 690 262.50 803Q142 916 170 1100Q196 1276 350 1376.50Q504 1477 724 1477Q968 1477 1106 1358Q1244 1239 1208 1031L1206 1025L923 1025Q937 1126 872.50 1189Q808 1252 690 1252Q603 1252 537.50 1209Q472 1166 463 1102Q449 1008 508 960Q567 912 755 848Q991 771 1101.50 658.50Q1212 546 1184 355Q1156 171 1003 75Q850-21 623-21Q385-21 221 87.50Q57 196 97 425L99 431L382 431Q363 306 447.50 254.50Q532 203 656 203Q744 203 813 245.50Q882 288 892 353Z"  horiz-adv-x="1259" vert-adv-y="2048"  />

      
      <glyph glyph-name="uni54" unicode="&#x54;" d="M1254 1231L837 1231L653 0L361 0L545 1231L136 1231L169 1456L1287 1456L1254 1231Z"  horiz-adv-x="1175" vert-adv-y="2048"  />

      
      <glyph glyph-name="uni55" unicode="&#x55;" d="M1426 1456L1283 503Q1245 247 1064 113Q883-21 619-21Q370-21 224 119.50Q78 260 115 503L258 1456L551 1456L408 503Q385 352 451 277.50Q517 203 652 203Q782 203 875 281Q968 359 990 503L1133 1456L1426 1456Z"  horiz-adv-x="1407" vert-adv-y="2048"  />

      
      <glyph glyph-name="uni56" unicode="&#x56;" d="M609 395L615 314L621 313L650 392L1126 1456L1434 1456L721 0L421 0L145 1456L453 1456L609 395Z"  horiz-adv-x="1303" vert-adv-y="2048"  />

      
      <glyph glyph-name="uni57" unicode="&#x57;" d="M1272 468L1278 468L1620 1456L1921 1456L1363 0L1092 0L968 958L963 959L551 0L280 0L158 1456L459 1456L505 469L511 468L921 1456L1157 1456L1272 468Z"  horiz-adv-x="1804" vert-adv-y="2048"  />

      
      <glyph glyph-name="uni58" unicode="&#x58;" d="M710 940L1060 1456L1400 1456L860 734L1207 0L854 0L652 525L292 0L-49 0L504 734L180 1456L518 1456L710 940Z"  horiz-adv-x="1303" vert-adv-y="2048"  />

      
      <glyph glyph-name="uni59" unicode="&#x59;" d="M685 786L691 785L1110 1456L1430 1456L790 513L713 0L421 0L500 527L148 1456L468 1456L685 786Z"  horiz-adv-x="1303" vert-adv-y="2048"  />

      
      <glyph glyph-name="uni5a" unicode="&#x5a;" d="M387 224L1054 224L1020 0L24 0L11 152L757 1231L181 1231L214 1456L1159 1456L1138 1310L387 224Z"  horiz-adv-x="1155" vert-adv-y="2048"  />

      
      <glyph glyph-name="uni5b" unicode="&#x5b;" d="M685 1475L544 1475L320-120L461-120L431-336L-3-336L281 1691L715 1691L685 1475Z"  horiz-adv-x="570" vert-adv-y="2048"  />

      
      <glyph glyph-name="uni5c" unicode="&#x5c;" d="M140 1456L429 1456L800-125L511-125L140 1456Z"  horiz-adv-x="863" vert-adv-y="2048"  />

      
      <glyph glyph-name="uni5d" unicode="&#x5d;" d="M175 1691L609 1691L325-336L-109-336L-79-120L63-120L287 1475L145 1475L175 1691Z"  horiz-adv-x="570" vert-adv-y="2048"  />

      
      <glyph glyph-name="uni5e" unicode="&#x5e;" d="M304 729L73 729L481 1456L693 1456L883 729L652 729L549 1142L547 1175L541 1176L528 1142L304 729Z"  horiz-adv-x="896" vert-adv-y="2048"  />

      
      <glyph glyph-name="uni5f" unicode="&#x5f;" d="M798-219L-112-219L-79 0L831 0L798-219Z"  horiz-adv-x="914" vert-adv-y="2048"  />

      
      <glyph glyph-name="uni60" unicode="&#x60;" d="M677 1252L426 1252L191 1513L193 1518L519 1518L677 1252Z"  horiz-adv-x="678" vert-adv-y="2048"  />

      
      <glyph glyph-name="uni61" unicode="&#x61;" d="M670 0Q659 37 654 78.50Q649 120 650 163Q593 83 511.50 31Q430-21 328-21Q164-21 82 67.50Q0 156 23 305Q47 470 181 554.50Q315 639 553 639L717 639L730 725Q742 806 707.50 847.50Q673 889 591 889Q523 889 477.50 854.50Q432 820 424 760L143 760L142 766Q157 908 296.50 1005Q436 1102 642 1102Q830 1102 939 1003Q1048 904 1021 723L954 276Q942 197 944 132Q946 67 961 0L670 0M432 195Q505 195 572 233.50Q639 272 669 322L692 474L528 474Q439 474 382.50 427Q326 380 316 315Q307 258 338 226.50Q369 195 432 195Z"  horiz-adv-x="1100" vert-adv-y="2048"  />

      
      <glyph glyph-name="uni62" unicode="&#x62;" d="M1085 511Q1047 260 919 119.50Q791-21 585-21Q492-21 427.50 21Q363 63 325 142L279 0L32 0L266 1560L557 1560L468 968Q526 1033 596 1067.50Q666 1102 751 1102Q949 1102 1037.50 944.50Q1126 787 1088 532L1085 511M797 532Q821 694 788.50 784.50Q756 875 643 875Q577 875 525 845Q473 815 437 761L369 308Q389 258 432 232Q475 206 545 206Q653 206 712 287Q771 368 794 511L797 532Z"  horiz-adv-x="1156" vert-adv-y="2048"  />

      
      <glyph glyph-name="uni63" unicode="&#x63;" d="M514 203Q587 203 640.50 249Q694 295 706 370L971 370L973 364Q951 194 810.50 86.50Q670-21 481-21Q250-21 137.50 134.50Q25 290 61 525L65 555Q102 802 254 952Q406 1102 647 1102Q838 1102 945.50 987Q1053 872 1021 687L1019 682L752 682Q765 768 729.50 822.50Q694 877 614 877Q505 877 441.50 785Q378 693 357 555L353 525Q330 376 364 289.50Q398 203 514 203Z"  horiz-adv-x="1056" vert-adv-y="2048"  />

      
      <glyph glyph-name="uni64" unicode="&#x64;" d="M67 532Q106 797 238.50 949.50Q371 1102 574 1102Q653 1102 712.50 1065.50Q772 1029 813 961L903 1560L1196 1560L962 0L713 0L708 133Q646 58 570 18.50Q494-21 404-21Q213-21 120.50 127Q28 275 64 511L67 532M355 511Q332 364 368 285Q404 206 513 206Q575 206 626.50 232.50Q678 259 715 309L784 767Q762 818 719.50 846.50Q677 875 615 875Q513 875 446.50 778.50Q380 682 358 532L355 511Z"  horiz-adv-x="1156" vert-adv-y="2048"  />

      
      <glyph glyph-name="uni65" unicode="&#x65;" d="M498-21Q266-21 147 129.50Q28 280 64 510L70 550Q107 802 260.50 952.50Q414 1103 647 1102Q857 1102 957.50 967Q1058 832 1024 609L1002 458L356 458L354 453Q342 338 392 270.50Q442 203 562 203Q656 203 731 223.50Q806 244 883 284L935 104Q861 51 745 15Q629-21 498-21M614 877Q530 877 472.50 816Q415 755 389 657L391 651L745 651L748 673Q763 771 732.50 824Q702 877 614 877Z"  horiz-adv-x="1071" vert-adv-y="2048"  />

      
      <glyph glyph-name="uni66" unicode="&#x66;" d="M108 0L239 877L79 877L109 1082L270 1082L288 1202Q316 1391 434 1486Q552 1581 745 1581Q780 1581 819.50 1575Q859 1569 902 1560L844 1343Q821 1347 799 1350Q777 1353 747 1353Q679 1353 635 1313.50Q591 1274 580 1202L562 1082L770 1082L740 877L531 877L400 0L108 0Z"  horiz-adv-x="714" vert-adv-y="2048"  />

      
      <glyph glyph-name="uni67" unicode="&#x67;" d="M69 532Q108 798 241 950Q374 1102 577 1102Q665 1102 728 1059Q791 1016 830 938L875 1082L1126 1082L965 5Q931-214 778-325.50Q625-437 375-437Q296-437 206-414Q116-391 44-353L126-135Q188-167 257-183.50Q326-200 409-200Q524-200 590.50-149.50Q657-99 673 6L687 104Q629 42 560 10.50Q491-21 407-21Q216-21 123 127Q30 275 66 511L69 532M358 511Q335 364 370.50 285Q406 206 515 206Q580 206 630.50 231.50Q681 257 718 305L788 770Q767 821 724.50 848Q682 875 617 875Q515 875 449 778.50Q383 682 361 532L358 511Z"  horiz-adv-x="1156" vert-adv-y="2048"  />

      
      <glyph glyph-name="uni68" unicode="&#x68;" d="M459 951Q522 1023 601.50 1062.50Q681 1102 771 1102Q934 1102 1016.50 988.50Q1099 875 1064 642L968 0L676 0L773 644Q792 775 759.50 825Q727 875 645 875Q579 875 526.50 852Q474 829 435 787L317 0L25 0L259 1560L551 1560L459 951Z"  horiz-adv-x="1156" vert-adv-y="2048"  />

      
      <glyph glyph-name="uni69" unicode="&#x69;" d="M339 0L47 0L209 1082L501 1082L339 0M540 1341L248 1341L281 1560L573 1560L540 1341Z"  horiz-adv-x="547" vert-adv-y="2048"  />

      
      <glyph glyph-name="uni6a" unicode="&#x6a;" d="M509 1082L341-40Q311-238 196-337.50Q81-437-101-437Q-139-437-172.50-433Q-206-429-241-420L-194-197Q-172-203-149-206Q-126-209-100-209Q-42-209-4-167.50Q34-126 48-40L216 1082L509 1082M542 1343L249 1343L282 1560L575 1560L542 1343Z"  horiz-adv-x="543" vert-adv-y="2048"  />

      
      <glyph glyph-name="uni6b" unicode="&#x6b;" d="M466 453L392 453L324 0L32 0L266 1560L558 1560L425 675L490 675L810 1082L1141 1082L1143 1077L722 589L1034 0L698 0L466 453Z"  horiz-adv-x="1097" vert-adv-y="2048"  />

      
      <glyph glyph-name="uni6c" unicode="&#x6c;" d="M339 0L47 0L281 1560L573 1560L339 0Z"  horiz-adv-x="547" vert-adv-y="2048"  />

      
      <glyph glyph-name="uni6d" unicode="&#x6d;" d="M457 945Q520 1021 604.50 1061.50Q689 1102 792 1102Q890 1102 958.50 1056Q1027 1010 1052 918Q1115 1006 1202.50 1054Q1290 1102 1400 1102Q1555 1102 1633 987.50Q1711 873 1676 642L1580 0L1288 0L1384 643Q1404 778 1372.50 826.50Q1341 875 1260 875Q1200 875 1150 846.50Q1100 818 1064 768Q1063 754 1061.50 740Q1060 726 1058 711L951 0L660 0L756 643Q776 775 744 825Q712 875 631 875Q573 875 525 851.50Q477 828 441 785L323 0L32 0L194 1082L465 1082L457 945Z"  horiz-adv-x="1772" vert-adv-y="2048"  />

      
      <glyph glyph-name="uni6e" unicode="&#x6e;" d="M452 933Q517 1014 603 1058Q689 1102 787 1102Q945 1102 1024 995Q1103 888 1069 663L970 0L677 0L776 662Q794 782 761.50 828.50Q729 875 646 875Q582 875 528.50 849.50Q475 824 436 779L319 0L27 0L189 1082L461 1082L452 933Z"  horiz-adv-x="1156" vert-adv-y="2048"  />

      
      <glyph glyph-name="uni6f" unicode="&#x6f;" d="M70 551Q107 802 263.50 952Q420 1102 661 1102Q892 1102 1009 946Q1126 790 1091 551L1088 530Q1049 277 893 128Q737-21 495-21Q264-21 147 134.50Q30 290 67 530L70 551M358 530Q334 377 373 290Q412 203 528 203Q636 203 705 294Q774 385 796 530L799 551Q820 700 781.50 788.50Q743 877 628 877Q519 877 450 784.50Q381 692 361 551L358 530Z"  horiz-adv-x="1156" vert-adv-y="2048"  />

      
      <glyph glyph-name="uni70" unicode="&#x70;" d="M1085 511Q1047 262 916 120.50Q785-21 584-21Q501-21 439.50 12.50Q378 46 339 110L261-416L-30-416L194 1082L457 1082L455 954Q514 1026 587 1064Q660 1102 750 1102Q943 1102 1034 943.50Q1125 785 1088 532L1085 511M796 532Q819 689 782.50 782Q746 875 640 875Q576 875 525 846.50Q474 818 438 766L367 298Q387 251 430 227Q473 203 541 203Q643 203 707 287Q771 371 793 511L796 532Z"  horiz-adv-x="1156" vert-adv-y="2048"  />

      
      <glyph glyph-name="uni71" unicode="&#x71;" d="M67 532Q106 797 238.50 949.50Q371 1102 574 1102Q661 1102 723.50 1061Q786 1020 825 944L873 1082L1121 1082L897-416L605-416L682 101Q625 41 556 10Q487-21 404-21Q213-21 120.50 127Q28 275 64 511L67 532M355 511Q332 364 367.50 283.50Q403 203 512 203Q575 203 625 228Q675 253 712 301L783 777Q762 825 720.50 851Q679 877 616 877Q514 877 447 779.50Q380 682 358 532L355 511Z"  horiz-adv-x="1156" vert-adv-y="2048"  />

      
      <glyph glyph-name="uni72" unicode="&#x72;" d="M726 831L619 834Q556 834 509 805.50Q462 777 431 725L323 0L32 0L194 1082L465 1082L455 927Q505 1011 572 1056.50Q639 1102 719 1102Q740 1102 759.50 1098.50Q779 1095 796 1090L726 831Z"  horiz-adv-x="721" vert-adv-y="2048"  />

      
      <glyph glyph-name="uni73" unicode="&#x73;" d="M664 300Q671 350 629.50 383Q588 416 465 443Q281 481 193 558Q105 635 123 767Q143 911 273.50 1006.50Q404 1102 602 1102Q799 1102 912.50 1003Q1026 904 1001 760L999 754L717 754Q726 821 690 861Q654 901 574 901Q507 901 459.50 866Q412 831 405 780Q398 728 435.50 698Q473 668 601 642Q794 602 880.50 524.50Q967 447 949 311Q927 159 790.50 69Q654-21 447-21Q239-21 125 90Q11 201 36 338L39 344L306 344Q297 257 345.50 218Q394 179 481 179Q558 179 607 212Q656 245 664 300Z"  horiz-adv-x="1056" vert-adv-y="2048"  />

      
      <glyph glyph-name="uni74" unicode="&#x74;" d="M584 1347L544 1082L727 1082L697 877L513 877L431 326Q421 260 443 234.50Q465 209 509 209Q531 209 549.50 211.50Q568 214 590 220L582 9Q536-6 493.50-13.50Q451-21 402-21Q256-21 184.50 63Q113 147 140 325L222 877L65 877L95 1082L253 1082L293 1347L584 1347Z"  horiz-adv-x="713" vert-adv-y="2048"  />

      
      <glyph glyph-name="uni75" unicode="&#x75;" d="M719 155Q657 69 573 24Q489-21 386-21Q221-21 139 96Q57 213 93 455L187 1082L478 1082L384 453Q362 306 392.50 256Q423 206 505 206Q573 206 627.50 230Q682 254 721 299L838 1082L1130 1082L968 0L726 0L719 155Z"  horiz-adv-x="1156" vert-adv-y="2048"  />

      
      <glyph glyph-name="uni76" unicode="&#x76;" d="M483 403L487 304L493 303L528 403L808 1082L1113 1082L583 0L304 0L98 1082L403 1082L483 403Z"  horiz-adv-x="1046" vert-adv-y="2048"  />

      
      <glyph glyph-name="uni77" unicode="&#x77;" d="M1034 404L1040 404L1272 1082L1556 1082L1119 0L875 0L768 623L762 624L467 0L224 0L111 1082L395 1082L426 407L432 406L736 1082L931 1082L1034 404Z"  horiz-adv-x="1507" vert-adv-y="2048"  />

      
      <glyph glyph-name="uni78" unicode="&#x78;" d="M550 739L556 738L773 1082L1103 1082L697 547L952 0L623 0L500 359L269 0L-61 0L358 547L111 1082L439 1082L550 739Z"  horiz-adv-x="1046" vert-adv-y="2048"  />

      
      <glyph glyph-name="uni79" unicode="&#x79;" d="M490 454L492 395L498 394L809 1082L1123 1082L498-162Q435-278 343.50-357.50Q252-437 94-437Q59-437 27.50-431Q-4-425-47-414L19-201Q31-203 46-205Q61-207 73-207Q142-207 188-170.50Q234-134 263-83L309 0L87 1082L401 1082L490 454Z"  horiz-adv-x="1046" vert-adv-y="2048"  />

      
      <glyph glyph-name="uni7a" unicode="&#x7a;" d="M396 229L398 224L928 224L894 0L-5 0L21 172L633 851L631 856L139 856L173 1082L1039 1082L1014 915L396 229Z"  horiz-adv-x="1046" vert-adv-y="2048"  />

      
      <glyph glyph-name="uni7b" unicode="&#x7b;" d="M460-360Q272-305 206-185Q140-65 165 106L193 309Q207 411 172 464.50Q137 518 46 518L52 566L62 637L67 672L74 719Q161 719 213.50 774Q266 829 280 929L308 1132Q332 1309 430.50 1425.50Q529 1542 734 1597L768 1440Q678 1409 632 1329.50Q586 1250 569 1132L541 929Q525 820 469.50 740Q414 660 317 616Q399 569 433 488.50Q467 408 454 309L426 106Q409-16 433-93Q457-170 538-202L460-360Z"  horiz-adv-x="676" vert-adv-y="2048"  />

      
      <glyph glyph-name="uni7c" unicode="&#x7c;" d="M254-270L23-270L281 1456L512 1456L254-270Z"  horiz-adv-x="519" vert-adv-y="2048"  />

      
      <glyph glyph-name="uni7d" unicode="&#x7d;" d="M-69-202Q20-171 66-91.50Q112-12 129 106L157 309Q172 419 229 498.50Q286 578 388 621Q301 666 265 746.50Q229 827 244 929L272 1132Q289 1253 265 1330.50Q241 1408 161 1440L239 1597Q426 1542 491.50 1422.50Q557 1303 533 1132L505 929Q490 825 525.50 772Q561 719 654 719L633 570L626 518Q538 518 484.50 462Q431 406 418 309L390 106Q365-71 266.50-188Q168-305-35-360L-69-202Z"  horiz-adv-x="676" vert-adv-y="2048"  />

      
      <glyph glyph-name="uni7e" unicode="&#x7e;" d="M1251 758Q1227 590 1125 484Q1023 378 886 378Q804 378 734.50 410Q665 442 598 511Q552 555 517 575Q482 595 438 595Q388 595 344.50 544Q301 493 291 422L93 448Q116 616 217 720.50Q318 825 456 825Q535 825 608 791Q681 757 747 692Q789 647 824 627.50Q859 608 903 608Q952 608 996.50 660Q1041 712 1052 785L1251 758Z"  horiz-adv-x="1327" vert-adv-y="2048"  />

      
      <glyph glyph-name="unia0" unicode="&#xa0;" d="Z"  horiz-adv-x="510" vert-adv-y="2048"  />

      
      <glyph glyph-name="unia1" unicode="&#xa1;" d="M298-374L6-374L149 579L441 579L298-374M478 825L186 825L224 1082L516 1082L478 825Z"  horiz-adv-x="580" vert-adv-y="2048"  />

      
      <glyph glyph-name="unia2" unicode="&#xa2;" d="M514 203Q587 203 640.50 249Q694 295 706 370L972 370L975 364Q957 228 859 129.50Q761 31 619-4L583-245L383-245L417-17Q217 5 122 156Q27 307 61 525L65 555Q99 785 234.50 932Q370 1079 585 1099L618 1318L818 1318L782 1084Q914 1046 981 939.50Q1048 833 1026 682L752 682Q765 768 729.50 822.50Q694 877 614 877Q505 877 441.50 785Q378 693 357 555L353 525Q330 376 364 289.50Q398 203 514 203Z"  horiz-adv-x="1181" vert-adv-y="2048"  />

      
      <glyph glyph-name="unia3" unicode="&#xa3;" d="M559 588L550 503Q537 423 497.50 351.50Q458 280 394 224L1106 224L1072 0L76 0L110 224L120 224Q168 236 203.50 318.50Q239 401 254 490L265 588L100 588L134 813L289 813L313 1027Q345 1245 482 1361Q619 1477 824 1477Q1031 1477 1136.50 1364.50Q1242 1252 1211 1071L1208 1065L924 1065Q938 1165 899.50 1208.50Q861 1252 789 1252Q721 1252 671 1192.50Q621 1133 605 1027L582 813L938 813L904 588L559 588Z"  horiz-adv-x="1216" vert-adv-y="2048"  />

      
      <glyph glyph-name="unia4" unicode="&#xa4;" d="M1011 105Q926 44 828 12Q730-20 628-20Q530-20 443.50 13Q357 46 289 109L137-26L18 118L176 258Q138 334 124.50 423Q111 512 126 608Q141 713 182.50 806Q224 899 287 976L168 1120L331 1264L449 1122Q531 1176 625 1205Q719 1234 816 1234Q909 1234 993 1202.50Q1077 1171 1144 1114L1314 1265L1434 1120L1261 967Q1301 889 1315.50 798Q1330 707 1316 608Q1300 508 1262 419.50Q1224 331 1168 256L1284 118L1120-27L1011 105M312 608Q283 416 382.50 292.50Q482 169 656 169Q819 169 961 297.50Q1103 426 1131 608Q1159 798 1059.50 921.50Q960 1045 788 1045Q622 1045 480.50 917Q339 789 312 608Z"  horiz-adv-x="1417" vert-adv-y="2048"  />

      
      <glyph glyph-name="unia5" unicode="&#xa5;" d="M671 849L677 848L1048 1456L1368 1456L879 742L1123 742L1099 577L775 577L756 452L1080 452L1055 288L731 288L688 0L396 0L439 288L100 288L125 452L464 452L483 577L144 577L168 742L436 742L160 1456L481 1456L671 849Z"  horiz-adv-x="1253" vert-adv-y="2048"  />

      
      <glyph glyph-name="unia6" unicode="&#xa6;" d="M7-270L126 525L388 525L269-270L7-270M414 698L152 698L265 1456L527 1456L414 698Z"  horiz-adv-x="517" vert-adv-y="2048"  />

      
      <glyph glyph-name="unia7" unicode="&#xa7;" d="M1171 475Q1157 381 1105.50 313.50Q1054 246 971 203Q1030 152 1052.50 82Q1075 12 1061-84Q1033-268 880.50-364.50Q728-461 488-461Q263-461 119-360.50Q-25-260 12-44L14-38L298-37Q281-148 346-191.50Q411-235 522-235Q625-235 692.50-193Q760-151 770-85Q780-16 726.50 23Q673 62 509 113Q274 177 171 270.50Q68 364 94 536Q108 628 159.50 697Q211 766 296 809Q236 860 212.50 929.50Q189 999 204 1096Q231 1275 386.50 1376Q542 1477 782 1477Q1016 1477 1141 1364.50Q1266 1252 1231 1055L1229 1049L945 1049Q958 1140 907.50 1196Q857 1252 748 1252Q638 1252 572 1208Q506 1164 497 1098Q485 1020 534 983Q583 946 755 898Q992 834 1094.50 740.50Q1197 647 1171 475M618 663Q583 672 550.50 682.50Q518 693 488 705Q446 683 420.50 646Q395 609 389 562Q377 479 425 439.50Q473 400 645 347Q678 337 710 327Q742 317 775 306Q818 329 845.50 366Q873 403 881 450Q892 524 837.50 567Q783 610 618 663Z"  horiz-adv-x="1287" vert-adv-y="2048"  />

      
      <glyph glyph-name="unia8" unicode="&#xa8;" d="M1022 1252L756 1252L785 1456L1051 1456L1022 1252M522 1252L256 1252L285 1456L551 1456L522 1252Z"  horiz-adv-x="1090" vert-adv-y="2048"  />

      
      <glyph glyph-name="unia9" unicode="&#xa9;" d="M1117 596L1119 590Q1100 434 1001.50 358Q903 282 744 282Q590 282 508.50 389.50Q427 497 453 669L471 788Q497 967 606.50 1071Q716 1175 878 1175Q1030 1175 1109 1094.50Q1188 1014 1162 866L1160 861L1011 861Q1025 958 987 999Q949 1040 858 1040Q767 1040 704.50 970.50Q642 901 626 789L608 669Q590 550 630 483.50Q670 417 765 417Q852 417 904 459Q956 501 970 596L1117 596M237 729Q196 455 340 279.50Q484 104 732 104Q967 104 1169.50 286Q1372 468 1412 729Q1453 1002 1309.50 1176.50Q1166 1351 919 1351Q682 1351 479 1170Q276 989 237 729M115 729Q164 1056 400.50 1266Q637 1476 937 1476Q1220 1476 1401 1258Q1582 1040 1535 729Q1486 401 1248.50 190Q1011-21 713-21Q429-21 248.50 197.50Q68 416 115 729Z"  horiz-adv-x="1606" vert-adv-y="2048"  />

      
      <glyph glyph-name="uniaa" unicode="&#xaa;" d="M630 706Q625 727 623.50 750.50Q622 774 623 800Q583 753 522.50 722.50Q462 692 385 692Q271 692 212.50 754Q154 816 170 920Q187 1034 279.50 1092.50Q372 1151 536 1151L672 1151L680 1202Q689 1266 665 1297.50Q641 1329 583 1329Q520 1329 478.50 1303Q437 1277 431 1230L269 1243L268 1249Q277 1351 370.50 1414Q464 1477 606 1477Q735 1477 805 1405Q875 1333 855 1201L808 887Q800 835 799.50 791.50Q799 748 807 706L630 706M449 836Q497 836 556.50 865.50Q616 895 639 930L655 1034L519 1034Q448 1034 400 1001.50Q352 969 346 924Q339 880 364 858Q389 836 449 836Z"  horiz-adv-x="909" vert-adv-y="2048"  />

      
      <glyph glyph-name="uniab" unicode="&#xab;" d="M322 515L502 116L315 116L93 506L94 512L95 519L96 525L435 915L622 915L322 515M657 515L837 116L650 116L428 506L429 512L430 519L431 525L770 915L957 915L657 515Z"  horiz-adv-x="1025" vert-adv-y="2048"  />

      
      <glyph glyph-name="uniac" unicode="&#xac;" d="M976 634L937 374L737 374L776 634L141 634L167 805L1002 805L976 634Z"  horiz-adv-x="1129" vert-adv-y="2048"  />

      
      <glyph glyph-name="uniad" unicode="&#xad;" d="M732 510L143 510L176 735L765 735L732 510Z"  horiz-adv-x="892" vert-adv-y="2048"  />

      
      <glyph glyph-name="uniae" unicode="&#xae;" d="M115 729Q164 1056 400.50 1266Q637 1476 937 1476Q1220 1476 1401 1258Q1582 1040 1535 729Q1486 401 1248.50 190Q1011-21 713-21Q429-21 248.50 197.50Q68 416 115 729M237 729Q196 455 340 279.50Q484 104 732 104Q967 104 1169.50 286Q1372 468 1412 729Q1453 1002 1309.50 1176.50Q1166 1351 919 1351Q682 1351 479 1170Q276 989 237 729M670 653L619 316L468 316L596 1166L877 1166Q1022 1166 1101.50 1097.50Q1181 1029 1163 904Q1154 843 1118 799.50Q1082 756 1020 727Q1073 696 1092 641.50Q1111 587 1101 515L1093 459Q1086 416 1085 384.50Q1084 353 1091 332L1088 316L933 316Q928 337 931.50 375Q935 413 942 460L950 514Q961 588 933 620.50Q905 653 828 653L670 653M690 787L825 787Q894 787 949 817.50Q1004 848 1012 903Q1023 978 989.50 1005.50Q956 1033 857 1033L727 1033L690 787Z"  horiz-adv-x="1606" vert-adv-y="2048"  />

      
      <glyph glyph-name="uniaf" unicode="&#xaf;" d="M985 1292L254 1292L277 1457L1008 1457L985 1292Z"  horiz-adv-x="1028" vert-adv-y="2048"  />

      
      <glyph glyph-name="uni02C9" unicode="&#x02C9;" d="M985 1292L254 1292L277 1457L1008 1457L985 1292Z"  horiz-adv-x="1028" vert-adv-y="2048"  />

      
      <glyph glyph-name="unib0" unicode="&#xb0;" d="M226 1203Q243 1320 335 1398.50Q427 1477 541 1477Q647 1477 715.50 1395.50Q784 1314 767 1203Q750 1085 660.50 1008.50Q571 932 459 932Q350 932 279.50 1011.50Q209 1091 226 1203M373 1203Q364 1148 396 1113.50Q428 1079 481 1079Q530 1079 571 1114Q612 1149 620 1203Q628 1259 599 1295Q570 1331 519 1331Q468 1331 424.50 1293.50Q381 1256 373 1203Z"  horiz-adv-x="796" vert-adv-y="2048"  />

      
      <glyph glyph-name="unib1" unicode="&#xb1;" d="M736 947L1064 947L1031 715L703 715L650 332L394 332L447 715L115 715L148 947L480 947L531 1310L787 1310L736 947M868-43L34-43L68 185L902 185L868-43Z"  horiz-adv-x="1101" vert-adv-y="2048"  />

      
      <glyph glyph-name="unib2" unicode="&#xb2;" d="M756 667L134 667L157 822L504 1074Q571 1124 593.50 1157.50Q616 1191 623 1232Q628 1273 609 1298.50Q590 1324 541 1324Q489 1324 454.50 1294Q420 1264 414 1217L214 1217L212 1223Q222 1333 321 1406Q420 1479 569 1479Q707 1479 779 1413Q851 1347 834 1231Q821 1146 761 1087Q701 1028 555 921L432 828L434 822L779 822L756 667Z"  horiz-adv-x="860" vert-adv-y="2048"  />

      
      <glyph glyph-name="unib3" unicode="&#xb3;" d="M388 1139L499 1139Q559 1139 593.50 1164Q628 1189 635 1234Q640 1273 616 1298Q592 1323 536 1323Q487 1323 454 1301Q421 1279 417 1248L217 1248L216 1254Q226 1359 322 1418.50Q418 1478 554 1478Q700 1478 782 1418Q864 1358 848 1249Q839 1192 797.50 1146.50Q756 1101 691 1076Q755 1052 786 1004.50Q817 957 808 891Q790 774 692.50 714.50Q595 655 441 655Q300 655 213 718Q126 781 149 893L151 899L353 899Q346 856 374 833Q402 810 463 810Q517 810 555 834Q593 858 600 902Q608 954 577 980Q546 1006 479 1006L368 1006L382 1099L388 1139Z"  horiz-adv-x="856" vert-adv-y="2048"  />

      
      <glyph glyph-name="unib4" unicode="&#xb4;" d="M452 1518L776 1518L778 1512L464 1252L222 1252L220 1257L452 1518Z"  horiz-adv-x="727" vert-adv-y="2048"  />

      
      <glyph glyph-name="unib5" unicode="&#xb5;" d="M512 1082L415 434Q398 296 435 251Q472 206 561 206Q635 206 690 235Q745 264 781 319L895 1082L1187 1082L1025 0L753 0L757 63Q707 21 647.50 0Q588-21 520-21Q471-21 429-10Q387 1 354 24L288-416L-3-416L221 1082L512 1082Z"  horiz-adv-x="1264" vert-adv-y="2048"  />

      
      <glyph glyph-name="unib6" unicode="&#xb6;" d="M556 0L634 520L551 520Q327 520 212.50 651Q98 782 129 988Q161 1202 308.50 1329Q456 1456 691 1456L1066 1456L848 0L556 0Z"  horiz-adv-x="1078" vert-adv-y="2048"  />

      
      <glyph glyph-name="unib7" unicode="&#xb7;" d="M456 568L164 568L203 828L495 828L456 568Z"  horiz-adv-x="619" vert-adv-y="2048"  />

      
      <glyph glyph-name="unib8" unicode="&#xb8;" d="M268 6L248-51Q310-62 347-103Q384-144 372-224Q355-335 255.50-397Q156-459-14-459L3-298Q52-298 86-277.50Q120-257 127-215Q133-172 104.50-156.50Q76-141-3-136L49 6L268 6Z"  horiz-adv-x="549" vert-adv-y="2048"  />

      
      <glyph glyph-name="unib9" unicode="&#xb9;" d="M436 665L225 665L319 1295L192 1295L216 1454L558 1477L436 665Z"  horiz-adv-x="573" vert-adv-y="2048"  />

      
      <glyph glyph-name="uniba" unicode="&#xba;" d="M209 1142Q232 1295 339.50 1386Q447 1477 606 1477Q758 1477 841 1382.50Q924 1288 902 1142L885 1025Q861 870 755 780.50Q649 691 490 691Q337 691 253.50 784.50Q170 878 192 1025L209 1142M367 1025Q353 937 389.50 887Q426 837 512 837Q591 837 644 889Q697 941 710 1025L727 1142Q740 1228 703.50 1278.50Q667 1329 583 1329Q503 1329 449.50 1276Q396 1223 384 1142L367 1025Z"  horiz-adv-x="937" vert-adv-y="2048"  />

      
      <glyph glyph-name="unibb" unicode="&#xbb;" d="M344 551L165 950L353 950L574 560L572 547L571 541L233 151L45 151L344 551M690 551L511 950L699 950L920 560L918 547L917 541L579 151L391 151L690 551Z"  horiz-adv-x="1025" vert-adv-y="2048"  />

      
      <glyph glyph-name="unibc" unicode="&#xbc;" d="M525 664L314 664L409 1294L282 1294L305 1453L647 1476L525 664M388 117L258 192L1139 1330L1270 1255L388 117M1361 296L1462 296L1439 139L1338 139L1317 0L1106 0L1127 139L717 139L722 265L1226 801L1437 801L1361 296M947 302L950 296L1150 296L1188 553L1183 555L1167 535L947 302Z"  horiz-adv-x="1493" vert-adv-y="2048"  />

      
      <glyph glyph-name="unibd" unicode="&#xbd;" d="M401 117L271 192L1152 1330L1283 1255L401 117M525 664L314 664L409 1294L282 1294L305 1453L647 1476L525 664M1467 0L845 0L868 155L1215 407Q1282 457 1304.50 490.50Q1327 524 1334 565Q1339 606 1320 631.50Q1301 657 1252 657Q1200 657 1165.50 627Q1131 597 1125 550L925 550L923 556Q933 666 1032 739Q1131 812 1280 812Q1418 812 1490 746Q1562 680 1545 564Q1532 479 1472.50 420.50Q1413 362 1266 254L1143 161L1145 155L1490 155L1467 0Z"  horiz-adv-x="1553" vert-adv-y="2048"  />

      
      <glyph glyph-name="unibe" unicode="&#xbe;" d="M571 117L441 192L1322 1330L1453 1255L571 117M1550 296L1651 296L1628 139L1527 139L1506 0L1295 0L1316 139L906 139L911 265L1415 801L1626 801L1550 296M1136 302L1139 296L1339 296L1377 553L1372 555L1356 535L1136 302M404 1140L515 1140Q575 1140 609.50 1165Q644 1190 651 1235Q657 1274 633 1299Q609 1324 553 1324Q504 1324 470.50 1302Q437 1280 433 1249L233 1249L232 1255Q242 1360 338 1419.50Q434 1479 570 1479Q716 1479 798 1419Q880 1359 864 1250Q855 1193 813.50 1147.50Q772 1102 707 1077Q771 1053 802 1005.50Q833 958 824 892Q806 775 708.50 715.50Q611 656 457 656Q316 656 229 719Q142 782 165 894L167 900L369 900Q362 857 390 834Q418 811 479 811Q533 811 571.50 835.50Q610 860 616 903Q624 955 593 981Q562 1007 495 1007L384 1007L398 1100L404 1140Z"  horiz-adv-x="1717" vert-adv-y="2048"  />

      
      <glyph glyph-name="unibf" unicode="&#xbf;" d="M746 668Q723 527 673 461.50Q623 396 490 304Q409 246 356 178.50Q303 111 291 29Q277-65 317.50-115Q358-165 450-165Q521-165 580-121.50Q639-78 654 6L937 6L938 0Q911-191 766.50-292.50Q622-394 416-394Q199-394 84.50-280Q-30-166-1 27Q18 157 107 262Q196 367 322 443Q389 488 415.50 535.50Q442 583 455 668L746 668M515 1082L809 1082L772 831L478 831L515 1082Z"  horiz-adv-x="1037" vert-adv-y="2048"  />

      
      <glyph glyph-name="unic0" unicode="&#xc0;" d="M861 314L388 314L243 0L-62 0L647 1456L946 1456L1217 0L912 0L861 314M495 543L823 543L740 1057L734 1058L495 543M945 1600L694 1600L459 1861L461 1866L787 1866L945 1600Z"  horiz-adv-x="1303" vert-adv-y="2048"  />

      
      <glyph glyph-name="unic1" unicode="&#xc1;" d="M861 314L388 314L243 0L-62 0L647 1456L946 1456L1217 0L912 0L861 314M495 543L823 543L740 1057L734 1058L495 543M901 1866L1225 1866L1227 1860L913 1600L671 1600L669 1605L901 1866Z"  horiz-adv-x="1303" vert-adv-y="2048"  />

      
      <glyph glyph-name="unic2" unicode="&#xc2;" d="M861 314L388 314L243 0L-62 0L647 1456L946 1456L1217 0L912 0L861 314M495 543L823 543L740 1057L734 1058L495 543M1187 1615L1184 1592L952 1592L832 1725L673 1592L446 1592L450 1618L768 1858L937 1858L1187 1615Z"  horiz-adv-x="1303" vert-adv-y="2048"  />

      
      <glyph glyph-name="unic3" unicode="&#xc3;" d="M861 314L388 314L243 0L-62 0L647 1456L946 1456L1217 0L912 0L861 314M495 543L823 543L740 1057L734 1058L495 543M1216 1856Q1202 1757 1133.50 1691Q1065 1625 973 1625Q907 1625 823 1668.50Q739 1712 687 1712Q652 1712 622.50 1679.50Q593 1647 587 1602L437 1644Q450 1741 519 1809Q588 1877 679 1877Q732 1877 823 1833.50Q914 1790 967 1790Q1000 1790 1030.50 1822.50Q1061 1855 1068 1901L1216 1856Z"  horiz-adv-x="1303" vert-adv-y="2048"  />

      
      <glyph glyph-name="unic4" unicode="&#xc4;" d="M861 314L388 314L243 0L-62 0L647 1456L946 1456L1217 0L912 0L861 314M495 543L823 543L740 1057L734 1058L495 543M1188 1601L922 1601L951 1805L1217 1805L1188 1601M688 1601L422 1601L451 1805L717 1805L688 1601Z"  horiz-adv-x="1303" vert-adv-y="2048"  />

      
      <glyph glyph-name="unic5" unicode="&#xc5;" d="M861 314L388 314L243 0L-62 0L647 1456L946 1456L1217 0L912 0L861 314M495 543L823 543L740 1057L734 1058L495 543M648 1746Q659 1821 720 1869.50Q781 1918 862 1918Q937 1918 984 1868Q1031 1818 1021 1746Q1009 1669 949 1623Q889 1577 810 1577Q733 1577 684.50 1625Q636 1673 648 1746M764 1746Q758 1714 775.50 1694Q793 1674 825 1674Q853 1674 876 1694Q899 1714 905 1746Q910 1779 893.50 1799Q877 1819 847 1819Q817 1819 792.50 1798Q768 1777 764 1746Z"  horiz-adv-x="1303" vert-adv-y="2048"  />

      
      <glyph glyph-name="unic6" unicode="&#xc6;" d="M1794 0L896 0L932 335L492 335L274 0L-68 0L934 1456L1950 1456L1916 1228L1320 1228L1281 862L1780 862L1746 635L1256 635L1212 227L1828 227L1794 0M958 575L1018 1132L1012 1134L648 575L958 575Z"  horiz-adv-x="1945" vert-adv-y="2048"  />

      
      <glyph glyph-name="unic7" unicode="&#xc7;" d="M1217 482L1219 476Q1187 234 1024 106.50Q861-21 600-21Q348-21 207.50 149Q67 319 106 583L150 872Q191 1148 371.50 1312.50Q552 1477 810 1477Q1066 1477 1201 1345.50Q1336 1214 1297 981L1294 975L1010 975Q1032 1120 975 1186Q918 1252 776 1252Q650 1252 558 1145Q466 1038 441 874L397 583Q371 409 432.50 306Q494 203 633 203Q759 203 836.50 272.50Q914 342 935 482L1217 482M701 4L681-53Q743-64 780-105Q817-146 805-226Q788-337 688.50-399Q589-461 419-461L436-300Q485-300 519-279.50Q553-259 560-217Q566-174 537.50-158.50Q509-143 430-138L482 4L701 4Z"  horiz-adv-x="1303" vert-adv-y="2048"  />

      
      <glyph glyph-name="unic8" unicode="&#xc8;" d="M982 640L442 640L379 224L1022 224L988 0L54 0L272 1456L1204 1456L1171 1231L530 1231L475 865L1016 865L982 640M893 1600L642 1600L407 1861L409 1866L735 1866L893 1600Z"  horiz-adv-x="1139" vert-adv-y="2048"  />

      
      <glyph glyph-name="unic9" unicode="&#xc9;" d="M982 640L442 640L379 224L1022 224L988 0L54 0L272 1456L1204 1456L1171 1231L530 1231L475 865L1016 865L982 640M849 1866L1173 1866L1175 1860L861 1600L619 1600L617 1605L849 1866Z"  horiz-adv-x="1139" vert-adv-y="2048"  />

      
      <glyph glyph-name="unica" unicode="&#xca;" d="M982 640L442 640L379 224L1022 224L988 0L54 0L272 1456L1204 1456L1171 1231L530 1231L475 865L1016 865L982 640M1135 1615L1132 1592L900 1592L780 1725L621 1592L394 1592L398 1618L716 1858L885 1858L1135 1615Z"  horiz-adv-x="1139" vert-adv-y="2048"  />

      
      <glyph glyph-name="unicb" unicode="&#xcb;" d="M982 640L442 640L379 224L1022 224L988 0L54 0L272 1456L1204 1456L1171 1231L530 1231L475 865L1016 865L982 640M1136 1601L870 1601L899 1805L1165 1805L1136 1601M636 1601L370 1601L399 1805L665 1805L636 1601Z"  horiz-adv-x="1139" vert-adv-y="2048"  />

      
      <glyph glyph-name="unicc" unicode="&#xcc;" d="M366 0L74 0L292 1456L584 1456L366 0M593 1600L342 1600L107 1861L109 1866L435 1866L593 1600Z"  horiz-adv-x="601" vert-adv-y="2048"  />

      
      <glyph glyph-name="unicd" unicode="&#xcd;" d="M366 0L74 0L292 1456L584 1456L366 0M548 1866L872 1866L874 1860L560 1600L318 1600L316 1605L548 1866Z"  horiz-adv-x="601" vert-adv-y="2048"  />

      
      <glyph glyph-name="unice" unicode="&#xce;" d="M366 0L74 0L292 1456L584 1456L366 0M835 1615L832 1592L600 1592L480 1725L321 1592L94 1592L98 1618L416 1858L585 1858L835 1615Z"  horiz-adv-x="601" vert-adv-y="2048"  />

      
      <glyph glyph-name="unicf" unicode="&#xcf;" d="M366 0L74 0L292 1456L584 1456L366 0M836 1601L570 1601L599 1805L865 1805L836 1601M336 1601L70 1601L99 1805L365 1805L336 1601Z"  horiz-adv-x="601" vert-adv-y="2048"  />

      
      <glyph glyph-name="unid0" unicode="&#xd0;" d="M54 0L151 652L16 652L43 833L178 833L272 1456L780 1456Q1037 1456 1189 1284Q1341 1112 1302 848L1266 607Q1224 329 1028 164.50Q832 0 562 0L54 0M687 652L443 652L379 224L596 224Q734 224 841 332.50Q948 441 973 607L1010 850Q1035 1023 963.50 1127Q892 1231 747 1231L530 1231L470 833L714 833L687 652Z"  horiz-adv-x="1355" vert-adv-y="2048"  />

      
      <glyph glyph-name="unid1" unicode="&#xd1;" d="M1231 0L939 0L498 982L492 981L346 0L54 0L272 1456L564 1456L1004 475L1010 476L1157 1456L1449 1456L1231 0M1285 1856Q1271 1757 1202.50 1691Q1134 1625 1042 1625Q976 1625 892 1668.50Q808 1712 756 1712Q721 1712 691.50 1679.50Q662 1647 656 1602L506 1644Q519 1741 588 1809Q657 1877 748 1877Q801 1877 892 1833.50Q983 1790 1036 1790Q1069 1790 1099.50 1822.50Q1130 1855 1137 1901L1285 1856Z"  horiz-adv-x="1445" vert-adv-y="2048"  />

      
      <glyph glyph-name="unid2" unicode="&#xd2;" d="M1322 597Q1279 318 1086.50 148.50Q894-21 620-21Q361-21 214 155.50Q67 332 107 597L146 859Q187 1136 378.50 1306.50Q570 1477 843 1477Q1104 1477 1252 1299.50Q1400 1122 1361 859L1322 597M1070 861Q1096 1037 1027.50 1143Q959 1249 808 1249Q665 1249 563.50 1139Q462 1029 437 861L398 597Q371 418 437 312Q503 206 654 206Q798 206 901 316Q1004 426 1031 597L1070 861M1000 1621L749 1621L514 1882L516 1887L842 1887L1000 1621Z"  horiz-adv-x="1409" vert-adv-y="2048"  />

      
      <glyph glyph-name="unid3" unicode="&#xd3;" d="M1322 597Q1279 318 1086.50 148.50Q894-21 620-21Q361-21 214 155.50Q67 332 107 597L146 859Q187 1136 378.50 1306.50Q570 1477 843 1477Q1104 1477 1252 1299.50Q1400 1122 1361 859L1322 597M1070 861Q1096 1037 1027.50 1143Q959 1249 808 1249Q665 1249 563.50 1139Q462 1029 437 861L398 597Q371 418 437 312Q503 206 654 206Q798 206 901 316Q1004 426 1031 597L1070 861M956 1887L1280 1887L1282 1881L968 1621L726 1621L724 1626L956 1887Z"  horiz-adv-x="1409" vert-adv-y="2048"  />

      
      <glyph glyph-name="unid4" unicode="&#xd4;" d="M1322 597Q1279 318 1086.50 148.50Q894-21 620-21Q361-21 214 155.50Q67 332 107 597L146 859Q187 1136 378.50 1306.50Q570 1477 843 1477Q1104 1477 1252 1299.50Q1400 1122 1361 859L1322 597M1070 861Q1096 1037 1027.50 1143Q959 1249 808 1249Q665 1249 563.50 1139Q462 1029 437 861L398 597Q371 418 437 312Q503 206 654 206Q798 206 901 316Q1004 426 1031 597L1070 861M1242 1636L1239 1613L1007 1613L887 1746L728 1613L501 1613L505 1639L823 1879L992 1879L1242 1636Z"  horiz-adv-x="1409" vert-adv-y="2048"  />

      
      <glyph glyph-name="unid5" unicode="&#xd5;" d="M1322 597Q1279 318 1086.50 148.50Q894-21 620-21Q361-21 214 155.50Q67 332 107 597L146 859Q187 1136 378.50 1306.50Q570 1477 843 1477Q1104 1477 1252 1299.50Q1400 1122 1361 859L1322 597M1070 861Q1096 1037 1027.50 1143Q959 1249 808 1249Q665 1249 563.50 1139Q462 1029 437 861L398 597Q371 418 437 312Q503 206 654 206Q798 206 901 316Q1004 426 1031 597L1070 861M1271 1877Q1257 1778 1188.50 1712Q1120 1646 1028 1646Q962 1646 878 1689.50Q794 1733 742 1733Q707 1733 677.50 1700.50Q648 1668 642 1623L492 1665Q505 1762 574 1830Q643 1898 734 1898Q787 1898 878 1854.50Q969 1811 1022 1811Q1055 1811 1085.50 1843.50Q1116 1876 1123 1922L1271 1877Z"  horiz-adv-x="1409" vert-adv-y="2048"  />

      
      <glyph glyph-name="unid6" unicode="&#xd6;" d="M1322 597Q1279 318 1086.50 148.50Q894-21 620-21Q361-21 214 155.50Q67 332 107 597L146 859Q187 1136 378.50 1306.50Q570 1477 843 1477Q1104 1477 1252 1299.50Q1400 1122 1361 859L1322 597M1070 861Q1096 1037 1027.50 1143Q959 1249 808 1249Q665 1249 563.50 1139Q462 1029 437 861L398 597Q371 418 437 312Q503 206 654 206Q798 206 901 316Q1004 426 1031 597L1070 861M1244 1622L978 1622L1007 1826L1273 1826L1244 1622M744 1622L478 1622L507 1826L773 1826L744 1622Z"  horiz-adv-x="1409" vert-adv-y="2048"  />

      
      <glyph glyph-name="unid7" unicode="&#xd7;" d="M40 371L396 686L134 1001L331 1165L588 855L938 1165L1085 1001L729 686L991 371L794 207L537 516L187 207L40 371Z"  horiz-adv-x="1088" vert-adv-y="2048"  />

      
      <glyph glyph-name="unid8" unicode="&#xd8;" d="M1322 597Q1279 318 1086.50 148.50Q894-21 620-21Q542-21 472-3.50Q402 14 343 48L239-95L96-95L251 116Q161 201 122.50 325.50Q84 450 107 597L146 859Q187 1136 378.50 1306.50Q570 1477 843 1477Q939 1477 1022 1450.50Q1105 1424 1173 1375L1278 1518L1421 1518L1257 1294Q1324 1209 1352 1097.50Q1380 986 1361 859L1322 597M398 597Q386 521 391.50 459Q397 397 418 355L424 353L1015 1160Q980 1202 928 1225.50Q876 1249 808 1249Q665 1249 563.50 1139Q462 1029 437 861L398 597M1070 861Q1077 910 1077 953Q1077 996 1069 1028L1063 1030L493 252Q524 229 564.50 217.50Q605 206 654 206Q798 206 901 316Q1004 426 1031 597L1070 861Z"  horiz-adv-x="1410" vert-adv-y="2048"  />

      
      <glyph glyph-name="unid9" unicode="&#xd9;" d="M1426 1456L1283 503Q1245 247 1064 113Q883-21 619-21Q370-21 224 119.50Q78 260 115 503L258 1456L551 1456L408 503Q385 352 451 277.50Q517 203 652 203Q782 203 875 281Q968 359 990 503L1133 1456L1426 1456M996 1600L745 1600L510 1861L512 1866L838 1866L996 1600Z"  horiz-adv-x="1407" vert-adv-y="2048"  />

      
      <glyph glyph-name="unida" unicode="&#xda;" d="M1426 1456L1283 503Q1245 247 1064 113Q883-21 619-21Q370-21 224 119.50Q78 260 115 503L258 1456L551 1456L408 503Q385 352 451 277.50Q517 203 652 203Q782 203 875 281Q968 359 990 503L1133 1456L1426 1456M952 1866L1276 1866L1278 1860L964 1600L722 1600L720 1605L952 1866Z"  horiz-adv-x="1407" vert-adv-y="2048"  />

      
      <glyph glyph-name="unidb" unicode="&#xdb;" d="M1426 1456L1283 503Q1245 247 1064 113Q883-21 619-21Q370-21 224 119.50Q78 260 115 503L258 1456L551 1456L408 503Q385 352 451 277.50Q517 203 652 203Q782 203 875 281Q968 359 990 503L1133 1456L1426 1456M1238 1615L1235 1592L1003 1592L883 1725L724 1592L497 1592L501 1618L819 1858L988 1858L1238 1615Z"  horiz-adv-x="1407" vert-adv-y="2048"  />

      
      <glyph glyph-name="unidc" unicode="&#xdc;" d="M1426 1456L1283 503Q1245 247 1064 113Q883-21 619-21Q370-21 224 119.50Q78 260 115 503L258 1456L551 1456L408 503Q385 352 451 277.50Q517 203 652 203Q782 203 875 281Q968 359 990 503L1133 1456L1426 1456M1239 1601L973 1601L1002 1805L1268 1805L1239 1601M739 1601L473 1601L502 1805L768 1805L739 1601Z"  horiz-adv-x="1407" vert-adv-y="2048"  />

      
      <glyph glyph-name="unidd" unicode="&#xdd;" d="M685 786L691 785L1110 1456L1430 1456L790 513L713 0L421 0L500 527L148 1456L468 1456L685 786M905 1866L1229 1866L1231 1860L917 1600L675 1600L673 1605L905 1866Z"  horiz-adv-x="1303" vert-adv-y="2048"  />

      
      <glyph glyph-name="unide" unicode="&#xde;" d="M562 1456L521 1186L743 1186Q987 1186 1115 1060.50Q1243 935 1214 738Q1182 530 1023.50 409.50Q865 289 608 289L387 289L344 0L52 0L270 1456L562 1456M488 961L421 514L642 514Q760 514 833.50 578.50Q907 643 921 736Q936 834 884.50 897.50Q833 961 709 961L488 961Z"  horiz-adv-x="1247" vert-adv-y="2048"  />

      
      <glyph glyph-name="unidf" unicode="&#xdf;" d="M346 0L55 0L220 1101Q255 1336 400.50 1454.50Q546 1573 772 1573Q946 1573 1053.50 1476.50Q1161 1380 1135 1206Q1117 1092 1049.50 997Q982 902 972 835Q962 774 1091 634.50Q1220 495 1200 356Q1170 160 1043.50 69.50Q917-21 697-21Q619-21 540-6Q461 9 426 35L515 258Q550 236 604.50 219.50Q659 203 724 203Q798 203 848 241.50Q898 280 908 344Q919 420 788.50 552.50Q658 685 680 826Q694 922 763.50 1019.50Q833 1117 844 1191Q854 1262 816 1305.50Q778 1349 719 1349Q646 1349 587 1281Q528 1213 511 1097L346 0Z"  horiz-adv-x="1294" vert-adv-y="2048"  />

      
      <glyph glyph-name="unie0" unicode="&#xe0;" d="M670 0Q659 37 654 78.50Q649 120 650 163Q593 83 511.50 31Q430-21 328-21Q164-21 82 67.50Q0 156 23 305Q47 470 181 554.50Q315 639 553 639L717 639L730 725Q742 806 707.50 847.50Q673 889 591 889Q523 889 477.50 854.50Q432 820 424 760L143 760L142 766Q157 908 296.50 1005Q436 1102 642 1102Q830 1102 939 1003Q1048 904 1021 723L954 276Q942 197 944 132Q946 67 961 0L670 0M432 195Q505 195 572 233.50Q639 272 669 322L692 474L528 474Q439 474 382.50 427Q326 380 316 315Q307 258 338 226.50Q369 195 432 195M790 1278L539 1278L304 1539L306 1544L632 1544L790 1278Z"  horiz-adv-x="1100" vert-adv-y="2048"  />

      
      <glyph glyph-name="unie1" unicode="&#xe1;" d="M670 0Q659 37 654 78.50Q649 120 650 163Q593 83 511.50 31Q430-21 328-21Q164-21 82 67.50Q0 156 23 305Q47 470 181 554.50Q315 639 553 639L717 639L730 725Q742 806 707.50 847.50Q673 889 591 889Q523 889 477.50 854.50Q432 820 424 760L143 760L142 766Q157 908 296.50 1005Q436 1102 642 1102Q830 1102 939 1003Q1048 904 1021 723L954 276Q942 197 944 132Q946 67 961 0L670 0M432 195Q505 195 572 233.50Q639 272 669 322L692 474L528 474Q439 474 382.50 427Q326 380 316 315Q307 258 338 226.50Q369 195 432 195M746 1544L1070 1544L1072 1538L758 1278L516 1278L514 1283L746 1544Z"  horiz-adv-x="1100" vert-adv-y="2048"  />

      
      <glyph glyph-name="unie2" unicode="&#xe2;" d="M670 0Q659 37 654 78.50Q649 120 650 163Q593 83 511.50 31Q430-21 328-21Q164-21 82 67.50Q0 156 23 305Q47 470 181 554.50Q315 639 553 639L717 639L730 725Q742 806 707.50 847.50Q673 889 591 889Q523 889 477.50 854.50Q432 820 424 760L143 760L142 766Q157 908 296.50 1005Q436 1102 642 1102Q830 1102 939 1003Q1048 904 1021 723L954 276Q942 197 944 132Q946 67 961 0L670 0M432 195Q505 195 572 233.50Q639 272 669 322L692 474L528 474Q439 474 382.50 427Q326 380 316 315Q307 258 338 226.50Q369 195 432 195M1032 1293L1029 1270L797 1270L677 1403L518 1270L291 1270L295 1296L613 1536L782 1536L1032 1293Z"  horiz-adv-x="1100" vert-adv-y="2048"  />

      
      <glyph glyph-name="unie3" unicode="&#xe3;" d="M670 0Q659 37 654 78.50Q649 120 650 163Q593 83 511.50 31Q430-21 328-21Q164-21 82 67.50Q0 156 23 305Q47 470 181 554.50Q315 639 553 639L717 639L730 725Q742 806 707.50 847.50Q673 889 591 889Q523 889 477.50 854.50Q432 820 424 760L143 760L142 766Q157 908 296.50 1005Q436 1102 642 1102Q830 1102 939 1003Q1048 904 1021 723L954 276Q942 197 944 132Q946 67 961 0L670 0M432 195Q505 195 572 233.50Q639 272 669 322L692 474L528 474Q439 474 382.50 427Q326 380 316 315Q307 258 338 226.50Q369 195 432 195M1061 1534Q1047 1435 978.50 1369Q910 1303 818 1303Q752 1303 668 1346.50Q584 1390 532 1390Q497 1390 467.50 1357.50Q438 1325 432 1280L282 1322Q295 1419 364 1487Q433 1555 524 1555Q577 1555 668 1511.50Q759 1468 812 1468Q845 1468 875.50 1500.50Q906 1533 913 1579L1061 1534Z"  horiz-adv-x="1100" vert-adv-y="2048"  />

      
      <glyph glyph-name="unie4" unicode="&#xe4;" d="M670 0Q659 37 654 78.50Q649 120 650 163Q593 83 511.50 31Q430-21 328-21Q164-21 82 67.50Q0 156 23 305Q47 470 181 554.50Q315 639 553 639L717 639L730 725Q742 806 707.50 847.50Q673 889 591 889Q523 889 477.50 854.50Q432 820 424 760L143 760L142 766Q157 908 296.50 1005Q436 1102 642 1102Q830 1102 939 1003Q1048 904 1021 723L954 276Q942 197 944 132Q946 67 961 0L670 0M432 195Q505 195 572 233.50Q639 272 669 322L692 474L528 474Q439 474 382.50 427Q326 380 316 315Q307 258 338 226.50Q369 195 432 195M1033 1279L767 1279L796 1483L1062 1483L1033 1279M533 1279L267 1279L296 1483L562 1483L533 1279Z"  horiz-adv-x="1100" vert-adv-y="2048"  />

      
      <glyph glyph-name="unie5" unicode="&#xe5;" d="M670 0Q659 37 654 78.50Q649 120 650 163Q593 83 511.50 31Q430-21 328-21Q164-21 82 67.50Q0 156 23 305Q47 470 181 554.50Q315 639 553 639L717 639L730 725Q742 806 707.50 847.50Q673 889 591 889Q523 889 477.50 854.50Q432 820 424 760L143 760L142 766Q157 908 296.50 1005Q436 1102 642 1102Q830 1102 939 1003Q1048 904 1021 723L954 276Q942 197 944 132Q946 67 961 0L670 0M432 195Q505 195 572 233.50Q639 272 669 322L692 474L528 474Q439 474 382.50 427Q326 380 316 315Q307 258 338 226.50Q369 195 432 195M493 1424Q504 1499 565 1547.50Q626 1596 707 1596Q782 1596 829 1546Q876 1496 866 1424Q854 1347 794 1301Q734 1255 655 1255Q578 1255 529.50 1303Q481 1351 493 1424M609 1424Q603 1392 620.50 1372Q638 1352 670 1352Q698 1352 721 1372Q744 1392 750 1424Q755 1457 738.50 1477Q722 1497 692 1497Q662 1497 637.50 1476Q613 1455 609 1424Z"  horiz-adv-x="1100" vert-adv-y="2048"  />

      
      <glyph glyph-name="unie6" unicode="&#xe6;" d="M1197-21Q1073-21 979.50 21Q886 63 828 141Q759 70 650 24.50Q541-21 399-21Q214-21 119.50 70.50Q25 162 49 317Q73 482 210.50 565Q348 648 594 648L775 648L784 707Q796 789 763 833Q730 877 655 877Q577 877 523 839Q469 801 461 746L182 764L181 770Q198 920 337.50 1011Q477 1102 691 1102Q788 1102 867 1075Q946 1048 999 996Q1068 1048 1155 1075Q1242 1102 1342 1102Q1546 1102 1651.50 969Q1757 836 1724 612L1700 454L1049 454L1047 449Q1033 334 1084 268.50Q1135 203 1261 203Q1349 203 1417.50 223.50Q1486 244 1569 284L1618 100Q1548 52 1435.50 15.50Q1323-21 1197-21M485 185Q541 185 609.50 216Q678 247 721 289L747 464L569 464Q476 464 412 419Q348 374 339 313Q329 252 365.50 218.50Q402 185 485 185M1309 877Q1219 877 1160.50 815Q1102 753 1079 650L1081 644L1442 644L1446 672Q1460 769 1426.50 823Q1393 877 1309 877Z"  horiz-adv-x="1771" vert-adv-y="2048"  />

      
      <glyph glyph-name="unie7" unicode="&#xe7;" d="M514 203Q587 203 640.50 249Q694 295 706 370L971 370L973 364Q951 194 810.50 86.50Q670-21 481-21Q250-21 137.50 134.50Q25 290 61 525L65 555Q102 802 254 952Q406 1102 647 1102Q838 1102 945.50 987Q1053 872 1021 687L1019 682L752 682Q765 768 729.50 822.50Q694 877 614 877Q505 877 441.50 785Q378 693 357 555L353 525Q330 376 364 289.50Q398 203 514 203M588 4L568-53Q630-64 667-105Q704-146 692-226Q675-337 575.50-399Q476-461 306-461L323-300Q372-300 406-279.50Q440-259 447-217Q453-174 424.50-158.50Q396-143 317-138L369 4L588 4Z"  horiz-adv-x="1056" vert-adv-y="2048"  />

      
      <glyph glyph-name="unie8" unicode="&#xe8;" d="M498-21Q266-21 147 129.50Q28 280 64 510L70 550Q107 802 260.50 952.50Q414 1103 647 1102Q857 1102 957.50 967Q1058 832 1024 609L1002 458L356 458L354 453Q342 338 392 270.50Q442 203 562 203Q656 203 731 223.50Q806 244 883 284L935 104Q861 51 745 15Q629-21 498-21M614 877Q530 877 472.50 816Q415 755 389 657L391 651L745 651L748 673Q763 771 732.50 824Q702 877 614 877M783 1279L532 1279L297 1540L299 1545L625 1545L783 1279Z"  horiz-adv-x="1071" vert-adv-y="2048"  />

      
      <glyph glyph-name="unie9" unicode="&#xe9;" d="M498-21Q266-21 147 129.50Q28 280 64 510L70 550Q107 802 260.50 952.50Q414 1103 647 1102Q857 1102 957.50 967Q1058 832 1024 609L1002 458L356 458L354 453Q342 338 392 270.50Q442 203 562 203Q656 203 731 223.50Q806 244 883 284L935 104Q861 51 745 15Q629-21 498-21M614 877Q530 877 472.50 816Q415 755 389 657L391 651L745 651L748 673Q763 771 732.50 824Q702 877 614 877M739 1545L1063 1545L1065 1539L751 1279L509 1279L507 1284L739 1545Z"  horiz-adv-x="1071" vert-adv-y="2048"  />

      
      <glyph glyph-name="uniea" unicode="&#xea;" d="M498-21Q266-21 147 129.50Q28 280 64 510L70 550Q107 802 260.50 952.50Q414 1103 647 1102Q857 1102 957.50 967Q1058 832 1024 609L1002 458L356 458L354 453Q342 338 392 270.50Q442 203 562 203Q656 203 731 223.50Q806 244 883 284L935 104Q861 51 745 15Q629-21 498-21M614 877Q530 877 472.50 816Q415 755 389 657L391 651L745 651L748 673Q763 771 732.50 824Q702 877 614 877M1025 1294L1022 1271L790 1271L670 1404L511 1271L284 1271L288 1297L606 1537L775 1537L1025 1294Z"  horiz-adv-x="1071" vert-adv-y="2048"  />

      
      <glyph glyph-name="unieb" unicode="&#xeb;" d="M498-21Q266-21 147 129.50Q28 280 64 510L70 550Q107 802 260.50 952.50Q414 1103 647 1102Q857 1102 957.50 967Q1058 832 1024 609L1002 458L356 458L354 453Q342 338 392 270.50Q442 203 562 203Q656 203 731 223.50Q806 244 883 284L935 104Q861 51 745 15Q629-21 498-21M614 877Q530 877 472.50 816Q415 755 389 657L391 651L745 651L748 673Q763 771 732.50 824Q702 877 614 877M1026 1280L760 1280L789 1484L1055 1484L1026 1280M526 1280L260 1280L289 1484L555 1484L526 1280Z"  horiz-adv-x="1071" vert-adv-y="2048"  />

      
      <glyph glyph-name="uniec" unicode="&#xec;" d="M345 0L53 0L215 1082L507 1082L345 0M522 1257L271 1257L36 1518L38 1523L364 1523L522 1257Z"  horiz-adv-x="562" vert-adv-y="2048"  />

      
      <glyph glyph-name="unied" unicode="&#xed;" d="M345 0L53 0L215 1082L507 1082L345 0M477 1523L801 1523L803 1517L489 1257L247 1257L245 1262L477 1523Z"  horiz-adv-x="562" vert-adv-y="2048"  />

      
      <glyph glyph-name="uniee" unicode="&#xee;" d="M345 0L53 0L215 1082L507 1082L345 0M764 1273L761 1250L529 1250L409 1383L250 1250L23 1250L27 1276L345 1516L514 1516L764 1273Z"  horiz-adv-x="562" vert-adv-y="2048"  />

      
      <glyph glyph-name="unief" unicode="&#xef;" d="M345 0L53 0L215 1082L507 1082L345 0M765 1258L499 1258L528 1462L794 1462L765 1258M265 1258L-1 1258L28 1462L294 1462L265 1258Z"  horiz-adv-x="562" vert-adv-y="2048"  />

      
      <glyph glyph-name="unif0" unicode="&#xf0;" d="M1034 1290Q1121 1184 1156 1045Q1191 906 1167 742L1138 546Q1099 286 920.50 132.50Q742-21 504-21Q275-21 141 121Q7 263 38 468Q73 703 226 835Q379 967 613 967Q692 967 761.50 939.50Q831 912 877 865L881 869Q881 958 852.50 1029.50Q824 1101 772 1156L503 1018L442 1131L652 1238L651 1244Q624 1259 589 1272.50Q554 1286 513 1299L638 1517Q724 1498 799 1464.50Q874 1431 936 1384L1150 1493L1210 1380L1034 1290M541 203Q653 203 738.50 300.50Q824 398 846 546L864 664Q836 703 775 729Q714 755 627 755Q510 755 429.50 675Q349 595 330 468Q313 352 369 277.50Q425 203 541 203Z"  horiz-adv-x="1218" vert-adv-y="2048"  />

      
      <glyph glyph-name="unif1" unicode="&#xf1;" d="M452 933Q517 1014 603 1058Q689 1102 787 1102Q945 1102 1024 995Q1103 888 1069 663L970 0L677 0L776 662Q794 782 761.50 828.50Q729 875 646 875Q582 875 528.50 849.50Q475 824 436 779L319 0L27 0L189 1082L461 1082L452 933M1092 1534Q1078 1435 1009.50 1369Q941 1303 849 1303Q783 1303 699 1346.50Q615 1390 563 1390Q528 1390 498.50 1357.50Q469 1325 463 1280L313 1322Q326 1419 395 1487Q464 1555 555 1555Q608 1555 699 1511.50Q790 1468 843 1468Q876 1468 906.50 1500.50Q937 1533 944 1579L1092 1534Z"  horiz-adv-x="1156" vert-adv-y="2048"  />

      
      <glyph glyph-name="unif2" unicode="&#xf2;" d="M70 551Q107 802 263.50 952Q420 1102 661 1102Q892 1102 1009 946Q1126 790 1091 551L1088 530Q1049 277 893 128Q737-21 495-21Q264-21 147 134.50Q30 290 67 530L70 551M358 530Q334 377 373 290Q412 203 528 203Q636 203 705 294Q774 385 796 530L799 551Q820 700 781.50 788.50Q743 877 628 877Q519 877 450 784.50Q381 692 361 551L358 530M821 1278L570 1278L335 1539L337 1544L663 1544L821 1278Z"  horiz-adv-x="1156" vert-adv-y="2048"  />

      
      <glyph glyph-name="unif3" unicode="&#xf3;" d="M70 551Q107 802 263.50 952Q420 1102 661 1102Q892 1102 1009 946Q1126 790 1091 551L1088 530Q1049 277 893 128Q737-21 495-21Q264-21 147 134.50Q30 290 67 530L70 551M358 530Q334 377 373 290Q412 203 528 203Q636 203 705 294Q774 385 796 530L799 551Q820 700 781.50 788.50Q743 877 628 877Q519 877 450 784.50Q381 692 361 551L358 530M777 1544L1101 1544L1103 1538L789 1278L547 1278L545 1283L777 1544Z"  horiz-adv-x="1156" vert-adv-y="2048"  />

      
      <glyph glyph-name="unif4" unicode="&#xf4;" d="M70 551Q107 802 263.50 952Q420 1102 661 1102Q892 1102 1009 946Q1126 790 1091 551L1088 530Q1049 277 893 128Q737-21 495-21Q264-21 147 134.50Q30 290 67 530L70 551M358 530Q334 377 373 290Q412 203 528 203Q636 203 705 294Q774 385 796 530L799 551Q820 700 781.50 788.50Q743 877 628 877Q519 877 450 784.50Q381 692 361 551L358 530M1063 1293L1060 1270L828 1270L708 1403L549 1270L322 1270L326 1296L644 1536L813 1536L1063 1293Z"  horiz-adv-x="1156" vert-adv-y="2048"  />

      
      <glyph glyph-name="unif5" unicode="&#xf5;" d="M70 551Q107 802 263.50 952Q420 1102 661 1102Q892 1102 1009 946Q1126 790 1091 551L1088 530Q1049 277 893 128Q737-21 495-21Q264-21 147 134.50Q30 290 67 530L70 551M358 530Q334 377 373 290Q412 203 528 203Q636 203 705 294Q774 385 796 530L799 551Q820 700 781.50 788.50Q743 877 628 877Q519 877 450 784.50Q381 692 361 551L358 530M1092 1534Q1078 1435 1009.50 1369Q941 1303 849 1303Q783 1303 699 1346.50Q615 1390 563 1390Q528 1390 498.50 1357.50Q469 1325 463 1280L313 1322Q326 1419 395 1487Q464 1555 555 1555Q608 1555 699 1511.50Q790 1468 843 1468Q876 1468 906.50 1500.50Q937 1533 944 1579L1092 1534Z"  horiz-adv-x="1156" vert-adv-y="2048"  />

      
      <glyph glyph-name="unif6" unicode="&#xf6;" d="M70 551Q107 802 263.50 952Q420 1102 661 1102Q892 1102 1009 946Q1126 790 1091 551L1088 530Q1049 277 893 128Q737-21 495-21Q264-21 147 134.50Q30 290 67 530L70 551M358 530Q334 377 373 290Q412 203 528 203Q636 203 705 294Q774 385 796 530L799 551Q820 700 781.50 788.50Q743 877 628 877Q519 877 450 784.50Q381 692 361 551L358 530M1064 1279L798 1279L827 1483L1093 1483L1064 1279M564 1279L298 1279L327 1483L593 1483L564 1279Z"  horiz-adv-x="1156" vert-adv-y="2048"  />

      
      <glyph glyph-name="unif7" unicode="&#xf7;" d="M1098 573L69 573L103 800L1132 800L1098 573M791 973L498 973L533 1206L826 1206L791 973M670 164L377 164L412 397L705 397L670 164Z"  horiz-adv-x="1168" vert-adv-y="2048"  />

      
      <glyph glyph-name="unif8" unicode="&#xf8;" d="M70 551Q107 802 263.50 952Q420 1102 661 1102Q711 1102 757 1093.50Q803 1085 843 1070L935 1215L1096 1215L959 1000Q1043 926 1077 809.50Q1111 693 1091 551L1088 530Q1049 277 893 128Q737-21 495-21Q448-21 405.50-14Q363-7 324 6L230-141L69-141L206 73Q117 146 80.50 265Q44 384 67 530L70 551M358 530Q348 466 348.50 413.50Q349 361 362 328L368 327L709 861Q692 868 671.50 872.50Q651 877 628 877Q519 877 450 784.50Q381 692 361 551L358 530M799 551Q807 607 806.50 655Q806 703 797 735L791 737L457 214Q471 208 488.50 205.50Q506 203 528 203Q636 203 705 294Q774 385 796 530L799 551Z"  horiz-adv-x="1156" vert-adv-y="2048"  />

      
      <glyph glyph-name="unif9" unicode="&#xf9;" d="M719 155Q657 69 573 24Q489-21 386-21Q221-21 139 96Q57 213 93 455L187 1082L478 1082L384 453Q362 306 392.50 256Q423 206 505 206Q573 206 627.50 230Q682 254 721 299L838 1082L1130 1082L968 0L726 0L719 155M817 1257L566 1257L331 1518L333 1523L659 1523L817 1257Z"  horiz-adv-x="1156" vert-adv-y="2048"  />

      
      <glyph glyph-name="unifa" unicode="&#xfa;" d="M719 155Q657 69 573 24Q489-21 386-21Q221-21 139 96Q57 213 93 455L187 1082L478 1082L384 453Q362 306 392.50 256Q423 206 505 206Q573 206 627.50 230Q682 254 721 299L838 1082L1130 1082L968 0L726 0L719 155M773 1523L1097 1523L1099 1517L785 1257L543 1257L541 1262L773 1523Z"  horiz-adv-x="1156" vert-adv-y="2048"  />

      
      <glyph glyph-name="unifb" unicode="&#xfb;" d="M719 155Q657 69 573 24Q489-21 386-21Q221-21 139 96Q57 213 93 455L187 1082L478 1082L384 453Q362 306 392.50 256Q423 206 505 206Q573 206 627.50 230Q682 254 721 299L838 1082L1130 1082L968 0L726 0L719 155M1059 1273L1056 1250L824 1250L704 1383L545 1250L318 1250L322 1276L640 1516L809 1516L1059 1273Z"  horiz-adv-x="1156" vert-adv-y="2048"  />

      
      <glyph glyph-name="unifc" unicode="&#xfc;" d="M719 155Q657 69 573 24Q489-21 386-21Q221-21 139 96Q57 213 93 455L187 1082L478 1082L384 453Q362 306 392.50 256Q423 206 505 206Q573 206 627.50 230Q682 254 721 299L838 1082L1130 1082L968 0L726 0L719 155M1060 1258L794 1258L823 1462L1089 1462L1060 1258M560 1258L294 1258L323 1462L589 1462L560 1258Z"  horiz-adv-x="1156" vert-adv-y="2048"  />

      
      <glyph glyph-name="unifd" unicode="&#xfd;" d="M490 454L492 395L498 394L809 1082L1123 1082L498-162Q435-278 343.50-357.50Q252-437 94-437Q59-437 27.50-431Q-4-425-47-414L19-201Q31-203 46-205Q61-207 73-207Q142-207 188-170.50Q234-134 263-83L309 0L87 1082L401 1082L490 454M720 1523L1044 1523L1046 1517L732 1257L490 1257L488 1262L720 1523Z"  horiz-adv-x="1046" vert-adv-y="2048"  />

      
      <glyph glyph-name="unife" unicode="&#xfe;" d="M1095 511Q1057 262 926 120.50Q795-21 594-21Q511-21 450 12.50Q389 46 349 110L333 0L271-416L-20-416L42 0L41 0L275 1560L567 1560L478 969Q535 1033 605 1067.50Q675 1102 760 1102Q953 1102 1044 943.50Q1135 785 1098 532L1095 511M806 532Q829 689 792.50 782Q756 875 650 875Q586 875 535 846.50Q484 818 448 766L377 298Q397 251 440 227Q483 203 551 203Q653 203 717 287Q781 371 803 511L806 532Z"  horiz-adv-x="1162" vert-adv-y="2048"  />

      
      <glyph glyph-name="uniff" unicode="&#xff;" d="M490 454L492 395L498 394L809 1082L1123 1082L498-162Q435-278 343.50-357.50Q252-437 94-437Q59-437 27.50-431Q-4-425-47-414L19-201Q31-203 46-205Q61-207 73-207Q142-207 188-170.50Q234-134 263-83L309 0L87 1082L401 1082L490 454M1008 1258L742 1258L771 1462L1037 1462L1008 1258M508 1258L242 1258L271 1462L537 1462L508 1258Z"  horiz-adv-x="1046" vert-adv-y="2048"  />

      
      <glyph glyph-name="uni0100" unicode="&#x0100;" d="M861 314L388 314L243 0L-62 0L647 1456L946 1456L1217 0L912 0L861 314M495 543L823 543L740 1057L734 1058L495 543M1174 1613L443 1613L466 1778L1197 1778L1174 1613Z"  horiz-adv-x="1303" vert-adv-y="2048"  />

      
      <glyph glyph-name="uni0101" unicode="&#x0101;" d="M670 0Q659 37 654 78.50Q649 120 650 163Q593 83 511.50 31Q430-21 328-21Q164-21 82 67.50Q0 156 23 305Q47 470 181 554.50Q315 639 553 639L717 639L730 725Q742 806 707.50 847.50Q673 889 591 889Q523 889 477.50 854.50Q432 820 424 760L143 760L142 766Q157 908 296.50 1005Q436 1102 642 1102Q830 1102 939 1003Q1048 904 1021 723L954 276Q942 197 944 132Q946 67 961 0L670 0M432 195Q505 195 572 233.50Q639 272 669 322L692 474L528 474Q439 474 382.50 427Q326 380 316 315Q307 258 338 226.50Q369 195 432 195M1019 1292L288 1292L311 1457L1042 1457L1019 1292Z"  horiz-adv-x="1100" vert-adv-y="2048"  />

      
      <glyph glyph-name="uni0102" unicode="&#x0102;" d="M861 314L388 314L243 0L-62 0L647 1456L946 1456L1217 0L912 0L861 314M495 543L823 543L740 1057L734 1058L495 543M1187 1896L1188 1890Q1174 1758 1070.50 1680Q967 1602 808 1602Q655 1602 569.50 1683Q484 1764 507 1890L509 1896L723 1896Q714 1841 740 1808Q766 1775 832 1775Q893 1775 929 1809.50Q965 1844 973 1896L1187 1896Z"  horiz-adv-x="1303" vert-adv-y="2048"  />

      
      <glyph glyph-name="uni0103" unicode="&#x0103;" d="M670 0Q659 37 654 78.50Q649 120 650 163Q593 83 511.50 31Q430-21 328-21Q164-21 82 67.50Q0 156 23 305Q47 470 181 554.50Q315 639 553 639L717 639L730 725Q742 806 707.50 847.50Q673 889 591 889Q523 889 477.50 854.50Q432 820 424 760L143 760L142 766Q157 908 296.50 1005Q436 1102 642 1102Q830 1102 939 1003Q1048 904 1021 723L954 276Q942 197 944 132Q946 67 961 0L670 0M432 195Q505 195 572 233.50Q639 272 669 322L692 474L528 474Q439 474 382.50 427Q326 380 316 315Q307 258 338 226.50Q369 195 432 195M1032 1574L1033 1568Q1019 1436 915.50 1358Q812 1280 653 1280Q500 1280 414.50 1361Q329 1442 352 1568L354 1574L568 1574Q559 1519 585 1486Q611 1453 677 1453Q738 1453 774 1487.50Q810 1522 818 1574L1032 1574Z"  horiz-adv-x="1100" vert-adv-y="2048"  />

      
      <glyph glyph-name="uni0104" unicode="&#x0104;" d="M861 314L388 314L243 0L-62 0L647 1456L946 1456L1217 0L912 0L861 314M495 543L823 543L740 1057L734 1058L495 543M1133 0Q1072-52 1041-89.50Q1010-127 1003-176Q998-204 1011.50-225Q1025-246 1078-246Q1105-246 1128.50-240Q1152-234 1175-226L1187-380Q1149-399 1102-411.50Q1055-424 994-424Q890-424 827-367Q764-310 779-210Q792-130 847.50-62.50Q903 5 1010 60L1133 0Z"  horiz-adv-x="1303" vert-adv-y="2048"  />

      
      <glyph glyph-name="uni0105" unicode="&#x0105;" d="M670 0Q659 37 654 78.50Q649 120 650 163Q593 83 511.50 31Q430-21 328-21Q164-21 82 67.50Q0 156 23 305Q47 470 181 554.50Q315 639 553 639L717 639L730 725Q742 806 707.50 847.50Q673 889 591 889Q523 889 477.50 854.50Q432 820 424 760L143 760L142 766Q157 908 296.50 1005Q436 1102 642 1102Q830 1102 939 1003Q1048 904 1021 723L954 276Q942 197 944 132Q946 67 961 0L670 0M432 195Q505 195 572 233.50Q639 272 669 322L692 474L528 474Q439 474 382.50 427Q326 380 316 315Q307 258 338 226.50Q369 195 432 195M876 0Q815-52 784-89.50Q753-127 746-176Q741-204 754.50-225Q768-246 821-246Q848-246 871.50-240Q895-234 918-226L930-380Q892-399 845-411.50Q798-424 737-424Q633-424 570-367Q507-310 522-210Q535-130 590.50-62.50Q646 5 753 60L876 0Z"  horiz-adv-x="1100" vert-adv-y="2048"  />

      
      <glyph glyph-name="uni0106" unicode="&#x0106;" d="M1217 482L1219 476Q1187 234 1024 106.50Q861-21 600-21Q348-21 207.50 149Q67 319 106 583L150 872Q191 1148 371.50 1312.50Q552 1477 810 1477Q1066 1477 1201 1345.50Q1336 1214 1297 981L1294 975L1010 975Q1032 1120 975 1186Q918 1252 776 1252Q650 1252 558 1145Q466 1038 441 874L397 583Q371 409 432.50 306Q494 203 633 203Q759 203 836.50 272.50Q914 342 935 482L1217 482M930 1887L1254 1887L1256 1881L942 1621L700 1621L698 1626L930 1887Z"  horiz-adv-x="1303" vert-adv-y="2048"  />

      
      <glyph glyph-name="uni0107" unicode="&#x0107;" d="M514 203Q587 203 640.50 249Q694 295 706 370L971 370L973 364Q951 194 810.50 86.50Q670-21 481-21Q250-21 137.50 134.50Q25 290 61 525L65 555Q102 802 254 952Q406 1102 647 1102Q838 1102 945.50 987Q1053 872 1021 687L1019 682L752 682Q765 768 729.50 822.50Q694 877 614 877Q505 877 441.50 785Q378 693 357 555L353 525Q330 376 364 289.50Q398 203 514 203M734 1544L1058 1544L1060 1538L746 1278L504 1278L502 1283L734 1544Z"  horiz-adv-x="1056" vert-adv-y="2048"  />

      
      <glyph glyph-name="uni0108" unicode="&#x0108;" d="M1217 482L1219 476Q1187 234 1024 106.50Q861-21 600-21Q348-21 207.50 149Q67 319 106 583L150 872Q191 1148 371.50 1312.50Q552 1477 810 1477Q1066 1477 1201 1345.50Q1336 1214 1297 981L1294 975L1010 975Q1032 1120 975 1186Q918 1252 776 1252Q650 1252 558 1145Q466 1038 441 874L397 583Q371 409 432.50 306Q494 203 633 203Q759 203 836.50 272.50Q914 342 935 482L1217 482M1216 1636L1213 1613L981 1613L861 1746L702 1613L475 1613L479 1639L797 1879L966 1879L1216 1636Z"  horiz-adv-x="1303" vert-adv-y="2048"  />

      
      <glyph glyph-name="uni0109" unicode="&#x0109;" d="M514 203Q587 203 640.50 249Q694 295 706 370L971 370L973 364Q951 194 810.50 86.50Q670-21 481-21Q250-21 137.50 134.50Q25 290 61 525L65 555Q102 802 254 952Q406 1102 647 1102Q838 1102 945.50 987Q1053 872 1021 687L1019 682L752 682Q765 768 729.50 822.50Q694 877 614 877Q505 877 441.50 785Q378 693 357 555L353 525Q330 376 364 289.50Q398 203 514 203M1020 1293L1017 1270L785 1270L665 1403L506 1270L279 1270L283 1296L601 1536L770 1536L1020 1293Z"  horiz-adv-x="1056" vert-adv-y="2048"  />

      
      <glyph glyph-name="uni010A" unicode="&#x010A;" d="M1217 482L1219 476Q1187 234 1024 106.50Q861-21 600-21Q348-21 207.50 149Q67 319 106 583L150 872Q191 1148 371.50 1312.50Q552 1477 810 1477Q1066 1477 1201 1345.50Q1336 1214 1297 981L1294 975L1010 975Q1032 1120 975 1186Q918 1252 776 1252Q650 1252 558 1145Q466 1038 441 874L397 583Q371 409 432.50 306Q494 203 633 203Q759 203 836.50 272.50Q914 342 935 482L1217 482M1006 1622L679 1622L715 1863L1042 1863L1006 1622Z"  horiz-adv-x="1303" vert-adv-y="2048"  />

      
      <glyph glyph-name="uni010B" unicode="&#x010B;" d="M514 203Q587 203 640.50 249Q694 295 706 370L971 370L973 364Q951 194 810.50 86.50Q670-21 481-21Q250-21 137.50 134.50Q25 290 61 525L65 555Q102 802 254 952Q406 1102 647 1102Q838 1102 945.50 987Q1053 872 1021 687L1019 682L752 682Q765 768 729.50 822.50Q694 877 614 877Q505 877 441.50 785Q378 693 357 555L353 525Q330 376 364 289.50Q398 203 514 203M810 1279L483 1279L519 1520L846 1520L810 1279Z"  horiz-adv-x="1056" vert-adv-y="2048"  />

      
      <glyph glyph-name="uni010C" unicode="&#x010C;" d="M1217 482L1219 476Q1187 234 1024 106.50Q861-21 600-21Q348-21 207.50 149Q67 319 106 583L150 872Q191 1148 371.50 1312.50Q552 1477 810 1477Q1066 1477 1201 1345.50Q1336 1214 1297 981L1294 975L1010 975Q1032 1120 975 1186Q918 1252 776 1252Q650 1252 558 1145Q466 1038 441 874L397 583Q371 409 432.50 306Q494 203 633 203Q759 203 836.50 272.50Q914 342 935 482L1217 482M864 1767L1000 1894L1264 1894L1261 1877L942 1622L743 1622L500 1878L503 1894L767 1894L864 1767Z"  horiz-adv-x="1303" vert-adv-y="2048"  />

      
      <glyph glyph-name="uni010D" unicode="&#x010D;" d="M514 203Q587 203 640.50 249Q694 295 706 370L971 370L973 364Q951 194 810.50 86.50Q670-21 481-21Q250-21 137.50 134.50Q25 290 61 525L65 555Q102 802 254 952Q406 1102 647 1102Q838 1102 945.50 987Q1053 872 1021 687L1019 682L752 682Q765 768 729.50 822.50Q694 877 614 877Q505 877 441.50 785Q378 693 357 555L353 525Q330 376 364 289.50Q398 203 514 203M667 1424L803 1551L1067 1551L1064 1534L745 1279L546 1279L303 1535L306 1551L570 1551L667 1424Z"  horiz-adv-x="1056" vert-adv-y="2048"  />

      
      <glyph glyph-name="uni010E" unicode="&#x010E;" d="M54 0L272 1456L780 1456Q1037 1456 1189 1284Q1341 1112 1302 848L1266 607Q1224 329 1028 164.50Q832 0 562 0L54 0M530 1231L379 224L596 224Q734 224 841 332.50Q948 441 973 607L1010 850Q1035 1023 963.50 1127Q892 1231 747 1231L530 1231M771 1746L907 1873L1171 1873L1168 1856L849 1601L650 1601L407 1857L410 1873L674 1873L771 1746Z"  horiz-adv-x="1355" vert-adv-y="2048"  />

      
      <glyph glyph-name="uni010F" unicode="&#x010F;" d="M67 532Q106 797 238.50 949.50Q371 1102 574 1102Q653 1102 712.50 1065.50Q772 1029 813 961L903 1560L1196 1560L962 0L713 0L708 133Q646 58 570 18.50Q494-21 404-21Q213-21 120.50 127Q28 275 64 511L67 532M355 511Q332 364 368 285Q404 206 513 206Q575 206 626.50 232.50Q678 259 715 309L784 767Q762 818 719.50 846.50Q677 875 615 875Q513 875 446.50 778.50Q380 682 358 532L355 511M1498 1398L1333 1163L1211 1163L1309 1408L1332 1559L1522 1559L1498 1398Z"  horiz-adv-x="1156" vert-adv-y="2048"  />

      
      <glyph glyph-name="uni0110" unicode="&#x0110;" d="M54 0L151 652L16 652L43 833L178 833L272 1456L780 1456Q1037 1456 1189 1284Q1341 1112 1302 848L1266 607Q1224 329 1028 164.50Q832 0 562 0L54 0M687 652L443 652L379 224L596 224Q734 224 841 332.50Q948 441 973 607L1010 850Q1035 1023 963.50 1127Q892 1231 747 1231L530 1231L470 833L714 833L687 652Z"  horiz-adv-x="1355" vert-adv-y="2048"  />

      
      <glyph glyph-name="uni0111" unicode="&#x0111;" d="M1289 1220L1145 1220L962 0L713 0L708 133Q646 58 570 18.50Q494-21 404-21Q213-21 120.50 127Q28 275 64 511L67 532Q106 797 238.50 949.50Q371 1102 574 1102Q653 1102 712.50 1065.50Q772 1029 813 961L852 1220L618 1220L645 1401L879 1401L903 1560L1196 1560L1172 1401L1316 1401L1289 1220M355 511Q332 364 368 285Q404 206 513 206Q575 206 626.50 232.50Q678 259 715 309L784 767Q762 818 719.50 846.50Q677 875 615 875Q513 875 446.50 778.50Q380 682 358 532L355 511Z"  horiz-adv-x="1156" vert-adv-y="2048"  />

      
      <glyph glyph-name="uni0112" unicode="&#x0112;" d="M982 640L442 640L379 224L1022 224L988 0L54 0L272 1456L1204 1456L1171 1231L530 1231L475 865L1016 865L982 640M1122 1613L391 1613L414 1778L1145 1778L1122 1613Z"  horiz-adv-x="1139" vert-adv-y="2048"  />

      
      <glyph glyph-name="uni0113" unicode="&#x0113;" d="M498-21Q266-21 147 129.50Q28 280 64 510L70 550Q107 802 260.50 952.50Q414 1103 647 1102Q857 1102 957.50 967Q1058 832 1024 609L1002 458L356 458L354 453Q342 338 392 270.50Q442 203 562 203Q656 203 731 223.50Q806 244 883 284L935 104Q861 51 745 15Q629-21 498-21M614 877Q530 877 472.50 816Q415 755 389 657L391 651L745 651L748 673Q763 771 732.50 824Q702 877 614 877M1012 1292L281 1292L304 1457L1035 1457L1012 1292Z"  horiz-adv-x="1071" vert-adv-y="2048"  />

      
      <glyph glyph-name="uni0114" unicode="&#x0114;" d="M982 640L442 640L379 224L1022 224L988 0L54 0L272 1456L1204 1456L1171 1231L530 1231L475 865L1016 865L982 640M1135 1896L1136 1890Q1122 1758 1018.50 1680Q915 1602 756 1602Q603 1602 517.50 1683Q432 1764 455 1890L457 1896L671 1896Q662 1841 688 1808Q714 1775 780 1775Q841 1775 877 1809.50Q913 1844 921 1896L1135 1896Z"  horiz-adv-x="1139" vert-adv-y="2048"  />

      
      <glyph glyph-name="uni0115" unicode="&#x0115;" d="M498-21Q266-21 147 129.50Q28 280 64 510L70 550Q107 802 260.50 952.50Q414 1103 647 1102Q857 1102 957.50 967Q1058 832 1024 609L1002 458L356 458L354 453Q342 338 392 270.50Q442 203 562 203Q656 203 731 223.50Q806 244 883 284L935 104Q861 51 745 15Q629-21 498-21M614 877Q530 877 472.50 816Q415 755 389 657L391 651L745 651L748 673Q763 771 732.50 824Q702 877 614 877M1025 1575L1026 1569Q1012 1437 908.50 1359Q805 1281 646 1281Q493 1281 407.50 1362Q322 1443 345 1569L347 1575L561 1575Q552 1520 578 1487Q604 1454 670 1454Q731 1454 767 1488.50Q803 1523 811 1575L1025 1575Z"  horiz-adv-x="1071" vert-adv-y="2048"  />

      
      <glyph glyph-name="uni0116" unicode="&#x0116;" d="M982 640L442 640L379 224L1022 224L988 0L54 0L272 1456L1204 1456L1171 1231L530 1231L475 865L1016 865L982 640M925 1601L598 1601L634 1842L961 1842L925 1601Z"  horiz-adv-x="1139" vert-adv-y="2048"  />

      
      <glyph glyph-name="uni0117" unicode="&#x0117;" d="M498-21Q266-21 147 129.50Q28 280 64 510L70 550Q107 802 260.50 952.50Q414 1103 647 1102Q857 1102 957.50 967Q1058 832 1024 609L1002 458L356 458L354 453Q342 338 392 270.50Q442 203 562 203Q656 203 731 223.50Q806 244 883 284L935 104Q861 51 745 15Q629-21 498-21M614 877Q530 877 472.50 816Q415 755 389 657L391 651L745 651L748 673Q763 771 732.50 824Q702 877 614 877M815 1280L488 1280L524 1521L851 1521L815 1280Z"  horiz-adv-x="1071" vert-adv-y="2048"  />

      
      <glyph glyph-name="uni0118" unicode="&#x0118;" d="M982 640L442 640L379 224L1022 224L988 0L54 0L272 1456L1204 1456L1171 1231L530 1231L475 865L1016 865L982 640M595 0Q534-52 503-89.50Q472-127 465-176Q460-204 473.50-225Q487-246 540-246Q567-246 590.50-240Q614-234 637-226L649-380Q611-399 564-411.50Q517-424 456-424Q352-424 289-367Q226-310 241-210Q254-130 309.50-62.50Q365 5 472 60L595 0Z"  horiz-adv-x="1139" vert-adv-y="2048"  />

      
      <glyph glyph-name="uni0119" unicode="&#x0119;" d="M498-21Q266-21 147 129.50Q28 280 64 510L70 550Q107 802 260.50 952.50Q414 1103 647 1102Q857 1102 957.50 967Q1058 832 1024 609L1002 458L356 458L354 453Q342 338 392 270.50Q442 203 562 203Q656 203 731 223.50Q806 244 883 284L935 104Q861 51 745 15Q629-21 498-21M614 877Q530 877 472.50 816Q415 755 389 657L391 651L745 651L748 673Q763 771 732.50 824Q702 877 614 877M802 42Q741-10 710-47.50Q679-85 672-134Q667-162 680.50-183Q694-204 747-204Q774-204 797.50-198Q821-192 844-184L856-338Q818-357 771-369.50Q724-382 663-382Q559-382 496-325Q433-268 448-168Q461-88 516.50-20.50Q572 47 679 102L802 42Z"  horiz-adv-x="1071" vert-adv-y="2048"  />

      
      <glyph glyph-name="uni011A" unicode="&#x011A;" d="M982 640L442 640L379 224L1022 224L988 0L54 0L272 1456L1204 1456L1171 1231L530 1231L475 865L1016 865L982 640M782 1746L918 1873L1182 1873L1179 1856L860 1601L661 1601L418 1857L421 1873L685 1873L782 1746Z"  horiz-adv-x="1139" vert-adv-y="2048"  />

      
      <glyph glyph-name="uni011B" unicode="&#x011B;" d="M498-21Q266-21 147 129.50Q28 280 64 510L70 550Q107 802 260.50 952.50Q414 1103 647 1102Q857 1102 957.50 967Q1058 832 1024 609L1002 458L356 458L354 453Q342 338 392 270.50Q442 203 562 203Q656 203 731 223.50Q806 244 883 284L935 104Q861 51 745 15Q629-21 498-21M614 877Q530 877 472.50 816Q415 755 389 657L391 651L745 651L748 673Q763 771 732.50 824Q702 877 614 877M672 1425L808 1552L1072 1552L1069 1535L750 1280L551 1280L308 1536L311 1552L575 1552L672 1425Z"  horiz-adv-x="1071" vert-adv-y="2048"  />

      
      <glyph glyph-name="uni011C" unicode="&#x011C;" d="M1200 199Q1118 110 973.50 44.50Q829-21 616-21Q362-21 213.50 147Q65 315 105 576L151 880Q192 1154 378 1315.50Q564 1477 823 1477Q1079 1477 1207 1349Q1335 1221 1299 1013L1297 1007L1021 1007Q1039 1127 982 1189.50Q925 1252 796 1252Q667 1252 566.50 1147.50Q466 1043 442 882L396 576Q370 404 438 303.50Q506 203 649 203Q748 203 815.50 224.50Q883 246 919 277L961 559L681 559L711 761L1284 761L1200 199M1211 1636L1208 1613L976 1613L856 1746L697 1613L470 1613L474 1639L792 1879L961 1879L1211 1636Z"  horiz-adv-x="1364" vert-adv-y="2048"  />

      
      <glyph glyph-name="uni011D" unicode="&#x011D;" d="M69 532Q108 798 241 950Q374 1102 577 1102Q665 1102 728 1059Q791 1016 830 938L875 1082L1126 1082L965 5Q931-214 778-325.50Q625-437 375-437Q296-437 206-414Q116-391 44-353L126-135Q188-167 257-183.50Q326-200 409-200Q524-200 590.50-149.50Q657-99 673 6L687 104Q629 42 560 10.50Q491-21 407-21Q216-21 123 127Q30 275 66 511L69 532M358 511Q335 364 370.50 285Q406 206 515 206Q580 206 630.50 231.50Q681 257 718 305L788 770Q767 821 724.50 848Q682 875 617 875Q515 875 449 778.50Q383 682 361 532L358 511M1043 1293L1040 1270L808 1270L688 1403L529 1270L302 1270L306 1296L624 1536L793 1536L1043 1293Z"  horiz-adv-x="1156" vert-adv-y="2048"  />

      
      <glyph glyph-name="uni011E" unicode="&#x011E;" d="M1200 199Q1118 110 973.50 44.50Q829-21 616-21Q362-21 213.50 147Q65 315 105 576L151 880Q192 1154 378 1315.50Q564 1477 823 1477Q1079 1477 1207 1349Q1335 1221 1299 1013L1297 1007L1021 1007Q1039 1127 982 1189.50Q925 1252 796 1252Q667 1252 566.50 1147.50Q466 1043 442 882L396 576Q370 404 438 303.50Q506 203 649 203Q748 203 815.50 224.50Q883 246 919 277L961 559L681 559L711 761L1284 761L1200 199M1211 1917L1212 1911Q1198 1779 1094.50 1701Q991 1623 832 1623Q679 1623 593.50 1704Q508 1785 531 1911L533 1917L747 1917Q738 1862 764 1829Q790 1796 856 1796Q917 1796 953 1830.50Q989 1865 997 1917L1211 1917Z"  horiz-adv-x="1364" vert-adv-y="2048"  />

      
      <glyph glyph-name="uni011F" unicode="&#x011F;" d="M69 532Q108 798 241 950Q374 1102 577 1102Q665 1102 728 1059Q791 1016 830 938L875 1082L1126 1082L965 5Q931-214 778-325.50Q625-437 375-437Q296-437 206-414Q116-391 44-353L126-135Q188-167 257-183.50Q326-200 409-200Q524-200 590.50-149.50Q657-99 673 6L687 104Q629 42 560 10.50Q491-21 407-21Q216-21 123 127Q30 275 66 511L69 532M358 511Q335 364 370.50 285Q406 206 515 206Q580 206 630.50 231.50Q681 257 718 305L788 770Q767 821 724.50 848Q682 875 617 875Q515 875 449 778.50Q383 682 361 532L358 511M1043 1574L1044 1568Q1030 1436 926.50 1358Q823 1280 664 1280Q511 1280 425.50 1361Q340 1442 363 1568L365 1574L579 1574Q570 1519 596 1486Q622 1453 688 1453Q749 1453 785 1487.50Q821 1522 829 1574L1043 1574Z"  horiz-adv-x="1156" vert-adv-y="2048"  />

      
      <glyph glyph-name="uni0120" unicode="&#x0120;" d="M1200 199Q1118 110 973.50 44.50Q829-21 616-21Q362-21 213.50 147Q65 315 105 576L151 880Q192 1154 378 1315.50Q564 1477 823 1477Q1079 1477 1207 1349Q1335 1221 1299 1013L1297 1007L1021 1007Q1039 1127 982 1189.50Q925 1252 796 1252Q667 1252 566.50 1147.50Q466 1043 442 882L396 576Q370 404 438 303.50Q506 203 649 203Q748 203 815.50 224.50Q883 246 919 277L961 559L681 559L711 761L1284 761L1200 199M1001 1622L674 1622L710 1863L1037 1863L1001 1622Z"  horiz-adv-x="1364" vert-adv-y="2048"  />

      
      <glyph glyph-name="uni0121" unicode="&#x0121;" d="M69 532Q108 798 241 950Q374 1102 577 1102Q665 1102 728 1059Q791 1016 830 938L875 1082L1126 1082L965 5Q931-214 778-325.50Q625-437 375-437Q296-437 206-414Q116-391 44-353L126-135Q188-167 257-183.50Q326-200 409-200Q524-200 590.50-149.50Q657-99 673 6L687 104Q629 42 560 10.50Q491-21 407-21Q216-21 123 127Q30 275 66 511L69 532M358 511Q335 364 370.50 285Q406 206 515 206Q580 206 630.50 231.50Q681 257 718 305L788 770Q767 821 724.50 848Q682 875 617 875Q515 875 449 778.50Q383 682 361 532L358 511M833 1279L506 1279L542 1520L869 1520L833 1279Z"  horiz-adv-x="1156" vert-adv-y="2048"  />

      
      <glyph glyph-name="uni0122" unicode="&#x0122;" d="M1200 199Q1118 110 973.50 44.50Q829-21 616-21Q362-21 213.50 147Q65 315 105 576L151 880Q192 1154 378 1315.50Q564 1477 823 1477Q1079 1477 1207 1349Q1335 1221 1299 1013L1297 1007L1021 1007Q1039 1127 982 1189.50Q925 1252 796 1252Q667 1252 566.50 1147.50Q466 1043 442 882L396 576Q370 404 438 303.50Q506 203 649 203Q748 203 815.50 224.50Q883 246 919 277L961 559L681 559L711 761L1284 761L1200 199M658-267L493-502L371-502L469-257L492-106L682-106L658-267Z"  horiz-adv-x="1364" vert-adv-y="2048"  />

      
      <glyph glyph-name="uni0123" unicode="&#x0123;" d="M69 532Q108 798 241 950Q374 1102 577 1102Q665 1102 728 1059Q791 1016 830 938L875 1082L1126 1082L965 5Q931-214 778-325.50Q625-437 375-437Q296-437 206-414Q116-391 44-353L126-135Q188-167 257-183.50Q326-200 409-200Q524-200 590.50-149.50Q657-99 673 6L687 104Q629 42 560 10.50Q491-21 407-21Q216-21 123 127Q30 275 66 511L69 532M358 511Q335 364 370.50 285Q406 206 515 206Q580 206 630.50 231.50Q681 257 718 305L788 770Q767 821 724.50 848Q682 875 617 875Q515 875 449 778.50Q383 682 361 532L358 511M567 1433L721 1693L880 1693L804 1423L780 1258L541 1258L567 1433Z"  horiz-adv-x="1156" vert-adv-y="2048"  />

      
      <glyph glyph-name="uni0124" unicode="&#x0124;" d="M1231 0L939 0L1029 605L436 605L346 0L54 0L272 1456L564 1456L470 830L1063 830L1157 1456L1449 1456L1231 0M1254 1615L1251 1592L1019 1592L899 1725L740 1592L513 1592L517 1618L835 1858L1004 1858L1254 1615Z"  horiz-adv-x="1445" vert-adv-y="2048"  />

      
      <glyph glyph-name="uni0125" unicode="&#x0125;" d="M459 951Q522 1023 601.50 1062.50Q681 1102 771 1102Q934 1102 1016.50 988.50Q1099 875 1064 642L968 0L676 0L773 644Q792 775 759.50 825Q727 875 645 875Q579 875 526.50 852Q474 829 435 787L317 0L25 0L259 1560L551 1560L459 951M1052 1616L1049 1593L817 1593L697 1726L538 1593L311 1593L315 1619L633 1859L802 1859L1052 1616Z"  horiz-adv-x="1156" vert-adv-y="2048"  />

      
      <glyph glyph-name="uni0126" unicode="&#x0126;" d="M1418 1199L1538 1199L1512 1028L1393 1028L1239 0L947 0L1037 605L444 605L354 0L62 0L216 1028L90 1028L116 1199L241 1199L280 1456L572 1456L533 1199L1126 1199L1165 1456L1457 1456L1418 1199M478 830L1071 830L1100 1028L508 1028L478 830Z"  horiz-adv-x="1445" vert-adv-y="2048"  />

      
      <glyph glyph-name="uni0127" unicode="&#x0127;" d="M761 1217L499 1217L459 951Q522 1023 601.50 1062.50Q681 1102 771 1102Q934 1102 1016.50 988.50Q1099 875 1064 642L968 0L676 0L773 644Q792 775 759.50 825Q727 875 645 875Q579 875 526.50 852Q474 829 435 787L317 0L25 0L207 1217L90 1217L117 1398L234 1398L259 1560L551 1560L526 1398L788 1398L761 1217Z"  horiz-adv-x="1156" vert-adv-y="2048"  />

      
      <glyph glyph-name="uni0128" unicode="&#x0128;" d="M366 0L74 0L292 1456L584 1456L366 0M864 1856Q850 1757 781.50 1691Q713 1625 621 1625Q555 1625 471 1668.50Q387 1712 335 1712Q300 1712 270.50 1679.50Q241 1647 235 1602L85 1644Q98 1741 167 1809Q236 1877 327 1877Q380 1877 471 1833.50Q562 1790 615 1790Q648 1790 678.50 1822.50Q709 1855 716 1901L864 1856Z"  horiz-adv-x="601" vert-adv-y="2048"  />

      
      <glyph glyph-name="uni0129" unicode="&#x0129;" d="M345 0L53 0L215 1082L507 1082L345 0M792 1513Q778 1414 709.50 1348Q641 1282 549 1282Q483 1282 399 1325.50Q315 1369 263 1369Q228 1369 198.50 1336.50Q169 1304 163 1259L13 1301Q26 1398 95 1466Q164 1534 255 1534Q308 1534 399 1490.50Q490 1447 543 1447Q576 1447 606.50 1479.50Q637 1512 644 1558L792 1513Z"  horiz-adv-x="562" vert-adv-y="2048"  />

      
      <glyph glyph-name="uni012A" unicode="&#x012A;" d="M366 0L74 0L292 1456L584 1456L366 0M822 1613L91 1613L114 1778L845 1778L822 1613Z"  horiz-adv-x="601" vert-adv-y="2048"  />

      
      <glyph glyph-name="uni012B" unicode="&#x012B;" d="M345 0L53 0L215 1082L507 1082L345 0M751 1271L20 1271L43 1436L774 1436L751 1271Z"  horiz-adv-x="562" vert-adv-y="2048"  />

      
      <glyph glyph-name="uni012C" unicode="&#x012C;" d="M366 0L74 0L292 1456L584 1456L366 0M835 1896L836 1890Q822 1758 718.50 1680Q615 1602 456 1602Q303 1602 217.50 1683Q132 1764 155 1890L157 1896L371 1896Q362 1841 388 1808Q414 1775 480 1775Q541 1775 577 1809.50Q613 1844 621 1896L835 1896Z"  horiz-adv-x="601" vert-adv-y="2048"  />

      
      <glyph glyph-name="uni012D" unicode="&#x012D;" d="M345 0L53 0L215 1082L507 1082L345 0M764 1553L765 1547Q751 1415 647.50 1337Q544 1259 385 1259Q232 1259 146.50 1340Q61 1421 84 1547L86 1553L300 1553Q291 1498 317 1465Q343 1432 409 1432Q470 1432 506 1466.50Q542 1501 550 1553L764 1553Z"  horiz-adv-x="562" vert-adv-y="2048"  />

      
      <glyph glyph-name="uni012E" unicode="&#x012E;" d="M366 0L74 0L292 1456L584 1456L366 0M282 0Q221-52 190-89.50Q159-127 152-176Q147-204 160.50-225Q174-246 227-246Q254-246 277.50-240Q301-234 324-226L336-380Q298-399 251-411.50Q204-424 143-424Q39-424-24-367Q-87-310-72-210Q-59-130-3.50-62.50Q52 5 159 60L282 0Z"  horiz-adv-x="601" vert-adv-y="2048"  />

      
      <glyph glyph-name="uni012F" unicode="&#x012F;" d="M339 0L47 0L209 1082L501 1082L339 0M540 1341L248 1341L281 1560L573 1560L540 1341M255 0Q194-52 163-89.50Q132-127 125-176Q120-204 133.50-225Q147-246 200-246Q227-246 250.50-240Q274-234 297-226L309-380Q271-399 224-411.50Q177-424 116-424Q12-424-51-367Q-114-310-99-210Q-86-130-30.50-62.50Q25 5 132 60L255 0Z"  horiz-adv-x="547" vert-adv-y="2048"  />

      
      <glyph glyph-name="uni0130" unicode="&#x0130;" d="M366 0L74 0L292 1456L584 1456L366 0M624 1601L297 1601L333 1842L660 1842L624 1601Z"  horiz-adv-x="601" vert-adv-y="2048"  />

      
      <glyph glyph-name="uni0131" unicode="&#x0131;" d="M345 0L53 0L215 1082L507 1082L345 0Z"  horiz-adv-x="562" vert-adv-y="2048"  />

      
      <glyph glyph-name="uni0132" unicode="&#x0132;" d="M366 0L74 0L292 1456L584 1456L366 0M1453 1456L1744 1456L1594 451Q1560 226 1410.50 102.50Q1261-21 1050-21Q827-21 706 94Q585 209 621 424L624 430L908 430Q889 309 937 256Q985 203 1083 203Q1160 203 1222.50 270Q1285 337 1303 451L1453 1456Z"  horiz-adv-x="1738" vert-adv-y="2048"  />

      
      <glyph glyph-name="uni0133" unicode="&#x0133;" d="M339 0L47 0L209 1082L501 1082L339 0M540 1341L248 1341L281 1560L573 1560L540 1341M1056 1082L888-40Q858-238 743-337.50Q628-437 446-437Q408-437 374.50-433Q341-429 306-420L353-197Q375-203 398-206Q421-209 447-209Q505-209 543-167.50Q581-126 595-40L763 1082L1056 1082M1089 1343L796 1343L829 1560L1122 1560L1089 1343Z"  horiz-adv-x="1090" vert-adv-y="2048"  />

      
      <glyph glyph-name="uni0134" unicode="&#x0134;" d="M852 1456L1143 1456L993 451Q959 226 809.50 102.50Q660-21 449-21Q226-21 105 94Q-16 209 20 424L23 430L307 430Q288 309 336 256Q384 203 482 203Q559 203 621.50 270Q684 337 702 451L852 1456M1375 1611L1372 1588L1140 1588L1020 1721L861 1588L634 1588L638 1614L956 1854L1125 1854L1375 1611Z"  horiz-adv-x="1137" vert-adv-y="2048"  />

      
      <glyph glyph-name="uni0135" unicode="&#x0135;" d="M523 1082L355-40Q325-238 210.50-337.50Q96-437-86-437Q-124-437-157.50-433Q-191-429-227-420L-179-199Q-157-205-132.50-208.50Q-108-212-83-212Q-27-212 12-167Q51-122 64-40L232 1082L523 1082M756 1265L753 1242L521 1242L401 1375L242 1242L15 1242L19 1268L337 1508L506 1508L756 1265Z"  horiz-adv-x="578" vert-adv-y="2048"  />

      
      <glyph glyph-name="uni0136" unicode="&#x0136;" d="M536 604L432 604L342 0L49 0L267 1456L560 1456L471 861L573 861L984 1456L1365 1456L795 729L1167 0L831 0L536 604M614-255L449-490L327-490L425-245L448-94L638-94L614-255Z"  horiz-adv-x="1305" vert-adv-y="2048"  />

      
      <glyph glyph-name="uni0137" unicode="&#x0137;" d="M466 453L392 453L324 0L32 0L266 1560L558 1560L425 675L490 675L810 1082L1141 1082L1143 1077L722 589L1034 0L698 0L466 453M536-254L371-489L249-489L347-244L370-93L560-93L536-254Z"  horiz-adv-x="1097" vert-adv-y="2048"  />

      
      <glyph glyph-name="uni0138" unicode="&#x0138;" d="M517 405L401 405L341 0L49 0L211 1082L503 1082L441 670L529 670L869 1082L1230 1082L1232 1077L777 575L1092 0L718 0L517 405Z"  horiz-adv-x="1210" vert-adv-y="2048"  />

      
      </font>
</defs>
</svg>
