<svg width="63" height="68" viewBox="0 0 63 68" fill="none" xmlns="http://www.w3.org/2000/svg">
<path d="M54.7832 65.5087H7.5332C4.18633 65.5087 1.62695 62.9685 1.62695 59.6467V12.7501C1.62695 9.42827 4.18633 6.88804 7.5332 6.88804H54.7832C58.1301 6.88804 60.6895 9.42827 60.6895 12.7501V59.6467C60.6895 62.9685 58.1301 65.5087 54.7832 65.5087Z" stroke="white" stroke-width="3" stroke-miterlimit="10"/>
<path d="M18.3614 19.7846L11.6677 26.6237" stroke="white" stroke-width="3" stroke-miterlimit="10" stroke-linecap="round" stroke-linejoin="round"/>
<path d="M11.6677 19.7846L18.3614 26.6237" stroke="white" stroke-width="3" stroke-miterlimit="10" stroke-linecap="round" stroke-linejoin="round"/>
<path d="M15.0145 2.3938V11.9685" stroke="white" stroke-width="4" stroke-miterlimit="10" stroke-linecap="round" stroke-linejoin="round"/>
<path d="M47.3019 2.3938V11.9685" stroke="white" stroke-width="4" stroke-miterlimit="10" stroke-linecap="round" stroke-linejoin="round"/>
<path d="M34.5051 19.7846L27.8114 26.6237" stroke="white" stroke-width="3" stroke-miterlimit="10" stroke-linecap="round" stroke-linejoin="round"/>
<path d="M27.8114 19.7846L34.5051 26.6237" stroke="white" stroke-width="3" stroke-miterlimit="10" stroke-linecap="round" stroke-linejoin="round"/>
<path d="M50.8457 19.7846L43.9551 26.6237" stroke="white" stroke-width="3" stroke-miterlimit="10" stroke-linecap="round" stroke-linejoin="round"/>
<path d="M43.9551 19.7846L50.8457 26.6237" stroke="white" stroke-width="3" stroke-miterlimit="10" stroke-linecap="round" stroke-linejoin="round"/>
<path d="M18.3614 35.4168L11.6677 42.2559" stroke="white" stroke-width="3" stroke-miterlimit="10" stroke-linecap="round" stroke-linejoin="round"/>
<path d="M11.6677 35.4168L18.3614 42.2559" stroke="white" stroke-width="3" stroke-miterlimit="10" stroke-linecap="round" stroke-linejoin="round"/>
<path d="M34.5051 35.4168L27.8114 42.2559" stroke="white" stroke-width="3" stroke-miterlimit="10" stroke-linecap="round" stroke-linejoin="round"/>
<path d="M27.8114 35.4168L34.5051 42.2559" stroke="white" stroke-width="3" stroke-miterlimit="10" stroke-linecap="round" stroke-linejoin="round"/>
<path d="M47.3019 42.4513C49.259 42.4513 50.8456 40.8766 50.8456 38.9341C50.8456 36.9915 49.259 35.4168 47.3019 35.4168C45.3447 35.4168 43.7581 36.9915 43.7581 38.9341C43.7581 40.8766 45.3447 42.4513 47.3019 42.4513Z" stroke="white" stroke-width="3" stroke-miterlimit="10" stroke-linecap="round" stroke-linejoin="round"/>
<path d="M47.3019 57.888C49.259 57.888 50.8456 56.3133 50.8456 54.3708C50.8456 52.4283 49.259 50.8536 47.3019 50.8536C45.3447 50.8536 43.7581 52.4283 43.7581 54.3708C43.7581 56.3133 45.3447 57.888 47.3019 57.888Z" stroke="white" stroke-width="3" stroke-miterlimit="10" stroke-linecap="round" stroke-linejoin="round"/>
<path d="M31.1582 57.888C33.1153 57.888 34.7019 56.3133 34.7019 54.3708C34.7019 52.4283 33.1153 50.8536 31.1582 50.8536C29.201 50.8536 27.6144 52.4283 27.6144 54.3708C27.6144 56.3133 29.201 57.888 31.1582 57.888Z" stroke="white" stroke-width="3" stroke-miterlimit="10" stroke-linecap="round" stroke-linejoin="round"/>
<path d="M15.0145 57.888C16.9716 57.888 18.5582 56.3133 18.5582 54.3708C18.5582 52.4283 16.9716 50.8536 15.0145 50.8536C13.0573 50.8536 11.4707 52.4283 11.4707 54.3708C11.4707 56.3133 13.0573 57.888 15.0145 57.888Z" stroke="white" stroke-width="3" stroke-miterlimit="10" stroke-linecap="round" stroke-linejoin="round"/>
</svg>
